<svg height="40" viewBox="0 0 40 40" width="40" xmlns="http://www.w3.org/2000/svg"><path d="m29.652344 9.902344c0 .566406-.1875.859375-.554688.859375-.070312 0-.738281-.589844-1.988281-1.761719-1.402344-1.328125-2.152344-2.027344-2.222656-2.109375l.113281-.277344c.941406.367188 1.859375.730469 2.777344 1.101563 1.25.515625 1.875 1.25 1.875 2.1875zm-2.542969 3.789062c0 .046875-.058594.140625-.175781.273438-.117188.125-.1875.234375-.214844.3125-.175781 1.300781-.363281 2.609375-.542969 3.90625-.359375 2.132812-.765625 3.203125-1.203125 3.203125-.207031 0-.378906-.078125-.523437-.234375-.136719-.152344-.261719-.234375-.367188-.234375.027344 0-.582031.066406-1.828125.195312-1.472656.105469-3.664062.367188-6.566406.789063-.152344.019531-.25.203125-.292969.539062-.03125.34375-.160156.511719-.363281.511719-.207031 0-.425781-.234375-.667969-.703125-.175781-.390625-.265625-.714844-.265625-.972656 0-.140625 0-.351563 0-.652344s0-.527344 0-.683594c0-1.929687-.171875-3.460937-.519531-4.609375-.105469-.34375-.480469-.679687-1.121094-1.015625l.117188-.316406c.503906.058594 1.0625.144531 1.695312.277344l4.757813-.625v-2.539063l-.121094-.039062c-3.222656.644531-4.847656.972656-4.871094.972656-.296875 0-.679687-.214844-1.175781-.640625-.503906-.433594-.78125-.792969-.828125-1.074219l.152344-.195312c.835937.570312 1.484375.820312 1.957031.738281l4.886719-.738281v-2.386719c0-.128906-.171875-.363281-.511719-.703125-.34375-.332031-.511719-.53125-.511719-.582031 0-.109375.03125-.171875.078125-.199219h.234375c.261719 0 .726563.230469 1.390625.683594.667969.453125 1 .816406 1 1.078125 0 .070312-.066406.289062-.179687.640625-.121094.347656-.179688.632812-.179688.84375 0 .15625.015625.3125.042969.460937.625-.019531 1.566406-.132812 2.816406-.347656.074219 0 .226563-.074219.460938-.207031.238281-.148438.382812-.21875.429687-.21875.292969 0 .746094.101562 1.371094.3125.734375.203125 1.097656.414062 1.097656.625 0 .15625-.488281.269531-1.453125.351562-1.039062.078125-2.613281.210938-4.722656.386719-.027344.109375-.042969.953125-.042969 2.542969.058594.023437.121094.039062.195313.039062.476562 0 1.316406-.144531 2.519531-.429687 1.207031-.28125 1.9375-.429688 2.199219-.429688.160156 0 .507812.148438 1.046875.445313.535156.300781.800781.519531.800781.648437zm2.890625 10.261719c-.214844.160156-.566406.261719-1.074219.285156-.363281.03125-.863281.03125-1.5 0-.796875-.078125-1.203125-.113281-1.234375-.113281-.128906 0-.316406.015625-.550781.058594-.234375.035156-.421875.054687-.558594.054687-.210937 0-.367187-.035156-.472656-.113281v5.902344c0 .128906.015625.320312.058594.582031.039062.261719.054687.453125.054687.582031 0 .261719-.113281.730469-.347656 1.414063-.261719.753906-.480469 1.128906-.667969 1.128906-1.191406-1.355469-2.484375-2.394531-3.863281-3.125l.113281-.277344 2.699219.554688c.128906.023437.265625-.046875.410156-.21875.140625-.171875.214844-.335938.214844-.492188v-5.703125c-.074219-.023437-.15625-.039062-.238281-.039062-.328125 0-1.53125.171875-3.59375.507812-.828125.132813-2.371094.449219-4.609375.945313-1.324219.304687-1.976563.460937-1.949219.460937-.261719 0-.796875-.210937-1.609375-.640625-.800781-.429687-1.234375-.75-1.28125-.957031l.03125-.199219c1.027344.3125 1.871094.476563 2.542969.476563.054687 0 .753906-.101563 2.109375-.277344l8.554687-1.171875c.03125-.058594.042969-.121094.042969-.203125 0-.625-.433594-1.0625-1.292969-1.324219l.121094-.273437h.308594c.238281 0 .695312.109375 1.390625.316406.6875.203125 1.035156.390625 1.035156.542969 0 .546875 0 .796875 0 .738281 1.988281-.355469 3.015625-.542969 3.0625-.542969.625 0 1.324219.25 2.09375.746094zm-9.417969 5.089844c0 .445312-.171875.664062-.5.664062-.164062 0-.734375-.492187-1.722656-1.484375-.597656-.59375-1.199219-1.191406-1.800781-1.796875l.125-.234375c.828125.289063 1.644531.585938 2.457031.902344.964844.417969 1.441406 1.0625 1.441406 1.949219zm4.695313-14.726563c-.390625-.390625-.625-.578125-.699219-.550781l-4.34375.511719v2.460937l3.761719-.503906c.207031-.03125.523437.003906.972656.113281.09375-.472656.203125-1.144531.308594-2.03125zm-.433594 2.773438-4.609375.46875v2.929687l4.417969-.546875c.128906-1.828125.191406-2.773437.191406-2.851562zm-5.816406-.230469v-2.496094l-4.539063.683594c.1875.238281.296875.621094.351563 1.140625.03125.394531.054687.785156.078125 1.175781zm0 3.75v-2.980469l-3.953125.523438c.03125 1.660156.03125 2.609375 0 2.847656zm0 0"/></svg>