<svg height="40" viewBox="0 0 40 40" width="40" xmlns="http://www.w3.org/2000/svg"><path d="m27.105469 10.925781c0 .320313-.171875.476563-.527344.476563-.503906 0-1.152344.015625-1.921875.039062-1.019531.058594-1.644531.085938-1.886719.085938-.160156.507812-.316406 1-.484375 1.484375-.265625.722656-.519531 1.082031-.757812 1.082031-.21875 0-.324219-.183594-.324219-.558594 0-.238281.144531-.882812.4375-1.925781-.046875-.03125-.128906-.042969-.238281-.042969-.054688 0-1.429688.15625-4.132813.484375.054688-.242187.078125.167969.078125 1.246094 0 .769531-.175781 1.15625-.519531 1.15625-.214844 0-.40625-.316406-.5625-.957031-.078125-.433594-.175781-.84375-.277344-1.246094-.109375 0-.4375.066406-.96875.203125-.425781.097656-.75.15625-.96875.15625-.265625 0-.695312-.222656-1.300781-.667969-.597656-.429687-.964844-.789062-1.097656-1.054687.050781-.109375.132812-.164063.234375-.164063-.054688 0 .207031.109375.765625.34375.5625.226563 1.039062.335938 1.441406.335938.644531 0 1.246094-.054688 1.8125-.15625-.136719-.621094-.265625-1.230469-.402344-1.84375-.132812-.621094-.578125-1.148438-1.328125-1.570313.054688-.1875.136719-.285156.246094-.285156 1.042969 0 1.765625.375 2.167969 1.125.207031.402344.398437 1.234375.554687 2.496094.703125-.214844 1.945313-.324219 3.742188-.324219.613281 0 1-.285156 1.15625-.84375.082031-.238281.125-.777344.125-1.609375 0-.402344-.324219-.808594-.964844-1.246094l.125-.269531h.3125c1.503906.558594 2.261719 1 2.296875 1.316406-.484375.75-.792969 1.484375-.925781 2.210938.082031.109375.21875.15625.398437.15625.242188 0 .574219-.074219 1-.234375.433594-.167969.679688-.242188.726563-.242188.242187 0 .628906.09375 1.171875.277344.53125.191406.796875.375.796875.566406zm-.839844 4.734375s-.082031.136719-.246094.402344c-.15625.265625-.253906.425781-.28125.484375-.207031.582031-.410156 1.390625-.601562 2.402344-.242188 1.289062-.398438 2.09375-.480469 2.410156-.109375.457031-.269531.683594-.480469.683594-.191406 0-.40625-.105469-.648437-.320313-.230469-.210937-.398438-.320312-.476563-.320312-.773437 0-1.785156.066406-3.007812.195312-1.5.164063-2.496094.261719-2.980469.289063-.777344.050781-1.183594.09375-1.238281.113281-.320313.082031-.539063.375-.648438.886719-.335937.082031-.597656-.183594-.753906-.804688-.027344-.101562-.160156-1.375-.402344-3.804687-.191406-1.664063-.617187-2.808594-1.285156-3.421875l.121094-.277344c1.472656.535156 2.125.800781 1.96875.800781.375 0 .921875-.082031 1.640625-.242187.941406-.15625 1.5-.25 1.6875-.28125 1.125-.101563 2.757812-.320313 4.898437-.640625.054688-.027344.183594-.078125.402344-.164063.21875-.070312.347656-.113281.402344-.113281.238281 0 .695312.234375 1.382812.699219.683594.46875 1.027344.8125 1.027344 1.023437zm3.734375 17.464844h-1.527344c-1.609375 0-2.742187-.230469-3.421875-.683594-.265625-.191406-1.046875-1.03125-2.363281-2.523437-1.019531-1.183594-2.113281-2.320313-3.285156-3.421875-.375 1.367187-1.464844 2.742187-3.257813 4.140625-1.789062 1.390625-3.382812 2.09375-4.773437 2.09375l-.164063-.246094c1.335938-.347656 2.730469-1.167969 4.171875-2.453125 1.554688-1.363281 2.414063-2.675781 2.570313-3.933594-.53125 0-1.527344.242188-2.984375.726563-1.460938.484375-2.289063.722656-2.46875.722656-.460938 0-1.289063-.613281-2.496094-1.847656.082031-.109375.175781-.164063.28125-.164063 0 0 .261719.121094.785156.34375.515625.226563.917969.34375 1.183594.34375-.019531 0 1.953125-.3125 5.941406-.925781.167969-.375.242188-.761719.242188-1.167969 0-.691406-.320313-1.148437-.960938-1.359375l.117188-.285156h.882812c.242188 0 .609375.160156 1.101563.484375.5.316406.742187.597656.742187.84375 0 .027344-.082031.214844-.257812.558594-.171875.347656-.277344.578125-.296875.679687 1.390625.027344 3.289062-.070312 5.703125-.296875.046875 0 .164062-.039062.359375-.132812.179687-.085938.304687-.125.359375-.125.320312 0 .753906.125 1.304687.390625.542969.257812.859375.535156.945313.816406-.570313.1875-.945313.277344-1.125.277344-.292969 0-.75-.027344-1.371094-.058594-.609375-.042969-1.082031-.066406-1.402344-.066406 0 0-1.609375.035156-4.816406.082031 3.777344 3.34375 7.199219 5.644531 10.28125 6.90625zm-5.589844-17.546875c-.207031-.183594-.46875-.375-.757812-.558594l-8.828125 1.085938c.082031.472656.15625 1.21875.238281 2.203125l9.074219-.875zm-.441406 2.714844-8.707031.890625.242187 2.21875h.234375c.085938 0 .839844-.085938 2.292969-.242188 1.222656-.160156 3.089844-.351562 5.578125-.566406.082031-.511719.203125-1.277344.359375-2.300781zm0 0"/></svg>