<svg height="40" viewBox="0 0 40 40" width="40" xmlns="http://www.w3.org/2000/svg"><path d="m30 11.363281c0 .214844-.15625.367188-.453125.453125-.308594.074219-.589844.148438-.863281.203125-.765625.523438-1.921875 1.277344-3.460938 2.257813l-.207031-.164063c.609375-.679687 1.375-1.75 2.308594-3.203125-.382813-.304687-.605469-.453125-.65625-.453125-.46875 0-2.882813.203125-7.25.617188-.820313 1.8125-1.453125 3.132812-1.886719 3.988281-.707031 1.453125-1.4375 2.730469-2.183594 3.824219.027344.03125.117188.039062.25.039062 1.75 0 3.164063-.203125 4.242188-.601562.050781-.039063.363281-.601563.9375-1.71875.582031-1.121094.863281-1.746094.863281-1.882813 0-.210937-.238281-.570312-.734375-1.0625l.160156-.289062c.4375 0 .921875.195312 1.445313.570312.515625.386719.890625.796875 1.101562 1.226563-.695312.734375-1.519531 1.722656-2.457031 2.984375 1.378906 0 2.457031-.089844 3.21875-.25.0625-.027344.1875-.085938.394531-.1875.203125-.09375.335938-.148438.386719-.148438.160156 0 .496094.109375.980469.324219.488281.21875.785156.378906.898437.488281v.296875l-5.675781.5c.386719.460938.574219.742188.574219.855469 0 .265625-.0625.671875-.1875 1.21875-.121094.542969-.183594.957031-.183594 1.261719.078125.054687.171875.082031.28125.082031.277344 0 .675781-.066406 1.207031-.203125.53125-.140625.914063-.207031 1.164063-.207031s.597656.066406 1.0625.207031c.457031.136719.757812.296875.894531.484375v.292969c-.515625.132812-1.753906.203125-3.707031.203125-.414063 0-.714844.070312-.902344.207031v3.214844c.078125.023437.207031.039062.371094.039062.269531 0 .675781-.050781 1.222656-.144531.535156-.105469.949219-.144531 1.21875-.144531.238281 0 .542969.09375.875.289062.339844.1875.550781.375.628906.574219-.507812.25-.878906.371094-1.101562.371094-2.148438 0-3.214844 0-3.214844 0v4.03125h2.542969c.265625 0 .691406-.070313 1.265625-.203125.570312-.140625.988281-.210938 1.257812-.210938.226563 0 .664063.183594 1.320313.53125.648437.359375.972656.632813.972656.828125 0 .304688-.375.453125-1.144531.453125-.46875 0-1.195313-.050781-2.179688-.144531-.988281-.09375-1.734375-.144531-2.222656-.144531-1.484375 0-2.921875.070312-4.324219.207031-1.863281.199219-2.675781.292969-2.425781.292969 0 0-.480469-.074219-1.4375-.210938-.082031.386719-.292969.875-.625 1.480469h-.324219c-.410156-.957031-.613281-1.816406-.613281-2.589844 0 .246094.109375-.894531.324219-3.421875.273437-3.335937.410156-5.9375.410156-7.773437 0-.214844-.09375-.4375-.28125-.65625-.828125.960937-1.449219 1.644531-1.855469 2.054687-.796875.824219-1.503906 1.414063-2.140625 1.773438l-.082031-.25c3.972656-4.695313 6.582031-8.855469 7.824219-12.5-.117188-.027344-.226563-.046875-.335938-.046875-.328125 0-.835937.085937-1.523437.265625-.683594.179687-1.1875.273437-1.523438.273437-.21875 0-.519531-.0625-.90625-.171875-.132812 1.070313-.285156 2.148438-.453125 3.214844-.296875 1.613281-.722656 2.425781-1.269531 2.425781-.4375 0-.65625-.609375-.65625-1.8125 0-.132812.203125-.707031.613281-1.707031.40625-1 .617188-1.785156.617188-2.371094 0-.546875-.164063-1.109375-.492188-1.679687.078125-.109375.1875-.164063.328125-.164063.21875 0 .65625.414063 1.3125 1.230469 1.023438-.078125 2.542969-.246094 4.570313-.496094.628906-1.664062.945312-2.835937.945312-3.492187 0-.496094-.300781-.875-.90625-1.15625v-.324219h.789063c.210937 0 .640625.246094 1.269531.746094.636719.484375.953125.828125.953125 1.023437 0 .027344-.234375.484375-.6875 1.375-.453125.886719-.699219 1.445313-.761719 1.667969 1.292969-.078125 3.199219-.253906 5.71875-.53125.171875-.035156.414063-.128906.746094-.292969.324219-.160156.535156-.242187.613281-.242187.273438 0 .882813.320312 1.8125.960937.933594.652344 1.402344 1.09375 1.402344 1.34375zm-9.707031 11.351563v-2.46875c0-.117188-.121094-.28125-.351563-.515625-.222656-.230469-.394531-.335938-.503906-.308594l-4.089844.496094c.117188.078125.164063 1.117187.164063 3.128906.078125-.082031.257812-.105469.523437-.042969.351563.027344.554688.042969.605469.042969zm0 4.238281v-3.292969c-2.496094.1875-4.136719.292969-4.945313.292969v3.324219c.089844-.054688.183594-.074219.292969-.074219.082031 0 .230469.019531.453125.074219.171875.035156.308594.035156.417969 0zm0 4.855469v-3.746094l-3.53125.25c-.25.027344-.761719-.0625-1.539063-.25v4.238281h.835938zm0 0"/></svg>