<svg height="40" viewBox="0 0 40 40" width="40" xmlns="http://www.w3.org/2000/svg"><path d="m27.316406 11.035156c-.242187.242188-.90625.371094-1.984375.390625-.664062 0-1.3125 0-1.945312 0-.246094.03125-.617188.058594-1.109375.078125-.023438.046875-.164063.574219-.40625 1.585938-.1875.804687-.375 1.210937-.546875 1.210937h-.328125c-.101563-.222656-.148438-.425781-.148438-.625 0-.269531.070313-.914062.214844-1.953125-.046875-.039062-.125-.070312-.214844-.070312-.097656 0-1.335937.113281-3.722656.332031-.042969.09375-.066406.230469-.066406.40625 0 .125.015625.296875.054687.527344.039063.238281.054688.414062.054688.535156 0 .566406-.132813.847656-.40625.847656-.34375 0-.589844-.28125-.734375-.847656-.074219-.441406-.148438-.871094-.21875-1.28125l-3.125.546875c-.34375.078125-1.117188-.390625-2.320313-1.394531l.074219-.261719c1.105469.363281 1.777344.558594 2.019531.558594 0 0 1.078125-.132813 3.242188-.375-.054688-.511719-.121094-1.015625-.203125-1.507813-.089844-.488281-.445313-.851562-1.089844-1.097656l.078125-.261719h.878906c.171875 0 .464844.117188.886719.355469.410156.230469.636719.433594.660156.597656-.023437.445313 0 1.058594.074219 1.84375.90625-.097656 2.265625-.242187 4.078125-.441406.097656-.441406.152344-.957031.152344-1.542969 0-.46875-.246094-.957031-.742188-1.476562.078125-.140625.164063-.21875.261719-.21875.265625 0 .703125.191406 1.292969.570312.585937.382813.875.695313.875.9375 0 .074219-.085938.324219-.257813.75-.171875.4375-.269531.71875-.289062.871094h.585937c.492188 0 .871094-.03125 1.136719-.074219.097656-.023437.261719-.113281.484375-.257812.21875-.148438.347656-.226563.402344-.226563.222656 0 .648437.085938 1.285156.257813.640625.164062.988281.316406 1.066406.460937zm2.683594 21.105469-.109375.25-4.558594.113281c-1.617187-1.492187-3.648437-3.742187-6.101562-6.726562h-.554688c-.492187 1.441406-1.578125 2.847656-3.253906 4.207031s-3.308594 2.199219-4.871094 2.519531l-.078125-.257812c1.375-.542969 2.699219-1.359375 3.976563-2.460938 1.441406-1.253906 2.363281-2.488281 2.753906-3.71875-.363281.054688-1.191406.257813-2.457031.625-1.183594.320313-1.929688.480469-2.246094.480469-.371094 0-.8125-.160156-1.324219-.480469-.519531-.320312-.910156-.648437-1.175781-.992187l.066406-.261719c.886719.421875 1.460938.628906 1.730469.628906.417969 0 1.332031-.125 2.753906-.367187 1.964844-.34375 2.949219-.511719 2.949219-.511719.09375-.246094.277344-1.03125.550781-2.355469l-.113281-.070312-3.566406.582031c-.933594-.199219-1.652344-.511719-2.171875-.953125.078125-.097656.160156-.144531.257812-.144531.125 0 .3125.039062.574219.109375.253906.070312.441406.113281.566406.113281.523438 0 1.25-.078125 2.210938-.222656.757812-.101563 1.507812-.203125 2.242187-.328125.148438-.421875.226563-1.234375.226563-2.460938-1.15625.148438-2.355469.3125-3.609375.507813-.101563.144531-.199219.296875-.296875.457031-.101563.15625-.226563.246094-.367188.246094-.488281 0-.847656-.558594-1.0625-1.664063-.125-.753906-.242187-1.503906-.375-2.242187-.046875-.09375-.375-.496094-.984375-1.210938.042969-.097656.121094-.148437.214844-.148437.152344 0 .402344.066406.769531.207031.375.128906.664063.199219.886719.199219.167969 0 .785156-.070313 1.839844-.226563 1.664062-.144531 4.128906-.425781 7.390625-.835937.117187-.03125.34375-.109375.660156-.246094.324219-.128906.503906-.199219.550781-.199219.199219 0 .609375.1875 1.257813.574219.628906.375.953125.660156.953125.863281 0 .023438-.265625.574219-.796875 1.648438-.527344 1.078125-.824219 1.675781-.890625 1.765625-.132813.195312-.261719.296875-.40625.296875-.152344 0-.3125-.105469-.496094-.3125-.183594-.203125-.3125-.3125-.390625-.3125-1.472656 0-2.621094.140625-3.453125.40625-.078125.019531-.113281.21875-.113281.585937 0 .511719-.0625 1.152344-.183594 1.90625.019531.03125.074219.042969.144531.042969.152344 0 .640625-.046875 1.476563-.144531.832031-.101563 1.28125-.164063 1.34375-.183594.0625-.027344.144531-.082031.25-.171875.113281-.082031.179687-.125.207031-.125.246094 0 .65625.113281 1.230469.332031.570312.214844.863281.40625.863281.554688 0 .265625-.527344.398437-1.582031.398437-1.570313 0-2.902344.074219-4.011719.226563-.34375 1.296875-.496094 2.066406-.472656 2.3125.8125-.074219 2.03125-.171875 3.675781-.296875.441406 0 1.089844-.03125 1.949219-.105469.097656 0 .242187-.058594.425781-.171875.183594-.105469.332031-.15625.457031-.15625.34375 0 .835938.113281 1.464844.34375.746094.253906 1.109375.527344 1.109375.808594 0 .238281-.28125.351562-.847656.351562l-7.242188.039063c3.355469 3.222656 6.75 5.347656 10.183594 6.363281zm-5.625-16.203125c0-.074219-.066406-.1875-.203125-.328125-.140625-.15625-.230469-.222656-.277344-.222656l-4.597656.535156c.25.488281.375.792969.375.917969v1.175781c0 .21875.019531.363281.066406.441406h.261719c.464844 0 1.078125-.0625 1.839844-.179687 1.023437-.179688 1.648437-.277344 1.875-.304688.441406-1.28125.660156-1.960937.660156-2.035156zm-6.097656 2.78125v-2.167969c0-.039062-.0625-.148437-.171875-.3125-.117188-.15625-.1875-.242187-.246094-.242187l-4.222656.535156.664062 2.699219zm0 0"/></svg>