<svg height="40" viewBox="0 0 40 40" width="40" xmlns="http://www.w3.org/2000/svg"><path d="m30 12.8125c0 .28125-.566406.417969-1.707031.417969 1.75 0 1.03125 0-2.140625 0-2.960938 0-6.195313.390625-9.6875 1.15625-.054688.023437-.792969.222656-2.21875.59375-1.195313.320312-1.867188.476562-2.027344.476562-.265625 0-1.003906-.421875-2.21875-1.269531l.074219-.28125c1.003906.238281 1.695312.363281 2.070312.363281.417969 0 1.277344-.128906 2.578125-.394531.921875-.167969 1.839844-.339844 2.734375-.519531.109375-.324219.351563-1.179688.714844-2.578125h-.121094c-.257812 0-.679687.070312-1.25.222656-.566406.136719-.984375.214844-1.242187.214844-.453125 0-1.117188-.4375-1.992188-1.3125.027344-.15625.09375-.242188.199219-.242188.082031 0 .332031.117188.761719.339844.421875.222656.664062.339844.75.339844 0 0 .976562-.183594 2.9375-.554688.234375-.71875.359375-1.328125.359375-1.832031 0-.261719-.5-.671875-1.507813-1.222656.15625-.136719.3125-.199219.46875-.199219.429688 0 .964844.15625 1.605469.472656.652344.320313.972656.679688.972656 1.074219 0 .050781-.070312.292969-.210937.707031-.148438.433594-.226563.703125-.226563.835938.265625 0 .867188-.074219 1.792969-.230469.921875-.167969 1.503906-.296875 1.746094-.40625.050781 0 .15625-.0625.3125-.199219.164062-.128906.265625-.195312.320312-.195312.183594 0 .511719.148437.976563.4375.460937.296875.691406.519531.691406.675781 0-.046875-.394531.832031-1.1875 2.660156.046875.027344.128906.039063.230469.039063.957031 0 1.804687-.078125 2.546875-.234375.078125-.03125.195312-.105469.375-.21875.171875-.121094.269531-.183594.296875-.183594.210937 0 .632812.140625 1.265625.410156.632812.265625.957031.480469.957031.636719zm-.675781 14.113281c0 .371094-.34375.558594-1.03125.558594-.320313 0-.796875-.03125-1.449219-.097656-.644531-.0625-1.128906-.101563-1.441406-.101563-.71875 0-2.046875.117188-3.976563.355469 0-.15625 0 .4375 0 1.78125.027344.933594.015625 1.699219-.03125 2.308594-.0625.816406-.195312 1.398437-.429687 1.738281h-.386719c-.234375-.230469-.378906-.792969-.464844-1.660156-.046875-.605469-.066406-1.414063-.03125-2.417969.027344-1.457031.03125-2.003906.03125-1.636719-.046875-.019531-.113281-.03125-.195312-.03125-1.214844 0-2.984375.355469-5.320313 1.0625l-1.226562.367188c-.15625.046875-.320313.109375-.476563.15625-.613281 0-1.34375-.398438-2.21875-1.1875l.117188-.28125c.894531.179687 1.425781.28125 1.585937.28125.398438 0 1.273438-.167969 2.617188-.480469.082031-1.402344.125-2.011719.125-1.828125 0-.339844-.324219-.703125-.960938-1.074219-.472656-.265625-.945312-.507812-1.421875-.75.15625-.128906.261719-.195312.3125-.195312.03125 0 .601563.113281 1.703125.335937l5.359375-.90625v-1.539062c0-.183594-.125-.40625-.367187-.667969-.257813-.265625-.46875-.394531-.664063-.394531-.15625 0-.566406.0625-1.226562.195312-.65625.132813-1.070313.242188-1.226563.3125-.054687.03125-.148437.140625-.28125.339844-.132812.199219-.28125.296875-.4375.296875-.265625 0-.550781-.503906-.875-1.5-.210937-.644531-.410156-1.28125-.59375-1.917969-.15625-.414062-.582031-.851562-1.269531-1.300781.027344-.1875.109375-.277344.238281-.277344.183594 0 .480469.015625.875.058594.398438.042969.703125.058594.90625.058594 1.855469 0 4.636719-.382813 8.335938-1.148438.082031-.023437.265625-.097656.5625-.222656.285156-.113281.460937-.171875.507812-.171875.195313 0 .546875.15625 1.074219.46875.527344.324219.800781.5625.800781.71875 0 .238281-.25.925781-.742187 2.082031-.484375 1.148438-.796875 1.726563-.933594 1.726563-.097656 0-.355469-.183594-.75-.554688l-3.453125.710938c.503906.40625.78125.71875.832031.957031 0-.027344 0 .457031 0 1.464844.027344.023437.085938.039062.15625.039062 1.0625 0 1.921875-.128906 2.578125-.394531.085938-.019531.210938-.121094.382813-.28125.171875-.15625.3125-.234375.421875-.234375.226562 0 .660156.097656 1.269531.296875.597656.199219.90625.359375.90625.496094 0 .101562-.113281.191406-.355469.273437-.632812.214844-1.519531.375-2.65625.480469-1.375.128906-2.273437.25-2.703125.355469v2.625c1.03125-.027344 2.5625-.136719 4.609375-.324219.074219 0 .242188-.066406.496094-.199219.246094-.132812.410156-.195312.496094-.195312.3125 0 .78125.125 1.382812.359375.609375.234375.914063.472656.914063.710937zm-5.632813-16.582031c.027344-.234375-.164062-.359375-.5625-.359375-.414062 0-1.046875.082031-1.859375.238281-.632812.140625-1.269531.261719-1.90625.371094-.1875.59375-.492187 1.472656-.914062 2.636719l5.003906-.640625zm.867188 6.738281c.035156-.078125-.046875-.195312-.230469-.375-.1875-.171875-.324219-.269531-.40625-.296875l-8.363281 1.308594c.394531 1.003906.640625 1.902344.75 2.703125l7.257812-1.386719c.136719 0 .351563.03125.636719.117188zm-4.445313 9.726563v-2.777344l-4.285156.792969c.40625.210937.605469.460937.605469.75 0 .210937-.125.820312-.367188 1.828125.902344-.15625 2.25-.355469 4.046875-.59375zm0 0"/></svg>