<svg height="40" viewBox="0 0 40 40" width="40" xmlns="http://www.w3.org/2000/svg"><path d="m30 15.917969c0 .304687-.269531.457031-.8125.457031-3.96875 0-7.425781.160156-10.402344.484375 1.074219.441406 1.617188.824219 1.617188 1.152344 0 .03125-.0625.175781-.195313.441406-.140625.269531-.207031.449219-.207031.53125.71875-.027344 1.765625-.152344 3.152344-.355469.054687-.03125.207031-.117187.429687-.269531.226563-.152344.367188-.222656.421875-.222656.214844 0 .589844.222656 1.132813.671875.53125.445312.804687.773437.804687.988281 0 .058594-.125.421875-.359375 1.078125v5.183594c.65625-.328125 1.078125-.496094 1.265625-.496094.179688 0 .625.167969 1.34375.515625.726563.34375 1.117188.59375 1.171875.746094v.316406c-.148437.113281-.316406.175781-.492187.175781-.085938 0-.21875-.023437-.386719-.09375-.15625-.050781-.292969-.082031-.386719-.082031h-2.515625v3.6875c0 .175781.039063.46875.117188.859375.070312.386719.109375.691406.109375.902344 0 .269531-.140625.78125-.429688 1.550781-.28125.765625-.535156 1.152344-.738281 1.152344-1.589844-1.890625-2.878906-3.023438-3.875-3.382813v-.316406c.902344.394531 1.738281.589844 2.515625.589844.691406 0 1.042969-.242188 1.042969-.71875v-4.148438l-9.28125.808594c0 2.949219-.152344 4.832031-.449219 5.675781h-.355469c-.21875 0-.394531-.328125-.546875-.988281-.117187-.515625-.175781-.925781-.175781-1.265625 0-.027344.125-1.027344.359375-3.011719h-.136719c-.0625 0-.140625.011719-.25.046875-.101562.027344-.1875.039063-.242187.039063-.449219 0-1.039063-.375-1.757813-1.121094v-.359375c.242188.265625.625.40625 1.167969.40625.09375 0 .222656-.019531.386719-.046875.164062-.03125.28125-.046875.332031-.046875.1875 0 .316406.027344.410156.09375v-6.402344c0-.445312-.222656-.941406-.679687-1.488281v-.355469c.148437.03125.421875.09375.816406.179688.390625.09375.6875.140625.894531.140625.246094 0 1.515625-.167969 3.828125-.496094.039063-.121094.046875-.246094.046875-.363281 0-.71875-.382812-1.339844-1.171875-1.84375l-5.265625 1.21875c-.328125.082031-1.082031-.292969-2.253906-1.136719l.09375-.308594c.691406.152344 1.152344.226563 1.394531.226563.570313 0 2.011719-.214844 4.320313-.636719v-2.066406c0-.058594-.046875-.09375-.132813-.09375-.175781 0-.457031.046875-.832031.140625-.371094.082031-.652344.128906-.828125.128906-.277344 0-.640625-.191406-1.089844-.578125-.351562-.300781-.703125-.589844-1.035156-.859375.035156-.207031.109375-.316406.222656-.316406.09375 0 .328125.117187.703125.363281.371094.238281.664063.363281.875.363281.246094 0 .609375-.046875 1.105469-.140625.5-.09375.832031-.128906 1.011719-.128906v-2.394531c-1.296875.15625-1.804688.234375-1.496094.234375-.796875 0-1.730469-.5625-2.824219-1.679688 1.289063.367188 2.039063.542969 2.25.542969.210938 0 .546875-.046875 1.011719-.128906.46875-.09375.824219-.140625 1.058594-.140625v-2.46875c0-.664063-.601563-1.210938-1.792969-1.625v-.3125h.402344c.351562 0 1 .175781 1.914062.535156.90625.363281 1.367188.660156 1.367188.90625 0-.09375-.085938.058594-.273438.449219-.175781.382812-.257812 1.1875-.257812 2.382812.082031.03125.1875.046875.304687.046875 1.375 0 2.6875-.1875 3.921875-.539062v-2.703125c0-.210938-.375-.574219-1.125-1.078125v-.414063h.871094c.300781 0 .761719.21875 1.386719.636719.625.433594.941406.78125.941406 1.050781 0 .039063-.050781.15625-.15625.367188-.105469.210937-.171875.351562-.1875.410156-.03125.269531-.066406.699219-.113281 1.28125l.09375.269531c.207031-.035156.582031-.140625 1.113281-.316406s.832031-.269531.890625-.269531c.269531 0 .90625.269531 1.917969.800781v.261719c-.179688.21875-.8125.394531-1.890625.546875-.695313.050781-1.402344.109375-2.125.175781v.578125c0 .441406.019531 1.066406.046875 1.871094.21875 0 .535156-.074219.972656-.226563.433594-.15625.738281-.234375.917969-.234375.515625 0 1.035156.140625 1.582031.40625v.402344c-.1875.203125-.769531.355469-1.761719.449219-.644531.082031-1.300781.160156-1.984375.210937v2.230469c.246094-.03125.976563-.199219 2.195313-.496094 1.128906-.273437 1.765625-.40625 1.914062-.40625.390625 0 1.011719.132813 1.84375.398438.839844.257812 1.261719.53125 1.261719.8125zm-8.605469-3.324219v-2.527344l-4.226562.453125v2.480469zm0 3.109375v-2.207031l-4.226562.492187v2.117188zm2.796875 6.300781v-2.207031c-.21875-.214844-.394531-.316406-.546875-.316406l-3.644531.453125v2.65625zm0 4.183594c-.066406-1.671875-.066406-2.714844 0-3.105469l-4.238281.414063v3.148437zm-5.546875-3.46875v-2.605469l-3.828125.40625c.1875.449219.273438 1.34375.273438 2.695313zm0 4.019531v-3.019531l-3.554687.402344v3.019531zm0 0"/></svg>