<svg height="40" viewBox="0 0 40 40" width="40" xmlns="http://www.w3.org/2000/svg"><path d="m30 16.871094c0 .085937-.0625.347656-.175781.78125-.148438.515625-.226563.8125-.257813.898437-.085937.546875-.128906 1.292969-.128906 2.242188 0 2.1875.089844 5.453125.261719 9.785156.023437.347656-.164063 1-.570313 1.984375-.425781 1.058594-.785156 1.59375-1.070312 1.59375-2.328125-1.984375-3.761719-3.058594-4.308594-3.230469l.082031-.304687c1.871094.378906 3.015625.566406 3.445313.566406.582031 0 .867187-.421875.867187-1.253906v-12.714844c-.398437-.425781-.648437-.640625-.734375-.640625l-7.804687.75c.984375.4375 1.46875.8125 1.46875 1.125 0 .207031-.117188.441406-.339844.703125v.824219c.027344 0 .097656.015625.214844.039062.367187 0 .882812-.097656 1.554687-.300781.671875-.199219 1.132813-.308594 1.390625-.308594.117188 0 .4375.101563.984375.296875.539063.199219.851563.335938.9375.421875v.335938c-.257812.128906-.75.21875-1.46875.25-.476562.023437-1.160156.023437-2.019531 0-1.035156 0-1.566406 0-1.59375 0v3.226562h.125c.285156.027344.6875-.050781 1.207031-.238281.523438-.1875.882813-.28125 1.074219-.28125.183594 0 .574219.191406 1.207031.566406.636719.367188.953125.625.953125.773438 0 0-.28125.476562-.84375 1.445312-.554687.960938-.84375 1.585938-.84375 1.871094 0 .058594.046875.160156.136719.308594.082031.140625.125.257812.125.335937 0 .289063-.265625.433594-.8125.433594-1.558594.027344-3.375.128906-5.480469.300781-.285156.664063-.53125.996094-.734375.996094-.367187 0-.625-.808594-.769531-2.417969-.089844-1.265625-.171875-2.015625-.261719-2.238281-.140625-.519531-.5625-1.121094-1.25-1.808594l.089844-.210937c.089844.023437.390625.140625.921875.351562.535156.226563.8125.335938.839844.335938.378906 0 1.378906-.136719 3.019531-.398438v-3.015625c-.40625 0-1.015625.140625-1.8125.414063-.800781.273437-1.394531.410156-1.769531.410156-.554688 0-1.371094-.488281-2.453125-1.46875l.132812-.261719c.976563.382813 1.621094.570313 1.933594.570313 1.296875 0 2.613281-.21875 3.96875-.648438v-1.515625c0-.164062-.160156-.398437-.496094-.6875-.328125-.285156-.582031-.410156-.75-.382812l-5.953125.90625v11.410156c0 .261719-.070312.65625-.21875 1.167969-.140625.609375-.289062.910156-.472656.910156-.285156 0-.527344-.421875-.722656-1.253906-.179688-.6875-.261719-1.261719-.261719-1.726563 0-.109375.035156-.304687.109375-.582031.074219-.269531.109375-.449219.109375-.535156.167969-1.09375.292969-4.046875.378906-8.875 0-.777344-.378906-1.496094-1.160156-2.15625l.136719-.304688c.195312.027344.585937.203125 1.179687.515625.589844.320313.921875.480469 1.011719.480469.6875 0 2.042969-.191406 4.058594-.566406-.261719-.402344-.53125-1.101563-.808594-2.109375-.269531-1.007813-.582031-1.742188-.921875-2.199219-1.265625.40625-1.871094.605469-1.808594.605469-.347656 0-1.019531-.65625-2.023437-1.980469l.171875-.308594c.625.546875 1.285156.792969 1.976562.734375l5.867188-.734375v-2.710937c0-.289063-.171875-.652344-.496094-1.101563-.332031-.445312-.644531-.75-.933594-.921875l.136719-.300781c.464844.050781 1.074219.253906 1.832031.597656.898438.375 1.355469.726563 1.355469 1.039063s-.160156.597656-.472656.859375v2.328125c.023437.023437.097656.046875.210937.046875 1.261719 0 2.851563-.234375 4.734375-.695313.09375 0 .257813-.066406.476563-.210937.234375-.140625.40625-.214844.519531-.214844.375 0 .859375.136719 1.441406.410156.589844.265625.886719.5625.886719.875 0 .261719-.203125.398438-.609375.398438-.027344 0-1.457031-.046875-4.308594-.136719.421875.3125.828125.691406 1.210938 1.121094-.828125 1.066406-1.574219 2.28125-2.234375 3.660156.570312 0 1.503906-.125 2.800781-.386719 1.285156-.257812 2.144531-.382812 2.578125-.382812.140625 0 .519531.25 1.125.753906.605469.5.90625.824219.90625.964844zm-7.285156-4.609375c0-.367188-.121094-.699219-.339844-.984375l-7.199219 1.195312c.257813.210938.652344.664063 1.179688 1.382813.53125.710937.796875 1.207031.796875 1.46875 0 .113281-.007813.273437-.042969.488281-.027344.21875-.035156.386719-.035156.496094 0 .203125.023437.332031.078125.394531l4.53125-.511719c.195312-.632812.410156-1.28125.644531-1.941406.261719-.78125.386719-1.441406.386719-1.988281zm.425781 12.753906c0-.140625-.1875-.285156-.550781-.425781l-5.5625.734375.382812 3.273437 5.304688-.347656c.285156-2.214844.425781-3.285156.425781-3.234375zm0 0"/></svg>