<svg height="40" viewBox="0 0 40 40" width="40" xmlns="http://www.w3.org/2000/svg"><path d="m28.378906 15.738281c0 .226563-.316406.335938-.960937.335938-.292969 0-.746094-.015625-1.34375-.058594-.605469-.035156-1.0625-.050781-1.386719-.050781-2.261719 0-4.746094.285156-7.453125.84375-.019531 0-.589844.148437-1.699219.441406-.835937.222656-1.390625.332031-1.65625.332031-.691406 0-1.363281-.453125-2.03125-1.363281l.105469-.253906c.625.34375 1.160156.515625 1.625.515625.46875 0 1.058594-.078125 1.769531-.226563 1.058594-.191406 1.640625-.304687 1.742188-.328125-.027344-.269531-.15625-.796875-.40625-1.570312-.246094-.777344-.433594-1.257813-.558594-1.460938 0 0-.292969-.113281-.878906-.347656-.59375-.234375-1.023438-.5625-1.296875-.972656l.113281-.261719c.8125.34375 1.378906.519531 1.691406.519531 1.214844 0 2.234375-.15625 3.070313-.445312v-2.136719c0-.203125-.523438-.628906-1.546875-1.296875l.03125-.261719h.519531c.34375 0 .859375.164063 1.546875.484375.691406.324219 1.035156.609375 1.035156.886719 0 .046875-.039062.171875-.113281.371094-.074219.191406-.125.3125-.144531.367187-.074219.390625-.109375.8125-.109375 1.25 0 .101563.0625.152344.179687.152344.59375 0 1.34375-.113281 2.25-.339844.074219-.019531.234375-.085937.480469-.195312.246094-.117188.390625-.167969.449219-.167969.21875 0 .566406.097656 1.046875.296875.484375.191406.722656.375.722656.550781 0 .148438-.464844.28125-1.378906.40625-.578125.078125-1.15625.148438-1.757813.226563.617188.566406.917969.878906.917969.957031-.421875.714844-.894531 1.511719-1.4375 2.394531.8125-.019531 2.015625-.132812 3.613281-.328125.105469 0 .289063-.066406.554688-.191406.269531-.121094.429687-.183594.484375-.183594.222656 0 .644531.148438 1.269531.429688.628906.285156.941406.507812.941406.679687zm1.621094 15.429688c0 .488281-1.738281.734375-5.234375.734375-3.074219 0-4.613281-.761719-4.613281-2.289063 0 0 .082031-1.421875.257812-4.28125.023438-.191406-.039062-.476562-.1875-.84375-.144531-.367187-.316406-.5625-.519531-.5625-.1875 0-.683594.09375-1.453125.261719-.777344.175781-1.277344.308594-1.496094.40625 1.109375 1.058594 1.664063 1.652344 1.664063 1.769531 0 .148438-.078125.261719-.226563.335938-.21875.097656-.34375.171875-.363281.21875-.269531.375-.691406.90625-1.261719 1.585937-2.015625 2.171875-4.148437 3.433594-6.414062 3.804688l-.152344-.226563c1.089844-.390625 2.402344-1.25 3.949219-2.582031 1.769531-1.496094 2.660156-2.6875 2.660156-3.578125 0-.4375-.125-.777344-.371094-.996094-.117187.34375-.320312.523438-.585937.523438-.371094 0-.652344-.9375-.855469-2.808594-.21875-2.035156-.671875-3.3125-1.363281-3.800781l.078125-.261719h.4375c.175781 0 .425781.0625.757812.167969.328125.113281.585938.171875.757813.171875.023437 0 .59375-.085938 1.695312-.261719l4.90625-.738281c1.453125-.21875 2.234375-.335938 2.367188-.335938.144531 0 .453125.183594.921875.539063.46875.359375.695312.59375.695312.71875 0 .050781-.066406.222656-.222656.519531-.144531.292969-.230469.46875-.25.515625-.246094.832031-.488281 1.671875-.746094 2.503906-.4375 1.304688-.816406 1.953125-1.140625 1.953125-.222656 0-.414062-.203125-.59375-.617187h-1.320312c-.371094 0-.792969.046875-1.261719.144531.058594.046875.339844.324219.855469.8125.441406.390625.664062.652344.664062.777344 0 .019531-.09375.164062-.257812.441406-.179688.269531-.273438.4375-.304688.515625-.210937.667969-.328125 1.582031-.328125 2.765625 0 1.082031.792969 1.625 2.359375 1.625 2.808594 0 4.335938-.207031 4.578125-.628906.125-.21875.296875-1.277344.515625-3.171875h.375c.023438.691406.148438 1.6875.367188 2.988281.023437.046875.140625.199219.347656.441406.214844.25.3125.496094.3125.742188zm-8.855469-18.308594c.078125-.515625-.0625-.777344-.40625-.777344-.046875 0-1.28125.203125-3.6875.59375.246094.492188.476563.992188.699219 1.480469.296875.636719.40625 1.160156.339844 1.582031l2.726562-.257812zm3.027344 6.207031c-.097656-.320312-.359375-.488281-.769531-.488281-1.28125 0-3.867188.375-7.75 1.121094.046875.742187.0625 1.222656.035156 1.445312l8.265625-.957031zm-.328125 1.835938-7.972656 1.019531c.101562.535156.1875 1.121094.257812 1.753906h.371094c.066406 0 .75-.078125 2.027344-.222656 1.085937-.121094 2.71875-.296875 4.910156-.519531.09375-.4375.230469-1.121094.40625-2.03125zm0 0"/></svg>