<svg height="40" viewBox="0 0 40 40" width="40" xmlns="http://www.w3.org/2000/svg"><path d="m26.53125 8.90625c0 .078125-.058594.175781-.171875.296875-.125.121094-.199219.207031-.222656.261719-.242188.503906-.507813 1.222656-.796875 2.148437-.289063 1.09375-.523438 1.828125-.679688 2.210938-.15625.390625-.332031.582031-.515625.582031-.054687 0-.242187-.09375-.578125-.28125-.332031-.183594-.53125-.277344-.578125-.277344-.640625 0-1.867187.109375-3.707031.339844-1.832031.222656-2.988281.417969-3.46875.574219-.136719.03125-.234375.128906-.296875.320312-.066406.183594-.175781.28125-.34375.28125-.636719 0-1.082031-1.050781-1.347656-3.15625-.324219-2.332031-.746094-3.726562-1.273438-4.175781l.15625-.28125c.046875.019531.3125.144531.792969.363281.484375.203125.746094.3125.800781.3125-.101562 0 .640625-.085937 2.230469-.28125 1.515625-.109375 3.800781-.304687 6.855469-.59375.128906 0 .347656-.050781.632812-.140625.292969-.09375.527344-.144531.683594-.144531.183594 0 .535156.234375 1.050781.683594.523438.453125.777344.769531.777344.957031zm1.753906 8.171875c-.375.769531-.941406 1.855469-1.710937 3.261719-.109375.191406-.28125.28125-.515625.28125-.164063 0-.414063-.183594-.761719-.554688h-3.511719c-.421875 0-1.800781.167969-4.132812.511719-2.34375.347656-3.632813.589844-3.871094.722656-.019531 0-.082031.078125-.183594.257813-.085937.171875-.210937.253906-.367187.253906-.296875 0-.640625-.535156-1.042969-1.628906-.238281-.71875-.472656-1.421875-.714844-2.109375-.191406-.21875-.4375-.523438-.757812-.921875.054687-.15625.128906-.242188.238281-.242188.238281 0 .53125.09375.859375.265625.332031.167969.503906.257813.535156.257813.402344 0 1.089844-.085938 2.074219-.242188 1.277344-.210937 1.996094-.3125 2.152344-.3125 1.960937-.164062 4.875-.457031 8.722656-.878906.082031-.03125.25-.082031.5-.160156.253906-.078125.402344-.121094.464844-.121094.15625 0 .523437.183594 1.109375.558594.582031.367187.890625.632812.914062.800781zm1.714844 14.902344-.113281.238281c-2.214844.265625-3.664063.394531-4.351563.394531-.523437 0-1.671875-.75-3.425781-2.265625s-2.65625-2.273437-2.703125-2.273437c-.484375.320312-.988281.675781-1.515625 1.070312-3.160156 2.179688-5.796875 3.382813-7.890625 3.589844v-.277344c3.34375-1.332031 6.109375-3.019531 8.285156-5.066406-1.273437-1.140625-2.390625-1.777344-3.34375-1.910156v-.273438c.15625-.082031.273438-.125.355469-.125.375 0 .96875.226563 1.792969.679688.582031.347656 1.171875.6875 1.75 1.035156.851562-.816406 1.929687-2.046875 3.226562-3.667969-.128906-.207031-.265625-.332031-.394531-.359375l-5.777344 1.515625c-.347656.109375-.769531-.082031-1.273437-.550781-.507813-.480469-.796875-.894531-.882813-1.246094l.203125-.15625c.71875.589844 1.265625.855469 1.636719.796875l6.730469-1.429687c1.007812.265625 1.691406.648437 2.035156 1.15625l-4.1875 4.578125c3.296875 2.523437 6.574219 4.039062 9.84375 4.546875zm-5.421875-22.960938c0-.394531-.25-.59375-.753906-.59375-3.210938 0-6.308594.28125-9.289063.839844.109375.394531.242188 1.003906.40625 1.832031 1.671875-.140625 4.15625-.398437 7.449219-.800781.078125 0 .25-.042969.515625-.140625.265625-.089844.433594-.128906.480469-.128906-.132813 0 .171875.070312.914062.226562.027344-.070312.078125-.265625.164063-.550781.082031-.292969.113281-.519531.113281-.683594zm-.433594 2.480469v-.363281c-.476562-.027344-.773437-.039063-.875-.039063l-8.210937.796875.351562 1.953125h.289063c.15625 0 .925781-.082031 2.304687-.238281 1.277344-.191406 3.179688-.410156 5.703125-.675781.292969-.726563.4375-1.195313.4375-1.433594zm2.148438 5.71875c0-.332031-.265625-.480469-.796875-.421875l-3.148438.238281c-.054687.6875-.144531 1.417969-.28125 2.195313.292969 0 .746094-.03125 1.359375-.085938.617188-.046875 1.078125-.082031 1.390625-.082031h.917969c.375-.972656.558594-1.589844.558594-1.84375zm-5.171875.675781c0-.378906-.109375-.664062-.324219-.882812l-3.105469.398437c.046875.539063.117188 1.339844.199219 2.417969.503906-.167969 1.214844-.238281 2.152344-.238281.472656 0 .796875-.167969.953125-.492188.082031-.179687.125-.585937.125-1.203125zm-4.308594 2.046875c-.058594-.421875-.089844-.84375-.125-1.265625-.074219-.554687-.269531-.882812-.59375-.984375l-3.230469.421875c.132813.421875.265625.859375.398438 1.3125.265625.664063.519531.980469.757812.953125zm0 0"/></svg>