<svg height="40" viewBox="0 0 40 40" width="40" xmlns="http://www.w3.org/2000/svg"><path d="m31.761719 7.546875c0 .183594-.105469.332031-.320313.453125-.207031.113281-.3125.203125-.3125.246094-.1875.890625-.378906 1.78125-.5625 2.671875-.328125 1.351562-.75 2.03125-1.257812 2.03125-.355469 0-.75-.304688-1.195313-.914063-3.535156.070313-7.210937.25-11.023437.527344-1.402344.074219-3.148438.234375-5.230469.488281-.046875.03125-.140625.167969-.277344.421875-.144531.257813-.300781.386719-.460937.386719-.539063 0-.96875-.777344-1.296875-2.34375-.1875-1.035156-.371094-2.074219-.5625-3.128906-.117188-.46875-.460938-.871094-1.023438-1.1875l.109375-.289063h.140625c.234375 0 .578125.074219 1.023438.226563.441406.15625.78125.234375 1.015625.234375-.257813 0 .882812-.058594 3.4375-.171875 3.234375-.15625 8.085937-.417969 14.570312-.777344.164063 0 .4375-.050781.824219-.144531.386719-.089844.613281-.136719.6875-.136719.183594 0 .515625.191406.996094.582031.484375.375.71875.65625.71875.824219zm-2.3125.136719c-.234375-.1875-.484375-.28125-.742188-.28125-.046875 0-1.71875.054687-5.019531.171875.144531.359375.207031.5625.207031.632812 0 .140625-.078125 1.148438-.238281 3.023438l5.089844-.140625zm-7.09375 1.019531c0 .089844-.085938-.238281-.246094-.984375l-4.847656.246094v3.648437l4.953125-.242187c.09375-1.78125.140625-2.667969.140625-2.667969zm-6.28125 3.015625v-2.910156c0-.140625-.078125-.296875-.234375-.476563-.148438-.175781-.292969-.257812-.4375-.257812-.390625 0-1.953125.097656-4.667969.3125l.777344 3.753906zm0 0"/></svg>