<svg height="40" viewBox="0 0 40 40" width="40" xmlns="http://www.w3.org/2000/svg"><path d="m28.207031 10.207031c0 .304688-.054687.527344-.171875.667969-.375 0-1.003906-.433594-1.894531-1.296875-.605469-.582031-1.203125-1.183594-1.785156-1.785156l.238281-.289063c.730469.234375 1.441406.460938 2.144531.671875.75.351563 1.230469.914063 1.433594 1.683594.03125.121094.035156.234375.035156.347656zm4.117188 21.902344c0 .261719-.203125.386719-.601563.386719-.769531 0-2.039062-.992188-3.789062-2.984375-1.546875-1.75-2.574219-3.15625-3.089844-4.203125-1.894531 2.050781-3.640625 3.539062-5.230469 4.453125l-.109375-.25c.402344-.230469 1.28125-1.078125 2.652344-2.542969 1.375-1.457031 2.058594-2.355469 2.058594-2.683594-1.476563-3.160156-2.589844-6.425781-3.335938-9.796875l-.070312.015625c-1.429688.183594-3.574219.511719-6.421875.980469-.824219.136719-1.234375.253906-1.234375.347656 0 4.070313-.8125 7.804688-2.460938 11.195313-.179687.394531-.625 1.097656-1.332031 2.097656-.769531 1.152344-1.246094 1.734375-1.4375 1.761719l-.246094-.140625c2.53125-3.679688 3.867188-8.554688 4.007813-14.640625 0-.121094-.179688-.390625-.527344-.804688-.234375-.265625-.484375-.523437-.738281-.8125l.273437-.242187c1.105469.421875 1.742188.617187 1.902344.59375l8.003906-1.261719c-.304687-1.917969-.597656-3.371094-.882812-4.355469-.085938-.328125-.335938-.628906-.734375-.910156-.328125-.207031-.65625-.4375-.984375-.667969.632812-.097656 1.078125-.140625 1.332031-.140625.285156 0 .738281.148438 1.359375.4375.621094.292969.921875.554688.921875.796875 0 .117188-.035156.304688-.121094.574219-.082031.269531-.117187.472656-.117187.613281 0 1.5.140625 2.632813.414062 3.40625 1.386719-.140625 3.070313-.375 5.0625-.703125.0625-.019531.203125-.113281.402344-.28125.191406-.160156.339844-.242187.4375-.242187.347656 0 .863281.101562 1.546875.316406.792969.207031 1.191406.441406 1.191406.699219 0 .1875-.597656.347656-1.789062.492187-1.496094.164063-3.734375.414063-6.703125.742188l-.039063.097656c.625 3.230469 1.664063 6.171875 3.085938 8.8125.164062-.183594.617187-1.011719 1.359375-2.472656.734375-1.46875 1.097656-2.292969 1.097656-2.476563 0-.234375-.238281-.53125-.734375-.878906.046875-.140625.128906-.214844.246094-.214844.375 0 .867187.148438 1.472656.421875.703125.308594 1.058594.617188 1.058594.914063 0 .144531-.117188.269531-.355469.390625-.28125.1875-.433594.289062-.453125.316406-.121094.214844-.285156.527344-.5.949219-.859375 1.359375-1.714844 2.757812-2.558594 4.207031 2.058594 3.328125 3.585938 4.988281 4.570313 4.988281.367187 0 .75-.613281 1.117187-1.820312.214844-.804688.421875-1.601563.636719-2.390625h.238281c-.234375 3.226562-.347656 4.90625-.347656 5.019531 0 .234375.078125.546875.25.949219.15625.394531.246094.707031.246094.941406zm0 0"/></svg>