<svg height="40" viewBox="0 0 40 40" width="40" xmlns="http://www.w3.org/2000/svg"><path d="m28.769531 12.558594c0 .234375-.113281.375-.347656.421875-.328125.023437-.769531.097656-1.332031.210937-.890625.371094-2.875 1.367188-5.964844 2.984375-.046875-.097656-.121094-.226562-.214844-.390625 1.40625-1.332031 2.402344-2.410156 2.984375-3.226562-.046875-.210938-.195312-.34375-.453125-.386719l-12.570312 2.386719c-.890625-.257813-1.898438-1.1875-3.023438-2.808594.382813-.121094.523438-.175781.429688-.175781-.101563 0 .222656.195312.957031.597656.746094.402344 1.402344.597656 1.984375.597656.050781 0 .800781-.109375 2.253906-.3125.859375-.144531 1.496094-.25 1.890625-.320312.558594-.070313 1.40625-.199219 2.527344-.386719 1.21875-.183594 3.035156-.527344 5.441406-1.015625.074219-.027344.320313-.128906.734375-.316406.351563-.164063.578125-.246094.671875-.246094.214844 0 .914063.300781 2.109375.910156 1.28125.683594 1.921875 1.167969 1.921875 1.476563zm5.375 14.882812-6.707031 1.757813c-1.9375-.445313-7.1875-2.167969-15.753906-5.164063-1.78125 2.574219-3.664063 4.507813-5.65625 5.792969-.042969-.121094-.101563-.269531-.171875-.453125 1.144531-.871094 2.300781-2.390625 3.46875-4.578125 1.175781-2.1875 1.757812-3.859375 1.757812-5.003906 0-.28125-.101562-.664063-.316406-1.148438-.207031-.476562-.386719-.765625-.519531-.859375.039062 0 .117187-.035156.222656-.101562.105469-.074219.183594-.109375.222656-.109375.335938 0 .917969.378906 1.746094 1.125.824219.75 1.238281 1.3125 1.238281 1.6875 0 .257812-.113281.445312-.363281.582031-.246094.128906-.378906.21875-.40625.261719-.203125.46875-.546875 1.164062-1.015625 2.109375.75.273437 2.609375.835937 5.578125 1.679687v-7.929687c-.089844-.964844-.609375-1.796875-1.574219-2.496094.042969-.140625.117188-.277344.210938-.421875 2.40625.402344 3.609375.9375 3.609375 1.613281 0 .121094-.058594.339844-.1875.652344-.132813.3125-.203125.496094-.226563.546875-.117187.933594-.191406 1.746094-.210937 2.421875v.140625c.039062.019531.125.035156.238281.035156 1.6875 0 3.316406-.117187 4.886719-.351562.046875-.027344.203125-.136719.488281-.335938.277344-.195312.433594-.300781.457031-.300781.234375 0 .679688.136719 1.351563.402344.664062.269531 1 .550781 1 .828125 0 .421875-.796875.707031-2.386719.84375-1.171875.046875-2.355469.101562-3.550781.175781-.511719.019531-1.320313.074219-2.417969.136719-.160156.867187-.253906 2.257812-.28125 4.179687v.246094c4.207031.910156 8.542969 1.4375 12.988281 1.578125l2.109375.035156c.042969.09375.101563.230469.171875.421875zm0 0"/></svg>