<svg height="40" viewBox="0 0 40 40" width="40" xmlns="http://www.w3.org/2000/svg"><path d="m16.894531 10.097656c0 .121094-.070312.214844-.207031.289063-.402344.179687-1 .488281-1.796875.910156-.792969.5625-1.996094 1.378906-3.609375 2.457031.234375.1875.433594.371094.59375.5625-.449219.515625-.667969 1.398438-.667969 2.667969 0 .066406-.007812.183594-.035156.347656-.019531.164063-.035156.277344-.035156.351563l.035156.910156c.308594-.042969.941406-.230469 1.910156-.558594.804688-.28125 1.421875-.425781 1.875-.425781.824219 0 1.234375.207031 1.234375.597656 0 .308594-.628906.617188-1.890625.914063-1.078125.285156-1.863281.425781-2.351562.425781-.308594 0-.484375-.035156-.527344-.105469-.050781-.070312-.128906-.117187-.25-.144531l-.171875 7.480469 4.910156-2.492188.28125.3125c-1.429687 1.007813-3.242187 2.214844-5.457031 3.617188-3.65625 2.316406-5.496094 3.5-5.515625 3.546875-.402344-.027344-.855469-.34375-1.359375-.964844-.5-.621094-.753906-1.140625-.753906-1.5625h.273437c.28125.277344.480469.421875.601563.421875.144531 0 .726562-.152344 1.753906-.457031-.019531-1.261719-.058594-2.515625-.105469-3.757813-.070312-1.519531-.1875-2.769531-.351562-3.753906-.089844-.515625-.46875-1.082031-1.125-1.71875l.144531-.285156c.53125.210937 1.074219.421875 1.613281.632812.773438.308594 1.214844.601563 1.335938.875-.214844.496094-.34375 1.714844-.386719 3.652344-.027344 1.292969-.035156 2.578125-.035156 3.863281.640625-.164062 1.679687-.644531 3.125-1.441406v-12.25c0-.347656-.5-.953125-1.511719-1.824219v-.3125h.417969c.238281 0 .601562.109375 1.109375.328125.503906.226563.875.335938 1.109375.335938.179687 0 1.179687-1.167969 2.976562-3.507813-.019531-.144531-.128906-.34375-.3125-.597656-.585937.183594-1.660156.441406-3.226562.769531-1.40625.28125-2.484375.5625-3.230469.839844-.074219.027344-.203125.109375-.410156.25-.195313.140625-.355469.214844-.476563.214844-.675781 0-1.421875-.796875-2.242187-2.398438h.285156l1.371094.921875c1.207031-.164062 2.425781-.34375 3.644531-.53125 1.472656-.234375 2.644531-.503906 3.515625-.800781.0625-.027344.207031-.109375.4375-.25.21875-.140625.355469-.214844.402344-.214844.367187 0 .984375.230469 1.820312.671875.84375.449219 1.265625.839844 1.265625 1.1875zm0 0"/></svg>