<svg height="40" viewBox="0 0 40 40" width="40" xmlns="http://www.w3.org/2000/svg"><path d="m12.402344 10.550781c0 .382813-.171875.5625-.523438.5625-.539062 0-1.207031-.507812-2-1.546875-.539062-.71875-1.078125-1.445312-1.617187-2.171875l.25-.3125c.789062.464844 1.585937.949219 2.378906 1.4375 1.011719.65625 1.511719 1.335938 1.511719 2.03125zm3.476562 7.726563-.097656-.039063c-.359375 0-.964844.402344-1.832031 1.195313-.539063.5625-1.085938 1.125-1.648438 1.6875 1.21875.613281 1.898438.960937 2.03125 1.054687.777344.511719 1.164063 1.109375 1.164063 1.789063 0 .347656-.152344.523437-.460938.523437-.140625 0-.738281-.503906-1.785156-1.507812-.636719-.605469-1.253906-1.203125-1.859375-1.789063-.308594 6.132813-.464844 9.585938-.464844 10.355469 0 .910156-.171875 1.371094-.519531 1.371094-.234375 0-.484375-.417969-.738281-1.230469-.234375-.722656-.351563-1.253906-.351563-1.582031 0-.203125.058594-.511719.179688-.914063.132812-.507812.21875-.832031.242187-.945312.351563-2.273438.527344-4.917969.527344-7.933594 0-.589844-.078125-.972656-.25-1.15625-.933594.746094-1.871094 1.496094-2.808594 2.25-1.117187.859375-2.101562 1.53125-2.941406 1.996094l-.144531-.210938c4.304687-3.5625 7.328125-6.867187 9.054687-9.929687-.066406-.171875-.160156-.25-.273437-.25-.121094 0-.976563.296875-2.570313.894531s-2.503906.957031-2.734375 1.074219c-.519531.273437-.789062.421875-.8125.421875-.601562 0-1.316406-.574219-2.132812-1.71875l.238281-.324219c.707031.449219 1.214844.671875 1.511719.671875.1875 0 1.207031-.261719 3.054687-.769531 1.777344-.523438 2.859375-.851563 3.230469-.984375.042969 0 .222656-.085938.546875-.25.3125-.164063.480469-.242188.503906-.242188.148438 0 .476563.1875.984375.574219.515625.390625.773438.644531.773438.761719 0 .160156-.117188.289062-.351563.382812-.328125.164063-.507812.257813-.546875.277344-.035156.027344-.445312.578125-1.25 1.652344-.582031.75-1.375 1.695312-2.382812 2.84375.234375.378906.367187.765625.390625 1.15625 0-.351563 0 .070312 0 1.265625l.382812.144531c.214844-.214844.621094-.796875 1.226563-1.761719.613281-.960937.921875-1.507812.921875-1.644531 0-.308594-.070313-.558594-.199219-.738281-.125-.1875-.191406-.28125-.191406-.28125 0-.023438.046875-.105469.140625-.25.769531.398437 1.253906.671875 1.4375.8125.535156.398437.804687.828125.804687 1.296875zm0 0"/></svg>