<svg height="40" viewBox="0 0 40 40" width="40" xmlns="http://www.w3.org/2000/svg"><path d="m34.394531 9.808594c0 .285156-.289062.421875-.875.421875l-5.132812-.28125c-.136719 0-.292969.421875-.460938 1.25-.140625.679687-.265625 1.363281-.378906 2.054687.488281.351563.738281.605469.738281.765625 0 .328125-.28125.492188-.84375.492188h-3.921875c-.910156.050781-3.453125.257812-7.632812.648437-.484375.027344-.777344.121094-.859375.292969-.078125.167969-.226563.253906-.4375.253906-.71875 0-1.085938-.773437-1.085938-2.320312l-.140625-2.171875c-.019531-.027344-.070312-.039063-.140625-.039063.027344 0-.570312.121094-1.789062.351563-.933594.160156-1.695313.363281-2.28125.597656-.46875.183594-.6875.277344-.667969.277344-.464844 0-1.425781-.59375-2.878906-1.789063 0-.09375.035156-.222656.109375-.382812 1.398437.328125 2.269531.488281 2.597656.488281l4.980469-.625c.050781-.050781.070312-.074219.070312-.074219 0-1.082031-.140625-1.910156-.421875-2.492187-.179687-.375-.445312-.648438-.773437-.8125-.328125-.164063-.484375-.261719-.484375-.3125 0-.1875.078125-.277344.242187-.277344.277344 0 .855469.125 1.726563.386719 1.023437.296875 1.535156.625 1.535156.976562 0 .148438-.105469.351563-.3125.632813v1.613281l4.738281-.488281v-3.058594c0-.277344-.191406-.59375-.5625-.949219-.367187-.347656-.695312-.554687-.984375-.625.023438-.070312.074219-.175781.140625-.320312h.28125c.257813 0 .8125.144531 1.652344.425781 1.078125.347656 1.613281.730469 1.613281 1.121094 0 .164062-.054687.289062-.179687.382812-.183594.121094-.277344.195313-.277344.214844-.09375.796875-.136719 1.253906-.136719 1.371094v1.296875l5.542969-.210938c.144531-.65625.207031-1.195312.207031-1.617187 0-.511719-.40625-1.039063-1.222656-1.574219.066406-.214844.183594-.316406.347656-.316406.214844 0 .726563.140625 1.546875.414062.980469.351563 1.476563.65625 1.476563.914063-.234375.378906-.496094 1.019531-.773438 1.929687.023438.023438.132813.039063.3125.039063.308594 0 1.265625-.136719 2.882813-.421875.273437 0 .804687.164062 1.582031.492187.886719.398438 1.332031.746094 1.332031 1.054688zm-7.796875.175781c0-.027344-.503906-.035156-1.507812-.035156l-3.929688.28125v3.507812l4.980469-.316406zm-6.984375 3.902344v-3.511719l-4.738281.488281.136719 3.46875zm0 0"/></svg>