<svg height="40" viewBox="0 0 40 40" width="40" xmlns="http://www.w3.org/2000/svg"><path d="m29.371094 20.28125c0 .113281-.042969.214844-.136719.285156-2.386719.328125-3.761719.484375-4.109375.484375-.074219 0-2.011719-1.679687-5.824219-5.050781-2.367187 2.667969-5.066406 4.484375-8.109375 5.441406l-.175781-.242187c2.808594-1.265625 5.230469-3.199219 7.265625-5.796875-2.035156-1.632813-3.390625-2.386719-4.074219-2.246094v-.277344c.375-.144531.609375-.210937.703125-.210937.511719 0 1.789063.6875 3.828125 2.070312.820313-.867187 1.773438-2.414062 2.871094-4.640625-.277344-.253906-.449219-.382812-.519531-.382812 0 0-.328125.09375-.984375.285156-1.382813.441406-2.773438.890625-4.183594 1.332031-.558594 0-1.28125-.441406-2.171875-1.332031l.105469-.285156c1.078125.304687 1.660156.457031 1.753906.457031.421875 0 2.027344-.402344 4.8125-1.191406.449219-.140625.890625-.273438 1.332031-.386719.164063 0 .574219.207031 1.230469.628906.65625.429688.984375.703125.984375.851563 0 .113281-.136719.238281-.390625.382812-.328125.183594-.5.292969-.519531.3125-.234375.351563-.59375.875-1.058594 1.578125-.5625.84375-1.285156 1.835938-2.175781 2.992188 3.582031 2.707031 6.757812 4.359375 9.546875 4.941406zm-1.335938 9.792969c0 .304687-.269531.421875-.800781.359375-1.691406-.167969-2.53125-.25-2.53125-.25-.5625 0-1.988281.007812-4.28125.035156-.984375.019531-2.824219.253906-5.511719.703125-.140625.019531-.421875.109375-.847656.261719-.410156.148437-.71875.222656-.910156.222656-.257813 0-.742188-.1875-1.460938-.574219-.707031-.382812-1.0625-.6875-1.0625-.894531 0-.027344.042969-.105469.136719-.25 1.074219.359375 1.746094.515625 2 .496094l6.109375-.671875v-4.203125l-3.511719.410156c-.179687.03125-.582031-.128906-1.191406-.464844-.609375-.34375-.910156-.597656-.910156-.757812 0-.042969.023437-.132813.066406-.246094 1.097656.355469 1.734375.519531 1.894531.5l3.652344-.363281v-2.460938c0-.15625-.121094-.390625-.371094-.695312-.238281-.308594-.4375-.480469-.578125-.527344l.140625-.277344c.402344 0 .917969.132813 1.5625.402344.648438.269531.96875.578125.96875.933594 0 .019531-.050781.117187-.144531.289062-.089844.183594-.144531.292969-.175781.339844-.089844.253906-.136719.699219-.136719 1.332031 0 .257813.035156.386719.109375.386719.765625 0 1.535156-.152344 2.308594-.457031.050781-.023438.140625-.089844.265625-.203125.128906-.121094.253906-.179688.367187-.179688.234375 0 .585938.089844 1.054688.277344.5625.214844.84375.410156.84375.597656 0 .234375-.539063.433594-1.621094.601563-.644531.0625-1.316406.132812-1.996094.207031-.273437.027344-.566406.050781-.859375.089844-.289062.03125-.460937.203125-.507812.503906 0 .050781-.027344 1.332031-.070313 3.863281.023438.023438.078125.039063.179688.039063 1.988281 0 3.539062-.09375 4.664062-.289063.09375 0 .246094-.050781.476563-.148437.21875-.109375.375-.164063.472656-.164063.230469 0 .660156.164063 1.28125.476563s.925781.566406.925781.75zm0 0"/></svg>