<svg height="40" viewBox="0 0 40 40" width="40" xmlns="http://www.w3.org/2000/svg"><path d="m29.6875 18.246094c0 .164062-.078125.242187-.238281.242187-.234375 0-.964844-.097656-2.183594-.3125-1.21875-.210937-1.84375-.347656-1.894531-.421875-.417969-.519531-.917969-1.332031-1.511719-2.457031-.699219-1.332031-1.167969-2.1875-1.394531-2.558594-.308594-.59375-.617188-1.160156-.914063-1.722656-.351562-.675781-.8125-1.097656-1.375-1.261719l.140625-.25c.515625.046875.796875.085938.84375.105469.28125.050781.507813.171875.667969.386719.019531.050781.40625.671875 1.15625 1.859375 1.378906 2.179687 2.765625 3.753906 4.144531 4.738281.886719.65625 1.742188 1.203125 2.558594 1.652344zm-12.25-6.632813c0 .089844-.082031.214844-.238281.351563-.171875.140625-.265625.234375-.289063.273437-.179687.355469-.488281.855469-.910156 1.511719-1.683594 2.4375-3.558594 4.113281-5.613281 5.027344l-.074219-.214844c.613281-.5625 1.113281-1 1.511719-1.296875.65625-.515625 1.425781-1.425781 2.316406-2.738281.964844-1.402344 1.4375-2.445313 1.4375-3.125 0-.261719-.140625-.5625-.417969-.914063-.285156-.351562-.421875-.535156-.421875-.5625 0-.023437.042969-.109375.136719-.242187.253906.070312.644531.195312 1.160156.382812.164063.09375.4375.335938.824219.734375.386719.398438.578125.667969.578125.8125zm9.058594 11.089844c0 .097656-.125.28125-.386719.542969-.253906.269531-.410156.453125-.453125.546875-.285156.582031-.542969 1.351562-.777344 2.316406-.1875.796875-.382812 1.578125-.59375 2.347656.375.234375.558594.484375.558594.742188 0 .257812-.15625.382812-.484375.382812-.191406 0-.449219-.03125-.777344-.085937-.328125-.058594-.550781-.09375-.671875-.125-.738281-.0625-1.710937-.101563-2.90625-.101563h-4.773437c-.585938 0-.945313.203125-1.074219.609375-.125.414063-.269531.617188-.4375.617188-.46875 0-.703125-.796875-.703125-2.386719 0-2.808594-.09375-4.75-.28125-5.828125-.066406-.464844-.449219-1.027344-1.125-1.683594l.144531-.210937c.511719.164062 1.09375.421875 1.75.773437.195313.09375.292969.136719.324219.136719-.050781 0 1.035156-.042969 3.261719-.136719 1.285156-.023437 3.222656-.117187 5.796875-.285156.085937 0 .273437-.035156.5625-.113281.273437-.089844.460937-.125.554687-.125.183594 0 .652344.296875 1.386719.894531.738281.589844 1.105469.984375 1.105469 1.171875zm-2.101563-.144531c0-.074219-.109375-.226563-.320312-.476563-.214844-.238281-.351563-.363281-.417969-.363281l-9.65625.355469.28125 6.25h8.605469c.164062-.449219.441406-1.433594.835937-2.96875.445313-1.65625.671875-2.585938.671875-2.796875zm0 0"/></svg>