<svg height="40" viewBox="0 0 40 40" width="40" xmlns="http://www.w3.org/2000/svg"><path d="m27.480469 15.730469c0 .144531-.417969.269531-1.234375.382812-.933594.121094-2.320313.328125-4.140625.636719v2.878906c.960937.277344 1.914062.5625 2.878906.839844 1.097656.46875 1.644531 1.203125 1.644531 2.214844 0 .398437-.132812.59375-.421875.59375-.113281 0-.753906-.464844-1.921875-1.398438-1.175781-.941406-1.894531-1.429687-2.179687-1.472656v10.703125c0 .277344-.070313.640625-.214844 1.089844-.15625.535156-.347656.804687-.558594.804687-.234375 0-.425781-.503906-.5625-1.507812-.09375-.730469-.140625-1.355469-.140625-1.898438 0-.164062.046875-.425781.125-.789062.078125-.359375.132813-.621094.152344-.792969l.144531-8.109375c-1.664062 2.417969-2.796875 4.019531-3.390625 4.816406-1.332031 1.683594-2.710937 3.074219-4.117187 4.167969l-.320313-.277344c3.304688-3.414062 5.734375-7.234375 7.308594-11.441406l-.109375-.035156c-.375-.023438-1.300781.265625-2.777344.863281-1.46875.59375-2.28125.894531-2.414062.894531-.355469 0-.871094-.15625-1.546875-.457031-.777344-.328125-1.164063-.636719-1.164063-.910156 0-.027344.046875-.121094.140625-.289063.730469.382813 1.277344.515625 1.648438.421875l6.742187-1.679687v-3.296875c0-.148438-.078125-.402344-.226562-.773438-.148438-.378906-.289063-.554687-.402344-.535156l-5.265625 1.09375-.28125-.28125c.863281-.160156 2.453125-.722656 4.769531-1.6875 2.574219-1.046875 3.867188-1.761719 3.867188-2.140625 0-.121094-.054688-.292969-.148438-.542969-.085937-.242187-.132812-.4375-.132812-.582031 0-.042969.035156-.125.109375-.238281h.238281c.28125 0 .765625.304687 1.457031.925781.695313.621094 1.085938 1.074219 1.171875 1.355469-.625.117187-1.398437.359375-2.3125.738281-.769531.296875-1.539062.621094-2.316406.949219.542969.554687.8125.988281.8125 1.296875 0 .179687-.035156.453125-.109375.800781-.066406.355469-.121094.609375-.140625.769531-.019531.851563-.035156 1.421875-.035156 1.726563 0 .019531.035156.035156.109375.035156.296875 0 .832031-.140625 1.597656-.425781.753906-.277344 1.191406-.414063 1.3125-.414063.28125 0 .738281.109375 1.386719.328125.644531.226563.96875.4375.96875.648438zm0 0"/></svg>