<svg height="40" viewBox="0 0 40 40" width="40" xmlns="http://www.w3.org/2000/svg"><path d="m28.425781 14.371094c-1.269531.539062-2.332031 1.066406-3.191406 1.578125-1.386719.820312-2.894531 1.640625-4.53125 2.453125-.027344-.0625-.074219-.171875-.144531-.3125 3.675781-2.921875 5.515625-4.621094 5.515625-5.089844 0-.285156-.105469-.65625-.320313-1.125.214844-.09375.320313-.136719.320313-.136719.207031 0 .65625.335938 1.332031 1.011719.699219.753906 1.042969 1.292969 1.019531 1.621094zm2.386719 11.578125c-.121094.265625-.65625.410156-1.613281.460937h-3.179688l-6.757812-6.773437v7.257812c.019531.027344.050781.183594.085937.476563.039063.289062.058594.46875.058594.507812 0 .214844-.191406.761719-.5625 1.652344-.421875.984375-.746094 1.472656-.949219 1.472656-.144531 0-.320312-.238281-.53125-.738281-.273437-.558594-.429687-.859375-.453125-.910156-.65625-.746094-1.890625-1.703125-3.6875-2.882813 0-.234375.058594-.347656.183594-.347656 1.71875.769531 2.863281 1.160156 3.425781 1.160156.449219 0 .730469-.304687.851563-.910156.046875-.355469.082031-.703125.101562-1.050781l.109375-12.886719c0-1.050781-.175781-1.816406-.507812-2.28125-.34375-.46875-.511719-.738281-.511719-.8125 0-.230469.160156-.347656.488281-.347656.28125 0 .730469.175781 1.335938.523437.675781.421875 1.019531.835938 1.019531 1.234375 0-.070312-.109375.230469-.3125.914063l-.144531 7.085937c4.960937 3.726563 8.816406 6.125 11.550781 7.195313zm-15.972656-8.945313c0 .371094-.167969.558594-.496094.558594-.511719 0-1.261719-.515625-2.246094-1.542969-.625-.703125-1.273437-1.410156-1.925781-2.109375.027344-.039062.082031-.148437.175781-.3125.257813.234375.835938.492188 1.734375.773438.898438.273437 1.527344.546875 1.875.800781.589844.449219.882813 1.058594.882813 1.832031zm1.191406 2.734375c0 .09375-1.496094 1.71875-4.496094 4.875-.113281.214844-.234375.421875-.347656.636719-.234375.371094-.40625.5625-.527344.5625-.421875 0-.910156-.796875-1.472656-2.386719 0-.347656.046875-.726562.140625-1.125.140625.027344.292969.15625.457031.402344.164063.25.328125.375.492188.375.253906 0 1.195312-.558594 2.804687-1.65625 1.261719-.859375 2.1875-1.515625 2.773438-1.964844.113281.214844.175781.304688.175781.28125zm0 0"/></svg>