<svg height="40" viewBox="0 0 40 40" width="40" xmlns="http://www.w3.org/2000/svg"><path d="m28.316406 12.785156c0 .214844-.617187.433594-1.859375.667969-1.46875.207031-3.679687.550781-6.632812 1.019531.050781.09375.265625.277344.632812.546875.375.273438.5625.460938.5625.574219 0 .046875-.035156.136719-.109375.25-.066406.113281-.101562.183594-.101562.214844v2.804687c.285156.09375.5625.136719.847656.136719.089844 0 .53125-.089844 1.3125-.261719.785156-.175781 1.203125-.285156 1.246094-.335937.46875-.257813.675781-.386719.632812-.386719.277344 0 .679688.050781 1.1875.140625.65625.144531.984375.296875.984375.457031 0 .257813-.769531.542969-2.316406.84375-1.332031.257813-2.253906.382813-2.769531.382813h-1.125v4.601562c.097656 0 .265625.027344.507812.085938.246094.0625.4375.085937.578125.085937.234375 0 .789063-.09375 1.648438-.296875.867187-.195312 1.421875-.34375 1.65625-.4375.066406-.019531.21875-.109375.453125-.265625.234375-.148437.378906-.222656.421875-.222656.164062 0 .457031.089844.894531.261719.433594.175781.652344.335937.652344.472656 0 .253906-.289063.449219-.84375.5625-2.714844.511719-4.28125.777344-4.703125.777344h-1.265625v5.722656c0 .207031-.058594.464844-.171875.769531-.121094.304688-.273438.453125-.460938.453125-.179687 0-.429687-.378906-.738281-1.125-.253906-.675781-.386719-1.15625-.386719-1.441406 0-.042969.058594-.207031.179688-.5.113281-.292969.1875-.472656.207031-.546875.019531-.191406.035156-.578125.035156-1.160156l.109375-11.480469c0-.75-.304687-1.261719-.914062-1.546875-.023438 0-.277344 0-.777344 0-.558594 0-1.246094-.3125-2.066406-.949219-.652344.828125-1.953125 2.070313-3.898438 3.730469l-.25-.214844c1.085938-1.265625 1.914063-2.300781 2.496094-3.125.402344-.539062.972656-1.429687 1.722656-2.671875.890625-1.472656 1.335938-2.335937 1.335938-2.59375 0-.375-.351563-.703125-1.054688-.984375.089844-.140625.28125-.210937.5625-.210937.449219 0 .964844.164062 1.5625.492187.601563.328125.898438.679688.898438 1.054688l-3.023438 4.113281c.867188.277344 1.453125.410156 1.75.410156.46875 0 1.710938-.171875 3.710938-.519531 2.003906-.355469 3.179687-.609375 3.5625-.777344.066406-.019531.191406-.113281.363281-.273437.175781-.167969.324219-.25.4375-.25.285156 0 .714844.097656 1.308594.28125.675781.238281 1.007812.457031 1.007812.664062zm0 0"/></svg>