<svg height="40" viewBox="0 0 40 40" width="40" xmlns="http://www.w3.org/2000/svg"><path d="m33.6875 19.722656c0 .320313-.152344.453125-.453125.433594h-6.984375v8.953125c0 .308594-.050781.628906-.144531.980469-.121094.472656-.277344.707031-.492188.707031-.46875 0-.816406-1-1.050781-2.984375 0-.050781.046875-.269531.140625-.671875.09375-.390625.140625-.621094.140625-.660156v-6.289063c-.027344-.019531-.082031-.035156-.175781-.035156-1.125 0-4.125.253906-9.023438.769531-.84375 5.152344-2.957031 8.339844-6.347656 9.546875 0-.085937-.035156-.171875-.109375-.238281 1.371094-.675781 2.558594-2.035156 3.574219-4.078125.875-1.75 1.300781-3.253906 1.300781-4.527344v-.347656c-.019531-.019531-.097656-.035156-.238281-.035156-.355469 0-.992188.109375-1.914063.316406-.273437.066406-.765625.214844-1.457031.417969-.691406.210937-1.0625.320312-1.113281.320312-.421875 0-.96875-.191406-1.65625-.5625-.679688-.378906-1.136719-.785156-1.371094-1.234375.066406-.113281.160156-.171875.277344-.171875-.023438 0 .675781.152344 2.109375.460938l5.507812-.886719v-1.785156c0-.15625-.113281-.386719-.351562-.664063-.234375-.285156-.433594-.441406-.59375-.492187.140625-.214844.269531-.3125.390625-.3125.410156 0 .910156.15625 1.46875.484375.5625.328125.867187.679687.910156 1.054687l-.3125 1.617188c1.261719-.023438 2.441406-.140625 3.546875-.351563v-4.601562c-.191406 0-.863281.09375-2.019531.285156-1.164063.183594-1.761719.277344-1.808594.277344-.375 0-.871094-.164063-1.472656-.492188-.703125-.398437-1.03125-.804687-.984375-1.226562.019531 0 .0625-.015625.125-.054688.054687-.035156.109375-.050781.15625-.050781-.046875 0 .15625.128906.597656.386719.449219.253906.894531.382812 1.34375.382812 1.457031 0 2.8125-.171875 4.0625-.519531v-2.953125c0-.328125-.425781-.796875-1.269531-1.402344.09375-.09375.144531-.191406.144531-.285156h.953125c.144531 0 .542969.144531 1.191406.4375.65625.300781.976563.53125.976563.722656 0 .054688-.074219.183594-.21875.402344-.152344.222656-.242188.390625-.261719.511719-.105469.5625-.144531 1.367187-.144531 2.421875.515625 0 1.289062-.089844 2.320312-.28125 1.039063-.1875 1.53125-.28125 1.484375-.28125.261719 0 .699219.09375 1.304688.28125.757812.253906 1.128906.519531 1.128906.773437 0 .308594-.308594.453125-.910156.453125-.054688 0-.421875-.015625-1.117188-.050781-.691406-.035156-1.0625-.050781-1.109375-.050781-.800781 0-1.8125.035156-3.039062.101562-.117188.109375-.171875.574219-.171875 1.40625v3.265625l4.316406-.25c.113281-1.210937-.234375-2.113281-1.050781-2.703125v-.3125h.488281c.234375 0 .625.132813 1.171875.402344.558594.269531.855469.53125.894531.792969.027344.117187-.003906.648437-.097656 1.613281.042969.042969.171875.074219.386719.074219.890625 0 1.648437-.054688 2.28125-.148438.179687-.019531.460937-.101562.828125-.238281.351562-.144531.566406-.214844.609375-.214844.210937 0 .78125.152344 1.722656.46875 1.066406.355469 1.609375.664063 1.609375.921875zm0 0"/></svg>