<svg height="40" viewBox="0 0 40 40" width="40" xmlns="http://www.w3.org/2000/svg"><path d="m32.464844 26.28125c0 .375-.855469.640625-2.570313.8125-1.003906.113281-1.90625.171875-2.695312.171875-1.96875 0-3.402344-.136719-4.289063-.421875-1.726562-.515625-2.597656-1.582031-2.597656-3.191406l.214844-7.9375c0-1.375-.199219-2.246094-.601563-2.59375.074219-.074219.109375-.140625.109375-.214844h.179688c.179687 0 .445312.105469.800781.300781.355469.199219.535156.296875.558594.296875-.042969 0 .328125-.054687 1.128906-.171875 1.496094-.210937 2.660156-.410156 3.511719-.597656.09375-.019531.28125-.089844.570312-.199219.292969-.101562.453125-.148437.476563-.148437.050781 0 .285156.179687.707031.535156.417969.363281.628906.59375.628906.6875 0 .050781-.054687.144531-.175781.296875-.113281.15625-.183594.265625-.214844.339844-.273437 1.375-.546875 2.757812-.800781 4.140625-.496094 1.914062-.984375 2.878906-1.480469 2.878906-.160156 0-.273437-.09375-.347656-.285156-.113281-.277344-.175781-.421875-.175781-.421875-.464844-.585938-1.15625-1.125-2.070313-1.609375.074219-.054688.109375-.121094.109375-.214844 1.167969.328125 1.808594.488281 1.921875.488281.382813 0 .742188-.832031 1.09375-2.492187.257813-1.335938.390625-2.21875.390625-2.640625 0-.257813-.144531-.40625-.425781-.453125l-4.738281.703125-.171875 8.570312c0 1.546875.332031 2.496094 1.007812 2.84375.382813.183594 1.421875.28125 3.132813.28125 2.476562 0 3.953125-.21875 4.421875-.664062.238281-.1875.398437-.464844.492187-.84375.042969-.277344.101563-.5625.171875-.839844.046875-.140625.195313-.777344.429688-1.894531h.207031c-.027344 1.445312.125 2.648437.453125 3.613281.019531.046875.140625.15625.332031.328125.199219.175781.304688.359375.304688.546875zm-13.375-11.828125c0 .121094-.105469.269531-.296875.453125-.199219.1875-.320313.324219-.339844.386719-1.589844 4.445312-4.097656 7.957031-7.511719 10.53125-.890625.675781-1.988281 1.363281-3.300781 2.039062-.066406-.050781-.105469-.144531-.105469-.285156 2.714844-1.871094 4.933594-4.019531 6.636719-6.457031-1.140625-.726563-2.152344-1.726563-3.015625-2.984375-.964844 1.101562-1.746094 1.910156-2.359375 2.421875-.042969-.042969-.113281-.078125-.207031-.101563.472656-.5625 1.179687-1.609375 2.140625-3.128906 1.335937-2.058594 2-3.371094 2-3.933594 0-.234375-.277344-.582031-.839844-1.046875.074219-.070312.105469-.140625.105469-.210937h.457031c.234375 0 .605469.160156 1.109375.472656.5.3125.792969.546875.890625.6875-.449219.441406-.667969.734375-.667969.875 1.335938-.183594 2.382813-.363281 3.121094-.527344.050781-.019531.144531-.070312.300781-.160156.152344-.078125.257813-.113281.296875-.113281.121094 0 .414063.144531.875.445312.476563.308594.710938.523438.710938.636719zm-1.96875.386719c0-.230469-.117188-.351563-.351563-.351563-1.6875 0-2.785156.164063-3.296875.492188-.398437.253906-.804687.722656-1.234375 1.40625-.535156.859375-.816406 1.320312-.835937 1.363281.609375.261719 1.25.550781 1.925781.878906.261719.183594.496094.492188.707031.914063.136719.351562.292969.71875.453125 1.085937 1.757813-3.15625 2.632813-5.085937 2.632813-5.789062zm0 0"/></svg>