<svg height="40" viewBox="0 0 40 40" width="40" xmlns="http://www.w3.org/2000/svg"><path d="m29.6875 30.042969c0 .695312-1.515625 1.050781-4.558594 1.050781-1.710937 0-2.765625-.097656-3.164062-.285156-.792969-.371094-1.1875-1.328125-1.1875-2.875l.140625-6.324219c0-.421875-.15625-.777344-.460938-1.082031-.117187.132812-.515625.828125-1.191406 2.066406-.910156 1.761719-2.207031 3.480469-3.902344 5.175781-1.679687 1.703125-3.332031 2.949219-4.941406 3.746094-.019531-.074219-.058594-.15625-.109375-.25 4.816406-3.605469 8.074219-8.09375 9.765625-13.472656-1.25.132812-2.394531.316406-3.441406.5625-1.664063.367187-2.390625.554687-2.183594.554687-.253906 0-.597656-.164062-1.035156-.492187-.429688-.328125-.773438-.679688-1.03125-1.046875.164062-.074219.257812-.109375.28125-.109375 0 0 .179687.097656.539062.296875.367188.203125.640625.296875.828125.296875.140625 0 .585938-.0625 1.328125-.210938.074219-.179687.257813-1.148437.546875-2.894531.292969-1.746094.4375-2.746094.4375-3 0-.375-.195312-.765625-.597656-1.15625-.511719-.5625-.839844-.96875-.972656-1.234375.160156-.0625.238281-.097656.238281-.097656-.019531 0 .167969.097656.5625.3125.402344.207031.75.3125 1.058594.3125-.234375 0 .160156-.058594 1.1875-.179688.09375 0 .578125-.0625 1.441406-.203125.703125-.070312 1.730469-.242187 3.089844-.53125.023437 0 .132812-.078125.332031-.238281.199219-.167969.324219-.25.371094-.25.140625 0 .507812.105469 1.125.3125.695312.265625 1.050781.46875 1.050781.636719 0 .210937-.425781.375-1.265625.488281-.910156.113281-1.824219.234375-2.738281.347656.113281.121094.550781.460938 1.296875 1.023438.519531.375.773437.65625.773437.847656 0-.308594-.488281 1.203125-1.472656 4.527344.019531.019531.058594.03125.109375.03125.824219 0 1.691406-.125 2.609375-.386719.019531 0 .140625-.089844.359375-.265625.207031-.171875.328125-.261719.347656-.261719.210938 0 .648438.117188 1.304688.351563.78125.304687 1.164062.578125 1.164062.804687 0 .214844-.265625.320313-.804687.320313h-1.476563c-.5625 0-1.835937.113281-3.828125.347656-.179687.472656-.453125 1.171875-.800781 2.105469.328125.234375.652344.46875.980469.707031.378906.300781.5625.605469.5625.910156 0 .121094-.046875.242188-.136719.367188-.082031.128906-.128906.265625-.128906.410156-.023438.042969-.109375 1.28125-.261719 3.71875v2.03125c0 1.472656.496094 2.214844 1.472656 2.214844.304688 0 .679688-.011719 1.121094-.03125.542969 0 1.308594-.074219 2.28125-.214844.5-.167969.847656-.824219 1.058594-1.96875.097656-.511719.210937-1.53125.351562-3.050781h.246094c.019531.070312.089844.804687.203125 2.210937.074219.746094.230469 1.402344.464844 1.964844.019531 0 .132812.128906.347656.386719.207031.253906.3125.484375.3125.671875zm-8.109375-17.808594c-.347656-1.035156-.675781-1.675781-.972656-1.933594l-3.589844.527344c.496094.421875.738281.863281.738281 1.332031l-1.40625 5.34375 4.042969-.671875zm0 0"/></svg>