<svg height="40" viewBox="0 0 40 40" width="40" xmlns="http://www.w3.org/2000/svg"><path d="m31.167969 20.980469c0 .398437-.382813.578125-1.125.523437-1.761719-.132812-2.636719-.203125-2.636719-.203125s-1.265625.078125-3.792969.242188c.121094.117187.308594.378906.578125.796875.273438.40625.402344.671875.402344.785156 0-.113281-.058594.105469-.175781.660156-.085938.476563-.136719.949219-.136719 1.449219 0 .984375.457031 1.46875 1.371094 1.46875.984375 0 1.785156-.113281 2.421875-.347656.070312-.023438.234375-.109375.488281-.261719.261719-.15625.417969-.234375.457031-.234375.257813 0 .589844.109375 1 .324219.40625.207031.609375.425781.609375.660156 0 .378906-.703125.65625-2.132812.84375-.984375.121094-1.953125.175781-2.917969.175781-1.78125 0-2.667969-.503906-2.667969-1.507812v-1.40625c0-1.730469-.289062-2.828125-.875-3.296875l-6.140625.875c1.167969 1.054687 1.84375 1.875 2.03125 2.457031-2.707031 2.644531-5.238281 4.550781-7.582031 5.722656l-.136719-.285156c.839844-.625 1.882813-1.589844 3.121094-2.878906 1.472656-1.539063 2.21875-2.617188 2.21875-3.21875 0-.195313-.136719-.46875-.390625-.835938-.261719-.359375-.480469-.5625-.667969-.613281l-2.492187.636719c-.375-.054688-.742188-.136719-1.089844-.28125-.234375-.121094-.621094-.390625-1.160156-.804688-.605469-.472656-.914063-.789062-.914063-.945312 0-.03125.0625-.121094.179688-.289063.890625.421875 1.640625.636719 2.242187.636719 1.804688 0 4.3125-.347656 7.511719-1.058594v-4.109375l-4.105469.324219c-.421875.019531-.894531-.1875-1.4375-.636719-.535156-.441406-.878906-.890625-1.019531-1.332031.074219-.113281.175781-.1875.324219-.214844.394531.542969 1.164062.8125 2.3125.8125 0 0 1.3125-.109375 3.925781-.320312v-3.71875c0-.867188-.511719-1.476563-1.535156-1.824219v-.3125c.46875-.09375.707031-.144531.734375-.144531.300781 0 .898437.257812 1.785156.769531.890625.519531 1.339844.90625 1.339844 1.160156 0 .042969-.054688.21875-.164063.511719-.101562.292969-.164062.480469-.191406.578125-.09375.558594-.136719 1.3125-.136719 2.246094 0 0 .007813.128906.039063.382812.71875-.066406 1.769531-.238281 3.15625-.523437.066406-.023438.210937-.101563.421875-.246094.203125-.140625.378906-.207031.523437-.207031.296875 0 .65625.085937 1.074219.28125.40625.1875.609375.40625.609375.664062 0 .355469-.609375.609375-1.828125.765625-1.730469.265625-3.046875.476563-3.957031.636719-.054688.285156-.132813 1.707031-.25 4.28125 0 .050781.046875.074219.140625.074219-.308594 0 .222656-.058594 1.582031-.171875 1.238281-.074219 3.0625-.234375 5.472656-.5.089844-.023438.277344-.085938.5625-.1875.277344-.105469.445313-.164063.492188-.164063.28125 0 .769531.167969 1.472656.496094s1.058594.609375 1.058594.839844zm0 0"/></svg>