<svg height="40" viewBox="0 0 40 40" width="40" xmlns="http://www.w3.org/2000/svg"><path d="m27.25 12.628906c0 .464844-.214844.699219-.628906.699219-.167969 0-.589844-.292969-1.265625-.875-.980469-.84375-1.851563-1.527344-2.601563-2.035156v-.320313c.871094.261719 1.734375.5 2.601563.734375 1.265625.421875 1.894531 1.023438 1.894531 1.796875zm0 13.621094c0 1.207031-.21875 1.824219-.667969 1.824219-.460937 0-.75-.492188-.84375-1.476563-.210937-2.363281-1.160156-4.660156-2.84375-6.882812.054688-.117188.117188-.171875.210938-.171875.210937 0 .773437.515625 1.6875 1.546875.84375.929687 1.332031 1.539062 1.476562 1.820312.652344 1.171875.980469 2.28125.980469 3.339844zm.496094-9.792969c-.148438.117188-.273438.171875-.386719.171875-.050781 0-.324219-.023437-.8125-.070312-.488281-.042969-.753906-.074219-.808594-.074219l-4.664062.386719.28125 11.898437c0 1.292969-.230469 1.933594-.699219 1.933594-.21875 0-.417969-.386719-.589844-1.15625-.171875-.675781-.253906-1.34375-.253906-2 0-.378906.058594-.621094.171875-.734375l-.171875-9.765625c-1.433594.234375-2.6875.503906-3.753906.808594-.074219.023437-.210938.101562-.390625.226562-.1875.132813-.304688.199219-.351563.199219-.28125 0-.769531-.308594-1.476562-.910156-.585938-.523438-.949219-.886719-1.089844-1.09375.050781-.089844.136719-.179688.25-.246094.984375.683594 1.53125 1.015625 1.644531 1.015625.195313 0 1.890625-.277344 5.09375-.839844.046875 0 .074219-.128906.074219-.382812l-.105469-3.304688c.042969-.957031-.414062-1.925781-1.367187-2.910156.085937-.214844.179687-.3125.273437-.3125.214844 0 .765625.328125 1.671875.996094.898438.664062 1.351563 1.117187 1.351563 1.351562 0 .210938-.195313.539063-.5625.984375v3.402344h.097656c.5 0 1.765625-.171875 3.808594-.519531.050781 0 .179687-.070313.410156-.199219.21875-.128906.347656-.191406.402344-.191406.226562 0 .601562.117187 1.113281.351562.605469.277344.902344.558594.902344.839844 0 .046875-.023438.09375-.0625.144531zm-9.828125 5.402344c-.195313.042969-.414063.160156-.671875.347656-.703125 1.3125-1.402344 2.621094-2.101563 3.933594-.679687 1.144531-1.566406 2.203125-2.671875 3.15625-.050781-.019531-.144531-.097656-.28125-.238281.632813-.589844 1.390625-1.78125 2.28125-3.585938.933594-1.894531 1.40625-3.285156 1.40625-4.175781 0-.308594-.085937-.597656-.257812-.875-.183594-.28125-.273438-.441406-.273438-.496094 0-.1875.089844-.273437.246094-.273437.355469 0 .863281.289062 1.53125.875.667969.582031.925781 1.023437.792969 1.332031zm0 0"/></svg>