<svg height="40" viewBox="0 0 40 40" width="40" xmlns="http://www.w3.org/2000/svg"><path d="m34.25 28.441406c0 .070313-.035156.199219-.097656.390625l-3.515625-.070312c-.257813-.027344-.527344-.054688-.804688-.089844-.285156-.035156-.546875-.183594-.796875-.4375-.238281-.265625-1.566406-1.707031-3.976562-4.355469-1.84375-2.085937-2.851563-3.128906-3.023438-3.128906-.347656 0-2.460937.265625-6.347656.777344-1.03125 1.613281-2.125 3.066406-3.265625 4.347656-.511719.5625-1.417969 1.386719-2.707031 2.457031-1.539063 1.292969-2.515625 1.933594-2.90625 1.933594-.027344 0-.109375-.074219-.25-.207031 1.40625-1.007813 2.8125-2.289063 4.226562-3.828125 1.417969-1.542969 2.484375-3.007813 3.214844-4.386719-.886719.160156-2.746094.675781-5.582031 1.542969-.398438 0-.90625-.246094-1.527344-.742188-.621094-.488281-.996094-.945312-1.140625-1.363281.09375-.074219.183594-.109375.246094-.109375-.117188 0 .082031.125.597656.375.515625.238281 1.125.363281 1.824219.363281.257812 0 2.300781-.382812 6.144531-1.160156.140625-.277344.582031-1.296875 1.332031-3.046875-.023437-.03125-.054687-.035156-.109375-.035156-.296875 0-1.570312.304687-3.816406.910156-.378906 0-.859375-.1875-1.441406-.578125-.585938-.386719-.902344-.777344-.949219-1.175781.167969-.070313.230469-.105469.207031-.105469.75.441406 1.382813.660156 1.898438.660156.398437 0 1.929687-.21875 4.601562-.660156.390625-.984375.683594-1.925781.875-2.839844-1.378906.183594-2.617187.390625-3.71875.59375-.070312.027344-.210937.078125-.425781.171875-.207031.101563-.339844.140625-.386719.140625-.273437 0-.734375-.253906-1.367187-.769531-.585938-.449219-.984375-.832031-1.1875-1.160156.085937-.117188.171875-.179688.238281-.179688-.042969 0 .214844.136719.769531.390625.5625.261719 1.070313.386719 1.511719.386719.542969 0 2.144531-.214844 4.8125-.628906.046875-.046875.128906-.320313.265625-.808594.121094-.496094.1875-.8125.1875-.949219 0-.304687-.46875-.675781-1.402344-1.125.09375-.132812.273438-.207031.527344-.207031.277344 0 .796875.097656 1.546875.3125.953125.261719 1.4375.527344 1.4375.808594 0 .019531-.136719.21875-.390625.597656-.253906.375-.425781.738281-.519531 1.089844 1.679687-.121094 3.15625-.277344 4.414062-.492188.074219 0 .257813-.066406.546875-.195312.292969-.125.460938-.1875.511719-.1875.308594 0 .777344.132812 1.402344.414062.5625.242188.90625.402344 1.019531.496094v.246094c-.253906.117187-.949219.207031-2.074219.28125l-1.789062.132812c-.839844.054688-1.574219.109375-2.210938.179688.074219-.023438-.289062-.046875-1.085937-.070313-.46875-.019531-.796875.070313-.984375.277344-.277344.285156-.496094.703125-.652344 1.25-.152344.550781-.28125 1.074219-.402344 1.558594 1.730469-.15625 3.453125-.351563 5.15625-.558594.148438-.027344.382813-.105469.710938-.246094.328125-.144531.503906-.207031.523437-.207031.234375 0 .695313.113281 1.371094.347656.796875.257813 1.1875.492188 1.1875.699219 0 .253906-.328125.390625-.972656.390625h-1.871094l-3.996094.28125 2.664063 2.597656c.890625-.070312 2.222656-.195312 4.003906-.390625.113281 0 .347656-.082031.707031-.257812.351563-.179688.546875-.261719.589844-.261719.234375 0 .785156.128906 1.65625.390625 1.003906.285156 1.511719.546875 1.511719.785156 0 .148438-.324219.28125-.949219.398438h-3.515625l-3.191406.25c2.738281 2.410156 4.503906 3.921875 5.296875 4.523437 2.179687 1.710938 4.046875 2.792969 5.613281 3.265625zm-12.949219-8.601562c-.234375-.328125-.597656-.78125-1.085937-1.367188-.710938-.800781-1.183594-1.191406-1.445313-1.191406.054688 0-.179687.019531-.695312.074219-.308594.039062-.507813.019531-.601563-.074219l-1.257812 3.191406zm0 0"/></svg>