<svg height="40" viewBox="0 0 40 40" width="40" xmlns="http://www.w3.org/2000/svg"><path d="m33.265625 11.949219c0 .328125-.238281.484375-.734375.484375l-2.949219-.136719c-2.359375 0-5.347656.207031-8.96875.644531-3.613281.433594-5.335937.652344-5.175781.652344.019531 0-.09375-.015625-.347656-.035156-.257813-.023438-.480469-.039063-.671875-.039063.164062.351563.25 1.023438.25 2.007813 0 3.757812-.449219 6.957031-1.335938 9.582031-1.03125 3.015625-2.695312 5.566406-5.019531 7.644531l-.28125-.273437c1.566406-1.664063 2.761719-3.515625 3.578125-5.546875.5625-1.359375 1.066406-3.210938 1.511719-5.542969-.117188.089844-.871094.925781-2.261719 2.503906s-2.097656 2.371094-2.121094 2.371094c-.847656 0-1.507812-1.003906-2.003906-3.015625h.421875c.042969.113281.171875.3125.386719.597656.210937.277344.347656.414063.421875.414063.234375 0 1.1875-.640625 2.875-1.921875.535156-.382813 1.300781-1 2.28125-1.871094 0-.183594.015625-.464844.035156-.839844v-4.910156c-.128906-.488281-.253906-.847656-.363281-1.050781-.226563-.421875-.546875-.789063-.96875-1.09375v-.417969l2.878906.378906c1.496094-.085937 3.738281-.3125 6.738281-.660156-.117187-.355469-.144531-.871094-.085937-1.546875.054687-.675781.023437-1.167969-.089844-1.472656-.214844-.492188-.660156-.90625-1.371094-1.226563v-.382812h.386719c.328125 0 .890625.144531 1.683594.445312.941406.355469 1.410156.71875 1.410156 1.089844 0 .050781-.035156.152344-.105469.324219-.070312.15625-.113281.289062-.144531.382812-.234375 1.007813-.347656 1.683594-.347656 2.03125v.179688c.050781.039062.128906.070312.242187.070312.164063 0 1.011719-.085937 2.527344-.25 1.714844-.164062 2.8125-.289062 3.300781-.382812.042969 0 .234375-.089844.5625-.261719.328125-.175781.515625-.265625.5625-.265625.484375 0 1.101563.105469 1.824219.316406.984375.257813 1.46875.59375 1.46875 1.023438zm-22.003906 5.960937c0 .539063-.164063.808594-.492188.808594-.253906 0-.789062-.574219-1.617187-1.71875-.8125-1.144531-1.226563-1.796875-1.226563-1.933594 0-.117187.046875-.175781.140625-.175781 1.078125.421875 1.8125.785156 2.210938 1.089844.65625.492187.984375 1.132812.984375 1.929687zm0 0"/></svg>