<svg height="40" viewBox="0 0 40 40" width="40" xmlns="http://www.w3.org/2000/svg"><path d="m32.671875 25.214844-.035156.25c-.257813 0-.664063.023437-1.210938.082031-.550781.0625-.96875.089844-1.242187.089844-1.148438 0-1.980469-.203125-2.496094-.601563-1.199219-.957031-2.527344-2.394531-4.003906-4.3125-2.109375-2.785156-3.3125-4.335937-3.609375-4.664062-3.679688 4.785156-7.914063 8.046875-12.710938 9.753906l-.035156-.25c2.453125-1.332031 4.5625-2.808594 6.324219-4.417969l-3.65625-3.335937.101562-.246094c.167969.027344.414063.046875.734375.066406.449219.074219 1.140625.386719 2.074219.949219.050781.050781.4375.761719 1.15625 2.144531 1.453125-1.382812 2.839844-3 4.144531-4.84375-.085937-.125-.195312-.164062-.316406-.144531l-4.140625.949219c-.253906.050781-.636719-.25-1.136719-.898438-.503906-.640625-.78125-1.113281-.832031-1.414062.050781-.054688.125-.074219.214844-.074219l.53125.453125c.441406.378906 1.023437.566406 1.75.566406.285156 0 1.070312-.09375 2.367187-.269531 1.296875-.171875 2.023438-.296875 2.15625-.363281.054688-.023438.140625-.109375.289063-.261719.140625-.152344.234375-.234375.273437-.234375.121094 0 .414063.144531.859375.421875.464844.285156.6875.484375.6875.597656 0 .167969-.175781.351563-.523437.5625l2.597656 2.496094c1.683594-1.378906 2.527344-2.183594 2.527344-2.386719 0-.125-.085938-.269531-.246094-.457031-.234375-.253906-.363281-.410156-.386719-.457031l.136719-.246094c1.589844 1.050781 2.390625 1.765625 2.390625 2.140625 0 .144531-.09375.230469-.28125.28125-.277344.046875-.714844.15625-1.296875.3125-.542969.234375-1.359375.597656-2.457031 1.089844l2.242187 2.179687 3.15625-2.566406c-.039062-.183594-.191406-.375-.445312-.5625l.0625-.203125c.144531-.050781.265625-.074219.359375-.074219.234375 0 .609375.210938 1.132812.636719.527344.410156.789063.738281.789063.972656 0 .167969-.101563.289063-.3125.351563-1.496094.472656-2.949219 1.054687-4.355469 1.757812 2.652344 2.246094 4.875 3.636719 6.671875 4.179688zm0 0"/></svg>