<svg height="40" viewBox="0 0 40 40" width="40" xmlns="http://www.w3.org/2000/svg"><path d="m29.40625 29.5c0 .371094-.269531.546875-.808594.519531-1.847656-.113281-2.769531-.171875-2.769531-.171875-2.109375 0-4.574219.152344-7.410156.453125-.234375.027344-1.074219.152344-2.523438.386719-1.175781.1875-1.96875.28125-2.390625.28125-.628906 0-1.597656-.441406-2.910156-1.332031.183594-.1875.292969-.28125.3125-.28125.140625 0 .472656.0625 1 .191406.53125.136719.933594.191406 1.207031.191406 0 0 .765625-.046875 2.289063-.140625v-18.535156c0-.136719-.320313-.488281-.949219-1.046875v-.425781h.28125c.277344 0 .894531.234375 1.859375.707031.328125-.050781.8125-.113281 1.4375-.207031 1.097656-.101563 2.71875-.292969 4.847656-.601563.117188-.019531.328125-.109375.652344-.25.3125-.132812.480469-.207031.5-.207031.144531 0 .449219.191406.921875.582031.464844.386719.699219.632813.699219.75 0 .023438-.078125.183594-.226563.476563-.15625.289062-.242187.507812-.265625.644531-.144531.65625-.222656 1.910156-.242187 3.753906-.140625 8.875-.214844 13.3125-.214844 13.3125 0 .117188.035156.210938.105469.277344h1.332031c.113281 0 .316406-.066406.597656-.214844.28125-.132812.480469-.207031.59375-.207031.28125 0 .683594.109375 1.199219.316406.582031.277344.875.542969.875.777344zm-5.902344-13.90625v-4.703125c-.226562-.234375-.40625-.355469-.519531-.355469l-6.214844.710938v4.664062c.890625.214844 1.449219.304688 1.683594.277344zm0 5.722656v-4.878906c-3.242187.402344-4.867187.597656-4.867187.597656s-.621094-.09375-1.867188-.285156v4.566406c.917969.328125 1.402344.492188 1.445313.492188zm0 7.585938v-6.636719c-3.429687.234375-5.253906.347656-5.46875.347656-.300781 0-.726562-.09375-1.265625-.273437v7.085937zm0 0"/></svg>