<svg height="40" viewBox="0 0 40 40" width="40" xmlns="http://www.w3.org/2000/svg"><path d="m22.578125 24.597656c1.777344-.320312 3.550781-.484375 5.324219-.484375h3.710937c.75 0 1.125-.21875 1.125-.644531 0-1.105469-1.554687-1.855469-4.675781-2.261719-.535156.59375-1.234375.96875-2.09375 1.132813-1.453125.269531-2.957031.535156-4.515625.804687.136719-2.421875.292969-5.050781.484375-7.90625.027344-.265625.078125-.640625.160156-1.125-.617187-.96875-1.910156-1.453125-3.875-1.453125l-.320312.324219c0 .324219.21875.699219.644531 1.128906.433594.429688.644531.914063.644531 1.449219.109375 2.582031.164063 5.269531.164063 8.066406l-2.578125.484375v-7.097656c.101562-.375.210937-.699219.320312-.96875-.566406-1.183594-1.800781-1.769531-3.710937-1.769531l-.324219.320312c0 .324219.21875.640625.644531.964844.433594.324219.648438.703125.648438 1.128906.210937 2.609375.375 5.1875.484375 7.746094-2.449219.535156-4.917969 1.019531-7.417969 1.449219l-.160156.320312c.535156.539063 1.34375.917969 2.414062 1.132813 1.210938-.375 2.449219-.699219 3.710938-.96875zm3.066406-9.515625-.320312.320313c.109375.320312.160156.703125.160156 1.128906-.917969 1.503906-2.042969 3.011719-3.386719 4.515625l.164063.324219c1.878906-1.046875 3.757812-2.070313 5.640625-3.0625.644531-.164063.96875-.375.96875-.648438 0-1.070312-1.074219-1.9375-3.226563-2.578125zm-15.804687 3.546875-.324219.324219c.886719 3.222656 1.800781 4.839844 2.746094 4.839844.425781 0 .640625-.324219.640625-.96875 0-.726563-.164063-1.480469-.480469-2.261719-.917969-.613281-1.777344-1.261719-2.582031-1.933594zm0 0"/></svg>