<svg height="40" viewBox="0 0 40 40" width="40" xmlns="http://www.w3.org/2000/svg"><path d="m28.214844 24.894531c0 .328125-.058594.90625-.171875 1.734375-.121094.835938-.179688 1.496094-.179688 1.984375 0 .164063.042969.433594.125.789063.078125.363281.125.628906.125.796875 0 .414062-.132812.625-.390625.625-.515625 0-1.316406-.640625-2.414062-1.921875-2.25-2.605469-4.136719-6.125-5.652344-10.570313-1.199219.296875-3 .652344-5.410156 1.054688-.164063 2.410156-.246094 3.59375-.246094 3.539062v2.636719l4.878906-2.074219.070313.25c-.140625.09375-1.148438.8125-3.023438 2.171875-1.769531 1.265625-2.675781 1.898438-2.695312 1.898438-.117188 0-.289063-.292969-.511719-.875-.21875-.585938-.332031-.96875-.332031-1.164063 0-.039062.054687-.238281.171875-.570312.117187-.34375.191406-.574219.210937-.6875.308594-2.183594.460938-5.375.460938-9.585938 0-.535156-.351563-1.207031-1.058594-2.003906.050781-.0625.113281-.097656.214844-.097656.070312 0 .28125.109375.628906.332031.355469.21875.546875.328125.597656.328125.257813 0 1.351563-.566406 3.28125-1.699219 1.933594-1.140625 3.027344-1.84375 3.28125-2.125-.039062-.398437-.242187-.75-.597656-1.054687.140625-.0625.253906-.101563.355469-.101563.304687 0 .742187.199219 1.316406.601563.566406.390625.859375.734375.859375 1.007812 0 .140625-.589844.507813-1.753906 1.089844-.703125.328125-1.417969.65625-2.148438.984375.824219.421875 1.371094 1.183594 1.65625 2.28125.398438 1.683594.632813 2.609375.703125 2.769531.699219-.140625 1.699219-.40625 2.980469-.800781.046875-.03125.183594-.113281.402344-.285156.226562-.15625.375-.246094.445312-.246094.277344 0 .699219.074219 1.261719.207031.699219.171875 1.046875.328125 1.046875.5 0 .09375-.113281.183594-.347656.277344-.605469.234375-1.515625.457031-2.734375.671875-1.429688.230469-2.359375.410156-2.808594.558594.234375.796875.652344 1.976562 1.261719 3.546875.46875 1.050781 1.109375 2.257812 1.929687 3.613281 1.125 1.824219 1.929688 2.734375 2.421875 2.734375.234375 0 .5625-.484375.984375-1.46875.257813-.636719.527344-1.265625.804688-1.894531zm-3.46875 5.480469c0 .296875-.195313.449219-.5625.449219-.117188 0-.292969-.011719-.527344-.046875-.238281-.039063-.417969-.054688-.53125-.054688h-4.769531c-.792969 0-1.886719.136719-3.265625.421875-1.007813.234375-1.492188.351563-1.4375.351563-.476563 0-1.09375-.621094-1.867188-1.859375.074219-.09375.152344-.148438.246094-.148438-.019531 0 .140625.140625.472656.414063.34375.265625.652344.398437.9375.398437-.097656 0 .414063-.046875 1.542969-.140625 1.378906-.070312 3.425781-.25 6.140625-.523437.121094 0 .308594-.054688.5625-.148438.253906-.085937.449219-.132812.5625-.132812.308594 0 .769531.109375 1.40625.3125.722656.238281 1.089844.472656 1.089844.707031zm-5.304688-12.886719v-.25c0-.085937-.164062-.660156-.492187-1.71875-.28125-.976562-.453125-1.578125-.527344-1.785156-.183594-.46875-.605469-.8125-1.261719-1.019531l-3.160156 1.15625c.300781.613281.449219 1 .417969 1.160156l-.203125 3.71875zm0 0"/></svg>