<svg height="40" viewBox="0 0 40 40" width="40" xmlns="http://www.w3.org/2000/svg"><path d="m25.777344 22.828125c0 .484375-.179688.734375-.53125.734375-.328125 0-.621094-.203125-.886719-.597656-1.425781-2.203125-3.847656-4.226563-7.253906-6.074219l.140625 14.84375c0 1.21875-.195313 1.832031-.5625 1.832031-.308594 0-.585938-.421875-.84375-1.269531-.234375-.71875-.355469-1.296875-.355469-1.71875 0 .050781.015625.074219.035156.074219.027344-.074219.0625-.179688.105469-.3125.074219-.234375.144531-.5.214844-.777344.070312-14.785156.109375-21.707031.109375-20.746094 0-.398437-.195313-.816406-.5625-1.257812-.382813-.449219-.761719-.730469-1.164063-.851563.023438-.1875.121094-.273437.277344-.273437.5625 0 1.234375.234375 2.003906.703125.871094.507812 1.304688 1.007812 1.304688 1.503906 0 .027344-.101563.285156-.289063.792969-.179687.5-.273437.910156-.273437 1.207031l-.140625 5.761719c2.078125.582031 3.875 1.304687 5.367187 2.171875 2.199219 1.289062 3.304688 2.707031 3.304688 4.253906zm0 0"/></svg>