<svg height="40" viewBox="0 0 40 40" width="40" xmlns="http://www.w3.org/2000/svg"><path d="m33.0625 24.019531c0 .542969-.230469.8125-.671875.8125-.394531 0-.761719-.226562-1.089844-.671875-3.15625-4.28125-6-7.300781-8.53125-9.054687.054688-.046875.109375-.132813.183594-.25 1.75.941406 2.933594 1.582031 3.542969 1.929687 1.285156.75 2.429687 1.585938 3.4375 2.496094.421875.371094.984375 1.03125 1.691406 1.96875.953125 1.261719 1.4375 2.1875 1.4375 2.769531zm-15.378906-6.910156c0 .113281-.324219.3125-.980469.589844-1.566406 1.617187-3.125 3.070312-4.671875 4.351562-1.285156 1.078125-2.933594 2.109375-4.949219 3.09375-.023437-.070312-.070312-.175781-.144531-.3125 1.386719-.828125 2.84375-2.015625 4.378906-3.566406 1.53125-1.550781 2.699219-3.027344 3.492188-4.40625-.28125-.421875-.574219-.671875-.882813-.734375.09375-.167969.382813-.25.84375-.25.234375 0 .726563.121094 1.476563.347656.960937.308594 1.4375.601563 1.4375.886719zm0 0"/></svg>