<svg height="40" viewBox="0 0 40 40" width="40" xmlns="http://www.w3.org/2000/svg"><path d="m31.019531 28.621094c0 .273437-.289062.523437-.875.734375-.441406.160156-.851562.242187-1.222656.242187h-5.375c-.933594 0-1.691406-.335937-2.261719-1.015625-.570312-.675781-.859375-1.503906-.859375-2.457031l.105469-14.003906c0-.9375-.433594-1.539063-1.300781-1.792969.070312-.144531.25-.207031.523437-.207031.234375 0 .679688.09375 1.335938.273437.847656.234375 1.265625.496094 1.265625.773438-.179688.191406-.382813.445312-.609375.773437-.078125.445313-.167969 1.570313-.265625 3.371094v11.300781c0 .308594.128906.609375.382812.914063.492188.585937.992188.945312 1.511719 1.09375.230469.066406.792969.101562 1.683594.101562 2.296875 0 3.59375-.140625 3.894531-.425781.1875-.160156.386719-.734375.59375-1.71875.027344-.066406.136719-.667969.324219-1.785156h.175781c.019531.675781.15625 1.660156.410156 2.941406l.324219.324219c.160156.203125.238281.394531.238281.5625zm-14.769531-16.078125c0 .09375-.050781.179687-.160156.257812-.105469.085938-.167969.164063-.195313.230469v1.894531c-.046875 2.808594-.472656 5.40625-1.265625 7.792969-.976562 2.96875-2.816406 5.359375-5.503906 7.160156-.074219-.019531-.121094-.09375-.144531-.207031 2.15625-1.453125 3.722656-3.949219 4.703125-7.480469.707031-2.523437 1.054687-5.296875 1.054687-8.316406 0-.730469-.054687-1.203125-.175781-1.441406-.207031-.417969-.765625-.875-1.65625-1.367188.03125-.050781.074219-.117187.144531-.210937h.246094c.261719-.023438.558594.007812.917969.101562.140625.023438.488281.226563 1.050781.601563.65625.441406.984375.769531.984375.984375zm0 0"/></svg>