<svg height="40" viewBox="0 0 40 40" width="40" xmlns="http://www.w3.org/2000/svg"><path d="m26.347656 7.609375c-3.390625 4.050781-5.296875 6.078125-5.710937 6.078125 0-.019531-.09375-.074219-.289063-.140625.308594-.328125.949219-1.246094 1.933594-2.738281 1.1875-1.804688 1.785156-2.90625 1.785156-3.296875 0-.148438-.125-.328125-.363281-.546875-.246094-.21875-.4375-.339844-.582031-.339844-.023438-.0625 0-.171875.070312-.3125h.5625c.257813 0 .75.160156 1.496094.488281.734375.328125 1.097656.601563 1.097656.808594zm-8.734375 4.636719c0 .609375-.179687.914062-.53125.914062-.441406 0-1.585937-1.863281-3.429687-5.585937.203125-.09375.296875-.136719.273437-.136719.09375 0 .515625.3125 1.261719.949219.675781.601562 1.113281 1.003906 1.308594 1.191406.738281.816406 1.117187 1.707031 1.117187 2.667969zm0 0"/></svg>