<svg height="40" viewBox="0 0 40 40" width="40" xmlns="http://www.w3.org/2000/svg"><path d="m29.144531 7.769531c0 .117188-.191406.261719-.5625.421875-.234375.09375-.46875.210938-.6875.351563s-1.363281 1.332031-3.414062 3.578125c-1.78125 1.96875-2.84375 2.953125-3.199219 2.953125-.046875 0-.128906-.074219-.246094-.210938.277344-.164062 1.121094-1.210937 2.53125-3.144531 1.398438-1.933594 2.101563-3 2.101563-3.214844 0-.234375-.140625-.328125-.417969-.273437-3.207031.488281-5.140625.734375-5.796875.734375-.296875 0-.597656-.015625-.875-.039063-1.40625 1.527344-3.03125 2.976563-4.878906 4.355469-1.429688 1.078125-2.28125 1.609375-2.5625 1.609375l-.28125-.238281c.890625-.539063 2.304687-1.8125 4.242187-3.828125 2.109375-2.171875 3.167969-3.601563 3.167969-4.28125 0-.402344-.269531-.789063-.8125-1.15625v-.460938h.214844c.441406 0 1.035156.183594 1.769531.546875.738281.367188 1.109375.742188 1.109375 1.136719 0 .234375-.222656.421875-.671875.5625-.042969.050781-.1875.238281-.421875.5625.261719.113281.613281.183594 1.058594.183594.507812 0 1.453125-.109375 2.820312-.324219 1.371094-.214844 2.324219-.386719 2.867188-.527344.066406-.019531.234375-.097656.503906-.242187.269531-.140625.417969-.214844.441406-.214844.234375 0 .621094.144531 1.179688.441406.546875.292969.820312.539063.820312.71875zm0 0"/></svg>