<svg height="40" viewBox="0 0 40 40" width="40" xmlns="http://www.w3.org/2000/svg"><path d="m23.75 11.765625c0-.582031-.953125-1.144531-2.855469-1.6875-1.757812.910156-3.867187 1.722656-6.332031 2.425781-.597656-.316406-1.265625-.53125-2.003906-.632812l-.105469.316406c.140625.472656.3125.792969.527344.949219.125.085937.191406.335937.210937.738281.070313 1.691406.105469 2.855469.105469 3.484375 0 1.160156-.105469 2.285156-.316406 3.378906-.636719 3.21875-2.25 6.179688-4.855469 8.871094l.105469.207031c3.179687-1.632812 5.363281-4.625 6.546875-8.972656.347656-1.300781.523437-3.800781.523437-7.496094l4.75-1.265625.320313.210938c-.355469 5.539062-.527344 9.484375-.527344 11.828125.066406 3.285156 1.371094 5.148437 3.90625 5.59375.808594.140625 1.863281.207031 3.167969.207031.929687 0 2.195312-.140625 3.796875-.421875.773437-.140625 1.160156-.421875 1.160156-.84375 0-.316406-.171875-.703125-.527344-1.160156-.347656-.476563-.773437-1.953125-1.265625-4.433594h-.210937c-.261719 2.730469-.617188 4.238281-1.054688 4.542969-.421875.28125-1.796875.421875-4.117187.421875-2.183594 0-3.273438-.953125-3.273438-2.855469 0-4.816406.351563-8.375 1.054688-10.660156.335937-1.074219.757812-1.992188 1.269531-2.746094zm0 0"/></svg>