<svg height="40" viewBox="0 0 40 40" width="40" xmlns="http://www.w3.org/2000/svg"><path d="m30.457031 13.890625c0 .140625-.097656.339844-.3125.597656-.207031.257813-.328125.433594-.347656.527344-.09375.394531-.253906 1.097656-.488281 2.109375-2.390625 9.613281-4.964844 14.636719-7.730469 15.058594l-.027344.035156c-.097656 0-.175781-.074219-.25-.214844-.539062-.820312-1.125-1.484375-1.757812-2.003906-.699219-.488281-1.414063-.972656-2.136719-1.472656l.066406-.242188c2.460938 1.074219 3.933594 1.617188 4.429688 1.617188.535156 0 1.007812-.230469 1.4375-.667969.207031-.207031.515625-.671875.910156-1.371094.792969-1.382812 1.535156-2.992187 2.214844-4.847656.414062-1.144531.859375-2.640625 1.332031-4.496094.535156-2.101562.800781-3.582031.800781-4.453125 0-.160156-.097656-.3125-.3125-.4375-.207031-.128906-.40625-.195312-.597656-.195312-1.753906 0-3.828125.210937-6.207031.632812-.140625.023438-.839844.1875-2.109375.492188-.984375.234375-1.652344.351562-2 .351562-.382813 0-1.058594-.222656-2.03125-.664062-1.570313 1.847656-3.464844 3.460937-5.6875 4.835937l-.109375-.273437c3.179687-2.511719 5.582031-5.671875 7.191406-9.515625-.042969-.296875-.371094-.726563-.984375-1.261719.074219-.160156.191406-.25.359375-.25.371094 0 .875.144531 1.511719.421875.71875.328125 1.082031.644531 1.082031.949219 0 .097656-.128906.234375-.386719.425781-.253906.183594-.398437.300781-.421875.347656-.46875.867188-1.144531 2.070313-2.035156 3.617188.308594.140625.761719.210937 1.375.210937.253906 0 .933594-.082031 2.03125-.234375 1.105469-.148437 2.871094-.382812 5.300781-.710937 1.1875-.167969 1.839844-.265625 1.929688-.289063.675781-.09375 1.3125-.253906 1.894531-.488281.261719.027344.671875.28125 1.230469.777344.5625.488281.835937.851562.835937 1.082031zm0 0"/></svg>