<svg height="40" viewBox="0 0 40 40" width="40" xmlns="http://www.w3.org/2000/svg"><path d="m24.597656 9.613281c0 .042969-.101562.339844-.3125.875-.03125.375-.125.949219-.28125 1.71875v13.523438l.355469 4.066406c.019531.253906-.082031.75-.324219 1.472656-.253906.84375-.53125 1.261719-.835937 1.261719-.117188 0-.214844-.058594-.289063-.175781-.835937-1.375-2.226562-2.515625-4.171875-3.402344-.023437-.046875 0-.140625.070313-.28125 2.109375.609375 3.253906.910156 3.441406.910156.308594 0 .503906-.132812.597656-.421875.042969-.207031.078125-.425781.101563-.660156l-.101563-18.605469c-.140625-.707031-.617187-1.425781-1.441406-2.175781.027344-.046875.074219-.136719.144531-.25 2.03125.871094 3.046875 1.582031 3.046875 2.144531zm-6.664062 4.242188c0 .03125-.054688.207031-.164063.535156-.097656.328125-.164062.53125-.1875.625l-.144531 7.410156c-.160156.8125-.375 1.230469-.628906 1.230469-.1875 0-.351563-.28125-.496094-.84375-.113281-.449219-.171875-.75-.171875-.910156 0-.074219.042969-.21875.121094-.4375.082031-.230469.125-.359375.125-.414063v-7.367187c0-.121094-.132813-.324219-.402344-.617188-.269531-.289062-.464844-.472656-.582031-.535156 0-.074219.019531-.171875.070312-.285156.328125.039062.75.195312 1.261719.457031.796875.394531 1.199219.78125 1.199219 1.152344zm0 0"/></svg>