<svg height="40" viewBox="0 0 40 40" width="40" xmlns="http://www.w3.org/2000/svg"><path d="m32.636719 9.238281c0 .289063-.515625.46875-1.542969.5625-4.964844.421875-7.644531.65625-8.035156.699219-3.054688.308594-5.714844.671875-8.011719 1.09375 0 5.449219-1.105469 10.359375-3.328125 14.707031-.355469.683594-1.011719 1.710938-1.972656 3.089844-1.167969 1.683594-1.867188 2.527344-2.105469 2.527344-.046875-.023438-.140625-.074219-.277344-.148438 1.9375-2.570312 3.4375-5.5625 4.492188-8.976562 1.003906-3.257813 1.507812-6.570313 1.507812-9.933594 0-1.058594-.382812-2.015625-1.160156-2.878906.097656-.214844.207031-.320313.324219-.320313.085937 0 .441406.136719 1.050781.402344.605469.269531.949219.410156 1.019531.410156.742188 0 3.089844-.265625 7.039063-.773437 3.9375-.515625 6.21875-.867188 6.820312-1.058594.074219-.019531.25-.121094.546875-.296875.292969-.175781.460938-.261719.507813-.261719.351562 0 .9375.132813 1.753906.386719.910156.28125 1.371094.535156 1.371094.769531zm0 0"/></svg>