<svg height="40" viewBox="0 0 40 40" width="40" xmlns="http://www.w3.org/2000/svg"><path d="m31.613281 9.417969c0 .050781-.113281.253906-.347656.617187-.234375.355469-.347656.765625-.347656 1.210938 0 .445312-.015625 1.113281-.039063 2.019531-.019531.894531-.035156 1.582031-.035156 2.046875 0 6.859375.09375 11.597656.285156 14.222656.023438.296875-.125.917969-.4375 1.859375-.320312.933594-.570312 1.398438-.757812 1.398438s-.445313-.371094-.773438-1.121094c-.722656-1.308594-1.960937-2.441406-3.722656-3.40625l.140625-.238281c1.878906.835937 3.019531 1.257812 3.410156 1.257812.355469 0 .523438-.210937.523438-.632812v-19.234375l-1.054688-.804688-17.65625 1.546875c-.09375 4.277344-.171875 10.558594-.242187 18.851563 0 1.238281-.230469 1.859375-.667969 1.859375-.207031 0-.472656-.386719-.792969-1.148438-.3125-.757812-.472656-1.28125-.472656-1.5625 0-.226562.058594-.570312.171875-1.03125.121094-.460937.191406-.789062.214844-1 .234375-2.925781.347656-5.722656.347656-8.394531v-6.035156c0-1.261719-.328125-2.101563-.972656-2.523438l.097656-.285156h.347656c.195313 0 .46875.078125.851563.25.367187.15625.644531.246094.835937.246094.136719 0 1.21875-.109375 3.230469-.320313.890625-.097656 2.480469-.242187 4.777344-.453125 2.804687-.234375 5.789062-.523437 8.945312-.882812.074219 0 .554688-.171875 1.445313-.523438.207031.023438.707031.355469 1.507812.996094.796875.652344 1.1875 1.050781 1.1875 1.214844zm0 0"/></svg>