<svg height="40" viewBox="0 0 40 40" width="40" xmlns="http://www.w3.org/2000/svg"><path d="m35.832031 27.597656-.109375.246094c-.140625 0-.410156 0-.800781 0-.5 0-.886719 0-1.160156 0 0 0-.65625 0-1.96875 0-.933594 0-1.609375-.09375-2.039063-.277344-.226562-.09375-2.082031-2.007812-5.539062-5.757812l-6.183594-6.636719c-1.515625 2.496094-3.542969 4.90625-6.066406 7.253906-2.605469 2.4375-5.164063 4.246094-7.695313 5.417969l-.101562-.246094c1.546875-.835937 3.914062-2.988281 7.125-6.429687 3.421875-3.683594 5.128906-6.183594 5.128906-7.496094 0-.449219-.191406-.859375-.5625-1.234375.019531-.1875.097656-.28125.246094-.28125.351562 0 .972656.238281 1.859375.703125.890625.46875 1.335937.847656 1.335937 1.125 0 .167969-.285156.417969-.847656.746094 4.609375 4.144531 7.347656 6.578125 8.214844 7.273437 3.515625 2.867188 6.566406 4.726563 9.164062 5.59375zm0 0"/></svg>