<svg height="40" viewBox="0 0 40 40" width="40" xmlns="http://www.w3.org/2000/svg"><path d="m33.546875 8.332031c0 .164063-.09375.273438-.28125.3125-.910156.289063-1.917969.789063-3.019531 1.511719l-2.808594 1.859375-.277344-.3125 3.085938-3.96875-.492188-.421875h-6.3125c-1.96875.03125-4.257812.183594-6.882812.457031l-6.851563.746094c-.15625.808594-.410156 2.015625-.765625 3.621094-.375 1.460937-1.0625 2.359375-2.066406 2.6875-.285156-.257813-.421875-.820313-.421875-1.683594 0-.277344.371094-1.09375 1.121094-2.457031.75-1.359375 1.125-2.429688 1.125-3.226563 0-.820312-.195313-1.535156-.5625-2.144531.160156-.09375.269531-.136719.3125-.136719.234375 0 .503906.3125.8125.949219.15625.441406.332031.890625.519531 1.332031l13.375-1.09375c1.144531-.054687 3.191406-.175781 6.152344-.347656.15625-.019531.40625-.105469.734375-.25.328125-.136719.5625-.203125.695312-.203125.328125 0 .875.378906 1.652344 1.136719.769531.757812 1.15625 1.304687 1.15625 1.632812zm0 0"/></svg>