<svg height="40" viewBox="0 0 40 40" width="40" xmlns="http://www.w3.org/2000/svg"><path d="m34.144531 12.019531c0 .371094-.40625.546875-1.226562.527344l-3.898438-.140625c-2.859375-.09375-7.488281.332031-13.898437 1.296875-1.617188.234375-3.074219.484375-4.390625.738281-.136719.023438-.5.132813-1.085938.3125-.46875.148438-.832031.210938-1.085937.210938-.679688 0-1.585938-.886719-2.703125-2.667969l.28125-.140625c1.125.847656 2.003906 1.21875 2.640625 1.125l10.625-1.402344v-3.515625c0-1.394531-.546875-2.425781-1.648438-3.082031l.0625-.246094h.25c.328125 0 .96875.152344 1.933594.460938 1.050781.328125 1.574219.601562 1.574219.835937 0-.019531-.136719.246094-.414063.808594-.097656.328125-.144531.949219-.144531 1.859375v2.53125c-.28125 0 .386719-.050781 2.003906-.144531 2.359375-.140625 4.53125-.3125 6.527344-.527344.050781-.019531.222656-.097656.527344-.246094.300781-.140625.472656-.207031.492187-.207031.371094 0 1.042969.199219 1.996094.59375 1.058594.421875 1.582031.765625 1.582031 1.019531zm0 0"/></svg>