<svg height="40" viewBox="0 0 40 40" width="40" xmlns="http://www.w3.org/2000/svg"><path d="m13.125 12.800781c0 .523438-.140625.777344-.421875.777344-.394531 0-1.222656-.574219-2.496094-1.722656l-2.484375-2.246094.136719-.175781c.703125.285156 1.75.707031 3.15625 1.285156 1.410156.566406 2.109375 1.265625 2.109375 2.082031zm.734375 8.359375c0 .117188-.65625 1.296875-1.96875 3.542969-1.09375 1.875-1.859375 3.136719-2.28125 3.792969-.136719.234375-.253906.539062-.347656.910156-.140625.496094-.234375.8125-.277344.949219-.050781.140625-.140625.210937-.285156.210937-.234375 0-.71875-.546875-1.476563-1.648437-.75-1.101563-1.101562-1.792969-1.082031-2.070313l.277344-.140625c.539062.746094.914062 1.125 1.125 1.125.207031 0 1.210937-1.046875 3.015625-3.128906.707031-.816406 1.769531-2.058594 3.191406-3.71875.074219.019531.109375.078125.109375.175781zm0 0"/></svg>