<svg height="40" viewBox="0 0 40 40" width="40" xmlns="http://www.w3.org/2000/svg"><path d="m23.859375 27.644531c0 .523438-.160156.777344-.488281.777344-.164063-.09375-1.109375-.761719-2.84375-2-1.917969-1.363281-3.136719-2.15625-3.65625-2.390625.03125-.066406.070312-.175781.144531-.3125 2.109375.328125 3.800781.855469 5.09375 1.574219.253906.144531.609375.503906 1.066406 1.09375.453125.582031.683594 1.003906.683594 1.257812zm1.15625 7.976563c0 .441406-.171875.660156-.527344.660156-.398437 0-.804687-.171875-1.222656-.527344-2.738281-2.316406-5.503906-3.984375-8.28125-5.015625.042969-.070312.097656-.171875.171875-.316406 1.074219.230469 2.691406.59375 4.84375 1.09375 1.660156.410156 2.996094 1.238281 4.003906 2.449219.679688.820312 1.011719 1.367187 1.011719 1.65625zm0 0"/></svg>