<svg height="40" viewBox="0 0 40 40" width="40" xmlns="http://www.w3.org/2000/svg"><path d="m29.65625 8.753906c0 .230469-.636719.421875-1.894531.558594-.121094.03125-1.855469.28125-5.195313.753906-2.625.371094-4.019531.558594-4.175781.558594-.308594 0-.636719-.109375-.984375-.316406l-.5625-.324219c.0625 0-.65625.675781-2.183594 2.035156-1.660156 1.476563-3.023437 2.480469-4.101562 3.015625-.074219-.019531-.140625-.109375-.214844-.242187.910156-.703125 1.96875-1.640625 3.160156-2.808594.375-.375 1.023438-1.144531 1.933594-2.316406 1.191406-1.546875 1.792969-2.578125 1.792969-3.089844 0-.558594-.386719-1.019531-1.164063-1.371094.070313-.164062.179688-.242187.320313-.242187.398437 0 .96875.1875 1.71875.554687.929687.46875 1.398437.945313 1.398437 1.414063l-1.960937 2.242187c.65625.210938 1.085937.3125 1.296875.3125.328125-.066406.945312-.160156 1.859375-.273437 2.25-.308594 3.96875-.59375 5.164062-.851563.09375-.019531.265625-.097656.539063-.242187.269531-.140625.445312-.203125.507812-.203125.257813 0 .742188.0625 1.445313.203125.863281.1875 1.300781.398437 1.300781.632812zm0 0"/></svg>