<svg height="40" viewBox="0 0 40 40" width="40" xmlns="http://www.w3.org/2000/svg"><path d="m29.582031 26.371094c0 .75-.195312 1.125-.597656 1.125-.328125 0-.796875-.542969-1.402344-1.617188-.257812-.460937-.648437-1.171875-1.160156-2.101562-1.566406.300781-4.410156.835937-8.53125 1.59375-.957031.164062-2.644531.492187-5.050781.992187-.09375.023438-.28125.121094-.5625.304688-.28125.175781-.4375.265625-.460938.265625-.347656 0-.671875-.277344-.960937-.851563-.292969-.554687-.4375-1.039062-.4375-1.441406.273437-.0625.65625-.207031 1.125-.417969.253906-.207031 1.316406-1.894531 3.191406-5.050781s2.808594-4.8125 2.808594-4.980469c0-.140625-.164063-.410156-.476563-.8125-.3125-.390625-.472656-.601562-.472656-.628906 0-.066406.035156-.144531.105469-.246094h.242187c.429688 0 .996094.304688 1.710938.890625.707031.601563 1.0625 1.09375 1.0625 1.496094 0 .191406-.148438.386719-.449219.597656-.378906.257813-.597656.398438-.671875.421875-.796875.933594-2.890625 3.824219-6.28125 8.671875.027344.023438.066406.03125.140625.03125h.074219c1.125 0 3.867187-.242187 8.242187-.738281 1.75-.183594 3.546875-.417969 5.371094-.699219-1.050781-1.566406-2.28125-3.132812-3.683594-4.703125.0625-.070312.152344-.101562.246094-.101562.140625 0 1.015625.640625 2.636719 1.925781 1.609375 1.292969 2.5 2.0625 2.660156 2.316406 1.058594 1.609375 1.582031 2.867188 1.582031 3.757813zm0 0"/></svg>