<svg height="40" viewBox="0 0 40 40" width="40" xmlns="http://www.w3.org/2000/svg"><path d="m15.214844 9.386719c0 .117187-.214844.289062-.621094.523437s-.625.382813-.660156.4375c-.039063.058594-.558594 1.042969-1.5625 2.96875-.214844.417969-.601563 1.167969-1.164063 2.246094.5625.394531.902344.734375 1.015625 1.015625.054688.144531.074219.480469.074219 1.019531l-.25 13.859375c-.019531.75-.230469 1.125-.625 1.125-.359375 0-.652344-.445312-.878906-1.332031-.183594-.683594-.28125-1.15625-.28125-1.4375 0-.019531.066406-.167969.191406-.4375.128906-.269531.199219-.472656.199219-.613281.109375-.9375.238281-2.921875.382812-5.96875v-3.859375c.023438-1.148438-.109375-1.96875-.382812-2.460938-1.546875 2.339844-3.40625 4.683594-5.589844 7.023438l-.277344-.148438c1.261719-1.648437 2.351563-3.285156 3.265625-4.875.679688-1.144531 1.542969-2.804687 2.601563-4.984375 1.1875-2.429687 1.785156-3.863281 1.785156-4.285156 0-.160156-.160156-.441406-.488281-.839844l-.496094-.597656c0-.042969.011719-.097656.035156-.171875.023438-.074219.039063-.128906.039063-.175781h.207031c.308594 0 .925781.195312 1.859375.597656 1.078125.46875 1.621094.925781 1.621094 1.371094zm0 0"/></svg>