<svg height="40" viewBox="0 0 40 40" width="40" xmlns="http://www.w3.org/2000/svg"><path d="m34.011719 12.207031c0 .09375-.089844.25-.273438.476563-.175781.21875-.269531.359375-.289062.414062-.03125.058594-.109375.875-.25 2.445313-.308594 3.367187-.5625 6.703125-.773438 10.003906-.046875.636719-.101562 1.371094-.175781 2.207031-.1875 1.078125-.535156 1.621094-1.058594 1.621094-.253906 0-.414062-.234375-.488281-.691406l-.136719-.933594c-1.003906-.183594-2.515625-.285156-4.53125-.308594l-4.351562-.109375c-1.375-.019531-3.402344.109375-6.074219.386719-2.921875.308594-4.863281.65625-5.828125 1.058594-.09375.019531-.277344.148437-.558594.382812s-.488281.351563-.632812.351563c-.164063 0-.421875-.3125-.789063-.933594-.363281-.621094-.546875-1.019531-.546875-1.207031.027344-.070313.117188-.242188.277344-.527344.28125-.582031.4375-1.183594.464844-1.785156v-4.179688c0-2.625-.132813-4.585937-.386719-5.898437-.167969-.84375-.707031-1.570313-1.621094-2.171875l.140625-.324219c.515625.074219 1.21875.34375 2.109375.8125 1.007813.515625 1.507813.957031 1.507813 1.332031 0 .136719-.078125.34375-.242188.609375-.164062.273438-.242187.417969-.242187.4375v11.625l11.632812-.914062 9.917969.109375.910156-13.199219c.046875-.519531-.082031-1.015625-.40625-1.496094-.3125-.472656-.710937-.8125-1.207031-1l.171875-.3125h.214844c.460937 0 1.144531.183594 2.03125.558594.984375.394531 1.484375.78125 1.484375 1.160156zm0 0"/></svg>