<svg height="40" viewBox="0 0 40 40" width="40" xmlns="http://www.w3.org/2000/svg"><path d="m28.285156 7.484375c0 .285156-.226562.425781-.671875.425781h-2.804687c-.632813 0-2.445313.277344-5.445313.839844.023438.027344.367188.246094 1.023438.667969.488281.328125.738281.597656.738281.8125 0 .113281-.140625.257812-.425781.453125-.351563.226562-.539063.382812-.558594.457031-.542969.722656-1.375 2.609375-2.496094 5.652344 1.40625-.261719 3.324219-.734375 5.761719-1.445313.0625-.019531.246094-.125.535156-.3125.304688-.191406.453125-.28125.476563-.28125.210937 0 .742187.324219 1.597656.964844.859375.640625 1.28125 1.050781 1.28125 1.214844 0 .09375-.113281.265625-.347656.519531s-.367188.425781-.386719.5c-.113281.277344-.292969 1.03125-.527344 2.269531l-.171875.921875c-.171875.890625-.269531 1.421875-.320312 1.609375-.699219 2.574219-1.210938 4.3125-1.539063 5.195313-.65625 1.804687-1.539062 3.398437-2.632812 4.773437-.496094.617188-.84375.914063-1.058594.914063-.136719 0-.238281-.0625-.3125-.210938-1.097656-1.6875-2.683594-3.144531-4.738281-4.382812l.175781-.246094c.515625.230469 1.285156.59375 2.316406 1.082031 1.027344.496094 1.789063.742188 2.28125.742188.542969 0 .933594-.105469 1.1875-.320313.796875-.65625 1.664063-2.789062 2.605469-6.421875.859375-3.328125 1.296875-5.707031 1.296875-7.160156 0-.113281-.167969-.328125-.496094-.636719-.273437 0-1.378906.242188-3.296875.726563-1.914062.476562-3.03125.785156-3.335937.929687-.070313.042969-.234375.214844-.492188.492188-.253906.28125-.5.421875-.734375.421875-.160156 0-.359375-.277344-.578125-.824219-.222656-.558594-.332031-.933594-.332031-1.144531.09375-.09375.332031-.40625.734375-.949219.234375-.296875.667969-1.183594 1.296875-2.628906.636719-1.453125.949219-2.3125.949219-2.601563 0-.210937-.101563-.492187-.3125-.859375-.210938-.363281-.40625-.539062-.601563-.539062-.398437 0-1.023437.15625-1.894531.46875-.863281.316406-1.46875.472656-1.824219.472656-.675781 0-1.503906-.839844-2.488281-2.527344.019531-.019531.058594-.035156.097656-.035156l.8125.5625c.539063.402344 1.085938.597656 1.648438.597656.492187 0 2.117187-.253906 4.878906-.769531 2.761719-.519531 4.46875-.855469 5.125-1.019531.074219-.027344.28125-.109375.636719-.265625.347656-.152344.535156-.226563.554687-.226563.449219 0 .984375.101563 1.617188.3125.796875.261719 1.195312.53125 1.195312.808594zm0 0"/></svg>