<svg height="40" viewBox="0 0 40 40" width="40" xmlns="http://www.w3.org/2000/svg"><path d="m26.878906 8.964844c0 .164062-.078125.304687-.25.421875-.253906.234375-.40625.46875-.445312.703125-.027344.300781-.054688.617187-.074219.945312-.183594 1.9375-.339844 3.328125-.453125 4.179688-.308594 1.957031-.671875 3.484375-1.09375 4.5625-.140625.328125-.410156.796875-.800781 1.398437-.496094.730469-.835938 1.089844-1.023438 1.089844-.160156 0-.328125-.238281-.488281-.738281-.308594-.585938-1.253906-1.261719-2.84375-2.03125.042969-.070313.09375-.164063.136719-.28125 1.546875.351562 2.382812.523437 2.53125.523437.5625 0 .9375-.222656 1.125-.671875.414062-.972656.796875-2.359375 1.125-4.140625.296875-1.703125.445312-3.117187.445312-4.242187v-1.46875c-.113281-.148438-.296875-.289063-.554687-.429688l-8.429688 1.375v20.746094c0 .234375-.0625.546875-.1875.949219-.128906.390625-.289062.585937-.472656.585937-.261719 0-.472656-.351562-.636719-1.082031-.113281-.511719-.171875-.910156-.171875-1.191406v-19.273438c0-1.003906-.398437-1.707031-1.195312-2.109375.070312-.1875.1875-.28125.347656-.28125.285156 0 .765625.109375 1.441406.320313l.980469.351562c-.042969 0 .503906-.0625 1.65625-.175781 1.917969-.1875 4.03125-.515625 6.347656-.984375.101563-.019531.28125-.105469.546875-.25.273438-.136719.429688-.207031.476563-.207031.160156 0 .535156.195312 1.101562.582031.574219.386719.859375.660156.859375.824219zm0 0"/></svg>