<svg height="40" viewBox="0 0 40 40" width="40" xmlns="http://www.w3.org/2000/svg"><path d="m25.035156 7.628906c0 .09375-.066406.164063-.203125.214844-.132812.046875-.238281.078125-.304687.105469-.9375.753906-2.355469 1.867187-4.265625 3.332031.90625.863281 1.351562 1.417969 1.351562 1.652344 0 .1875-.085937.28125-.265625.28125-.179687 0-.375-.09375-.578125-.28125-.96875-.902344-1.546875-1.421875-1.71875-1.5625-.703125-.585938-1.347656-1.023438-1.929687-1.304688.023437-.085937.050781-.132812.085937-.132812.292969 0 1.234375.398437 2.828125 1.207031.40625-.375 1.015625-.964844 1.824219-1.769531 1.019531-1.03125 1.527344-1.589844 1.527344-1.671875 0-.125-.046875-.195313-.140625-.195313-.679688 0-1.703125.105469-3.078125.3125-1.375.203125-2.386719.402344-3.027344.605469-.035156.011719-.121094.046875-.238281.113281-.121094.0625-.210938.09375-.257813.09375-.140625 0-.453125-.179687-.9375-.546875-.484375-.359375-.734375-.601562-.742187-.734375l.085937-.140625c.386719.328125.8125.492188 1.277344.492188 0 0 .464844-.042969 1.386719-.136719l1.914062-.191406c.667969-.0625 1.859375-.183594 3.578125-.371094.074219 0 .195313-.035156.371094-.105469.175781-.070312.28125-.109375.316406-.109375.140625 0 .367188.109375.679688.328125.304687.214844.460937.386719.460937.515625zm0 0"/></svg>