<svg height="40" viewBox="0 0 40 40" width="40" xmlns="http://www.w3.org/2000/svg"><path d="m28.6875 9.324219-.136719.382812c-.117187.328125-.175781.542969-.175781.636719-.113281 1.378906-.292969 3.441406-.527344 6.175781-.304687 3.210938-.65625 5.710938-1.054687 7.511719-.09375.402344-.234375.8125-.417969 1.234375-.355469.769531-.714844 1.15625-1.09375 1.15625-.207031 0-.355469-.078125-.449219-.246094-.519531-.957031-1.46875-1.988281-2.84375-3.09375l2.808594.8125c.421875.023438.675781-.304687.769531-.984375.820313-5.351562 1.226563-9.453125 1.226563-12.28125v-1.054687c-.0625-.375-.328125-.5625-.773438-.5625l-7.648437.910156v21.484375c0 .207031-.074219.441406-.214844.707031-.136719.257813-.300781.386719-.484375.386719-.265625 0-.484375-.25-.671875-.746094-.160156-.414062-.238281-.78125-.238281-1.085937l.273437-2.210938v-18.320312l-5.125.382812c-.117187 0-.242187-.066406-.390625-.210937-.132812-.136719-.207031-.273438-.207031-.386719 0-.253906.964844-.46875 2.878906-.625.402344-.03125 1.117188-.089844 2.140625-.175781 1.996094-.1875 4.984375-.480469 8.984375-.882813.101563 0 .359375-.125.792969-.363281.4375-.25.660156-.375.683594-.375.234375 0 .613281.25 1.125.738281.515625.496094.769531.851563.769531 1.085938zm0 0"/></svg>