<svg height="40" viewBox="0 0 40 40" width="40" xmlns="http://www.w3.org/2000/svg"><path d="m29.636719 27.84375c0 .496094-.9375.902344-2.8125 1.230469-1.355469.234375-2.539063.351562-3.542969.351562h-4.878906c-3.34375 0-5.324219-.703125-5.933594-2.109375-.449219-1.023437-.667969-1.785156-.667969-2.28125v-11.019531c0-.910156-.476562-1.675781-1.4375-2.28125.121094-.1875.21875-.285156.320313-.285156.1875 0 .988281.285156 2.421875.847656 1.753906-.234375 4.335937-.640625 7.753906-1.234375.046875-.019531.542969-.183594 1.472656-.488281.257813 0 .730469.21875 1.40625.648437.679688.433594 1.015625.761719 1.015625.964844 0 .113281-.082031.328125-.238281.636719-.191406.367187-.300781.601562-.324219.695312-.066406.167969-.210937.855469-.421875 2.074219-.46875 2.597656-1.285156 4.671875-2.457031 6.214844-.394531.515625-.707031.769531-.941406.769531-.167969 0-.460938-.417969-.882813-1.261719-.394531-.488281-1.34375-1.160156-2.84375-2 .054688-.1875.109375-.285156.179688-.285156.28125 0 .820312.121094 1.628906.355469.8125.226562 1.417969.347656 1.808594.347656.753906 0 1.378906-1.03125 1.894531-3.097656.425781-1.671875.621094-3.027344.597656-4.085938-.113281-.09375-.363281-.285156-.742187-.566406l-8.625 1.296875c-.210938 3.71875-.320313 7.4375-.320313 11.15625 0 1.527344.28125 2.53125.84375 3.019531.492188.445313 1.515625.667969 3.085938.667969h3.054687c2.359375 0 3.886719-.058594 4.5625-.171875 1.898438-.347656 2.9375-1.214844 3.121094-2.582031.050781-1.074219.109375-2.132813.175781-3.179688h.289063c.070312.9375.132812 1.65625.207031 2.140625.121094.839844.269531 1.546875.453125 2.109375.03125.023438.183594.257813.457031.699219.214844.308594.320313.542969.320313.703125zm0 0"/></svg>