<svg height="40" viewBox="0 0 40 40" width="40" xmlns="http://www.w3.org/2000/svg"><path d="m27.796875 26.953125c0 .5625-.191406.84375-.5625.84375-.265625 0-.484375-.152344-.671875-.457031-1.144531-1.824219-3.019531-3.71875-5.613281-5.6875-2.828125 3.929687-5.671875 6.679687-8.53125 8.25l-.214844-.28125c2.722656-2.125 5.246094-5.054688 7.582031-8.777344-1.445312-1.167969-3.484375-2.40625-6.109375-3.71875.148438-.214844.242188-.316406.289063-.316406.421875 0 2.59375.945312 6.523437 2.84375.234375-.261719.855469-1.386719 1.859375-3.367188 1.171875-2.296875 1.757813-3.785156 1.757813-4.460937 0-.164063-.136719-.414063-.421875-.742188-.277344-.328125-.527344-.554687-.734375-.695312.09375-.1875.1875-.289063.28125-.289063.816406 0 1.546875.234375 2.171875.710938.847656.601562 1.269531 1.128906 1.269531 1.578125 0 .144531-.125.273437-.371094.40625-.25.125-.378906.203125-.398437.222656-.851563 1.613281-2.21875 4.0625-4.117188 7.339844 1.242188.816406 2.460938 1.707031 3.652344 2.664062.46875.375.980469.996094 1.527344 1.859375.550781.871094.832031 1.558594.832031 2.074219zm0 0"/></svg>