<svg height="40" viewBox="0 0 40 40" width="40" xmlns="http://www.w3.org/2000/svg"><path d="m27.09375 21.015625c0 .261719-.140625.386719-.425781.386719h-1.011719c-.890625 0-1.800781.09375-2.746094.28125l-.0625 8.597656c-.03125.964844-.269531 1.441406-.722656 1.441406-.363281 0-.546875-.363281-.546875-1.09375v-8.769531c-.636719.160156-1.71875.503906-3.277344 1.019531-1.859375.679688-2.648437 1.015625-2.394531 1.015625-.347656 0-.910156-.175781-1.691406-.523437-.871094-.351563-1.308594-.671875-1.308594-.949219 0 0 .035156-.074219.109375-.214844l1.4375.351563c.191406-.023438.46875-.078125.847656-.171875l.101563-8.359375c.019531-1.1875-.199219-1.976563-.664063-2.34375-.191406-.140625-.285156-.25-.285156-.320313l.109375-.242187c.253906.039062.675781.226562 1.261719.5625.773437.421875 1.160156.8125 1.160156 1.191406l-.175781.453125c-.117188.347656-.1875.613281-.210938.769531-.285156 3.445313-.421875 6.078125-.421875 7.902344v.3125l5.402344-1.472656.109375-10.808594c0-.769531-.347656-1.269531-1.046875-1.480469.019531-.066406.058594-.160156.097656-.273437h.179688c.28125 0 .710937.113281 1.296875.347656.796875.308594 1.195312.691406 1.195312 1.15625 0 .097656-.082031.488281-.25 1.199219l-.25 9.617187c.03125.023438.0625.027344.109375.027344.195313 0 .78125-.113281 1.789063-.347656.050781 0 .15625-.039063.320312-.125.164063-.078125.257813-.117188.277344-.117188.214844 0 .546875.117188 1 .351563.457031.234375.6875.445312.6875.628906zm0 0"/></svg>