<svg height="40" viewBox="0 0 40 40" width="40" xmlns="http://www.w3.org/2000/svg"><path d="m33.027344 22.875c0 .375-.4375.546875-1.304688.527344l-7.09375-.171875c-1.164062 0-4.46875.289062-9.894531.875-.769531.09375-1.582031.222656-2.421875.382812-.113281.054688-.472656.152344-1.058594.320313-.390625.117187-.753906.175781-1.082031.175781-.375 0-.949219-.292969-1.722656-.878906-.679688-.511719-1.167969-.976563-1.476563-1.367188l.320313-.210937c1.445312.675781 2.257812 1.003906 2.414062.984375l13.449219-1.445313.847656-4.914062c-.445312-.328125-.753906-.492188-.921875-.492188-.953125 0-2.441406.199219-4.453125.601563-2.109375.394531-3.53125.78125-4.28125 1.160156-.304687 0-.785156-.363281-1.441406-1.09375-.582031-.652344-.957031-1.167969-1.125-1.542969l.496094-.171875c1.125.765625 1.722656 1.152344 1.785156 1.152344.378906 0 .984375-.105469 1.832031-.3125 1.664063-.160156 4.125-.488281 7.402344-.984375.09375 0 .308594-.074219.636719-.230469.328125-.148437.515625-.222656.554687-.222656.234375 0 .59375.1875 1.074219.578125.484375.386719.722656.683594.722656.894531 0 .164063-.054687.328125-.179687.492188l-.351563.382812c-.097656.234375-.269531.984375-.523437 2.246094-.257813 1.269531-.386719 2.027344-.386719 2.28125h.171875c1.988281 0 3.207031-.042969 3.65625-.136719.074219-.019531.238281-.109375.511719-.265625.269531-.148437.421875-.222656.472656-.222656.328125 0 .96875.203125 1.921875.625.964844.425781 1.449219.753906 1.449219.984375zm0 0"/></svg>