<svg height="40" viewBox="0 0 40 40" width="40" xmlns="http://www.w3.org/2000/svg"><path d="m31.96875 29.933594c0 .378906-.355469.523437-1.082031.457031l-4.183594-.347656-6.488281-.074219c.140625 0-.496094.035156-1.898438.105469-.632812.046875-3.207031.363281-7.71875.945312-.050781.027344-.171875.230469-.375.632813-.195312.398437-.390625.597656-.570312.597656-.234375 0-.484375-.457031-.742188-1.371094-.234375-.796875-.347656-1.273437-.347656-1.4375l.238281-.632812c.148438-.445313.230469-.773438.25-.984375.09375-1.09375.210938-3.078125.351563-5.929688l.109375-2.878906v-7.761719c0-.253906-.1875-.65625-.5625-1.1875-.382813-.539062-.683594-.867187-.917969-.984375.027344-.09375.058594-.25.109375-.457031.113281.050781.566406.222656 1.371094.527344.722656.28125 1.09375.421875 1.125.421875 1.863281 0 4.3125-.164063 7.332031-.492188 2.425781-.253906 4.863281-.523437 7.300781-.804687.042969-.046875.246094-.148438.609375-.304688.367188-.148437.585938-.222656.652344-.222656.261719 0 .765625.171875 1.53125.527344.753906.347656 1.136719.617187 1.136719.804687 0 .164063-.351563.308594-1.046875.421875h-4.851563c-.796875.023438-2.632812.179688-5.507812.453125-.917969.074219-2.121094.214844-3.617188.421875l-2.242187.3125-.460938-.0625c-.304687-.03125-.539062-.035156-.703125-.035156.257813.308594.386719.5.386719.597656 0 .023438-.046875.152344-.136719.402344-.09375.246094-.15625.417969-.179687.511719l-.417969 17.648437c1.609375 0 4.050781-.164062 7.3125-.507812 3.269531-.335938 5.71875-.5 7.359375-.5h1.4375l1.71875-.390625c2.480469.628906 3.71875 1.15625 3.71875 1.578125zm0 0"/></svg>