<svg height="40" viewBox="0 0 40 40" width="40" xmlns="http://www.w3.org/2000/svg"><path d="m30.316406 10.15625c0 .277344-1.753906.855469-5.265625 1.71875-1.914062.449219-4.796875 1.128906-8.628906 2.074219-.191406 7.4375-2.378906 13.359375-6.566406 17.753906-.117188-.042969-.171875-.125-.171875-.238281.0625-.117188.53125-.914063 1.398437-2.390625.984375-1.6875 1.605469-2.914063 1.859375-3.683594 1.21875-3.71875 1.859375-6.964844 1.933594-9.730469l.035156-1.570312c.023438-.964844-.382812-1.640625-1.234375-2.039063v-.421875h.289063c.304687 0 .71875.1875 1.242187.574219.527344.390625.886719.722656 1.074219 1.011719 4.46875-1.21875 8.1875-2.417969 11.15625-3.585938-.113281-.257812-.371094-.625-.769531-1.09375.1875-.160156.300781-.238281.351562-.238281.277344 0 .859375.203125 1.75.625 1.039063.496094 1.546875.90625 1.546875 1.234375zm0 0"/></svg>