<svg height="40" viewBox="0 0 40 40" width="40" xmlns="http://www.w3.org/2000/svg"><path d="m32.308594 17.535156c0 .289063-.289063.402344-.851563.355469l-3.015625-.214844h-1.050781l-1.019531 4.449219c-.328125 1.402344-.679688 2.660156-1.054688 3.777344.398438.234375 1.011719.578125 1.824219 1.015625 1.011719.582031 1.511719 1.078125 1.511719 1.472656 0 .296875-.09375.453125-.28125.453125-.214844 0-.777344-.234375-1.6875-.703125-.585938-.308594-1.1875-.605469-1.824219-.910156-.234375.445312-.605469 1.109375-1.121094 2-.796875 1.332031-1.488281 2.003906-2.070312 2.003906-.140625 0-.3125-.34375-.527344-1.019531-.167969-.542969-.84375-1.277344-2.03125-2.210938.019531-.050781.0625-.132812.136719-.25 1.632812.730469 2.550781 1.089844 2.734375 1.089844.265625 0 .847656-.65625 1.757812-1.964844-2.476562-1.148437-5.726562-1.753906-9.722656-1.828125h-1.863281c-.183594 0-.398438.058594-.632813.15625-.226562.105469-.382812.164063-.457031.164063-.328125 0-.488281-.351563-.488281-1.058594l1.015625-2.066406c.726562-1.476563 1.207031-2.601563 1.441406-3.371094-.09375 0-.582031.09375-1.472656.28125l-1.371094.28125c-.308594 0-.746094-.175781-1.316406-.535156-.570313-.355469-.964844-.671875-1.179688-.949219l.289063-.277344c-.328125 0-.117188.09375.625.273438.753906.171875 1.21875.257812 1.410156.257812.511719 0 1.625-.113281 3.328125-.347656.097656-.140625.402344-1.125.910156-2.9375.5625-2.003906.851563-3.238281.851563-3.703125 0-.46875-.289063-.980469-.851563-1.542969.074219-.164062.15625-.242187.25-.242187s.335938.144531.734375.421875c.402344.28125.65625.421875.777344.421875.09375 0 .65625-.058594 1.683594-.179688 1.566406-.164062 3.910156-.441406 7.023437-.84375.09375-.019531.304688-.109375.648438-.257812.335937-.15625.519531-.230469.539062-.230469.210938 0 .71875.199219 1.53125.597656.808594.402344 1.210938.679688 1.210938.84375 0 .121094-.074219.25-.210938.390625l-.285156.28125-.699219 5.671875c.074219.03125.226563.039063.460938.039063.253906 0 .601562-.058594 1.046875-.171875.445312-.121094.773437-.179688.984375-.179688.28125 0 .742187.164063 1.382812.476563.648438.3125.976563.59375.976563.820312zm-5.480469-6.421875c-.050781-.722656-.246094-1.085937-.597656-1.085937l-4.3125.488281c.441406.378906.660156.628906.660156.746094 0 .140625-.160156.453125-.488281.945312-.261719 1.1875-.609375 2.839844-1.058594 4.945313l5.234375-.492188zm-5.933594.773438c-.140625-.742188-.375-1.121094-.703125-1.121094l-4.140625.453125c-.070312.828125-.617187 2.988281-1.65625 6.457031l5.589844-.414062zm5.226563 5.789062h-.804688l-4.421875.359375-1.65625 6.664063c2.085938.285156 3.746094.632812 4.984375 1.054687.757813-2.296875 1.386719-4.984375 1.898438-8.078125zm-6.277344.53125c-2.0625 0-3.9375.15625-5.625.460938-.644531 1.765625-1.394531 3.625-2.246094 5.582031h2.53125l3.757813.3125zm0 0"/></svg>