<svg height="40" viewBox="0 0 40 40" width="40" xmlns="http://www.w3.org/2000/svg"><path d="m32.777344 31.207031c0 .683594-.214844 1.023438-.636719 1.023438-.296875 0-.71875-.609375-1.261719-1.828125-.347656-.796875-1.414062-2.039063-3.191406-3.71875l.109375-.214844c1.957031 1.011719 3.046875 1.582031 3.261719 1.722656 1.140625.84375 1.71875 1.851563 1.71875 3.015625zm-8.039063-.097656c0 .910156-.269531 1.363281-.804687 1.363281-.402344 0-.636719-.195312-.703125-.59375l-.527344-2.8125c-.238281-.910156-.625-1.769531-1.15625-2.597656.09375-.09375.171875-.136719.238281-.136719.167969 0 .625.5 1.390625 1.511719.761719 1.003906 1.179688 1.644531 1.242188 1.933594.210937.601562.320312 1.046875.320312 1.332031zm-7.367187-.921875c0 1.875-.308594 2.816406-.914063 2.816406-.210937 0-.410156-.238281-.597656-.707031-.140625-.394531-.214844-.734375-.214844-1.015625 0-.347656.070313-.863281.195313-1.542969.128906-.679687.191406-1.195312.191406-1.546875 0-.160156-.035156-.617187-.109375-1.367187l.214844-.105469c.820312 1.261719 1.234375 2.421875 1.234375 3.46875zm-6.8125-2.097656c0 1.003906-.25 2.113281-.742188 3.332031-.609375 1.496094-1.316406 2.246094-2.140625 2.246094-.300781 0-.453125-.234375-.453125-.699219 0-.636719.492188-1.488281 1.476563-2.566406.984375-1.074219 1.515625-2.078125 1.609375-3.023438h.25zm0 0"/></svg>