<svg height="40" viewBox="0 0 40 40" width="40" xmlns="http://www.w3.org/2000/svg"><path d="m30.636719 25.402344c0 .632812-.199219.945312-.601563.945312-.390625 0-.75-.21875-1.046875-.660156-1.503906-2.183594-3.078125-3.878906-4.738281-5.089844.042969-.050781.097656-.15625.171875-.320312.816406.398437 2.019531 1.003906 3.621094 1.832031 1.722656.972656 2.59375 2.078125 2.59375 3.292969zm-2.074219-8.421875c0 .328125-.246094.488281-.734375.488281h-1.089844l-5.332031.421875v6.777344c0 .09375.019531.222656.074219.398437.039062.179688.0625.3125.0625.40625 0 .234375-.078125.632813-.234375 1.195313-.203125.726562-.402344 1.09375-.605469 1.09375-.222656 0-.402344-.308594-.535156-.921875-.109375-.464844-.171875-.78125-.171875-.949219 0-.113281 0-.28125 0-.5 0-.230469 0-.394531 0-.511719v-1.375l.109375-5.222656c-.023438-.027344-.09375-.035156-.210938-.035156-.46875 0-1.53125.1875-3.195312.554687-.074219.027344-.242188.085938-.511719.179688-.265625.09375-.425781.140625-.472656.140625-1.121094 0-2.054688-.507813-2.808594-1.511719.046875-.046875.105469-.140625.175781-.277344.371094.210938.90625.367188 1.585938.449219l5.4375-.949219v-2.171875c0-.960937-.308594-1.660156-.914063-2.101562.023438-.070313.070313-.179688.140625-.320313.308594.027344.796875.195313 1.476563.492188.789062.347656 1.191406.691406 1.191406 1.019531 0-.421875-.097656-.171875-.296875.738281-.199219.914063-.296875 1.542969-.296875 1.898438v.3125c1.566406-.121094 2.746094-.242188 3.542969-.386719.113281-.027344.34375-.109375.6875-.265625.332031-.152344.515625-.222656.546875-.222656.226562 0 .644531.097656 1.257812.3125.75.257812 1.121094.539062 1.121094.84375zm-11.027344 5.515625c0 .132812-.144531.257812-.445312.378906-.171875.046875-.34375.109375-.527344.183594-2.316406 1.722656-4.675781 2.976562-7.058594 3.753906l-.140625-.285156c.726563-.371094 1.417969-.808594 2.074219-1.296875.390625-.308594 1.066406-.90625 2.03125-1.796875 1.125-1.046875 1.6875-1.703125 1.6875-1.960938 0-.070312-.25-.3125-.738281-.738281v-.316406c.347656 0 .960937.269531 1.820312.804687.871094.542969 1.296875.964844 1.296875 1.273438zm0 0"/></svg>