<svg height="40" viewBox="0 0 40 40" width="40" xmlns="http://www.w3.org/2000/svg"><path d="m15.316406 14.308594c0 .285156-1.023437.710937-3.085937 1.304687v3.820313l2.28125-1.898438c.070312.03125.164062.101563.285156.214844l-2.566406 2.878906v9.71875c0 .195313-.03125.4375-.105469.742188-.09375.441406-.207031.671875-.347656.671875-.261719 0-.507813-.355469-.734375-1.054688-.171875-.515625-.25-.90625-.25-1.160156 0-.046875.039062-.449219.140625-1.207031.09375-.765625.132812-1.226563.132812-1.390625l.074219-3.859375v-1.648438c-.511719.484375-1.296875 1.242188-2.347656 2.246094-1.242188 1.1875-1.914063 1.785156-2.007813 1.785156-.253906 0-.65625-.226562-1.207031-.6875-.546875-.453125-.847656-.804687-.894531-1.0625.023437-.070312.09375-.128906.207031-.175781.421875.324219.765625.488281 1.050781.488281.136719 0 1.007813-.597656 2.59375-1.789062 1.601563-1.195313 2.46875-1.902344 2.605469-2.105469v-4.214844c-.019531-.019531-.058594-.050781-.097656-.070312l-2.203125.492187c-.375-.070312-.820313-.203125-1.328125-.382812-.839844 1.144531-1.726563 2.109375-2.65625 2.875-.0625-.046875-.125-.085938-.171875-.105469.351562-.371094.914062-1.316406 1.679687-2.84375.84375-1.660156 1.273438-2.785156 1.273438-3.371094 0-.1875-.308594-.441406-.914063-.769531.085938-.191406.183594-.277344.277344-.277344.28125 0 .765625.195313 1.457031.589844.695313.402344 1.039063.730469 1.039063.984375 0 .019531-.230469.363281-.6875 1.019531-.460938.65625-.710938 1.027344-.75 1.125.109375.117188.351562.171875.71875.171875.171875 0 .570312-.070312 1.21875-.207031.648437-.140625 1.03125-.25 1.144531-.316406v-4.527344c0-.421875-.386719-1.042969-1.15625-1.859375 0-.050781.019531-.113281.074219-.214844h.171875c.328125 0 .847656.183594 1.5625.542969.710937.363281 1.070312.6875 1.070312.96875 0 .066406-.050781.234375-.160156.488281-.105469.257813-.183594.386719-.230469.386719-.039062.214844-.070312.605469-.070312 1.199219-.042969 1.84375-.042969 2.769531 0 2.769531.140625 0 .445312-.128906.90625-.402344.457031-.269531.710937-.410156.765625-.410156.832031 0 1.242187.175781 1.242187.527344zm0 0"/></svg>