<svg height="40" viewBox="0 0 40 40" width="40" xmlns="http://www.w3.org/2000/svg"><path d="m31.933594 14.386719c0 .398437-.351563.597656-1.046875.597656-.054688 0-.507813-.042969-1.375-.136719l-1.335938-.070312h-1.789062c-1.6875.019531-5.507813.421875-11.480469 1.191406-1.167969.140625-2.28125.308594-3.332031.488281-.117188.03125-.367188.109375-.734375.25-.375.136719-.578125.210938-.601563.210938-.09375 0-.476562-.28125-1.160156-.84375-.675781-.5625-1.011719-.875-1.011719-.949219.023438 0 .0625-.082031.136719-.238281.890625.390625 1.433594.585937 1.613281.585937l9.902344-1.171875v-4.4375l-3.550781.4375c-.417969 0-1.0625-.144531-1.921875-.441406-.683594.707031-1.257813 1.292969-1.726563 1.753906-1.191406 1.199219-1.992187 1.886719-2.421875 2.074219l-.109375-.25c.246094-.230469.621094-.640625 1.164063-1.222656.613281-.710938 1.289062-1.679688 2.035156-2.917969.75-1.238281 1.128906-2.09375 1.128906-2.558594 0-.117187-.242187-.523437-.707031-1.234375v-.238281h.347656c.328125 0 .796875.203125 1.390625.613281.59375.40625.890625.765625.890625 1.070313-.535156.863281-1.046875 1.578125-1.546875 2.140625.148438.113281.59375.242187 1.339844.382812l3.6875-.488281v-4.703125c-.34375-.402344-.808594-.730469-1.40625-.984375v-.214844h.457031c.257813-.019531.78125.074219 1.585938.289063.953125.253906 1.4375.539062 1.4375.835937 0 0-.132813.183594-.386719.546875-.253906.367188-.394531.617188-.425781.75v3.371094c.613281-.066406 1.617187-.3125 3.019531-.734375.167969-.121094.324219-.21875.472656-.316406.152344-.09375.371094-.136719.652344-.136719.886719 0 1.332031.183594 1.332031.5625 0 .347656-.6875.640625-2.054687.875 0 0-1.136719.1875-3.421875.558594l-.171875 4.457031c1.992187-.046875 4.242187-.234375 6.726562-.5625.148438-.019531.445313-.113281.90625-.277344.449219-.164062.695313-.25.71875-.25.328125 0 .835938.121094 1.511719.351563.839844.304687 1.261719.632812 1.261719.984375zm0 0"/></svg>