<svg height="40" viewBox="0 0 40 40" width="40" xmlns="http://www.w3.org/2000/svg"><path d="m29.683594 12.785156c0 .210938-.257813.328125-.773438.351563l-5.648437.132812c-2.929688.074219-5.507813.304688-7.75.671875-.402344.074219-1.214844.273438-2.433594.601563l-1.957031.523437c-.328125 0-.792969-.304687-1.375-.910156-.511719-.519531-.851563-.96875-1.011719-1.371094l.203125-.101562c1.125.601562 1.910156.890625 2.355469.835937l7.0625-.835937v-1.546875c0-1.121094-.4375-1.992188-1.308594-2.59375l.144531-.214844c1.984375.394531 2.984375.800781 2.984375 1.222656 0 .101563-.082031.402344-.226562.914063-.152344.519531-.234375.90625-.234375 1.160156v.910156c1.335937-.066406 3.328125-.21875 5.972656-.453125.113281 0 .332031-.0625.660156-.195312.328125-.121094.523438-.1875.5625-.1875.328125 0 .875.125 1.636719.382812.761719.257813 1.136719.492188 1.136719.703125zm1.582031 16.605469c0 .65625-1.683594.984375-5.050781.984375-1.855469 0-3.023438-.175781-3.515625-.527344-.652344-.472656-.980469-1.597656-.980469-3.375 0-.910156.035156-2.257812.125-4.054687.082031-1.789063.121094-3.140625.121094-4.054688 0-.140625-.121094-.351562-.355469-.628906-1.1875.140625-2.847656.375-4.980469.703125-.257812 2.386719-.382812 3.796875-.382812 4.246094 0 1.734375-.84375 3.535156-2.53125 5.40625-1.476563 1.632812-3.101563 2.832031-4.882813 3.582031l-.097656-.175781c2.332031-1.523438 4.027344-3.304688 5.050781-5.339844.960938-1.917969 1.4375-4.3125 1.4375-7.199219 0-.769531-.347656-1.492187-1.050781-2.171875.066406-.09375.140625-.132812.214844-.132812.179687 0 .835937.273437 1.960937.835937 1.242188-.117187 2.84375-.351562 4.8125-.703125.042969-.019531.171875-.09375.386719-.207031.136719-.097656.277344-.140625.417969-.140625.1875 0 .582031.167969 1.175781.503906.59375.339844.890625.585938.890625.71875 0 .09375-.074219.257813-.222656.476563-.15625.226562-.242188.375-.265625.4375-.210938.59375-.386719 1.851562-.523438 3.789062-.117187 1.59375-.175781 2.898438-.175781 3.902344 0 1.308594.078125 2.09375.238281 2.347656.234375.375.949219.5625 2.148438.5625 1.96875 0 3.191406-.210937 3.679687-.632812.496094-.417969.871094-1.59375 1.132813-3.542969h.238281c.019531 1.003906.109375 2.1875.25 3.542969l.386719.320312c.234375.210938.347656.386719.347656.527344zm0 0"/></svg>