<svg height="40" viewBox="0 0 40 40" width="40" xmlns="http://www.w3.org/2000/svg"><path d="m25.875 32.390625c-.863281-.203125-2.046875-1.214844-3.542969-3-.84375-1.003906-1.859375-2.25-3.054687-3.738281-2.171875 2.804687-5.25 4.753906-9.230469 5.828125v-.25c1.640625-.71875 2.957031-1.421875 3.96875-2.101563.582031-.398437 1.425781-1.113281 2.527344-2.144531 1.265625-1.191406 1.894531-1.953125 1.894531-2.28125 0-.214844-.691406-1.078125-2.066406-2.59375-1.386719-1.527344-2.203125-2.308594-2.460938-2.359375v-.3125h.214844c.644531 0 1.503906.582031 2.558594 1.761719l2.28125 2.488281c.445312-.535156.960937-1.605469 1.5625-3.175781.597656-1.585938.894531-2.714844.894531-3.390625 0-.328125-.160156-.679688-.472656-1.054688-.3125-.367187-.640625-.617187-.96875-.734375l-3.085938.386719c-.398437 0-.832031-.207031-1.300781-.636719-.703125 1.011719-1.3125 1.859375-1.828125 2.570313-1.003906 1.378906-1.636719 2.070312-1.894531 2.070312-.042969 0-.125-.035156-.242188-.109375.984375-1.164062 1.960938-2.878906 2.945313-5.125 1.054687-2.410156 1.582031-4.296875 1.582031-5.65625 0-.347656-.261719-.695312-.769531-1.046875l.097656-.210937h.464844c.328125 0 .773437.25 1.347656.75.574219.503906.859375.910156.859375 1.21875 0 .273437-.046875.429687-.140625.453125-.207031.070312-.347656.195312-.421875.382812-.328125.75-.925781 2.09375-1.785156 4.042969.160156.234375.507812.347656 1.050781.347656.402344 0 1.496094-.203125 3.28125-.609375 1.792969-.414062 2.828125-.703125 3.105469-.863281.050781-.027344.164062-.144531.367187-.355469.199219-.203125.367188-.3125.507813-.3125.421875 0 .867187.046875 1.332031.136719.675781.144531 1.019531.324219 1.019531.527344 0 .285156-.863281.648437-2.59375 1.085937-.703125.167969-1.769531.421875-3.191406.773438 1.722656.695312 2.59375 1.28125 2.59375 1.75 0 .257812-.515625 1.523437-1.546875 3.804687-1.027344 2.277344-1.667969 3.578125-1.933594 3.90625 3.1875 3.226563 6.574219 5.71875 10.152344 7.5v.3125zm0 0"/></svg>