<svg height="40" viewBox="0 0 40 40" width="40" xmlns="http://www.w3.org/2000/svg"><path d="m25.683594 12.1875c0 .347656-.15625.53125-.484375.53125-.308594 0-.914063-.621094-1.835938-1.855469-.414062-.441406-.890625-.894531-1.398437-1.335937.023437-.074219.066406-.109375.140625-.109375.65625 0 1.414062.304687 2.28125.925781.867187.609375 1.296875 1.222656 1.296875 1.84375zm4.738281 18.1875c0 .277344-.152344.421875-.457031.421875-1.121094 0-2.699219-.871094-4.730469-2.605469-1.925781-1.609375-3.171875-3.003906-3.765625-4.171875-.890625.960938-2.292969 2-4.207031 3.121094-2.105469 1.238281-3.699219 1.859375-4.777344 1.859375-.136719 0-.253906-.035156-.347656-.097656.019531-.074219.363281-.25 1.019531-.53125 1.636719-.726563 3.167969-1.601563 4.59375-2.636719.441406-.328125 1.019531-.78125 1.71875-1.363281.917969-.773438 1.378906-1.214844 1.410156-1.335938-1.035156-2.148437-1.851562-4.425781-2.457031-6.8125h-.144531c-.492188 0-2 .214844-4.53125.632813-.117188.023437-.511719.128906-1.1875.316406-.496094.140625-.882813.214844-1.15625.214844-.355469 0-.8125-.1875-1.375-.5625-.15625-.117188-.265625-.261719-.3125-.421875-.09375-.308594-.136719-.46875-.136719-.492188.277344.070313.71875.105469 1.324219.105469.890625 0 2.125-.09375 3.691406-.285156l3.652344-.417969v-.109375c0-.253906-.136719-1.027344-.40625-2.308594-.273438-1.289062-.453125-2.050781-.542969-2.285156-.09375-.230469-.238281-.441406-.421875-.628906-.378906-.28125-.578125-.449219-.597656-.492188.445312-.191406.710937-.285156.8125-.285156.207031 0 .601562.167969 1.1875.496094.585937.320312.878906.570312.878906.738281 0 .113281-.042969.308594-.125.574219-.078125.269531-.121094.472656-.121094.613281 0 1.472656.171875 2.660156.523438 3.542969 1.125-.074219 3.078125-.277344 5.863281-.589844.214844-.019531.613281-.089844 1.199219-.203125.507812-.105469.925781-.144531 1.222656-.144531.261719 0 .566406.078125.933594.253906.363281.167969.539062.355469.539062.5625 0 .316406-.160156.480469-.488281.480469-2.363281.039062-5.394531.25-9.09375.597656.5625 2.394531 1.292969 4.359375 2.183594 5.890625 2.128906-2.363281 3.191406-3.941406 3.191406-4.738281 0-.117188-.050781-.328125-.140625-.625.066406-.03125.144531-.054688.246094-.074219.207031 0 .460937.261719.753906.785156.292969.53125.4375.914063.4375 1.148438 0 .207031-.609375.984375-1.824219 2.304687-1.289062 1.367188-1.953125 2.125-2.003906 2.289063.167969.207031.4375.585937.8125 1.117187.441406.65625 1.203125 1.453125 2.28125 2.398438 1.21875 1.046875 2.113281 1.570312 2.699219 1.570312.441406 0 .789062-.617187 1.035156-1.875.246094-1.253906.425781-1.898437.546875-1.945312.019531.722656.109375 2.109375.246094 4.144531.019531.183594.085937.480469.191406.886719.109375.414062.15625.738281.15625.972656zm0 0"/></svg>