<svg height="40" viewBox="0 0 40 40" width="40" xmlns="http://www.w3.org/2000/svg"><path d="m26.21875 13.503906c0 .304688-.292969.460938-.886719.460938-.039062 0-.382812-.023438-1.007812-.074219l-1.023438-.03125c-1.164062 0-2.90625.160156-5.191406.488281-2.296875.328125-3.28125.492188-2.953125.492188-.28125 0-.703125-.21875-1.265625-.667969-.558594-.441406-.839844-.808594-.839844-1.082031l.210938-.25c.769531.519531 1.601562.773437 2.488281.773437.074219 0 .558594-.050781 1.449219-.140625l5.960937-.632812c.074219 0 .199219-.039063.386719-.109375.191406-.0625.328125-.101563.421875-.101563.183594 0 .574219.09375 1.15625.28125.730469.234375 1.09375.433594 1.09375.59375zm4.59375 4.039063c0 .304687-.300781.457031-.910156.457031.554687 0 .238281-.042969-.964844-.121094-1.214844-.085937-1.984375-.117187-2.332031-.085937l-7.546875.347656c.328125.160156.753906.503906 1.296875 1.015625-.261719.074219-.585938.246094-.984375.53125-.914063 1.207031-2.308594 3.042969-4.179688 5.472656l9.757813-1.332031c-.5625-.796875-1.421875-1.769531-2.59375-2.917969l.207031-.210937 3.65625 2.53125c1.238281 1.050781 1.859375 2.148437 1.859375 3.296875 0 .5625-.175781.84375-.527344.84375-.234375 0-.632812-.445313-1.195312-1.335938-.210938-.328125-.527344-.816406-.949219-1.472656-.421875.066406-1.183594.214844-2.28125.417969-.328125.070312-.910156.191406-1.753906.359375-2.8125.507812-5.039063.914062-6.667969 1.222656-.613281.308594-1.003906.457031-1.199219.457031-.160156 0-.378906-.257812-.644531-.769531-.269531-.519531-.394531-.871094-.375-1.050781.613281.09375 1.332031-.078125 2.183594-.527344.160156-.074219.769531-.988281 1.820312-2.746094 1.058594-1.765625 1.585938-2.726562 1.585938-2.894531l-.214844-.765625c-.183594.015625-.582031.058594-1.199219.125-1.140625.15625-2.097656.328125-2.867187.484375-.121094.027344-.476563.136719-1.058594.316406-.582031.1875-.894531.28125-.949219.28125-.394531 0-.875-.203125-1.4375-.597656-.492187-.328125-.875-.691406-1.160156-1.082031.140625-.148438.234375-.214844.285156-.214844.765625.421875 1.382813.628906 1.824219.628906 0 0 .953125-.117187 2.878906-.351562 3.296875-.390625 7.78125-.792969 13.4375-1.1875.101563 0 .273438-.058594.527344-.164063.265625-.097656.417969-.15625.457031-.15625.234375 0 .667969.148438 1.289063.4375.617187.296875.925781.546875.925781.757813zm0 0"/></svg>