<svg height="40" viewBox="0 0 40 40" width="40" xmlns="http://www.w3.org/2000/svg"><path d="m30.597656 28.050781c-.019531.148438-.035156.242188-.035156.28125h-2.074219c-.738281 0-1.222656-.019531-1.429687-.0625-.074219-.03125-.234375-.15625-.492188-.394531-1.101562-1.015625-2.414062-2.425781-3.9375-4.246094l-3.644531-4.390625c-.636719 1.8125-1.921875 3.609375-3.863281 5.414063-1.804688 1.660156-3.664063 2.890625-5.578125 3.679687l-.140625-.238281c1.632812-.941406 3.222656-2.21875 4.769531-3.828125 1.714844-1.800781 2.816406-3.5 3.339844-5.089844l-4.53125.601563c-.402344.039062-.765625-.054688-1.09375-.289063-.183594-.140625-.476563-.421875-.875-.859375-.402344-.429687-.59375-.707031-.59375-.820312.019531 0 .070312-.085938.132812-.25 1.039063.75 1.714844 1.125 2.042969 1.125.46875 0 2.1875-.183594 5.15625-.5625.113281-.164063.261719-.511719.4375-1.054688.183594-.535156.269531-.910156.269531-1.117187 0-.101563-.101562-.265625-.300781-.511719-.203125-.25-.347656-.363281-.441406-.363281-.914063.15625-2.058594.238281-3.433594.238281h-1.375c0 .074219.015625-.019531.035156-.277344 2.882813-.234375 5.96875-.960937 9.273438-2.179687 0-.183594-.074219-.398438-.214844-.625l-.246094-.324219c0-.160156.058594-.238281.171875-.238281.308594 0 .851563.222656 1.621094.679687.765625.453125 1.1875.8125 1.261719 1.070313-1.261719.328125-3.195313.820312-5.789063 1.476562.257813.089844.5.199219.734375.3125.375.164063.570313.3125.59375.453125l-1.050781 2.355469c.050781 0 .730469-.042969 2.035156-.136719l.949219-.070312c.910156-.074219 1.832031-.140625 2.777344-.214844.066406 0 .210937-.058594.4375-.175781.21875-.117188.359375-.171875.398437-.171875.289063 0 .761719.132812 1.4375.421875.804688.328125 1.195313.640625 1.195313.945312 0 .328125-.195313.492188-.59375.492188.113281 0-.273438-.058594-1.164063-.179688-1.28125-.160156-2.347656-.21875-3.191406-.171875l-4.171875.246094c4.207031 4.503906 7.941406 7.519531 11.191406 9.050781zm0 0"/></svg>