<svg height="40" viewBox="0 0 40 40" width="40" xmlns="http://www.w3.org/2000/svg"><path d="m28.746094 20.71875c0 .234375-.195313.386719-.574219.457031l-3.46875.039063-3.96875.273437v6.179688c.046875.03125.136719.035156.25.035156.910156 0 1.878906-.09375 2.910156-.277344.074219-.03125.257813-.109375.546875-.25.292969-.132812.449219-.207031.476563-.207031.273437 0 .785156.167969 1.519531.511719.738281.332031 1.109375.625 1.109375.859375 0 .304687-.25.441406-.734375.421875l-3.09375-.148438c-1.566406-.0625-3.5.132813-5.792969.601563-1.9375.398437-2.796875.597656-2.5625.597656-.320312 0-1.164062-.597656-2.523437-1.785156l.3125-.148438.882812.28125c.585938.183594.96875.292969 1.152344.320313l4.140625-.601563v-6.28125c-.441406.089844-2.128906.492188-5.050781 1.195313-.371094 0-.914063-.257813-1.609375-.777344-.585938-.417969-1.058594-.828125-1.414063-1.222656.074219-.140625.15625-.214844.25-.214844-.191406 0 .527344.253906 2.132813.777344l5.691406-.8125v-1.824219c0-1.589844-.464844-2.6875-1.410156-3.300781l-6.234375 1.296875-.140625-.277344c4.140625-1.292969 7.695312-2.886719 10.664062-4.8125-.0625-.347656-.390625-.722656-.984375-1.125-.019531-.042969.015625-.144531.109375-.3125.542969.234375 1.34375.582031 2.421875 1.058594.964844.414062 1.4375.757812 1.4375 1.015625 0 .234375-.800781.671875-2.421875 1.296875-.867187.328125-2.164062.832031-3.894531 1.507812.308594.167969.761719.402344 1.375.710938.71875.390625 1.082031.703125 1.082031.9375l-.171875.320312c-.144531.210938-.226562.390625-.25.5625-.113281.585938-.175781 1.28125-.175781 2.105469v.703125c.910156-.074219 2.222656-.199219 3.933594-.386719.050781-.023437.25-.117187.597656-.285156.277344-.113281.480469-.175781.597656-.175781.230469 0 .734375.117187 1.507813.359375.910156.273437 1.375.546875 1.375.800781zm0 0"/></svg>