<svg height="40" viewBox="0 0 40 40" width="40" xmlns="http://www.w3.org/2000/svg"><path d="m28.199219 31.96875c0 .441406-.183594.660156-.5625.660156-.304688 0-.6875-.507812-1.152344-1.539062-.359375-.746094-.980469-1.671875-1.871094-2.773438 0-.046875.039063-.117187.109375-.210937 2.320313 1.332031 3.476563 2.625 3.476563 3.863281zm-4.523438.214844c0 .769531-.210937 1.15625-.632812 1.15625-.351563 0-.65625-.515625-.914063-1.546875-.164062-.703125-.320312-1.40625-.457031-2.105469l-.390625-1.089844c0-.023437.035156-.070312.109375-.144531.910156.921875 1.496094 1.5625 1.75 1.933594.355469.519531.535156 1.113281.535156 1.796875zm-4.328125-6.5625-.132812.3125c-.070313.1875-.125.367187-.179688.5625-.09375.421875-.132812.875-.132812 1.367187v3.433594l.097656 2.246094c.019531.304687-.042969.765625-.207031 1.375-.210938.769531-.453125 1.15625-.742188 1.15625-.234375 0-.5-.328125-.800781-.984375-.472656-.492188-1.3125-1.0625-2.53125-1.71875 0-.070313.027344-.148438.074219-.242188 1.335937.296875 2.054687.449219 2.175781.449219.558594 0 .84375-.171875.84375-.519531v-7.726563c0-.160156-.144531-.382812-.421875-.660156-.285156-.285156-.496094-.449219-.636719-.5v-.246094h.289063c.226562 0 .675781.21875 1.332031.65625.644531.429688.972656.773438.972656 1.039063zm-4.765625 2.695312c0 1.058594-.15625 2.046875-.457031 2.980469-.425781 1.292969-1.011719 1.933594-1.761719 1.933594-.367187 0-.5625-.257813-.5625-.773438 0-.421875.089844-.738281.25-.945312.289063-.183594.695313-.542969 1.234375-1.054688.464844-.609375.8125-1.425781 1.046875-2.457031h.25zm0 0"/></svg>