<svg height="40" viewBox="0 0 40 40" width="40" xmlns="http://www.w3.org/2000/svg"><path d="m27.582031 17.1875c0 .191406-.257812.308594-.769531.359375-.050781 0-.355469-.03125-.910156-.074219l-.949219-.035156c-.921875 0-1.542969.050781-1.871094.136719l.25 10.601562c0 .382813-.046875.835938-.140625 1.371094-.132812.816406-.328125 1.230469-.5625 1.230469-.1875 0-.335937-.28125-.457031-.839844-.09375-.425781-.136719-.792969-.136719-1.089844v-11.273437c-.023437-.023438-.117187-.027344-.28125-.027344-1.382812 0-2.660156.171875-3.828125.527344-.226562 2.632812-.628906 4.742187-1.191406 6.3125-.839844 2.363281-2.246094 4.460937-4.207031 6.285156-.074219-.140625-.109375-.222656-.109375-.25.039062-.0625.304687-.457031.785156-1.171875.472656-.714844.816406-1.269531 1.019531-1.671875.886719-1.683594 1.53125-3.46875 1.953125-5.363281.234375-1.078125.402344-2.273438.523438-3.585938l-.03125-.382812-1.917969.382812c-.625-.046875-1.238281-.457031-1.84375-1.226562l.207031-.105469.464844.175781c.277344.136719.519531.210938.734375.210938l2.386719-.246094v-3.582031c0-1.167969-.3125-1.992188-.949219-2.453125-.121094-.046875-.347656-.125-.703125-.246094-.511719-.1875-.953125-.589844-1.332031-1.191406.191406-.09375.269531-.140625.25-.140625-.328125 0-.132813.09375.597656.300781.71875.191406 1.203125.292969 1.433594.292969.847656 0 3.078125-.234375 6.707031-.703125.089844-.023438.234375-.109375.417969-.261719.191406-.15625.347656-.230469.492187-.230469.183594 0 .617188.089844 1.277344.265625.671875.171875 1.011719.367188 1.011719.574219 0 .265625-1.367188.5-4.078125.707031l.84375.5625c.539062.371094.800781.664063.800781.875 0 .1875-.058594.542969-.1875 1.054688-.128906.515625-.199219.882812-.199219 1.117187v2.148438c.03125.019531.09375.035156.214844.035156.535156 0 1.019531-.050781 1.441406-.140625.042969-.027344.164063-.089844.351563-.199219.191406-.097656.304687-.15625.347656-.15625.253906 0 .683594.136719 1.265625.40625.589844.273438.878906.511719.878906.714844zm-5.546875-.527344v-4.066406c0-.253906-.144531-.621094-.4375-1.082031-.289062-.476563-.570312-.710938-.828125-.710938l-4.382812.460938c1.257812.695312 1.894531 1.179687 1.894531 1.4375l-.140625.597656c-.113281.402344-.175781.984375-.175781 1.753906v2.109375zm0 0"/></svg>