<svg height="40" viewBox="0 0 40 40" width="40" xmlns="http://www.w3.org/2000/svg"><path d="m28.125 26.191406c0 .214844-.636719.402344-1.90625.5625-.136719.023438-.933594.117188-2.359375.289063l-.035156 10.207031c0 .5625-.148438.84375-.429688.84375-.257812 0-.53125-.371094-.8125-1.121094-.253906-.660156-.390625-1.160156-.390625-1.507812 0-.140625.0625-.375.179688-.6875.113281-.3125.175781-.546875.175781-.6875v-6.699219h-.105469c-.210937 0-.851562.125-1.925781.363281-1.0625.246094-1.722656.417969-1.988281.511719-.277344 2.5-.820313 4.546875-1.621094 6.140625-.984375 1.941406-2.441406 3.464844-4.363281 4.5625l-.214844-.3125c2.363281-1.894531 3.84375-4.457031 4.425781-7.6875.183594-1.027344.277344-1.660156.277344-1.894531l-.027344-.351563-2.601562.664063c-.960938-.15625-1.804688-.777344-2.527344-1.859375l.316406-.171875c.679688.488281 1.335938.734375 1.96875.734375.183594 0 .695313-.089844 1.523438-.261719.832031-.175781 1.34375-.300781 1.523437-.375v-2.980469c0-.253906-.175781-.601562-.539062-1.050781-.367188-.441406-.683594-.75-.96875-.910156l.144531-.320313c2.152344.585938 3.230469 1.136719 3.230469 1.652344 0 .046875-.039063.183594-.109375.417969l-.171875.457031c-.074219.488281-.105469 1.230469-.105469 2.214844v.28125l3.859375-.949219v-3.339844c0-.234375-.144531-.53125-.433594-.890625-.289062-.363281-.550781-.601562-.796875-.71875.046875-.191406.121094-.285156.210938-.285156.351562 0 .894531.214844 1.628906.636719.738281.421875 1.109375.785156 1.109375 1.082031-.308594.636719-.457031 1.722656-.457031 3.269531.617187-.160156 1.273437-.410156 1.984375-.738281.351562.019531.800781.121094 1.347656.277344.65625.210937.984375.425781.984375.632812zm0 0"/></svg>