<svg height="40" viewBox="0 0 40 40" width="40" xmlns="http://www.w3.org/2000/svg"><path d="m27.894531 15.347656c0 .511719-1.410156.777344-4.242187.777344-.914063 0-1.570313-.109375-1.96875-.324219-.511719-.296875-.773438-.875-.773438-1.71875 0-.414062.015625-.96875.039063-1.648437.039062-.933594.070312-1.496094.070312-1.683594 0-.160156-.035156-.285156-.109375-.363281-.066406-.089844-.179687-.125-.347656-.125h.035156-.035156l-.105469.035156-.632812.066406c-.371094.074219-1.355469.1875-2.945313.351563-.191406 1.753906-.707031 3.335937-1.546875 4.738281-.960937 1.589844-2.203125 2.667969-3.71875 3.230469l-.070312-.277344c2.710937-1.988281 4.066406-4.527344 4.066406-7.621094 0-.695312-.472656-1.132812-1.4375-1.296875.074219-.234375.375-.347656.910156-.347656.214844 0 .527344.121094.9375.363281.40625.246094.65625.371094.75.371094 1.027344 0 2.167969-.152344 3.40625-.457031.230469-.121094.59375-.292969 1.085938-.527344.164062 0 .488281.140625.96875.421875.484375.277344.71875.488281.71875.628906-.46875.609375-.742188 1.15625-.804688 1.652344-.023437.140625-.035156.800781-.035156 2 0 .65625.152344 1.050781.449219 1.199219.191406.09375.644531.132812 1.363281.132812 1.183594 0 1.871094-.242187 2.050781-.734375.1875-.675781.460938-1.675781.804688-2.984375.1875-.050781.289062.164063.3125.632813 0-.5625 0-.257813 0 .914062 0 .746094.023437 1.210938.09375 1.402344.054687.1875.289062.582031.710937 1.191406zm1.199219 15.484375-4.496094.277344c-.1875 0-1.894531-1.605469-5.125-4.808594-3.226562 2.789063-6.035156 4.386719-8.421875 4.808594l-.144531-.277344c3.074219-1.289062 5.683594-3.054687 7.832031-5.300781-.75-.65625-1.894531-1.582031-3.441406-2.777344-.347656-.085937-.808594-.289062-1.371094-.59375.515625-.164062.792969-.242187.84375-.242187.214844 0 1.730469.953125 4.570313 2.878906 1.351562-1.597656 2.441406-3.3125 3.253906-5.167969l-.386719-.382812c-.253906.039062-.625.101562-1.117187.175781-.375.074219-1.308594.316406-2.789063.753906-1.488281.433594-2.242187.652344-2.269531.652344-.277344 0-.734375-.269531-1.371094-.808594-.625-.539062-.953125-.914062-.972656-1.125l.238281-.109375c.730469.496094 1.296875.746094 1.71875.746094.449219 0 2.132813-.328125 5.054688-.980469 1.523437-.332031 2.304687-.503906 2.359375-.503906.1875 0 .515625.160156.992187.472656.484375.324219.726563.5625.726563.726563-.167969.070312-.367188.210937-.601563.421875-.234375.445312-.570312 1.085937-1.019531 1.929687-.792969 1.421875-1.777344 2.773438-2.941406 4.039063 3.269531 2.503906 6.234375 4.117187 8.878906 4.835937zm0 0"/></svg>