<svg height="40" viewBox="0 0 40 40" width="40" xmlns="http://www.w3.org/2000/svg"><path d="m28.074219 10.066406c0 .09375-.039063.164063-.105469.214844-.984375.421875-1.769531.855469-2.355469 1.296875-1.523437 1.167969-2.820312 2.113281-3.894531 2.84375-.046875-.019531-.152344-.113281-.316406-.28125 2.972656-2.96875 4.460937-4.550781 4.460937-4.734375 0-.214844-.328125-.519531-.984375-.921875v-.238281h.28125c.277344 0 .835938.238281 1.664063.738281.832031.484375 1.25.847656 1.25 1.082031zm-3.546875-3.265625c-.886719.445313-2.492188.984375-4.8125 1.621094-2.523438.675781-4.433594 1.011719-5.714844 1.011719h-.636719v-.242188c1.804688-.398437 3.1875-.765625 4.140625-1.09375 1.589844-.53125 2.984375-1.164062 4.179688-1.894531.046875-.113281-.011719-.277344-.195313-.488281-.175781-.210938-.328125-.351563-.472656-.421875.046875-.164063.167969-.242188.355469-.242188.742187 0 1.34375.125 1.785156.386719.449219.253906.90625.707031 1.371094 1.363281zm-4.5625 5.796875c0 .417969-.078125.703125-.25.839844-.371094.074219-.625-.019531-.773438-.277344-1.207031-2.179687-1.820312-3.328125-1.820312-3.441406.019531 0 .070312-.09375.140625-.285156.703125.472656 1.390625.945312 2.066406 1.445312.421875.390625.636719.96875.636719 1.71875zm-4.179688 1.617188c0 .484375-.175781.734375-.523437.734375-.117188 0-.480469-.386719-1.089844-1.164063-.84375-1.066406-1.589844-1.988281-2.246094-2.734375v-.242187c.820313.421875 1.652344.84375 2.492188 1.257812.914062.589844 1.367187 1.296875 1.367187 2.148438zm0 0"/></svg>