<svg height="40" viewBox="0 0 40 40" width="40" xmlns="http://www.w3.org/2000/svg"><path d="m26.25 15.121094c0 .179687-.25.394531-.738281.628906-.242188.515625-.574219 1.238281-1.023438 2.175781-3.085937 6.507813-6.632812 10.953125-10.632812 13.339844l-.105469-.28125c2.621094-2.058594 5.066406-5.003906 7.339844-8.847656-.308594-.183594-.871094-.773438-1.6875-1.75-.679688-.824219-1.355469-1.328125-2.03125-1.511719-1.949219 1.667969-2.964844 2.488281-3.058594 2.488281-.042969 0-.128906-.03125-.25-.101562 1.21875-1.078125 2.261719-2.226563 3.128906-3.445313.53125-.738281 1.125-1.664062 1.75-2.769531.871094-1.496094 1.296875-2.410156 1.296875-2.734375 0-.1875-.109375-.441406-.328125-.769531-.222656-.328125-.414062-.496094-.582031-.496094-.390625 0-.96875.113281-1.71875.347656-.066406 0-.203125.058594-.417969.171875-.210937.121094-.328125.183594-.347656.183594-.285156 0-.691406-.203125-1.234375-.59375-.441406-.328125-.792969-.652344-1.046875-.949219.082031-.191406.183594-.285156.277344-.285156-.351563 0-.132813.109375.644531.324219.792969.203125 1.285156.3125 1.496094.3125.234375 0 1.289062-.199219 3.171875-.601563 1.890625-.398437 2.929687-.640625 3.144531-.734375.074219-.023437.21875-.109375.4375-.265625.222656-.148437.355469-.222656.40625-.222656.253906 0 .671875.09375 1.25.292969.566406.203125.859375.382812.859375.546875 0 .164062-.09375.269531-.285156.3125-.390625.050781-1.109375.144531-2.121094.285156-1.019531.136719-2.238281.347656-3.667969.628906.511719.449219 1.0625 1.011719 1.648438 1.6875-.277344.417969-.679688 1.054688-1.199219 1.898438.308594.066406.59375.101562.847656.101562 1.027344 0 1.992188-.191406 2.882813-.5625.160156 0 .515625.164063 1.0625.492188.554687.328125.832031.554687.832031.703125zm-2.183594.28125c0-.101563-.125-.234375-.382812-.429688l-2.699219.390625c-.050781 0-.285156-.046875-.707031-.140625l-2.523438 3.265625c1.9375.679688 3.214844 1.578125 3.820313 2.699219.378906-.675781.863281-1.65625 1.445312-2.941406.699219-1.546875 1.046875-2.496094 1.046875-2.84375zm0 0"/></svg>