<svg height="40" viewBox="0 0 40 40" width="40" xmlns="http://www.w3.org/2000/svg"><path d="m32.746094 30.300781-2.671875.140625c-.136719 0-.351563-.019531-.625-.070312-.382813-.46875-.777344-1.054688-1.199219-1.75-.890625-1.546875-2.535156-4.335938-4.949219-8.359375-1.007812 2.625-1.785156 4.425781-2.347656 5.40625-1.175781 2.0625-2.6875 3.769531-4.53125 5.125-.074219-.042969-.109375-.117188-.109375-.210938.121094-.117187.542969-.628906 1.269531-1.539062 1.867188-2.320313 3.277344-5.179688 4.210938-8.570313 1.097656-3.953125 1.65625-7.003906 1.65625-9.160156 0-.675781-.308594-1.285156-.921875-1.828125.164062-.183594.320312-.277344.457031-.277344.253906 0 .761719.183594 1.496094.539063.738281.363281 1.101562.648437 1.101562.863281 0-.28125-.175781.574219-.523437 2.566406-.023438.15625-.09375.539063-.214844 1.121094-.277344 1.496094-.582031 2.785156-.910156 3.859375l-.460938 1.472656c0 .046875.789063 1.121094 2.355469 3.230469 1.667969 2.246094 2.785156 3.699219 3.371094 4.355469.191406.207031 1.367187 1.238281 3.546875 3.085937zm-13.976563-5.160156c0 .65625-.195312.984375-.585937.984375-.265625 0-.464844-.128906-.601563-.386719-1.125-2.148437-2.515625-4.039062-4.175781-5.648437-.375 1.9375-1.082031 3.867187-2.109375 5.785156-1.199219 2.183594-2.515625 3.699219-3.96875 4.566406-.042969-.039062-.074219-.078125-.074219-.101562l1.058594-1.40625c.703125-.984375 1.109375-1.585938 1.230469-1.789063 2.222656-4.40625 3.335937-9.257812 3.335937-14.566406 0-.984375-.234375-1.675781-.707031-2.074219.214844-.285156.359375-.421875.421875-.421875.285156 0 .75.203125 1.40625.609375.65625.417969.984375.746094.984375 1.011719 0 .082031-.203125 1.246094-.59375 3.46875-.425781 2.386719-.730469 3.886719-.910156 4.496094 3.523437 2.175781 5.289062 4 5.289062 5.472656zm0 0"/></svg>