<svg height="40" viewBox="0 0 40 40" width="40" xmlns="http://www.w3.org/2000/svg"><path d="m29.40625 20.480469c0 .234375-.222656.347656-.660156.347656-.054688 0-.390625-.035156-1.023438-.109375l-1.054687-.066406c-1.871094 0-3.609375.160156-5.230469.488281v4.878906c0 .09375.027344.246094.089844.460938.054687.210937.082031.359375.082031.453125 0 .28125-.058594.675781-.171875 1.191406-.160156.722656-.359375 1.089844-.597656 1.089844-.277344 0-.511719-.386719-.699219-1.167969-.121094-.515625-.175781-1.015625-.175781-1.488281 0-.117188.019531-.296875.070312-.546875.042969-.246094.070313-.429688.070313-.554688v-4.210937c-.027344.023437-.070313.035156-.140625.035156-1.261719 0-2.949219.28125-5.054688.84375-.09375.019531-.3125.125-.671875.3125-.347656.191406-.601562.285156-.765625.285156-.867187 0-1.828125-.382812-2.878906-1.160156v-.316406c.328125.125.582031.179687.769531.179687-.144531 0 .511719-.054687 1.964844-.179687.1875-.324219.421875-.933594.707031-1.824219.320313-1.050781.492188-1.859375.492188-2.421875 0-.488281-.433594-1.125-1.304688-1.894531v-.3125h.28125c.074219 0 .292969.070312.667969.222656s.597656.222656.667969.222656l5.265625-.660156v-2.355469c0-.347656-.28125-.664062-.839844-.945312v-.492188c.828125.234375 1.339844.386719 1.519531.460938.671875.203125 1.125.414062 1.359375.628906-.242187.328125-.472656 1.15625-.707031 2.488281.421875.046875 1.058594-.039062 1.917969-.257812.851562-.226563 1.207031-.335938 1.0625-.335938 1.15625 0 1.722656.230469 1.722656.699219 0 .308594-.578125.515625-1.746094.636719l-2.957031.3125v4.601562c.019531.023438.078125.039063.171875.039063l5.375-.703125c1.613281.179687 2.421875.5625 2.421875 1.125zm-9.300781-.292969v-4.691406l-4.679688.59375c.476563.585937.710938.929687.710938 1.023437 0 .140625-.074219.289063-.226563.4375-.15625.15625-.226562.234375-.226562.234375-.445313 1.273438-.867188 2.382813-1.265625 3.320313zm0 0"/></svg>