<svg height="40" viewBox="0 0 40 40" width="40" xmlns="http://www.w3.org/2000/svg"><path d="m23.453125 10.644531c0 .328125-.183594.484375-.5625.484375-.582031 0-1.410156-.472656-2.484375-1.429687-1.082031-.964844-1.722656-1.746094-1.933594-2.359375.15625-.0625.257813-.101563.277344-.101563.441406.308594 1.058594.679688 1.828125 1.121094.582031.253906 1.046875.402344 1.363281.425781.214844.023438.386719.078125.53125.171875.65625.523438.980469 1.078125.980469 1.6875zm3.167969 13.058594c0 .449219-.179688.667969-.539063.667969-.273437 0-.472656-.105469-.585937-.320313-.84375-1.566406-1.953125-2.707031-3.339844-3.4375v10.917969c-.046875.207031-.082031.421875-.105469.628906-.113281.398438-.269531.601563-.457031.601563-.253906 0-.527344-.382813-.800781-1.121094-.214844-.613281-.324219-1.019531-.324219-1.234375 0 0 .035156-.128906.109375-.386719.066406-.253906.121094-.429687.140625-.523437.019531-.773438.078125-1.914063.175781-3.40625v-3.683594c0-.84375-.097656-1.363281-.28125-1.546875-2.476562 2.621094-4.851562 4.574219-7.128906 5.863281-.019531-.050781-.058594-.128906-.105469-.25 1.730469-1.332031 3.371094-2.820312 4.917969-4.453125.839844-.890625 1.894531-2.179687 3.15625-3.863281 1.339844-1.800781 2-2.863281 2-3.191406 0-.027344-.035156-.101563-.113281-.214844-.089844-.113281-.148438-.175781-.199219-.175781-.019531 0-.449219.15625-1.261719.460937-1.664062.605469-3.015625 1.15625-4.039062 1.648438-.679688.328125-1.042969.488281-1.089844.488281-.308594 0-.78125-.339844-1.4375-1.015625-.609375-.609375-.9375-1.042969-.984375-1.296875.046875-.113281.121094-.175781.214844-.175781.910156.609375 1.546875.910156 1.894531.910156.140625 0 .566406-.113281 1.296875-.347656.347656-.09375 1.03125-.296875 2.035156-.601563.796875-.226562 1.976563-.609375 3.542969-1.117187.074219-.03125.214844-.121094.425781-.289063.210938-.160156.339844-.242187.386719-.242187.160156 0 .511719.222656 1.035156.664062.523438.449219.789063.777344.789063.984375-.449219.328125-.761719.632813-.949219.914063-.746094 1.082031-1.824219 2.492187-3.230469 4.242187 1.007813.476563 2.007813.949219 2.992188 1.445313 1.238281.679687 1.859375 1.492187 1.859375 2.457031zm0 0"/></svg>