<svg height="40" viewBox="0 0 40 40" width="40" xmlns="http://www.w3.org/2000/svg"><path d="m28.917969 15.421875c0 .234375-.1875.347656-.570313.347656.054688 0-.113281-.019531-.488281-.070312-.371094-.042969-.847656-.070313-1.4375-.070313-1.238281 0-2.082031.046875-2.527344.140625-.046875.515625-.132812 1.429688-.25 2.742188.289063.210937.421875.394531.421875.535156 0 .183594-.507812.339844-1.546875.472656-1.023437.132813-2.066406.261719-3.117187.402344v9.988281c-.261719 1.367188-.515625 2.042969-.78125 2.042969-.023438 0-.515625-.375-1.484375-1.125-1.078125-.839844-1.824219-1.402344-2.226563-1.683594.117188-.046875.199219-.066406.246094-.066406-.027344 0 .308594.066406 1 .203125.6875.144531 1.1875.214844 1.488281.214844.328125 0 .496094-.164063.496094-.492188v-8.914062l-3.457031.632812c-.15625 0-.460938-.117187-.902344-.351562-.511719-.28125-.765625-.539063-.765625-.773438 0-.070312.019531-.164062.0625-.285156.5625.121094 1.167969.175781 1.816406.175781l3.246094-.3125v-2.734375l-5.183594.976563c-1.109375-.328125-1.738281-.75-1.875-1.277344l1.71875-.035156c-.328125 0 1.453125-.210938 5.339844-.632813v-2.859375c-.03125 0-.058594 0-.109375 0-.113281 0-.515625.074219-1.21875.226563-.699219.15625-1.152344.265625-1.355469.335937-.445312.1875-.617187.277344-.523437.277344-.140625 0-.476563-.160156-1.015625-.488281-.605469-.351563-.902344-.636719-.902344-.851563 0 0 .042969-.117187.136719-.375.613281.257813 1.335937.375 2.179687.375-.070312 0 .855469-.144531 2.773438-.445312.019531 0 .035156-.039063.035156-.109375 0-1.214844-.261719-2.308594-.769531-3.261719.273437-.167969.441406-.25.484375-.25.140625 0 .4375.109375.882812.3125.4375.214844.683594.34375.734375.390625v1.753906s-.023437.132813-.070312.386719v.5625c.617187-.074219 1.503906-.1875 2.671875-.347656.1875-.023438.398437-.132813.640625-.3125.234375-.195313.378906-.289063.421875-.289063.210937 0 .53125.183594.941406.546875.410156.359375.625.636719.625.824219-.214844.722656-.421875 1.605469-.636719 2.636719v.273437c.59375-.066406 1.324219-.160156 2.199219-.273437.78125-.121094 1.167969-.179688 1.167969-.179688.160156 0 .453125.125.863281.386719.410156.253906.621094.488281.621094.703125zm-5.898438-2.949219c0-.234375-.25-.359375-.738281-.359375l-2.878906.289063v2.914062l3.441406-.421875zm-.25 3.734375v-.382812l-3.367187.40625v2.804687h.347656c.140625 0 .609375-.070312 1.410156-.207031.792969-.140625 1.25-.253906 1.371094-.355469zm0 0"/></svg>