<svg height="40" viewBox="0 0 40 40" width="40" xmlns="http://www.w3.org/2000/svg"><path d="m30.636719 13.855469c0 .234375-.511719.425781-1.539063.5625-.941406.117187-1.890625.234375-2.84375.347656l-1.019531 4.816406c.167969.0625.328125.136719.496094.203125.273437.148438.414062.308594.414062.496094 0 .234375-1.03125.480469-3.085937.734375-1.265625.140625-2.515625.28125-3.757813.425781-.800781 4.5625-3.132812 8.265625-7.019531 11.125-.074219-.1875-.109375-.269531-.109375-.25 0 .140625.597656-.582031 1.792969-2.171875 1.335937-1.753906 2.320312-3.460937 2.945312-5.125.5625-1.453125.84375-2.476562.84375-3.09375v-.171875l-3.648437.734375c-.371094-.113281-.839844-.363281-1.386719-.734375-.546875-.375-.824219-.617187-.824219-.738281 0-.136719.042969-.207031.136719-.207031 1.058594.40625 1.636719.609375 1.722656.609375.308594 0 1.734375-.261719 4.28125-.792969.167969-1.6875.261719-2.917969.28125-3.714844v-1.054687c-.019531-.023438-.070312-.03125-.132812-.03125l-6.324219 1.15625c-.394531-.070313-1.222656-.632813-2.496094-1.6875.054688-.0625.109375-.164063.179688-.277344.820312.371094 1.578125.597656 2.28125.660156l6.492187-.910156v-.808594c0-1.566406-.550781-2.8125-1.644531-3.753906l-1.511719.25c-.09375.074219-.507812-.15625-1.242187-.667969-.742188-.515625-1.109375-.878906-1.109375-1.09375 0 .03125.039062-.039062.132812-.207031.195313.121094.546875.277344 1.074219.472656.527344.203125.921875.296875 1.175781.296875.1875 0 .828125-.078125 1.933594-.238281 1.542969-.214844 3.863281-.542969 6.949219-.984375.347656-.050781.710937-.160156 1.09375-.339844.367187-.171875.582031-.257812.625-.257812.097656 0 .460937.222656 1.085937.6875.636719.457031.949219.765625.949219.921875 0 .097656-.074219.269531-.222656.507812-.15625.25-.246094.417969-.265625.511719-.117188.402344-.371094 1.558594-.773438 3.480469.371094.019531.746094-.058594 1.109375-.234375.355469-.171875.515625-.261719.476563-.261719.207031 0 .625.074219 1.257812.214844.820313.1875 1.226563.382812 1.226563.59375zm-5.121094-4.105469c0-.074219-.113281-.234375-.332031-.472656-.230469-.246094-.359375-.382813-.402344-.40625l-7.199219 1.191406c1.703125.890625 2.558594 1.53125 2.558594 1.933594 0-.046875-.0625.300781-.1875 1.035156-.128906.738281-.199219 1.222656-.199219 1.457031l5.339844-.632812zm-.566406 5.1875-5.230469.65625-.347656 4.792969 4.804687-.667969zm0 0"/></svg>