<svg height="40" viewBox="0 0 40 40" width="40" xmlns="http://www.w3.org/2000/svg"><path d="m32.09375 19.402344c0 .265625-.363281.382812-1.089844.382812-.1875 0-.441406-.007812-.769531-.046875-.328125-.035156-.578125-.050781-.734375-.050781-1.667969-.046875-2.964844-.074219-3.902344-.074219-.890625 0-1.554687.117188-2 .351563-1.195312 1.195312-2.726562 2.664062-4.601562 4.425781-3.105469 2.410156-6.539063 4.410156-10.28125 6l-.171875-.207031c5.519531-2.929688 9.921875-6.25 13.195312-9.96875h-.109375c-.742187 0-2.3125.207031-4.703125.628906-2.097656.394531-3.703125.738281-4.804687 1.015625-.074219.03125-.28125.105469-.648438.234375-.363281.125-.582031.1875-.648437.1875-.382813 0-.953125-.269531-1.734375-.808594-.789063-.53125-1.183594-.96875-1.183594-1.296875l.25-.101562c1.191406.515625 1.859375.769531 1.996094.769531.191406 0 1.546875-.171875 4.078125-.519531.816406-.101563 2.03125-.265625 3.644531-.5.234375-.042969.550781-.117188.949219-.210938.023437 0 .050781-.007812.070312-.03125l-.140625-3.9375c-.113281 0-.171875 0-.171875 0-.398437 0-.992187.105469-1.773437.304688-.789063.203125-1.375.40625-1.777344.617187-.394531-.03125-.957031-.253906-1.6875-.6875-.71875-.4375-1.152344-.820312-1.296875-1.179687l.285156-.136719c.71875.515625 1.460938.769531 2.210938.769531.210937 0 1.585937-.210937 4.140625-.632812.050781-.117188.070312-.21875.070312-.3125-.019531-.839844-.035156-1.683594-.035156-2.523438-.136719-1.082031-.527344-1.757812-1.15625-2.046875.019531-.132812.136719-.207031.347656-.207031.515625 0 1.042969.128906 1.585938.386719.65625.304687.984375.675781.984375 1.125-.328125.472656-.523438 1.566406-.5625 3.300781 1.644531-.234375 2.863281-.542969 3.664062-.910156.265625 0 .667969.070312 1.203125.222656.542969.15625.886719.300781 1.023438.4375v.25c-.679688.253906-1.648438.453125-2.90625.597656-1.507813.136719-2.496094.273438-2.984375.386719v3.96875c.113281.019531.171875.027344.171875.027344 1.03125 0 1.882812-.089844 2.5625-.277344.210937-.042969 1.023437-1.089844 2.457031-3.121094 1.425781-2.039062 2.140625-3.222656 2.140625-3.550781 0-.140625-.082031-.347656-.261719-.625-.179687-.285156-.347656-.464844-.507812-.535156l.273437-.277344c.382813.019531.871094.300781 1.476563.824219.613281.523437.890625.960937.84375 1.320312-.351563.296875-1.105469 1.210938-2.28125 2.734375-.65625.84375-1.449219 1.824219-2.386719 2.945313.796875-.023438 1.964844-.121094 3.511719-.3125.09375-.023438.3125-.101563.644531-.226563.34375-.128906.527344-.195312.546875-.195312.328125 0 .90625.160156 1.738281.472656.828125.324219 1.246094.589844 1.246094.824219zm0 0"/></svg>