<svg height="40" viewBox="0 0 40 40" width="40" xmlns="http://www.w3.org/2000/svg"><path d="m29.269531 23.074219c0 .632812-1.648437.945312-4.929687.945312-2.476563 0-3.703125-.851562-3.703125-2.566406l.132812-2.628906c0-.089844-.382812-.652344-1.15625-1.6875 0-.023438.042969-.121094.136719-.3125 1.875.304687 2.808594.8125 2.808594 1.515625 0-.1875-.109375.035156-.328125.671875-.226563.632812-.335938 1.378906-.335938 2.222656 0 .996094.542969 1.488281 1.609375 1.488281 1.085938 0 2.015625-.109375 2.808594-.328125.097656-.03125.253906-.113281.472656-.273437.230469-.164063.355469-.242188.375-.242188.234375 0 .621094.132813 1.164063.386719.625.28125.945312.550781.945312.808594zm1.121094-7.089844c0 .234375-.171875.378906-.527344.453125-.207031.019531-.410156.050781-.59375.074219-.59375.296875-1.957031 1.390625-4.109375 3.257812-.023437-.019531-.125-.066406-.28125-.140625l2.246094-4.066406c-.191406-.261719-.308594-.386719-.347656-.386719.039062 0-.761719.078125-2.421875.242188-1.152344.113281-3.339844.421875-6.5625.914062-3.023438.4375-4.523438.65625-4.5.65625-.183594 0-.476563-.039062-.875-.128906-.1875.65625-.386719 1.3125-.601563 1.964844-.460937 1.191406-.910156 1.789062-1.332031 1.789062-.46875 0-.703125-.726562-.703125-2.175781 0-.046875.230469-.472656.6875-1.277344.457031-.8125.691406-1.285156.722656-1.421875.023438-.070312.023438-.425781 0-1.054687 0-.417969.089844-.6875.277344-.804688.253906.445313.515625.886719.769531 1.335938.214844.296875.609375.453125 1.199219.453125.296875 0 1.160156-.105469 2.558594-.320313.445312-.046875 1.125-.128906 2.035156-.242187.402344-.074219.949219-.15625 1.644531-.25.125 0 .636719-.0625 1.546875-.203125 1.105469-.148438 2.746094-.402344 4.917969-.773438.09375-.03125.296875-.117187.621094-.265625.3125-.148437.492187-.234375.535156-.234375.214844 0 .78125.359375 1.707031 1.074219.921875.714844 1.386719 1.222656 1.386719 1.53125zm-12.746094 2.984375c0 .113281-.101562.246094-.3125.402344-.210937.148437-.335937.273437-.390625.367187-2.050781 3.296875-4.3125 5.59375-6.769531 6.882813-.121094-.046875-.175781-.140625-.175781-.28125 0-.027344.09375-.132813.273437-.320313.804688-.773437 1.511719-1.546875 2.148438-2.3125.328125-.378906.84375-1.097656 1.546875-2.179687.816406-1.261719 1.222656-2.023438 1.222656-2.28125 0-.183594-.144531-.476563-.453125-.859375-.308594-.386719-.574219-.632813-.808594-.714844.074219-.246094.152344-.359375.246094-.359375.355469 0 .972656.167969 1.859375.496094 1.082031.375 1.613281.757812 1.613281 1.160156zm-7.960937 2.457031h-.074219v-.632812h.074219zm0 0"/></svg>