<svg height="40" viewBox="0 0 40 40" width="40" xmlns="http://www.w3.org/2000/svg"><path d="m28.246094 31.546875c0 .636719-.734375.949219-2.210938.949219l-1.96875-.039063c-1.023437-.066406-2.0625-.160156-3.101562-.273437-1.042969-.121094-1.808594-.402344-2.296875-.851563-.605469-.582031-.914063-1.492187-.914063-2.734375v-4.210937c-.847656.210937-2.09375.5625-3.753906 1.050781 0 0-.121094.09375-.339844.269531-.21875.171875-.375.261719-.472656.261719-.15625 0-.363281-.285156-.59375-.84375-.214844-.46875-.316406-.761719-.316406-.875 0 0 .0625-.082031.175781-.25.113281-.160156.1875-.292969.214844-.386719.15625-1.21875.238281-2.46875.238281-3.753906 0-.46875-.082031-.855469-.238281-1.160156-.171875-.296875-.25-.453125-.25-.453125 0-.027344.035156-.117188.109375-.28125 1.207031.492187 1.820312.96875 1.820312 1.441406 0 .136719-.066406.363281-.195312.675781-.125.324219-.1875.546875-.1875.6875v1.15625l-.109375 1.824219c0 .214844.054687.378906.179687.5l3.71875-.8125v-8.171875l-5.863281 1.683594c-.042969-.09375-.09375-.226563-.140625-.386719l6.003906-2.390625v-5.15625c-.265625-.308594-.738281-.714844-1.441406-1.234375v-.277344h.53125c.371094 0 .910156.140625 1.609375.417969.847656.378906 1.261719.769531 1.261719 1.191406 0 0-.046875.109375-.152344.320313-.109375.207031-.175781.421875-.199219.628906-.160156 1.292969-.238281 2.480469-.238281 3.582031.765625-.394531 1.683594-.875 2.734375-1.4375.253906-.113281.640625-.34375 1.160156-.671875.0625-.0625.101563-.21875.101563-.453125 0-.257812-.21875-.535156-.664063-.84375v-.25c.277344.074219.75.328125 1.402344.777344.824219.5625 1.230469 1.035156 1.230469 1.40625 0 .113281-.34375.328125-1.027344.636719-1.980469.859375-3.59375 1.53125-4.871094 1.992187 0 .121094-.007812.273438-.035156.464844l-.214844 8.074219c.730469-.171875 2.320313-.476563 4.777344-.914063 0-.097656.019531-.210937.074219-.359375l.140625-4.171875c0-.539062-.039063-.90625-.105469-1.09375-.113281-.394531-.4375-.742187-.949219-1.050781v-.28125c.277344.027344.679688.113281 1.1875.28125 1.125.511719 1.6875 1.015625 1.6875 1.511719 0-.023438-.082031.21875-.242187.738281-.046875.09375-.085938.425781-.109375 1.019531-.023438.414063-.136719 1.714844-.351563 3.890625-.019531.398438-.050781.796875-.085937 1.199219-.039063.394531-.121094.675781-.261719.859375-.140625.175781-.347656.234375-.636719.191406-.132812-.210937-.21875-.519531-.238281-.910156 0-.328125-.015625-.65625-.035156-.984375-.023438-.027344-.058594-.035156-.109375-.035156-.277344 0-1.058594.128906-2.335938.382812-1.273437.257813-2.078125.445313-2.40625.5625v5.125c0 .820313.34375 1.351563 1.023438 1.585938.285156.113281.988281.207031 2.144531.273437l1.957031.039063c.75 0 1.179688-.039063 1.273438-.105469.625-.589844 1.109375-1.421875 1.4375-2.496094.226562-.910156.457031-1.828125.660156-2.738281.1875.050781.285156.144531.285156.285156l-.140625 3.890625v.351563c.445313.351562.664063.738281.664063 1.160156zm0 0"/></svg>