<svg height="40" viewBox="0 0 40 40" width="40" xmlns="http://www.w3.org/2000/svg"><path d="m29.792969 22.109375c0 .328125-.402344.484375-1.195313.484375-2.3125.050781-4.726562.171875-7.226562.355469-.074219.09375-.109375.300781-.109375.628906 0-.1875-.039063 1.105469-.101563 3.863281-.050781 2.34375-.269531 3.511719-.671875 3.511719-.234375 0-.445312-.40625-.628906-1.234375-.144531-.675781-.207031-1.207031-.207031-1.609375v-5.015625c-.402344.0625-1.515625.355469-3.355469.875-1.839844.515625-2.792969.769531-2.859375.769531-.515625 0-1.136719-.320312-1.859375-.960937-.730469-.648438-1.183594-1.242188-1.371094-1.777344l.277344-.207031c.984375.863281 1.828125 1.238281 2.53125 1.125l6.636719-.949219v-3.058594c-.023438-.019531-.074219-.035156-.148438-.035156-.4375 0-1.238281.160156-2.382812.472656-1.148438.320313-1.839844.476563-2.074219.476563-.207031 0-.660156-.246094-1.371094-.75-.695312-.5-1.046875-.859375-1.046875-1.074219 0-.027344.042969-.113281.136719-.28125 1.4375.441406 2.238281.65625 2.402344.636719l4.484375-.636719v-3.296875l-3.605469.839844c-.207031.050781-.699219-.183594-1.464844-.6875-.765625-.5-1.144531-.882813-1.144531-1.136719 0-.019531.058594-.113281.175781-.285156 1.121094.5625 1.796875.828125 2.03125.773437l4.007813-.664062v-2.105469c0-.191406-.167969-.503906-.496094-.949219-.328125-.445312-.582031-.71875-.777344-.8125l.148438-.347656c2.171875.730469 3.257812 1.292969 3.257812 1.683594 0 .265625-.160156.523437-.488281.8125v1.367187c.582031 0 1.40625-.09375 2.457031-.28125.042969-.023437.132813-.082031.261719-.175781.136719-.09375.21875-.140625.265625-.140625.1875 0 .550781.144531 1.082031.449219.542969.296875.8125.535156.8125.71875 0 .300781-.394531.460937-1.195312.484375-.464844 0-.933594 0-1.402344 0-.515625.019531-1.277344.070312-2.28125.132812v3.234375c.09375.023438.175781.039063.25.039063.894531 0 1.667969-.105469 2.324219-.320313.097656-.019531.28125-.113281.535156-.257812.261719-.152344.402344-.234375.421875-.234375.355469 0 .875.128906 1.550781.382812.78125.265625 1.167969.523438 1.167969.777344 0 .28125-.363281.441406-1.09375.496094-.421875 0-.84375 0-1.269531 0-.875.085937-2.164063.203125-3.886719.347656v3.191406c.046875.027344.105469.039063.175781.039063 1.875 0 3.445313-.152344 4.703125-.460938.054688-.019531.199219-.113281.4375-.28125.246094-.160156.390625-.242187.4375-.242187.28125 0 .808594.160156 1.585938.488281.769531.328125 1.15625.597656 1.15625.8125zm0 0"/></svg>