<svg height="40" viewBox="0 0 40 40" width="40" xmlns="http://www.w3.org/2000/svg"><path d="m30.933594 31.238281-4.453125.386719c-.402344.019531-1.605469-1.40625-3.617188-4.292969-1.164062-1.722656-2.34375-3.46875-3.507812-5.222656-.136719.347656-.34375.902344-.601563 1.644531-.5625 1.855469-1.804687 3.640625-3.738281 5.375-1.925781 1.730469-3.847656 2.828125-5.777344 3.296875l-.171875-.273437c2.011719-.683594 4.015625-2.167969 6.007813-4.464844 1.984375-2.296875 3.039062-4.464844 3.15625-6.488281-1.542969.15625-3.074219.441406-4.601563.847656-.066406.027344-.269531.105469-.613281.246094-.339844.132812-.515625.203125-.546875.203125-.625 0-1.421875-.542969-2.378906-1.617188l.132812-.207031c.964844.347656 1.664063.527344 2.109375.527344.023438 0 .671875-.121094 1.933594-.355469l4.140625-.738281c.160156-1.417969.253906-3.183594.277344-5.296875-.023438-.023438-.058594-.039063-.101563-.039063-.445312 0-1.554687.34375-3.332031 1.023438-.308594 0-.738281-.277344-1.296875-.824219-.5625-.550781-.886719-.980469-.949219-1.28125.136719-.097656.230469-.140625.277344-.140625-.019531 0 .207031.113281.699219.347656.492187.234375.847656.339844 1.054687.3125l3.648438-.484375v-4.492187c0-.242188-.152344-.507813-.476563-.796875-.3125-.292969-.597656-.496094-.859375-.609375l.109375-.25h.386719c.394531 0 .941406.160156 1.636719.472656.6875.324219 1.035156.640625 1.035156.96875 0 .140625-.050781.34375-.144531.613281-.089844.273438-.140625.476563-.140625.617188l-.101563 3.15625h.136719c.847656 0 1.917969-.179688 3.230469-.527344.046875 0 .210937-.058594.488281-.171875.285156-.121094.449219-.175781.496094-.175781.160156 0 .578125.25 1.25.734375.660156.5 1 .816406 1 .984375 0 .097656-.105469.210937-.304688.351562-.195312.136719-.316406.257813-.367187.351563-.183594.398437-.398438 1.117187-.632813 2.175781-.328125 1.472656-.5 2.234375-.53125 2.285156.054688.023438.09375.027344.148438.027344.816406 0 1.414062-.027344 1.785156-.097656.074219-.027344.214844-.074219.421875-.140625.214844-.074219.339844-.109375.390625-.109375.277344 0 .75.179687 1.394531.546875.65625.363281.984375.648437.984375.859375 0 .273437-.226562.421875-.695312.421875.160156 0-.351563-.074219-1.546875-.210938-1.195313-.144531-2.320313-.210937-3.371094-.210937-.253906 0-1.0625.054687-2.417969.175781-1.359375.113281-2.085937.199219-2.179687.246094-.089844.046875-.164063.207031-.203125.488281 1.800781 2.5 3.429687 4.410156 4.90625 5.722656 1.753906 1.515625 3.898437 2.796875 6.421875 3.824219zm-6.453125-16.710937c0-.140625-.0625-.292969-.195313-.453125-.125-.167969-.25-.234375-.363281-.214844l-3.792969.667969c.023438.300781-.0625 2.066406-.25 5.296875h.140625c.402344 0 1.617188-.121094 3.652344-.386719.074219-.136719.21875-.917969.457031-2.347656.234375-1.429688.351563-2.28125.351563-2.5625zm0 0"/></svg>