<svg height="40" viewBox="0 0 40 40" width="40" xmlns="http://www.w3.org/2000/svg"><path d="m30.777344 27.828125c0 .441406-1.042969.816406-3.125 1.125-1.570313.207031-2.871094.3125-3.898438.3125h-7.722656c-1.496094 0-2.769531-.199219-3.828125-.597656-1.46875-.5625-2.207031-1.453125-2.207031-2.664063 0 0 .035156-.925781.101562-2.773437l.355469-5.480469c.046875-.839844.066406-1.78125.066406-2.808594 0-.367187-.128906-.75-.398437-1.132812-.273438-.390625-.570313-.667969-.898438-.828125.023438-.167969.152344-.246094.386719-.246094s.546875.058594.933594.171875c.382812.121094.65625.175781.820312.175781.027344 0 .777344-.113281 2.25-.347656l8.140625-1.296875c.140625-.027344.6875-.144531 1.652344-.375.953125-.21875 1.457031-.328125 1.511719-.328125.207031 0 .585937.191406 1.132812.578125.554688.386719.824219.671875.824219.859375-.113281.1875-.238281.40625-.386719.660156-.234375.5625-.46875 1.375-.695312 2.433594-.289063 1.1875-.5 1.996094-.636719 2.417969-.191406.609375-.457031.910156-.8125.910156-.1875 0-.347656-.078125-.496094-.246094-.132812-.160156-.273437-.25-.414062-.25 0 0-.648438.074219-1.9375.214844-1.757813.1875-3.734375.453125-5.929688.792969-2.1875.335937-3.347656.503906-3.460937.503906-.023438 0-.214844-.03125-.5625-.105469-.1875 3.3125-.289063 5.351563-.289063 6.121094 0 1.09375.542969 1.75 1.621094 1.953125 1.21875.265625 2.582031.390625 4.082031.390625h4.429688c.675781 0 1.734375-.082031 3.164062-.246094 1.617188-.164062 2.625-.335937 3.027344-.519531.792969-.375 1.347656-1.933594 1.65625-4.675781l.386719.101562c.019531 1.808594.144531 3.210938.382812 4.214844.511719.285156.773438.613281.773438.984375zm-6-15.46875c-.148438-.207031-.273438-.300781-.386719-.277344l-5.722656.765625c.164062.421875.242187.695313.242187.8125l-.421875 4.023438 5.371094-.667969zm-7.199219 1.667969c0-.140625-.0625-.328125-.199219-.578125-.117187-.25-.242187-.40625-.363281-.476563l-5.222656.945313c.019531 1.320312 0 2.847656-.074219 4.566406.113281.03125.292969.0625.519531.109375l5.195313-.808594zm0 0"/></svg>