<svg height="40" viewBox="0 0 40 40" width="40" xmlns="http://www.w3.org/2000/svg"><path d="m21.511719 10.261719c0 .164062-.074219.40625-.230469.734375-.152344.328125-.222656.503906-.222656.523437v18.789063c0 .234375-.074219.535156-.214844.910156-.136719.371094-.300781.5625-.496094.5625-.460937 0-.835937-1.324219-1.117187-3.96875 0-.308594.070312-.660156.207031-1.089844l.214844-.628906v-15.339844c0-.207031-.195313-.617187-.5625-1.226562-.308594-.492188-.507813-.78125-.601563-.875v-.429688c.214844-.039062.742188.164063 1.585938.636719.953125.511719 1.4375.980469 1.4375 1.402344zm0 0"/></svg>