<svg height="40" viewBox="0 0 40 40" width="40" xmlns="http://www.w3.org/2000/svg"><path d="m26.65625 31.277344c0 .882812-1.832031 1.273437-5.480469 1.15625l-2.070312-.0625c-3.257813-.121094-4.835938-1.585938-4.742188-4.390625l.492188-16.640625c.019531-.777344-.007813-1.335938-.101563-1.6875-.175781-.699219-.648437-1.296875-1.410156-1.789063.097656-.207031.175781-.316406.25-.316406.277344 0 .855469.171875 1.71875.53125.980469.394531 1.472656.796875 1.472656 1.1875 0-.277344-.050781-.089844-.148437.582031-.09375.667969-.164063 1.117188-.183594 1.351563-.230469 2.785156-.503906 7.644531-.824219 14.570312v1.859375c-.023437 1.214844.242188 2.105469.792969 2.683594.546875.574219 1.421875.84375 2.625.824219h2.183594c.164062 0 .457031-.023438.878906-.070313 1.011719-.09375 1.714844-.515625 2.113281-1.273437.257813-.496094.417969-1.28125.476563-2.382813.0625-1.09375.179687-1.859375.375-2.3125h.3125v1.859375c0 .539063.09375 1.625.285156 3.265625.65625.402344.984375.75.984375 1.054688zm0 0"/></svg>