<svg height="40" viewBox="0 0 40 40" width="40" xmlns="http://www.w3.org/2000/svg"><path d="m29.199219 8.808594c0 .179687-.328125.320312-.992188.414062-2.570312 2.511719-3.960937 3.757813-4.175781 3.757813 0-.023438-.078125-.070313-.238281-.140625.5625-.773438 1.085937-1.515625 1.570312-2.246094.871094-1.261719 1.304688-1.988281 1.304688-2.171875-.257813-.402344-.511719-.8125-.765625-1.234375.019531-.042969.0625-.136719.132812-.277344.214844-.03125.761719.164063 1.652344.5625 1.003906.445313 1.511719.890625 1.511719 1.335938zm-7.625-1.757813c0-.140625-.136719.132813-.414063.808594-.070312.160156-.117187.441406-.144531.839844-.089844 1.3125-.246094 3.113281-.453125 5.40625-.019531.207031-.199219.316406-.527344.316406-.398437 0-.597656-.136719-.597656-.421875v-5.828125c.066406-.074219.105469-.152344.105469-.246094 0-.375-.125-.773437-.386719-1.210937-.253906-.429688-.546875-.730469-.875-.898438.042969-.160156.1875-.238281.421875-.238281.328125 0 .839844.125 1.546875.386719.886719.328125 1.324219.6875 1.324219 1.085937zm-5.855469 5.542969c0 .496094-.171875.746094-.53125.746094-.277344 0-.488281-.109375-.625-.324219-.984375-1.425781-1.566406-2.253906-1.761719-2.496094-.535156-.648437-1.203125-1.257812-2-1.820312.027344-.074219.0625-.164063.105469-.277344 1.824219.859375 2.828125 1.355469 3.019531 1.472656 1.195313.746094 1.792969 1.648438 1.792969 2.699219zm0 0"/></svg>