<svg height="40" viewBox="0 0 40 40" width="40" xmlns="http://www.w3.org/2000/svg"><path d="m29.019531 27.71875c0 .941406-.25 1.40625-.734375 1.40625-.488281 0-.878906-.5625-1.160156-1.683594-.421875-1.6875-.910156-3.035156-1.472656-4.039062-.820313-1.027344-1.648438-2.117188-2.496094-3.261719.019531 0 .035156-.011719.035156-.035156.09375-.136719.257813-.515625.492188-1.121094.347656-.847656.84375-2.074219 1.476562-3.691406.703125-1.804688 1.054688-2.757813 1.054688-2.871094 0-.308594-.273438-.777344-.8125-1.410156v-.460938c1.921875 1.179688 2.882812 2.164063 2.882812 2.953125 0 .140625-.046875.273438-.140625.386719-.960937 1.238281-2.363281 3.292969-4.210937 6.140625 1.585937 1.410156 2.707031 2.53125 3.363281 3.371094 1.144531 1.503906 1.722656 2.9375 1.722656 4.316406zm-6.25.597656c0 .914063-.234375 1.371094-.695312 1.371094-.328125 0-.683594-.480469-1.058594-1.4375-.207031-.636719-.417969-1.277344-.628906-1.933594-.585938-1.640625-1.195313-2.863281-1.824219-3.6875-.28125-.273437-.566406-.566406-.84375-.875-.347656-.347656-.527344-.664062-.527344-.945312 0-.195313.476563-1.398438 1.421875-3.621094.949219-2.222656 1.421875-3.613281 1.421875-4.175781 0-.398438-.382812-1.203125-1.160156-2.421875l.175781-.277344c1.898438 1.21875 2.84375 2.3125 2.84375 3.296875 0 .167969-.066406.316406-.195312.457031-.125.140625-.246094.273438-.367188.386719-.253906.375-.828125 1.46875-1.71875 3.28125-.890625 1.816406-1.347656 2.824219-1.367187 3.035156 3.015625 3.652344 4.523437 6.167969 4.523437 7.546875zm-6.210937-.3125c0 1.046875-.246094 1.578125-.734375 1.578125-.375 0-.761719-.628906-1.164063-1.894531-.816406-2.527344-1.738281-4.503906-2.769531-5.933594-.1875-.210937-.371094-.410156-.5625-.597656-.234375-.277344-.347656-.511719-.347656-.699219 1.894531-4.164062 2.84375-6.796875 2.84375-7.898437 0-.421875-.089844-.75-.246094-.984375-.097656-.09375-.355469-.3125-.777344-.664063v-.457031c.679688.074219 1.359375.328125 2.039063.769531.769531.492188 1.15625 1.042969 1.15625 1.648438 0 .097656-.007813.175781-.039063.25-.15625.113281-.347656.304687-.554687.5625-.214844.253906-.851563 1.390625-1.914063 3.40625-1.066406 2.007812-1.597656 3.078125-1.597656 3.191406 0 .1875.78125 1.28125 2.332031 3.28125 1.554688 2 2.335938 3.480469 2.335938 4.441406zm0 0"/></svg>