<svg height="40" viewBox="0 0 40 40" width="40" xmlns="http://www.w3.org/2000/svg"><path d="m13.089844 10.964844c0 .328125-.140625.488281-.421875.488281-.398438 0-1.1875-.546875-2.371094-1.636719-1.183594-1.082031-1.777344-1.804687-1.777344-2.15625 0-.039062.039063-.128906.109375-.25.746094.5 1.402344.871094 1.964844 1.125.308594.09375.738281.25 1.296875.460938.171875.117187.410156.429687.722656.945312.3125.523438.476563.855469.476563 1.023438zm-1.71875 7.578125c0 .257812-.164063.382812-.492188.382812-.632812 0-1.394531-.414062-2.285156-1.257812-.886719-.84375-1.40625-1.589844-1.542969-2.246094.117188-.074219.195313-.109375.246094-.109375-.144531 0 .269531.28125 1.222656.84375.195313.121094.777344.328125 1.761719.636719.277344.113281.621094.601562 1.015625 1.472656.046875.09375.074219.1875.074219.277344zm2.140625 3.722656c0 .066406-.636719 1.472656-1.898438 4.207031-1.351562 2.953125-2.222656 4.992188-2.59375 6.117188-.359375 0-.863281-.375-1.53125-1.125-.664062-.75-1-1.3125-1-1.683594.023438-.050781.117188-.15625.28125-.324219.417969.445313.820313.671875 1.195313.671875 1.734375-2.296875 3.484375-5.019531 5.265625-8.179687.1875.1875.28125.289062.28125.316406zm0 0"/></svg>