<svg height="40" viewBox="0 0 40 40" width="40" xmlns="http://www.w3.org/2000/svg"><path d="m32.671875 10.457031c0 .210938-.230469.371094-.703125.484375-.183594.054688-.472656.121094-.875.214844-.488281.261719-1.3125.734375-2.457031 1.441406-1.011719.605469-1.546875.921875-1.617188.949219l-.28125-.246094 3.054688-3.160156c-.046875-.113281-.132813-.308594-.246094-.5625h-2.25c-3.363281.046875-9.285156.46875-17.761719 1.269531-.117187 3.226563-.546875 4.835938-1.296875 4.835938-.300781 0-.539062-.292969-.703125-.875-.132812-.421875-.207031-.828125-.207031-1.230469 0-.121094.128906-.433594.386719-.949219.535156-1.070312.804687-1.867187.804687-2.382812 0-.257813-.039062-.5625-.125-.914063-.078125-.347656-.117187-.554687-.117187-.597656.019531-.074219.113281-.175781.28125-.3125.160156.207031.414062.566406.765625 1.082031.164062.257813.300781.390625.382812.390625l8.855469-.671875v-3.332031c0-.421875-.402344-.855469-1.191406-1.296875v-.277344h.59375c.28125 0 .773437.1875 1.472656.574219.703125.386719 1.050781.691406 1.050781.933594 0 .207031-.066406.390625-.191406.539062-.128906.152344-.191406.242188-.191406.261719-.101563.5625-.140625 1.3125-.140625 2.25 0 .113281.015625.203125.035156.246094 1.640625-.09375 4.46875-.277344 8.496094-.5625.117187 0 .34375-.0625.6875-.1875.332031-.132813.550781-.199219.644531-.199219.375 0 .941406.292969 1.703125.875.753906.59375 1.140625 1.058594 1.140625 1.410156zm0 0"/></svg>