<svg height="40" viewBox="0 0 40 40" width="40" xmlns="http://www.w3.org/2000/svg"><path d="m31.40625 10.109375c0 .296875-.277344.441406-.839844.417969l-4.140625-.242188h-1.40625c-.210937.71875-.421875 1.449219-.625 2.171875-.378906 1.121094-.71875 1.683594-1.019531 1.683594-.308594 0-.464844-.292969-.464844-.875 0-.441406.195313-1.390625.5625-2.84375-1.515625.046875-3.867187.292969-7.050781.738281l.386719 3.304688c0 .414062-.136719.625-.421875.625-.492188 0-.890625-.5625-1.195313-1.683594-.023437-.234375-.125-.875-.316406-1.933594-.558594.09375-1.316406.234375-2.28125.421875-.488281.167969-.714844.25-.660156.25-.328125 0-.96875-.289062-1.917969-.875-.949219-.59375-1.421875-1.019531-1.421875-1.304687 0-.070313.035156-.148438.109375-.242188 1.589844.585938 2.515625.875 2.769531.875l3.230469-.347656c.019531-.027344.035156-.074219.035156-.140625 0-.636719-.140625-1.65625-.421875-3.058594-.046875-.207031-.445312-.617187-1.195312-1.226562l.144531-.277344h.734375c.234375 0 .636719.136719 1.214844.421875.566406.277344.863281.511719.894531.699219-.03125.160156-.050781.382812-.074219.664062-.019531.1875.042969 1.0625.214844 2.632813h.246094c1.65625-.164063 4.054687-.386719 7.191406-.664063.074219-.191406.183594-.65625.332031-1.410156.15625-.738281.230469-1.203125.230469-1.359375 0-.234375-.300781-.691406-.910156-1.375 0-.074219.035156-.152344.109375-.246094h.585937c.261719 0 .699219.226563 1.320313.671875.617187.445313.9375.792969.9375 1.046875-.265625.375-.601563 1.203125-1.023438 2.496094.960938.019531 1.664063 0 2.105469-.074219.046875-.019531.214844-.09375.488281-.222656.289063-.136719.445313-.199219.496094-.199219.234375 0 .765625.167969 1.613281.496094.960938.371094 1.433594.699219 1.433594.984375zm0 0"/></svg>