<svg height="40" viewBox="0 0 40 40" width="40" xmlns="http://www.w3.org/2000/svg"><path d="m10.808594 15.785156c0 .464844-.136719.699219-.390625.699219-.117188 0-.539063-.355469-1.261719-1.082031-1.058594-1.054688-2.066406-2.015625-3.050781-2.882813l.097656-.316406c.636719.253906 1.5625.671875 2.78125 1.234375 1.207031.5625 1.824219 1.34375 1.824219 2.347656zm3.613281-6.8125c0 .09375-.058594.234375-.171875.421875-.121094.257813-.191406.414063-.214844.460938v.316406c-.019531.15625-.035156.300781-.035156.421875l-.109375 20.777344c0 .820312-.175781 1.226562-.527344 1.226562-.460937 0-.894531-.847656-1.296875-2.554687l.386719-1.585938.109375-2.59375v-5.898437l-5.300781 6.5625c-.28125 0-.621094-.242188-1.007813-.726563-.378906-.472656-.578125-.84375-.578125-1.097656 0-.050781-.007812-.113281-.046875-.214844-.035156-.09375-.050781-.15625-.050781-.207031 0-.121094.097656-.191406.3125-.214844.234375.402344.488281.601563.769531.601563.164063 0 1.109375-.855469 2.84375-2.558594 1.667969-1.640625 2.679688-2.691406 3.058594-3.167969v-9.617187c0-.234375-.152344-.53125-.457031-.914063-.308594-.367187-.578125-.617187-.808594-.734375.019531-.066406.058594-.160156.109375-.273437h.277344c.207031 0 .691406.171875 1.441406.519531.859375.394531 1.296875.753906 1.296875 1.050781zm0 0"/></svg>