<svg height="40" viewBox="0 0 40 40" width="40" xmlns="http://www.w3.org/2000/svg"><path d="m14.703125 10.386719c0 .039062-1.144531.953125-3.441406 2.734375 1.257812 2.644531 1.894531 5.160156 1.894531 7.546875 0 4.394531-.925781 7.835937-2.769531 10.316406-.1875.265625-.382813.386719-.5625.386719l-.136719-.027344c-.144531-.167969-.269531-.417969-.386719-.746094-.117187-.414062-.210937-.6875-.285156-.800781-.46875-.796875-1.199219-1.464844-2.171875-2.003906 0-.089844.042969-.179688.136719-.242188 1.3125.699219 2.203125 1.046875 2.671875 1.046875.742187 0 1.351562-1.003906 1.820312-3.015625.351563-1.472656.527344-2.804687.527344-4.003906 0-.253906-.097656-1.535156-.28125-3.859375-2.453125 3.089844-4.519531 5.207031-6.171875 6.355469l-.25-.214844c3.953125-4.46875 5.925781-7.144531 5.925781-8.035156 0-.445313-.273437-1.101563-.835937-1.96875-1.148438.707031-1.917969 1.175781-2.320313 1.410156-.890625.484375-1.695312.875-2.421875 1.15625l-.132812-.144531c1.046875-.71875 2.515625-1.808594 4.378906-3.261719-.441406-.957031-1.261719-1.941406-2.457031-2.953125.070312-.15625.15625-.238281.25-.238281.164062 0 .65625.347656 1.472656 1.050781.824219.699219 1.3125 1.171875 1.480469 1.40625.253906-.234375.644531-.652344 1.1875-1.234375.632812-.675781.945312-1.066406.945312-1.1875 0-.402344-.253906-.746094-.769531-1.019531l.074219-.210938h.21875c.207031 0 .664062.242188 1.367187.71875.695313.484375 1.042969.824219 1.042969 1.039063zm0 0"/></svg>