<svg height="40" viewBox="0 0 40 40" width="40" xmlns="http://www.w3.org/2000/svg"><path d="m12.015625 8.996094c0 .507812-.222656.753906-.667969.753906-.410156 0-.707031-.097656-.878906-.3125-1.515625-1.644531-2.886719-2.792969-4.128906-3.40625 0-.214844.070312-.316406.21875-.316406.894531 0 1.910156.238281 3.0625.710937 1.601562.652344 2.394531 1.511719 2.394531 2.570313zm24.53125 23.289062c-.417969.183594-1.472656.53125-3.1875 1.070313-2.011719.613281-3.207031.929687-3.59375.929687-1.515625 0-5.191406-.929687-11.027344-2.796875-5.835937-1.859375-9.546875-2.796875-11.109375-2.796875-.535156 0-1.226562.074219-2.082031.230469-.859375.144531-1.390625.21875-1.605469.21875-.320312 0-.488281-.253906-.488281-.753906 0-.53125.109375-.855469.3125-.976563.65625-.359375 1.628906-.90625 2.933594-1.640625 1.769531-1.039062 2.660156-1.863281 2.660156-2.488281 0-.296875-.253906-.753906-.753906-1.390625-.507813-.636719-.757813-1.015625-.757813-1.136719 0-.238281.242188-.835937.730469-1.796875.488281-.957031.734375-1.453125.734375-1.484375 0-.207031-.097656-.3125-.3125-.3125-.203125 0-.847656.324219-1.925781.980469-1.078125.640625-1.679688.972656-1.796875.972656-.292969 0-.671875-.320312-1.132813-.957031-.460937-.636719-.691406-1.089844-.691406-1.355469v-.488281c.09375 0 .183594-.027344.265625-.082031.683594.796875 1.125 1.195312 1.339844 1.195312 1.175781 0 2.847656-.707031 5.007812-2.125.179688 0 .546875.242188 1.109375.726563.5625.488281.839844.8125.839844.957031 0 .203125-.175781.371094-.527344.488281-.453125.179688-.671875.261719-.671875.261719-1.269531 1.363281-1.984375 2.394531-2.128906 3.105469 1.246094.707031 2 1.171875 2.265625 1.378906.980469.714844 1.472656 1.359375 1.515625 1.949219-.390625.117187-.941406.285156-1.652344.488281-2.273437.949219-3.960937 1.894531-5.050781 2.839844 2.65625.382812 7.097656 1.269531 13.308594 2.660156 4.992187 1.125 8.8125 1.714844 11.445312 1.777344l5.898438.128906c.023437.09375.070312.167969.128906.222656zm0 0"/></svg>