<svg height="40" viewBox="0 0 40 40" width="40" xmlns="http://www.w3.org/2000/svg"><path d="m32.53125 28.636719c0 .066406-.03125.144531-.105469.242187l-6.492187.109375c-1.453125-.847656-3.761719-2.976562-6.949219-6.390625-.65625.746094-2.3125 1.773438-4.984375 3.085938-2.855469 1.410156-4.925781 2.109375-6.207031 2.109375h-.214844c-.074219-.074219-.109375-.140625-.109375-.214844 3.9375-1.214844 7.488281-3.171875 10.675781-5.859375l-3.582031-4.496094c-1.3125 1.335938-2.972656 2.480469-4.984375 3.445313-.027344-.09375-.0625-.167969-.105469-.210938.953125-.679687 1.808594-1.359375 2.558594-2.035156.519531-.472656 1.417969-1.433594 2.707031-2.878906 1.570313-1.78125 2.351563-2.828125 2.351563-3.15625 0-.5-.21875-.890625-.667969-1.199219.09375-.113281.160156-.175781.214844-.175781.234375 0 .625.132812 1.1875.390625.707031.328125 1.054687.640625 1.054687.945312-.070312.117188-.398437.515625-.984375 1.195313-.675781.796875-1.125 1.332031-1.332031 1.613281.050781.019531.199219.035156.457031.035156 1.027344 0 3.085938-.140625 6.179688-.425781.929687-.1875 1.296875-.277344 1.085937-.277344.1875 0 .558594.214844 1.121094.652344.5625.425781.847656.730469.847656.890625 0 .113281-2.164062 2.097656-6.5 5.933594 4.640625 4.257812 8.898438 6.484375 12.777344 6.671875zm-8.421875-12.605469c-.347656-.300781-.546875-.46875-.597656-.488281-.605469.019531-1.574219.070312-2.902344.132812l-4.6875.25c-.269531.277344-.546875.554688-.839844.839844 1.214844 1.472656 2.515625 2.894531 3.902344 4.25 2.128906-1.894531 3.832031-3.558594 5.125-4.984375zm0 0"/></svg>