<svg height="40" viewBox="0 0 40 40" width="40" xmlns="http://www.w3.org/2000/svg"><path d="m27.339844 10.660156c0 .375-.136719.5625-.421875.5625-.679688 0-2.117188-.851562-4.320313-2.566406.09375-.183594.15625-.277344.179688-.277344.695312 0 1.601562.1875 2.703125.5625 1.238281.445313 1.859375 1.011719 1.859375 1.71875zm4.003906 13.902344-.808594 4.777344c.09375.488281.15625 1.203125.210938 2.132812-.09375.09375-.199219.148438-.3125.148438-.449219 0-1.105469-.25-1.96875-.746094-.636719-.347656-1.167969-.707031-1.617188-1.082031-2.269531-1.851563-4.082031-4.074219-5.441406-6.667969-.628906-1.21875-1.597656-3.535156-2.910156-6.957031-.421875.050781-.914063.144531-1.476563.285156-.441406.113281-1.554687.457031-3.335937 1.019531l-2.492188.804688c-.726562 0-1.566406-.386719-2.523437-1.164063-.027344-.039062 0-.132812.070312-.273437.953125.070312 1.539063.101562 1.75.101562 1.242188 0 3.84375-.5625 7.792969-1.6875-.253906-.5625-.425781-1.421875-.511719-2.570312-.078125-1.164063-.207031-1.976563-.398437-2.445313-.28125-.75-.84375-1.203125-1.683594-1.367187.019531-.277344.292969-.398438.808594-.351563.351562 0 .796875.058594 1.328125.171875.65625.140625 1.019531.292969 1.09375.460938.046875.234375.054687.523437.03125.875-.046875.582031-.070313.890625-.070313.910156.070313 1.527344.277344 2.859375.632813 4.003906l1.441406-.3125c.890625-.191406 2.457031-.503906 4.703125-.945312.09375-.023438.308594-.121094.636719-.289063.316406-.160156.507812-.238281.554687-.238281.304688 0 .78125.058594 1.4375.175781.75.136719 1.183594.277344 1.296875.414063v.25c-.113281.09375-.3125.195312-.59375.3125-2.25.304687-5.320312.796875-9.234375 1.476562.890625 2.855469 1.710938 5 2.460938 6.421875 1.238281 2.339844 2.914062 4.386719 5.023437 6.148438.699219.582031 1.28125.875 1.75.875.304688 0 .695313-.667969 1.15625-2 .214844-.636719.542969-1.589844.984375-2.882813.140625.074219.214844.140625.214844.214844zm0 0"/></svg>