<svg height="40" viewBox="0 0 40 40" width="40" xmlns="http://www.w3.org/2000/svg"><path d="m32.390625 30.144531c-.140625.140625-.511719.234375-1.125.277344-.328125.050781-.816406.097656-1.472656.144531l-2.179688.03125c-.320312 0-.617187 0-.875 0-3.441406-1.609375-7.648437-4.378906-12.640625-8.3125-.75 1.148438-1.679687 2.292969-2.804687 3.433594-1.375 1.359375-2.574219 2.203125-3.578125 2.53125-.023438-.09375-.058594-.167969-.105469-.207031 2.058594-1.382813 3.917969-3.492188 5.578125-6.320313-1.871094-1.773437-3.285156-2.773437-4.246094-2.988281 0-.066406.03125-.160156.105469-.277344h.421875c.582031 0 1.941406.820313 4.074219 2.460938.070312-.09375.347656-.714844.84375-1.859375.53125-1.273438.800781-2.074219.800781-2.421875-.019531-.09375-.089844-.265625-.203125-.496094-.613281.046875-1.402344.4375-2.371094 1.15625-.976562.730469-1.398437 1.089844-1.285156 1.089844-.09375 0-.28125-.183594-.5625-.5625-.28125-.371094-.421875-.605469-.421875-.699219 0-.140625.089844-.316406.265625-.527344.171875-.210937.332031-.410156.472656-.597656 1.804688-2.859375 2.703125-4.503906 2.703125-4.953125-.019531-.0625-.070312-.171875-.132812-.3125l-3.308594 1.332031c-.308594-.070312-.816406-.75-1.546875-2.03125.074219-.070312.15625-.109375.25-.109375 0 0 .214844.136719.636719.40625.414062.265625.734375.402344.945312.402344.183594 0 .726563-.136719 1.609375-.421875.683594-.214844 1.167969-.371094 1.476563-.488281.5625-.28125.796875-.421875.703125-.421875.207031 0 .566406.21875 1.066406.660156.503906.449219.765625.777344.796875.984375-.5625.027344-1.371094.765625-2.425781 2.214844-.933594 1.285156-1.601563 2.429687-2 3.4375 1.003906-.445313 1.894531-.867188 2.671875-1.261719.515625-.347656.773437-.527344.804687-.527344.164063 0 .507813.179688 1.015625.527344.515625.347656.773438.605469.773438.777344 0 .09375-.074219.207031-.226563.347656-.15625.136719-.242187.246094-.265625.3125-.535156 1.21875-1.273437 2.800781-2.210937 4.738281 7.460937 4.917969 13.457031 7.761719 17.972656 8.53125zm0 0"/></svg>