<svg height="40" viewBox="0 0 40 40" width="40" xmlns="http://www.w3.org/2000/svg"><path d="m30.109375 30.425781c0 .328125-.875.601563-2.636719.8125-1.3125.15625-2.222656.242188-2.734375.242188h-4.140625c-4.238281 0-6.328125-1.328125-6.285156-3.992188l.140625-7.273437-2.332031.875c-.257813-.046875-.695313-.304688-1.308594-.757813-.613281-.457031-.921875-.789062-.921875-.992187 0-.171875.0625-.25.175781-.25l.734375.25c.492188.15625.835938.257812 1.015625.3125l2.636719-.742188v-2.59375c0-.257812-.449219-.75-1.339844-1.476562 0-.070313.039063-.179688.109375-.3125h.28125c.328125 0 .882813.21875 1.652344.644531.765625.4375 1.15625.800781 1.15625 1.109375 0 .019531-.0625.140625-.191406.347656-.132813.214844-.203125.367188-.226563.453125-.03125.09375-.070312.570313-.144531 1.40625l3.722656-1.15625v-5.648437c0-.703125-.050781-1.199219-.144531-1.476563-.160156-.519531-.53125-.984375-1.121094-1.410156-.023437-.019531 0-.113281.074219-.277344h.484375c.285156 0 .796875.195313 1.53125.5625.738281.371094 1.105469.679688 1.105469.914063 0-.074219-.140625.25-.417969.945312v.351563c-.074219.210937-.109375.398437-.109375.5625v4.914062c.46875-.09375 1.425781-.421875 2.878906-.984375l2.210938-.835937c.210937 0 .617187.148437 1.234375.453125.601562.300781.910156.550781.910156.738281 0 .027344-.109375.246094-.339844.667969-.21875.421875-.335937.695312-.363281.84375-.355469 1.726562-.703125 3.164062-1.058594 4.316406-.132812.441406-.265625.875-.382812 1.296875-.183594.488281-.421875.875-.699219 1.160156-.167969.164063-.375.203125-.636719.136719-.253906-.957031-1.1875-1.832031-2.804687-2.628906 0-.074219.019531-.167969.070312-.289063l2.523438.5c.191406 0 .359375-.0625.507812-.175781.15625-.113281.375-.949219.652344-2.496094.261719-1.382812.386719-2.296875.386719-2.738281 0-.046875-.0625-.15625-.203125-.3125-.148438-.160156-.234375-.25-.289063-.25-.296875 0-1.097656.269531-2.40625.808594-.625.253906-1.351562.578125-2.191406.945312v7.375c0 .585938-.175781.875-.542969.875-.570312 0-.859375-1.257812-.859375-3.789062v-3.933594c-1.039062.277344-2.28125.6875-3.71875 1.222656-.070312.765625-.148437 2.140625-.242187 4.117188v2.300781c-.027344 1.582031.265625 2.65625.875 3.214844.601562.554687 1.703125.828125 3.300781.800781h2.769531c.308594-.027344 1.230469-.066406 2.792969-.140625 1.550781-.066406 2.402344-.605469 2.546875-1.605469.019531-.160156.058594-.414062.097656-.765625.195313-.859375.390625-1.875.601563-3.035156h.273437v1.855469c0 .394531.089844 1.328125.25 2.789062.726563.4375 1.089844.851563 1.089844 1.21875zm0 0"/></svg>