<svg height="40" viewBox="0 0 40 40" width="40" xmlns="http://www.w3.org/2000/svg"><path d="m30.457031 10.699219c0 .046875-.0625.238281-.207031.578125-.140625.34375-.203125.617187-.203125.828125v13.898437l.277344 3.085938c.019531.265625-.046875.632812-.214844 1.125-.183594.5625-.386719.84375-.597656.84375-.136719 0-.304688-.183594-.5-.546875-.203125-.355469-.304688-.539063-.304688-.539063-.1875-.070312-.765625-.144531-1.71875-.234375-.960937-.082031-1.585937-.117187-1.894531-.117187-2.714844.023437-4.9375.066406-6.671875.140625-2.574219.113281-4.769531.304687-6.597656.5625-.417969.488281-.714844.734375-.875.734375-.214844 0-.414063-.246094-.601563-.734375-.140625-.421875-.210937-.761719-.210937-1.023438 0-.273437.0625-.691406.175781-1.25.113281-.546875.175781-.957031.175781-1.238281l.109375-14.316406c0-1.21875-.351562-2.125-1.054687-2.710938.070312-.164062.164062-.242187.28125-.242187.140625 0 .421875.109375.835937.332031.421875.21875.679688.332031.777344.332031-.183594 0 1.03125-.113281 3.652344-.351562 4.210937-.375 7.234375-.5625 9.054687-.5625 2.714844 0 3.445313 0 2.171875 0 .964844-.015625 1.664063-.132813 2.109375-.351563 1.355469.679688 2.03125 1.265625 2.03125 1.757813zm-1.535156 18.1875c-.144531-2.011719-.1875-4.964844-.144531-8.855469.070312-5.214844.054687-8.167969-.03125-8.84375l-.039063-.277344c-.375-.519531-.664062-.773437-.875-.773437h-3.191406c-4.707031 0-9.078125.351562-13.09375 1.050781v18.082031c5.214844-.472656 8.375-.707031 9.46875-.707031h5.277344c.390625 0 1.265625.109375 2.628906.324219zm0 0"/></svg>