<svg height="40" viewBox="0 0 40 40" width="40" xmlns="http://www.w3.org/2000/svg"><path d="m31.582031 13.667969c0 .253906-.359375.382812-1.085937.382812-.445313 0-1.101563-.023437-1.980469-.070312-.875-.042969-1.542969-.074219-1.984375-.074219-4.566406 0-8.855469.449219-12.878906 1.332031-.242188 3.402344-.65625 6.15625-1.265625 8.289063-.777344 2.71875-2.023438 5.179687-3.757813 7.40625l-.210937-.101563c2.53125-4.171875 3.789062-8.976562 3.789062-14.429687 0-1.148438-.3125-2.109375-.945312-2.882813l.109375-.210937c.394531.171875.988281.535156 1.785156 1.09375l7.582031-.808594v-2.917969c0-.234375-.164062-.503906-.507812-.820312-.335938-.3125-.636719-.507813-.898438-.578125l.109375-.210938h1.015625c.261719 0 .695313.15625 1.304688.476563.601562.3125.910156.570312.910156.785156 0 .027344-.078125.136719-.234375.332031-.144531.199219-.230469.324219-.261719.375-.066406.203125-.101562 1.007813-.101562 2.382813 2.382812 0 4.332031-.171875 5.828125-.523438.09375-.023437.289062-.125.597656-.300781.308594-.171875.464844-.261719.488281-.261719.261719 0 .757813.171875 1.496094.527344.734375.347656 1.097656.621094 1.097656.808594zm0 0"/></svg>