<svg height="40" viewBox="0 0 40 40" width="40" xmlns="http://www.w3.org/2000/svg"><path d="m14.332031 16.511719c0 .488281-.132812.734375-.421875.734375-.234375 0-.421875-.117188-.5625-.351563-.300781-.515625-.625-1.023437-.957031-1.546875-.34375-.515625-.796875-.929687-1.359375-1.257812l-.238281 16.039062c0 .257813-.058594.546875-.179688.875-.144531.429688-.316406.632813-.53125.632813-.273437 0-.488281-.417969-.625-1.261719 0 0-.070312-.542969-.210937-1.613281l.488281-1.96875.171875-16.320313c0-.726562-.371094-1.347656-1.121094-1.859375l.109375-.25c1.75.492188 2.632813 1.03125 2.632813 1.617188 0 .144531-.058594.375-.171875.703125-.121094.328125-.195313.570312-.214844.71875-.019531.148437-.074219.910156-.136719 2.265625.742188.304687 1.480469.617187 2.210938.945312.742187.445313 1.117187 1.074219 1.117187 1.898438zm-6.734375.945312c0 .421875-.15625 1.042969-.460937 1.859375-.328125.933594-.65625 1.402344-.984375 1.402344s-.484375-.394531-.484375-1.1875c0-.234375.117187-.621094.382812-1.160156.445313-.964844.664063-2.265625.664063-3.933594h.285156c.390625 1.308594.597656 2.3125.597656 3.019531zm0 0"/></svg>