<svg height="40" viewBox="0 0 40 40" width="40" xmlns="http://www.w3.org/2000/svg"><path d="m14.808594 13.417969c0 .238281-1.101563.5625-3.304688.984375v3.441406l2.148438-1.582031.097656.207031-2.246094 2.457031v9.09375c0 .09375.039063.226563.109375.402344.070313.175781.105469.3125.105469.40625 0 .328125-.105469.84375-.3125 1.542969-.234375.820312-.464844 1.234375-.671875 1.234375-.121094 0-.339844-.34375-.667969-1.023438-.28125-.609375-1.15625-1.335937-2.628906-2.175781l.097656-.28125 2.386719.734375c.328125 0 .5-.3125.5-.941406v-8.105469c-.636719.484375-1.546875 1.246094-2.722656 2.269531-.054688.054688-.171875.214844-.371094.5-.203125.277344-.363281.421875-.484375.421875-.300781 0-.65625-.300781-1.058594-.882812-.398437-.585938-.59375-1.042969-.59375-1.359375l.171875-.109375c.53125.441406.835938.664062.875.664062.402344 0 1.796875-.914062 4.183594-2.738281v-3.859375c-.308594.027344-.816406.160156-1.542969.417969-.722656.265625-1.242187.382812-1.570312.382812-.257813 0-.585938-.222656-.976563-.679687-.390625-.453125-.640625-.835938-.753906-1.140625l.203125-.101563c.613281.5625 1.019531.839844 1.234375.839844.769531 0 1.902344-.25 3.40625-.738281v-3.890625c0-.214844-.40625-.617188-1.199219-1.199219l.109375-.214844h.664063c.285156 0 .703125.171875 1.265625.511719.554687.339844.84375.628906.84375.863281 0 .042969-.070313.21875-.199219.523438-.125.304687-.203125.503906-.222656.597656-.164063.957031-.21875 1.671875-.179688 2.140625l.039063.421875c.675781-.066406 1.3125-.292969 1.894531-.667969.183594 0 .457031.070313.824219.214844.363281.140625.546875.277344.546875.417969zm0 0"/></svg>