<svg height="40" viewBox="0 0 40 40" width="40" xmlns="http://www.w3.org/2000/svg"><path d="m14.28125 8.957031c0 .121094-.253906.257813-.777344.421875-1.894531 1.476563-4.046875 2.714844-6.453125 3.726563-.023437-.101563-.054687-.164063-.109375-.214844.5625-.328125 1.453125-.949219 2.671875-1.859375 1.683594-1.285156 2.53125-2.128906 2.53125-2.53125 0-.066406-.175781-.324219-.535156-.765625.03125-.050781.074219-.128906.144531-.25 1.6875.636719 2.527344 1.125 2.527344 1.472656zm-.238281 5.757813c0 .050781-.101563.148437-.289063.320312-.1875.15625-.289062.265625-.3125.3125-.46875.773438-1.148437 1.851563-2.0625 3.234375.414063.636719.621094 1.011719.621094 1.125v10.808594c0 .371094-.0625.761719-.175781 1.160156-.148438.558594-.367188.839844-.652344.839844-.519531 0-.785156-.832031-.785156-2.496094 0-.273437.070312-.554687.210937-.820312.136719-.273438.210938-.453125.210938-.542969l.101562-6.636719c0-.46875 0-.882812 0-1.234375-.039062-.441406-.210937-.753906-.488281-.945312-1.59375 1.734375-3.113281 3.148437-4.5625 4.25l-.140625-.28125c1.09375-1.167969 2.078125-2.351563 2.949219-3.546875.460937-.632813 1.132812-1.640625 1.992187-3.015625 1.085938-1.710938 1.621094-2.710938 1.621094-2.984375 0-.351563-.269531-.65625-.808594-.914063.1875-.164062.273438-.242187.246094-.242187.140625 0 .5625.238281 1.265625.71875.699219.472656 1.058594.773437 1.058594.890625zm0 0"/></svg>