<svg height="40" viewBox="0 0 40 40" width="40" xmlns="http://www.w3.org/2000/svg"><path d="m31.96875 10.433594c0 .070312-.089844.210937-.261719.410156-.175781.191406-.265625.300781-.265625.332031-.226562.605469-.640625 1.808594-1.222656 3.609375-.144531.421875-.355469.636719-.636719.636719-.132812 0-.398437-.128906-.769531-.394531-.371094-.257813-.582031-.386719-.636719-.386719.214844 0-.523437.089844-2.207031.277344l-7.761719.875c-.113281.019531-.316406.085937-.609375.179687-.289062.105469-.5.148438-.613281.148438-.214844 0-.769531-.183594-1.683594-.5625-.613281 3.441406-1.253906 6.050781-1.929687 7.832031-1.125 2.96875-2.824219 5.59375-5.09375 7.859375l-.246094-.246094c1.683594-1.472656 3.1875-4.472656 4.5-8.984375 1.167969-4.023437 1.75-7.414062 1.75-10.179687 0-.605469-.433594-1.277344-1.300781-1.996094-.023438-.050781.015625-.15625.109375-.324219 1.59375.5625 2.660156.84375 3.222656.84375.144531 0 .949219-.070312 2.425781-.207031.9375-.09375 3.84375-.410156 8.742188-.949219.1875-.019531.609375-.101562 1.265625-.25.5625-.132812.941406-.207031 1.15625-.207031.164062 0 .550781.246094 1.15625.734375.613281.496094.910156.808594.910156.949219zm-1.996094-.109375c-.425781-.257813-.679687-.386719-.773437-.386719l-13.449219 1.386719-.347656 3.535156c.539062.113281 1.03125.175781 1.472656.175781l10.8125-1.335937c.214844 0 .46875.0625.777344.175781.304687.113281.488281.175781.5625.175781zm0 0"/></svg>