<svg height="40" viewBox="0 0 40 40" width="40" xmlns="http://www.w3.org/2000/svg"><path d="m30.457031 14.964844c0 .191406-.097656.394531-.3125.628906-.207031.238281-.328125.402344-.347656.496094-.441406 1.097656-.984375 3.707031-1.621094 7.820312.65625.476563.984375.835938.984375 1.09375l-.035156.203125c-.183594.214844-.675781.328125-1.472656.359375-3.199219.042969-7.101563.328125-11.6875.839844-.277344.019531-.820313.140625-1.609375.347656-.703125.195313-1.234375.289063-1.585938.289063-.445312 0-1.515625-.855469-3.226562-2.570313.070312-.140625.164062-.210937.28125-.210937 1.285156.800781 2.128906 1.175781 2.523437 1.128906l14.464844-1.441406.5625-4.578125c-.050781-.023438-.109375-.039063-.183594-.039063l-2.519531.292969c-.402344.050781-3.058594.378906-7.972656.984375-.210938.03125-.886719.152344-2.03125.394531-.933594.183594-1.570313.277344-1.898438.277344-.675781 0-1.707031-.816406-3.082031-2.457031.15625-.089844.265625-.140625.3125-.140625-.347656 0-.128906.160156.660156.472656.804688.3125 1.308594.472656 1.511719.472656.359375 0 2.824219-.207031 7.40625-.632812.890625-.0625 2.230469-.171875 4.003906-.3125 1.382813-.117188 2.695313-.3125 3.933594-.601563.019531-.273437.078125-.882812.171875-1.820312.097656-.867188.140625-1.464844.140625-1.789063-.328125.027344-2.609375.28125-6.839844.761719-2.128906.261719-4.472656.589844-7.023437.988281-.933594.234375-1.375.355469-1.335938.355469-.253906 0-.789062-.316406-1.609375-.949219-.726562-.5625-1.21875-.992187-1.476562-1.300781.070312-.136719.164062-.207031.28125-.207031.957031.535156 1.6875.804687 2.171875.804687.5-.039062 1.375-.128906 2.632812-.242187 3.25-.28125 7.179688-.683594 11.761719-1.195313.140625-.019531.410156-.113281.8125-.28125.390625-.160156.605469-.25.625-.25.285156 0 .796875.273438 1.53125.8125.734375.539063 1.097656.9375 1.097656 1.195313zm0 0"/></svg>