<svg height="40" viewBox="0 0 40 40" width="40" xmlns="http://www.w3.org/2000/svg"><path d="m18.71875 17.261719c-.40625 1.332031-.921875 2.632812-1.28125 3.976562.625.589844 1.527344-.128906 2.238281-.242187.65625-.710938 2.402344.410156 1.671875 1.238281-1.023437.191406-2.082031.152344-3.097656.449219-.9375.15625-1.785156.679687-2.621094 1.144531-1.035156-.464844-.515625-2.152344.28125-2.625 1.109375-1.683594 1.730469-3.761719 2.335938-5.769531.429687-1.648438 1.007812-3.460938.441406-5.164063.4375-.84375 1.671875.511719 2.027344 1.140625.375 1.148438-.683594 2.039063-.90625 3.089844-.164063.683594-.9375 1.996094-.601563 2.269531 1.351563-.265625 2.824219-.296875 4-1.234375 1.03125-.332031 2.039063.78125 2.5 1.820313-.0625.984375-1.082031 1.578125-1.195312 2.675781-.867188 2.417969-1.71875 4.84375-2.578125 7.265625 1.941406-.144531 3.890625-.390625 5.835937-.324219.921875.179688 1.886719.949219 2.230469 2-.699219.683594-1.785156.121094-2.636719.101563-2.785156-.640625-5.632812-.234375-8.441406-.117188-2.136719.148438-4.25.542969-6.34375 1.039063-.949219.054687-2.003906-.355469-2.578125-1.3125.5625-.523438 1.6875-.117188 2.457031-.3125 2.726563-.230469 5.4375-.636719 8.152344-.953125 1.082031-3.027344 1.941406-6.167969 2.644531-9.351563.179688-1.441406-1.28125-.59375-1.945312-.585937-.882813.238281-1.808594.546875-2.589844-.21875zm0 0"/></svg>