<svg height="40" viewBox="0 0 40 40" width="40" xmlns="http://www.w3.org/2000/svg"><path d="m14.082031 8.640625c.046875.121094-.035156.285156-.242187.5-.257813.277344-.402344.425781-.421875.449219-.140625.234375-.511719 1.054687-1.105469 2.457031-.597656 1.40625-.894531 2.183594-.894531 2.316406 0-.070312.378906.5 1.132812 1.703125.765625 1.210938 1.148438 2.289063 1.148438 3.25 0 .746094-.28125 1.546875-.84375 2.386719-.585938.910156-1.242188 1.371094-1.964844 1.371094-.238281 0-.425781-.101563-.582031-.296875-.152344-.199219-.296875-.398438-.4375-.585938-.257813-.300781-.636719-.488281-1.125-.5625v-.3125c.890625.09375 1.378906.136719 1.472656.136719.636719 0 1.144531-.238281 1.546875-.734375.394531-.488281.597656-1.066406.597656-1.722656 0-1.398438-.4375-2.578125-1.296875-3.542969-.421875-.441406-.65625-.746094-.707031-.910156l1.441406-5.230469c-.019531-.09375-.113281-.199219-.28125-.316406l-3.617187.914062-.242188 20.636719c-.210937 1.175781-.398437 1.761719-.5625 1.761719-.613281 0-.910156-.949219-.910156-2.84375.042969-.234375.183594-.929688.417969-2.074219v-17.765625c-.070313-.253906-.148438-.53125-.230469-.824219-.078125-.289062-.238281-.492187-.472656-.609375v-.285156h.210937c.371094 0 .75.183594 1.136719.546875.390625.363281.574219.542969.546875.542969.449219 0 1.613281-.304688 3.511719-.914063.050781-.023437.179687-.097656.40625-.210937.21875-.117188.359375-.179688.398437-.179688.355469 0 1.011719.324219 1.96875.949219zm0 0"/></svg>