<svg height="40" viewBox="0 0 40 40" width="40" xmlns="http://www.w3.org/2000/svg"><path d="m26.152344 27.917969c0 1.097656-.257813 1.644531-.773438 1.644531-.253906 0-.53125-.363281-.835937-1.082031-.140625-.355469-.367188-.875-.671875-1.585938-.257813.117188-.839844.34375-1.75.671875-4.730469 1.683594-7.039063 2.523438-6.921875 2.523438-.203125 0-.414063-.1875-.609375-.578125-.199219-.386719-.304688-.695313-.304688-.933594 0-.113281.164063-.261719.476563-.453125.320312-.1875.488281-.292969.507812-.3125.871094-1.265625 1.914063-2.859375 3.125-4.777344-.765625-.65625-1.726562-1.53125-2.875-2.628906-.675781-.65625-1.234375-1.078125-1.65625-1.261719-.085937-.445312.125-.863281.636719-1.234375.1875-.046875.433594-.15625.734375-.3125.285156-.378906.910156-1.382812 1.902344-3.019531 1.097656-1.828125 1.644531-2.859375 1.644531-3.09375 0-.230469-.203125-.714844-.625-1.433594.113281-.097656.191406-.140625.238281-.140625.28125 0 .773438.261719 1.480469.804688.328125.234375.5625.5625.699219.984375.070312.1875.101562.363281.101562.523437-.113281.167969-.675781.828125-1.679687 2.007813-1.359375 1.566406-2.578125 3.023437-3.652344 4.378906l3.4375 3.792969c.261719-.277344 1-1.460938 2.21875-3.527344 1.214844-2.074219 1.824219-3.1875 1.824219-3.347656 0-.1875-.214844-.601563-.636719-1.234375.207031-.0625.363281-.101563.457031-.101563.277344 0 .734375.273438 1.371094.808594.628906.53125.949219.933594.949219 1.1875-.445313.253906-.808594.578125-1.09375.949219-4.511719 6.113281-7.1875 9.851562-8.039063 11.238281l7.867188-2.042969c-.101563-.441406-.601563-1.472656-1.511719-3.082031l.207031-.109375c.121094.074219.429688.328125.914063.769531 1.894531 1.734375 2.84375 3.074219 2.84375 4.007813zm0 0c0-.933594-.949219-2.273438-2.84375-4.007813-.558594-.507812-.859375-.769531-.914063-.769531.027344 0-.039062.035156-.207031.109375.441406.746094.949219 1.777344 1.511719 3.082031l-7.867188 2.042969c.851563-1.386719 3.527344-5.125 8.039063-11.238281.285156-.371094.648437-.695313 1.09375-.949219 0-.253906-.320313-.65625-.949219-1.1875-.636719-.535156-1.09375-.808594-1.371094-.808594-.09375 0-.25.039063-.457031.101563.421875.632812.636719 1.046875.636719 1.234375 0 .160156-.609375 1.273437-1.824219 3.347656-1.21875 2.066406-1.957031 3.25-2.21875 3.527344l-3.4375-3.792969c1.074219-1.355469 2.292969-2.8125 3.652344-4.378906l1.679687-2.007813c0-.160156-.03125-.335937-.101562-.523437-.136719-.421875-.371094-.75-.699219-.984375-.707031-.542969-1.199219-.804688-1.480469-.804688-.046875 0-.125.042969-.238281.140625.421875.71875.625 1.203125.625 1.433594 0 .234375-.546875 1.265625-1.644531 3.09375-.992188 1.636719-1.617188 2.640625-1.902344 3.019531-.183594.042969-.425781.152344-.734375.3125-.511719.371094-.722656.789063-.636719 1.234375.421875.183594.980469.605469 1.65625 1.261719 1.148438 1.097656 2.109375 1.972656 2.875 2.628906-1.210937 1.917969-2.253906 3.511719-3.125 4.777344-.019531.019531-.1875.125-.507812.3125-.3125.191406-.476563.339844-.476563.453125 0 .238281.105469.546875.304688.933594.195312.390625.40625.578125.609375.578125-.085938 0 2.21875-.839844 6.921875-2.523438.445312-.171875 1.03125-.390625 1.75-.671875.144531.355469.363281.890625.671875 1.59375.304687.71875.582031 1.074219.835937 1.074219.515625 0 .773438-.546875.773438-1.644531zm0 0c0 1.097656-.257813 1.644531-.773438 1.644531-.253906 0-.53125-.363281-.835937-1.082031-.140625-.355469-.367188-.875-.671875-1.585938-.257813.117188-.839844.34375-1.75.671875-4.730469 1.683594-7.039063 2.523438-6.921875 2.523438-.203125 0-.414063-.1875-.609375-.578125-.199219-.386719-.304688-.695313-.304688-.933594 0-.113281.164063-.261719.476563-.453125.320312-.1875.488281-.292969.507812-.3125.871094-1.265625 1.914063-2.859375 3.125-4.777344-.765625-.65625-1.726562-1.53125-2.875-2.628906-.675781-.65625-1.234375-1.078125-1.65625-1.261719-.085937-.445312.125-.863281.636719-1.234375.1875-.046875.433594-.15625.734375-.3125.285156-.378906.910156-1.382812 1.902344-3.019531 1.097656-1.828125 1.644531-2.859375 1.644531-3.09375 0-.230469-.203125-.714844-.625-1.433594.113281-.097656.191406-.140625.238281-.140625.28125 0 .773438.261719 1.480469.804688.328125.234375.5625.5625.699219.984375.070312.1875.101562.363281.101562.523437-.113281.167969-.675781.828125-1.679687 2.007813-1.359375 1.566406-2.578125 3.023437-3.652344 4.378906l3.4375 3.792969c.261719-.277344 1-1.460938 2.21875-3.527344 1.214844-2.074219 1.824219-3.1875 1.824219-3.347656 0-.1875-.214844-.601563-.636719-1.234375.207031-.0625.363281-.101563.457031-.101563.277344 0 .734375.273438 1.371094.808594.628906.53125.949219.933594.949219 1.1875-.445313.253906-.808594.578125-1.09375.949219-4.511719 6.113281-7.1875 9.851562-8.039063 11.238281l7.867188-2.042969c-.101563-.441406-.601563-1.472656-1.511719-3.082031l.207031-.109375c.121094.074219.429688.328125.914063.769531 1.894531 1.734375 2.84375 3.074219 2.84375 4.007813zm0 0"/></svg>