<svg height="40" viewBox="0 0 40 40" width="40" xmlns="http://www.w3.org/2000/svg"><path d="m30.953125 16.316406c0 .296875-.25.445313-.734375.417969l-3.058594-.140625c-1.941406 0-4.007812.15625-6.210937.457031l.140625 9.40625c0 .429688-.140625 1.074219-.429688 1.964844-.328125 1.035156-.640625 1.546875-.945312 1.546875-.230469 0-.53125-.347656-.914063-1.050781-.460937-.679688-1.75-1.699219-3.851562-3.054688l.097656-.316406c2.128906.796875 3.363281 1.191406 3.691406 1.191406.5625 0 .839844-.359375.839844-1.085937l-.140625-8.386719c-.019531-.074219-.078125-.109375-.171875-.109375-.074219 0-.59375.09375-1.566406.285156-.234375.042969-1.351563.3125-3.351563.804688-1.695312.421875-2.710937.628906-3.035156.628906-.230469 0-.609375-.207031-1.136719-.628906-.515625-.417969-.894531-.761719-1.128906-1.015625l.074219-.214844c.835937.394531 1.476562.5625 1.925781.488281l8.390625-1.1875v-1.65625c0-.347656-.097656-.785156-.296875-1.3125-.199219-.523437-.433594-.875-.6875-1.035156l-3.15625.390625c-.402344.042969-1.058594-.328125-1.96875-1.125l.109375-.324219c.625.234375 1.261719.359375 1.894531.359375.5625 0 1.65625-.128906 3.28125-.382812 1.625-.265625 2.71875-.484375 3.28125-.671875.070313-.023438.242188-.121094.511719-.277344.269531-.171875.421875-.25.472656-.25.371094 0 .859375.074219 1.476563.214844.742187.15625 1.117187.363281 1.117187.59375 0 .117187-.109375.210937-.3125.28125-.535156.207031-1.484375.398437-2.84375.554687l-2.953125.390625c.730469.402344 1.183594.867188 1.371094 1.40625.121094.328125.175781.96875.175781 1.929688 0 .328125.023438.585937.074219.769531 1.308594-.09375 3.082031-.296875 5.328125-.625.121094-.03125.355469-.125.6875-.300781.34375-.171875.589844-.261719.761719-.261719.410156 0 1.023437.125 1.820312.386719.914063.296875 1.371094.617187 1.371094.945312zm0 0"/></svg>