<svg height="40" viewBox="0 0 40 40" width="40" xmlns="http://www.w3.org/2000/svg"><path d="m23.296875 10.453125c0 .113281-.214844.292969-.628906.519531-1.429688.890625-2.867188 1.777344-4.3125 2.636719-1.667969 1.003906-3.1875 1.738281-4.570313 2.214844-.070312-.121094-.109375-.210938-.109375-.28125.59375-.277344 1.914063-1.089844 3.96875-2.421875 2.484375-1.621094 3.726563-2.667969 3.726563-3.15625 0-.308594-.203125-.617188-.601563-.921875 0-.042969.039063-.121094.105469-.242188.308594.070313.734375.257813 1.296875.5625.75.398438 1.125.761719 1.125 1.089844zm.984375 6.3125c0 .09375-.167969.199219-.511719.296875-.335937.109375-.519531.175781-.539062.199219-2.179688 1.660156-3.871094 2.863281-5.089844 3.617187-1.589844.976563-3.113281 1.703125-4.5625 2.171875-.097656-.09375-.140625-.1875-.140625-.273437 1.027344-.496094 2.113281-1.117188 3.261719-1.859375.472656-.328125 1.460937-1.09375 2.988281-2.289063 1.75-1.40625 2.628906-2.222656 2.628906-2.453125 0-.425781-.1875-.707031-.5625-.847656.027344-.042969.070313-.128906.140625-.246094 1.589844.773438 2.386719 1.335938 2.386719 1.683594zm2.28125 5.375c0 .140625-.160156.292969-.488281.457031l-.5625.277344-2.917969 2.84375c-.441406.425781-1.097656.972656-1.957031 1.652344-2.277344 1.828125-4.558594 3.097656-6.851563 3.828125-.070312-.09375-.109375-.179688-.109375-.25 1.480469-.820313 2.917969-1.765625 4.320313-2.84375.984375-.746094 2.21875-1.84375 3.6875-3.296875 1.707031-1.664063 2.5625-2.652344 2.5625-2.980469 0-.214844-.164063-.484375-.492188-.8125-.210937-.1875-.3125-.292969-.3125-.3125 0 0 .023438-.074219.0625-.214844h.109375c.257813 0 .8125.21875 1.667969.667969.847656.441406 1.28125.769531 1.28125.984375zm0 0"/></svg>