<svg height="40" viewBox="0 0 40 40" width="40" xmlns="http://www.w3.org/2000/svg"><path d="m28.457031 30.003906c0 .773438-1.671875 1.164063-5.015625 1.164063-1.84375 0-3.15625-.179688-3.929687-.527344-1.171875-.542969-1.765625-1.78125-1.792969-3.71875v-5.550781c-.121094 0-.375.070312-.777344.210937-.1875.0625-.660156.328125-1.410156.773438-.5625.328125-1.042969.488281-1.441406.488281-.289063 0-.726563-.234375-1.308594-.699219-.59375-.46875-1.003906-.867187-1.238281-1.195312l.242187-.25c.511719.425781 1.125.671875 1.828125.742187l4.105469-1.117187v-4.117188c0-.394531-.449219-.976562-1.332031-1.75l-3.6875 1.714844c-.042969-.183594-.074219-.261719-.074219-.238281 4.988281-3.15625 7.484375-5.105469 7.484375-5.828125 0-.402344-.234375-.734375-.707031-1.023438.09375-.160156.191406-.25.285156-.25.277344 0 .808594.234375 1.59375.6875.78125.460938 1.175781.820313 1.175781 1.074219-1.914062 1.332031-3.753906 2.515625-5.515625 3.542969.617188.304687 1.09375.5625 1.449219.773437.75.421875 1.121094.734375 1.121094.949219 0 .050781-.058594.21875-.167969.511719-.109375.289062-.160156.492187-.160156.609375-.132813 1.21875-.199219 2.035156-.199219 2.457031v.527344c.183594 0 1.3125-.371094 3.386719-1.125l1.472656-.523438c.183594 0 .640625.109375 1.375.335938.730469.21875 1.105469.398437 1.105469.539062 0 .210938-.308594.339844-.90625.386719-1.257813.113281-2.101563.222656-2.539063.316406-2.59375.542969-3.894531.960938-3.894531 1.265625l-.171875 4.875c-.03125 1.621094.097656 2.652344.386719 3.09375.367187.5625 1.363281.839844 2.984375.839844 1.914062 0 3.097656-.160156 3.539062-.488281.679688-.492188 1.027344-1.78125 1.054688-3.867188h.347656c0 .589844.058594 1.386719.183594 2.390625.019531.257813.085937.601563.203125 1.015625l.492187.421875c.308594.257813.453125.449219.453125.5625zm0 0"/></svg>