<svg height="40" viewBox="0 0 40 40" width="40" xmlns="http://www.w3.org/2000/svg"><path d="m29.027344 9c-.617188.277344-1.179688.628906-1.695313 1.050781-1.238281 1.027344-2.234375 1.8125-2.984375 2.355469-.0625-.019531-.171875-.074219-.3125-.140625 1.804688-2.25 2.703125-3.558594 2.703125-3.9375 0-.082031-.09375-.292969-.28125-.589844-.191406-.304687-.3125-.492187-.382812-.5625.070312-.164062.148437-.242187.242187-.242187.398438 0 .945313.242187 1.636719.75.683594.5 1.042969.9375 1.074219 1.316406zm-8.183594 2.28125c0 .488281-.199219.738281-.597656.738281-.257813 0-.449219-.140625-.5625-.421875-.542969-1.285156-.875-2.054687-1.023438-2.320312-.234375-.445313-.660156-1.046875-1.296875-1.824219.09375-.09375.171875-.136719.246094-.136719.121094 0 .582031.308594 1.410156.929688.8125.617187 1.28125 1.007812 1.398438 1.175781.285156.394531.425781 1.015625.425781 1.859375zm-5.761719.910156c0 .375-.082031.667969-.242187.875-.351563 0-.902344-.617187-1.648438-1.859375-.632812-1.046875-1.367187-2.050781-2.21875-3.015625 0-.140625.074219-.210937.214844-.210937.113281.070312.457031.269531 1.019531.597656 1.917969 1.097656 2.875 2.300781 2.875 3.613281zm0 0"/></svg>