<svg height="40" width="40" xmlns="http://www.w3.org/2000/svg"><path d="m28.87109 11.59766c0 .236536-.107513.806386-.301055 1.698801-.193528.897796-.295673 1.645045-.295673 2.247154v7.21456s.102145 1.268737.322565 3.806196c.026878.365559-.048389.978417-.231169 1.822457-.177412.962287-.37094 1.462265-.591361 1.499892-1.843954-1.763319-3.429875-3.026675-4.763116-3.822312v-.4032c1.763319.698873 2.870773 1.048317 3.322348 1.048317.413962 0 .629001-.241931.629001-.725765v-13.880768c0-.795637-.45697-1.473013-1.360133-2.053612v-.311817c2.1719.516093 3.268592 1.139713 3.268592 1.860097zm-5.048027 1.634296c0 .123642-.048389.3333-.177412.634355-.123642.301055-.18278.521475-.18278.672009v8.042457c0 .177399-.064519.392437-.177412.650484-.123642.268795-.258047.38707-.408567.38707-.537604 0-.811781-1.102073-.811781-3.3116v-7.445715c0-.150534-.112894-.365573-.322552-.645117-.20429-.295687-.376322-.467718-.499964-.532223v-.499964c1.725679.919279 2.580467 1.591288 2.580467 2.048244zm-4.854513-.499964c0 .15052-.118275.532209-.354811 1.134318-.247298.602109-.365573 1.075195-.365573 1.403141v6.897362c0 .451589.05377 1.139713.155915 2.042877.107513.908545.16665 1.58054.16665 2.032115 0 .4032-.080634.946171-.231169 1.645045-.15052.779521-.327933 1.279485-.542972 1.494524-.661247-.634368-1.311745-1.290234-1.95148-1.946099-.811767-.79027-1.553662-1.370868-2.231024-1.720312.043008-.193542.102145-.295673.193528-.322565 1.327874.542985 2.161138.817148 2.489085.817148.424697 0 .639736-.215039.639736-.639736v-4.67172l-4.494321.865537v4.349154c0 .333314-.059124.752643-.18278 1.279485-.15052.655865-.349443.99456-.591361.99456-.3333 0-.580598-.365573-.77414-1.096706-.107513-.575231-.161269-1.069814-.129023-1.499892.215039-2.290175.365573-6.176992.451589-11.655111.026878-.301055-.18278-.801018-.634368-1.494524v-.317184c1.053698.327933 1.499892.499964 1.311745.499964.215039 0 .967668-.118275 2.274032-.365559 1.295615-.241917 2.069755-.408581 2.31704-.499964.086016 0 .258047-.0699.499978-.22042.236536-.161283.403186-.231169.489202-.231169.241931 0 .559101.145153.930056.430078.381689.284925.564469.55372.564469.795651zm-2.177268 3.015913v-2.290161c-.301055-.247298-.521475-.354811-.671995-.322565l-3.628784.634368v2.806255zm.145153 4.182504v-2.978286l-4.445932.634368v3.193325z"/></svg>