<svg height="40" viewBox="0 0 40 40" width="40" xmlns="http://www.w3.org/2000/svg"><path d="m32.355469 8.074219c0 .15625-.136719.242187-.421875.242187-.136719 0-.335938-.019531-.585938-.054687-.242187-.03125-.4375-.054688-.582031-.054688h-4.160156c-.121094.449219-.277344 1.117188-.496094 2.007813.261719.179687.386719.359375.386719.523437 0 .234375-.164063.351563-.492188.351563-.160156 0-.4375-.011719-.820312-.046875-.386719-.039063-.671875-.054688-.859375-.054688l-3.445313.203125v1.757813c.9375-.023438 2.304688-.117188 4.105469-.277344.074219 0 .238281-.042969.496094-.125.253906-.078125.410156-.121094.453125-.121094.1875 0 .472656.078125.84375.246094.375.160156.5625.3125.5625.453125 0 .113281-.078125.222656-.226563.332031-.15625.105469-.289062.164063-.410156.164063-.1875 0-.464844-.027344-.828125-.074219-.363281-.042969-.628906-.074219-.796875-.074219-.863281 0-2.265625.132813-4.199219.386719-.117187.378906-.175781.925781-.175781 1.65625v.238281c1.40625-.019531 3.480469-.132812 6.214844-.347656.09375-.019531.289062-.089844.582031-.1875.292969-.109375.472656-.160156.542969-.160156.347656 0 .9375.128906 1.753906.382812.910156.308594 1.371094.578125 1.371094.8125 0 .085938-.089844.171875-.261719.261719-.175781.078125-.324219.125-.4375.125l-5.175781-.386719c-.53125-.03125-1.5625.023438-3.078125.136719-.984375.09375-4.046875.410156-9.199219.949219-.207031.019531-.558594.101562-1.046875.25-.496094.132812-.871094.203125-1.128906.203125-.164063 0-.507813-.226563-1.015625-.679688-.515625-.457031-.828125-.796875-.949219-1.003906.046875-.066406.121094-.105469.214844-.105469-.023438 0 .273437.132813.894531.398438.621094.257812 1.097656.382812 1.457031.363281l8.277344-.863281v-1.867188c-.074219-.039062-.128906-.054687-.175781-.03125l-4.875.667969c-.933594-.328125-1.589844-.738281-1.964844-1.234375.066406-.042969.144531-.0625.238281-.0625.148438 0 .414063.0625.796875.1875.386719.128906.671875.183594.859375.160156l5.121094-.664062v-1.757813c-.796875.09375-1.964844.257813-3.503906.492188-.074219.019531-.21875.085937-.464844.195312-.230469.101563-.371094.152344-.410156.152344-.308594 0-.777344-.1875-1.414063-.578125-.628906-.386719-1.003906-.703125-1.117187-.957031l.242187-.148438c.257813.328125.902344.496094 1.921875.496094.8125 0 2.398438-.203125 4.746094-.597656v-1.859375c-.066406-.03125-.144531-.039063-.238281-.039063.132812 0-.523438.058594-1.964844.171875-1.441406.121094-3.613281.328125-6.511719.636719-.140625.019531-.421875.121094-.851562.277344-.4375.171875-.671875.25-.71875.25-.398438 0-.996094-.554688-1.789063-1.648438l.246094-.320312c.796875.5625 1.578125.804687 2.347656.734375l9.480469-.804688v-1.648437l-5.171875.53125c-.390625.039062-.785156-.148438-1.175781-.5625-.265625-.382813-.527344-.75-.8125-1.125l.347656-.109375c.308594.5625.902344.8125 1.785156.738281l5.027344-.347656v-1.726563c0-.207031-.296875-.5625-.910156-1.046875v-.25h.382812c.257813 0 .679688.199219 1.265625.585938.589844.378906.882813.691406.882813.925781-.328125.515625-.480469.984375-.460938 1.40625.9375-.050781 1.875-.09375 2.808594-.144531 1.3125-.089844 2.203125-.273438 2.667969-.527344.75.449219 1.3125.816406 1.6875 1.125v.207031c-.355469.171875-.601563.402344-.742188.726563-.132812.3125-.273437.625-.421875.925781.148438.027344.359375.035156.636719.035156 1.496094 0 2.433594-.035156 2.808594-.101562.050781-.023438.144531-.078125.296875-.164063.15625-.078125.253906-.117187.300781-.117187.136719 0 .410156.132812.824219.40625.40625.257812.609375.457031.609375.578125zm-6.386719-2.289063c-.277344-.132812-.46875-.207031-.5625-.207031l-4.527344.386719v1.753906l4.777344-.246094zm-.597656 2.421875-4.492188.289063v1.859375h.386719c.675781 0 1.933594-.132813 3.753906-.386719.09375-.308594.214844-.890625.351563-1.761719zm0 0"/></svg>