<svg height="40" viewBox="0 0 40 40" width="40" xmlns="http://www.w3.org/2000/svg"><path d="m29.316406 14.472656c0 .234375-.550781.367188-1.660156.386719 1.203125 0 .605469 0-1.800781 0l-.746094 2.128906c.140625.371094.214844.554688.214844.554688 0 .09375-.089844.164062-.25.210937-.445313.136719-1.101563.242188-1.96875.3125-1.007813.074219-1.667969.132813-1.996094.179688v2.515625l.097656.0625c.476563-.042969 1.164063-.171875 2.074219-.386719.074219 0 .203125-.058594.386719-.175781.191406-.117188.304687-.171875.347656-.171875.191406 0 .574219.078125 1.144531.242187.578125.164063.90625.292969 1 .390625v.210938c-.234375.140625-1.023437.289062-2.382812.453125-1.589844.1875-2.480469.289062-2.667969.3125v2.28125c.09375.050781.207031.070312.347656.070312 1.992188 0 3.429688-.078125 4.320313-.242187.070312 0 .195312-.039063.367187-.125.179688-.078125.304688-.117188.367188-.117188.265625 0 .707031.117188 1.332031.367188.636719.242187.953125.457031.953125.644531 0 .328125-.222656.484375-.667969.457031-2.738281-.164062-4.351562-.242187-4.847656-.242187-.953125 0-1.683594.054687-2.171875.171875l-.109375 5.117187c0 .820313-.175781 1.507813-.527344 2.042969h-.175781c-.253906-.230469-.386719-.644531-.386719-1.230469v-5.820312c-.0625-.027344-.148437-.039063-.238281-.039063-.214844 0-.597656.039063-1.160156.105469-.402344.050781-1.324219.234375-2.777344.5625-1.355469.328125-2.128906.496094-2.3125.496094-.328125 0-.765625-.203125-1.316406-.621094-.546875-.40625-.828125-.765625-.828125-1.0625l.25-.109375c.488281.347656.925781.515625 1.296875.484375l7.085937-.699219v-2.382812h-.0625c-.445312 0-1.09375.09375-1.957031.273437-.847656.195313-1.480469.289063-1.871094.289063-.816406 0-1.472656-.402344-1.96875-1.199219.074219-.09375.152344-.136719.246094-.136719.019531 0 .234375.089844.636719.261719.394531.175781.675781.253906.835937.230469l4.140625-.632813v-2.566406h-.171875c-.425781 0-1.09375.121094-2.019531.355469-.921875.238281-1.527344.351562-1.808594.351562s-.617187-.171875-1.035156-.53125c-.410156-.347656-.652344-.648437-.714844-.910156.042969-.09375.117188-.140625.210938-.140625.019531 0 .164062.105469.4375.316406.269531.210938.484375.304688.648437.28125l4.453125-.597656v-2.207031c-.039062-.027344-.097656-.039063-.171875-.039063h-.101562c-.84375.023438-2.449219.273438-4.8125.742188-1.007813.207031-1.496094.3125-1.476563.3125-1.097656 0-1.988281-.601563-2.664062-1.789063.046875-.070312.113281-.109375.207031-.109375 0 0 .234375.148438.707031.445313.46875.289062.824219.421875 1.058594.398437l7.253906-.84375v-2.242187c-.019531-.027344-.078125-.039063-.171875-.039063-.867187 0-1.976562.203125-3.316406.59375-.046875.03125-.175781.089844-.390625.199219-.207031.105469-.339844.15625-.386719.15625-.421875 0-.875-.171875-1.335937-.503906-.476563-.34375-.765625-.710938-.886719-1.109375l.140625-.179688c.71875.523438 1.238281.757813 1.546875.703125l4.765625-.703125c.03125.164063.035156-.253906.035156-1.257812 0-.824219-.382812-1.429688-1.15625-1.828125l.074219-.277344c.519531.09375 1.058594.265625 1.605469.519531.726562.308594 1.097656.636719 1.097656.984375 0 .183594-.066406.46875-.199219.839844-.125.472656-.203125.753906-.222656.847656.042969.023438.097656.039063.171875.039063.425781 0 1.082031-.105469 1.96875-.304688.890625-.203125 1.496094-.296875 1.824219-.296875.160156 0 .539062.203125 1.140625.617188.597656.40625.894531.695312.894531.859375-.234375.367187-.546875.945312-.949219 1.71875.148438 0 .367188-.027344.65625-.085938.296875-.0625.515625-.085937.65625-.085937.242188 0 .605469.109375 1.101563.332031.5.21875.742187.421875.742187.613281zm-4.242187-2.316406c0-.140625-.132813-.339844-.386719-.597656l-3.578125.382812v2.246094h.769531c.308594 0 1.257813-.078125 2.84375-.238281.234375-1.199219.351563-1.792969.351563-1.792969zm-.59375 2.703125-3.371094.238281v2.257813l2.871094-.359375zm0 0"/></svg>