<svg height="40" viewBox="0 0 40 40" width="40" xmlns="http://www.w3.org/2000/svg"><path d="m28 11.660156c-.113281.117188-.234375.179688-.347656.179688-.121094 0-.726563-.492188-1.824219-1.476563-.65625-.582031-1.3125-1.164062-1.96875-1.757812l.109375-.242188c.863281.328125 1.71875.640625 2.558594.949219 1.003906.511719 1.507812 1.1875 1.507812 2.035156 0 .09375-.003906.199219-.035156.3125zm4.113281 14.25c-.632812 2.339844-.945312 3.820313-.945312 4.429688 0 .132812.023437.347656.097656.628906s.109375.472656.109375.59375c0 .355469-.167969.53125-.496094.53125-.769531 0-1.898437-.832031-3.40625-2.496094-1.378906-1.546875-2.226562-2.785156-2.554687-3.71875-2.226563 2.429688-4.15625 3.976563-5.792969 4.632813l-.074219-.246094c.679688-.46875 1.664063-1.359375 2.949219-2.660156 1.449219-1.507813 2.175781-2.492188 2.175781-2.953125 0 .019531-.207031-.449219-.632812-1.402344-1.195313-2.785156-1.96875-5.296875-2.320313-7.519531-.019531-.023438-.0625-.027344-.132812-.027344-.074219 0-.703125.078125-1.898438.238281-1.492187.1875-3.707031.5625-6.632812 1.121094-.121094.03125-.5625.175781-1.351563.464844-.78125.273437-1.195312.421875-1.25.421875-.304687 0-.671875-.167969-1.097656-.496094-.4375-.328125-.761719-.644531-.972656-.949219l.140625-.242187c1.035156.253906 1.597656.390625 1.679687.390625.074219 0 1.703125-.308594 4.890625-.921875v-2.449219c-1.488281.234375-2.234375.347656-2.234375.347656-.492187 0-1.222656-.421875-2.191406-1.269531l.097656-.238281c.871094.375 1.453125.5625 1.761719.5625.582031 0 1.441406-.148438 2.566406-.421875v-2.421875c0-.328125-.320312-.734375-.945312-1.234375l.097656-.242188c1.613281.328125 2.421875.6875 2.421875 1.089844 0 .042969-.035156.160156-.125.347656-.078125.1875-.128906.3125-.152344.386719-.070312.421875-.109375 1.03125-.109375 1.824219.023438.019531.074219.035156.136719.035156.402344 0 1.15625-.21875 2.253906-.660156.183594 0 .460938.070312.824219.21875.359375.148437.542969.304687.542969.460937 0 .214844-.542969.402344-1.617188.59375-.695312.136719-1.40625.261719-2.101562.382813-.09375 1.078125-.140625 1.867187-.140625 2.375l5.332031-.695313c-.140625-.953125-.339844-2.054687-.59375-3.300781-.050781-.605469-.109375-1.21875-.171875-1.84375-.144531-.609375-.542969-1.082031-1.199219-1.433594l.074219-.238281h.3125c.277344 0 .746094.167969 1.386719.511719.640625.332031.960937.625.960937.859375 0 .117187-.035156.269531-.113281.472656-.089844.199219-.125.34375-.125.4375 0 1.515625.21875 3.042969.660156 4.566406 1.125-.03125 2.789063-.15625 4.992188-.390625.0625-.019531.238281-.109375.503906-.242187.265625-.140625.425781-.214844.472656-.214844.261719 0 .757813.144531 1.496094.4375.734375.292969 1.105469.53125 1.105469.722656 0 .234375-.246094.351563-.734375.351563-.289063 0-.699219-.015625-1.246094-.054688-.558594-.035156-.972656-.050781-1.25-.050781-.730469 0-2.496094.105469-5.300781.316406.703125 3.210938 1.582031 5.839844 2.632812 7.898438.230469-.257813.589844-.984375 1.070313-2.195313.484375-1.203125.71875-1.984375.71875-2.335937 0-.210938-.0625-.570313-.179688-1.085938l.109375-.175781c1.167969.675781 1.761719 1.199219 1.761719 1.546875 0 .042969-.097656.199219-.285156.453125-.1875.261719-.292969.40625-.3125.457031l-2.148438 4.59375c0 .421875.554688 1.308594 1.671875 2.65625 1.109375 1.339844 1.867188 2.023438 2.261719 2.023438.328125 0 .75-.507813 1.265625-1.511719.324219-.675781.644531-1.359375.941406-2.042969zm0 0"/></svg>