<svg height="40" viewBox="0 0 40 40" width="40" xmlns="http://www.w3.org/2000/svg"><path d="m26.457031 11c0 .347656-.109375.519531-.316406.519531-.019531 0-.597656-.460937-1.722656-1.394531-1.210938-1.011719-1.882813-1.546875-1.996094-1.621094l.136719-.25c1.546875.402344 2.398437.636719 2.566406.710938.890625.421875 1.332031 1.097656 1.332031 2.035156zm6.007813 15.582031-.851563 3.867188c.265625.601562.390625 1.039062.390625 1.296875 0 .328125-.195312.488281-.597656.488281-.859375 0-2.113281-.921875-3.753906-2.769531-1.054688-1.21875-2.074219-2.554688-3.058594-4.007813-1.238281 1.355469-2.421875 2.375-3.542969 3.058594l-.101562-.25c.46875-.394531 1.050781-.988281 1.753906-1.792969.816406-.960937 1.230469-1.601562 1.230469-1.929687 0 0-.328125-.792969-.984375-2.359375-.730469-1.617188-1.132813-2.539063-1.214844-2.761719-.078125-.21875-.550781-1.832031-1.421875-4.839844l-7.511719 1.257813c-.09375-.042969-.160156-.0625-.207031-.0625-.074219 0-.316406.003906-.738281.023437 0 3.496094-.171875 6.136719-.527344 7.9375-.582031 3.070313-1.777344 5.335938-3.578125 6.808594l-.214844-.097656c1.382813-1.921875 2.28125-4.085938 2.710938-6.5.273437-1.515625.410156-3.886719.410156-7.089844 0-.910156-.355469-1.734375-1.082031-2.457031l.132812-.246094c.757813.378906 1.449219.65625 2.074219.84375l8.292969-1.265625c-.1875-.46875-.359375-1.214844-.496094-2.25-.121094-.953125-.292969-1.628906-.527344-2.03125-.347656-.65625-.984375-1.140625-1.894531-1.4375l.074219-.25h1.015625c.347656 0 .910156.246094 1.679687.722656.773438.480469 1.164063.882813 1.164063 1.210938 0 .117187-.027344.28125-.074219.488281-.046875.214844-.066406.378906-.066406.496094 0 .28125.113281 1.203125.347656 2.769531.046875.046875.09375.074219.140625.074219.1875 0 .71875-.09375 1.59375-.265625.886719-.179688 1.386719-.289063 1.53125-.328125.046875-.03125.15625-.109375.316406-.25.15625-.140625.292969-.214844.386719-.214844.207031 0 .574219.074219 1.109375.214844.519531.140625.828125.253906.921875.347656v.25c-.15625.207031-1.0625.441406-2.703125.699219-1.027344.164062-2.058594.3125-3.082031.457031-.023438 0-.039063.046875-.039063.140625 0 .675781.421875 2.167969 1.261719 4.453125.84375 2.300781 1.488281 3.75 1.933594 4.355469.304687-.328125.675781-1.132813 1.125-2.40625.441406-1.265625.664062-2.140625.664062-2.609375 0-.1875-.1875-.734375-.554687-1.648438.039062-.050781.113281-.070312.203125-.070312.1875 0 .570312.253906 1.15625.769531.59375.511719.882812.855469.882812 1.015625 0 .046875-.085937.230469-.265625.546875-.179687.3125-.273437.496094-.296875.546875-.347656.933594-.960937 2.300781-1.828125 4.105469-.300781.539062-.453125.804687-.453125.804687 0 .398438.683594 1.359375 2.046875 2.875 1.375 1.527344 2.257813 2.28125 2.65625 2.28125.625 0 1.371094-1.023437 2.210938-3.082031zm-11.730469-8.484375c0 .164063-.113281.289063-.347656.359375-.351563.09375-1.429688.320313-3.230469.671875-1.875.386719-2.917969.574219-3.121094.574219-.191406 0-.453125-.183594-.796875-.535156-.332031-.359375-.550781-.652344-.644531-.867188.046875-.070312.113281-.109375.207031-.109375 0 0 .195313.101563.5625.28125.371094.1875.695313.28125.949219.28125.328125 0 1.050781-.097656 2.15625-.296875 1.121094-.195312 1.8125-.359375 2.09375-.472656.046875-.050781.128906-.140625.265625-.285156.121094-.136719.246094-.210938.363281-.210938.1875 0 .496094.074219.914063.21875.421875.136719.628906.265625.628906.390625zm0 0"/></svg>