<svg height="40" viewBox="0 0 40 40" width="40" xmlns="http://www.w3.org/2000/svg"><path d="m26.828125 12.253906c0 .496094-.113281.746094-.347656.746094-.261719 0-.859375-.550781-1.808594-1.660156-.949219-1.121094-1.421875-1.742188-1.421875-1.886719 0-.042969.003906-.09375.027344-.136719.03125-.050781.035156-.070312.035156-.070312 1.339844.535156 2.125.878906 2.359375 1.023437.769531.496094 1.15625 1.164063 1.15625 1.984375zm1.160156 13.695313-.457031 4.078125c.15625.601562.246094.992187.246094 1.160156 0 .390625-.171875.589844-.53125.589844-.820313 0-2.042969-.890625-3.683594-2.664063-1.40625-1.546875-2.265625-2.703125-2.59375-3.476562-3 2.382812-5.714844 4.046875-8.144531 4.988281-.027344-.050781-.074219-.109375-.140625-.183594 5.070312-3.273437 7.613281-5.210937 7.613281-5.828125 0 .214844-.582031-1.128906-1.75-4.03125h-.214844l-4.140625 1.4375c-.867187-.160156-1.585937-.421875-2.179687-.773437v-.242188c.445312.046875.882812.105469 1.296875.179688l4.914062-1.371094-.800781-3.09375-3.019531 1.089844c-.402344-.046875-1.058594-.339844-1.96875-.875v-.25c.816406.113281 1.265625.179687 1.335937.179687.1875 0 .71875-.144531 1.609375-.421875.984375-.304687 1.601563-.554687 1.828125-.738281l-.347656-2.214844-2.8125.84375c-.652344-.132812-1.238281-.460937-1.75-.984375.09375-.132812.183594-.21875.277344-.242187.050781 0 .238281.019531.582031.054687.332031.027344.53125.054688.578125.054688.230469 0 .714844-.101563 1.441406-.289063 1.007813-.253906 1.53125-.382812 1.574219-.382812v-1.339844c-.019531-.605469-.0625-1.046875-.136719-1.324219-.171875-.59375-.503906-1.054687-1.019531-1.410156 0-.074219.011719-.152344.035156-.246094h1.335938c.113281 0 .382812.148438.804687.445313.417969.289062.632813.503906.632813.648437 0 .023438-.054688.125-.15625.3125-.109375.1875-.171875.328125-.199219.421875-.019531.277344-.058594.726563-.097656 1.335938l.0625.703125c.445312-.074219 1.070312-.257813 1.882812-.5625.808594-.308594 1.1875-.460938 1.136719-.460938.265625 0 .613281.054688 1.058594.136719.601562.125.910156.269531.910156.464844 0 .1875-.574219.421875-1.71875.695312-2.015625.476563-3.09375.730469-3.234375.777344v.28125c0 .421875.109375 1.109375.324219 2.074219.441406-.121094 1.144531-.351563 2.097656-.703125.828125-.304688 1.277344-.460938 1.375-.460938 1.078125 0 1.613281.164063 1.613281.492188 0 .164062-.550781.382812-1.648437.671875-1.730469.441406-2.8125.734375-3.234375.875v.207031c0 .121094.125.609375.375 1.457031.242187.855469.390625 1.3125.4375 1.386719.65625-.167969 1.3125-.328125 1.96875-.484375.769531-.246094 1.421875-.5 1.957031-.777344.074219-.050781.175781-.148437.324219-.316406.066406-.097656.269531-.140625.585937-.140625 1.25 0 1.871094.199219 1.871094.597656 0 .136719-.785156.40625-2.355469.808594-2.34375.605469-3.710937.96875-4.109375 1.089844.492188 1.492187 1.011719 2.640625 1.546875 3.441406.09375-.050781.4375-.453125 1.039063-1.21875.597656-.761719.890625-1.238281.890625-1.453125 0-.144531-.164063-.363281-.492188-.671875 0-.0625.042969-.152344.140625-.238281.65625.203125 1.0625.347656 1.230469.414062.46875.234375.777344.554688.910156.949219l-3.117187 3.441406c2.265625 2.976563 3.640625 4.453125 4.101562 4.453125.214844 0 .570313-.5 1.089844-1.507812.605469-1.140625.949219-1.761719 1.019531-1.859375zm0 0"/></svg>