<svg height="40" viewBox="0 0 40 40" width="40" xmlns="http://www.w3.org/2000/svg"><path d="m18.3125 17.175781c0 .421875-.140625.632813-.417969.632813-.613281 0-1.972656-1.511719-4.113281-4.53125l.285156-.101563c.933594.539063 1.589844.921875 1.96875 1.15625.746094.492188 1.34375.960938 1.789063 1.402344.328125.359375.488281.832031.488281 1.441406zm11.515625 8.949219c0 .285156-.28125.421875-.839844.421875-.191406 0-.5-.015625-.910156-.050781-.425781-.039063-.738281-.046875-.949219-.046875h-4.316406c-2.457031 0-4.8125.265625-7.0625.800781-.074219.027344-.628906.203125-1.683594.53125-.890625.253906-1.414062.378906-1.582031.378906-.371094 0-1.144531-.617187-2.3125-1.859375l.28125-.351562c.167969.140625.464844.304687.894531.5.429688.179687.730469.265625.898438.238281l7.222656-.980469v-3.050781h-.0625c-.527344-.050781-1.480469.152344-2.875.609375-1.390625.457031-2.171875.6875-2.339844.6875-.328125 0-.8125-.265625-1.453125-.785156-.632812-.539063-.953125-.949219-.953125-1.25 0-.074219.054688-.171875.136719-.320313.402344.402344 1.082031.75 2.042969 1.058594l5.503906-.949219v-1.757812c0-.136719-.074219-.3125-.222656-.527344-.152344-.207031-.289063-.3125-.402344-.3125-.796875 0-1.859375.144531-3.191406.453125-.074219 0-.292969.078125-.652344.222656-.363281.15625-.605469.234375-.71875.234375-.890625 0-1.824219-.734375-2.808594-2.210937.09375-.070313.183594-.105469.277344-.105469 0 0 .234375.140625.683594.421875.460937.277344.875.421875 1.25.421875.207031 0 1.257812-.082031 3.15625-.246094 1.125-.070312 2.800781-.226562 5.023437-.457031.117188-.027344.714844-.765625 1.789063-2.222656 1.078125-1.46875 1.617187-2.289063 1.617187-2.445313 0-.210937-.363281-.546875-1.09375-1.019531l.109375-.316406h.3125c.402344 0 1 .253906 1.808594.757812.808594.507813 1.207031.945313 1.207031 1.3125 0 .167969-.070312.292969-.207031.386719-.328125.167969-.800781.449219-1.4375.847656-.441406.277344-1.5625 1.152344-3.332031 2.632813.019531.019531.066406.03125.140625.03125.234375 0 .78125-.0625 1.644531-.179688.871094-.113281 1.394531-.210937 1.582031-.273437.070313-.023438.214844-.09375.417969-.214844.207031-.113281.34375-.171875.386719-.171875.328125 0 .835937.128906 1.53125.386719.6875.253906 1.035156.507812 1.035156.769531 0 .277344-.449219.433594-1.332031.453125-.449219 0-1.476563.03125-3.09375.089844-1.261719.054687-2.28125.085937-3.058594.085937-.675781 0-1.011719.511719-1.011719 1.53125 0 .136719.007813.355469.039063.65625.019531.296875.035156.496094.035156.589844.644531 0 1.84375-.144531 3.578125-.421875.910156-.140625 1.363281-.214844 1.363281-.214844.308594 0 .796875.132813 1.476563.386719.769531.308594 1.15625.5625 1.15625.777344 0 .304687-.195313.441406-.59375.421875-1.945313-.117188-2.914063-.179688-2.914063-.179688s-1.347656.0625-4.039062.179688c-.136719 1.144531-.210938 2.148437-.210938 3.019531 1.21875-.050781 3.011719-.175781 5.375-.390625.074219-.027344.226563-.082031.476563-.171875.242187-.09375.390625-.144531.4375-.144531.207031 0 .726562.1875 1.539062.5625.820313.375 1.230469.628906 1.230469.769531zm0 0"/></svg>