<svg height="40" viewBox="0 0 40 40" width="40" xmlns="http://www.w3.org/2000/svg"><path d="m17.753906 12.511719c0 .46875-.140625.703125-.421875.703125-.234375 0-1.195312-1.507813-2.878906-4.496094l.171875-.171875c1.125.839844 1.816406 1.390625 2.074219 1.644531.707031.726563 1.054687 1.496094 1.054687 2.320313zm10.953125 6.953125c0 .253906-.46875.382812-1.410156.382812-1.425781 0-2.722656.0625-3.890625.210938v10.632812c0 1.214844-.191406 1.824219-.5625 1.824219-.214844 0-.40625-.386719-.597656-1.15625-.1875-.65625-.28125-1.152344-.28125-1.480469 0-.160156.046875-.421875.144531-.785156.09375-.363281.136719-.625.136719-.785156v-8.109375c-.804688.039062-2.121094.195312-3.960938.453125-.566406 2.757812-1.125 4.738281-1.660156 5.929687-.894531 1.898438-2.261719 3.40625-4.097656 4.53125l-.25-.140625c1.304687-.9375 2.4375-2.457031 3.382812-4.5625.882813-1.988281 1.320313-3.828125 1.320313-5.515625-.1875.027344-.8125.195313-1.882813.492188-1.070312.304687-1.609375.457031-1.640625.457031-.535156 0-1.257812-.515625-2.164062-1.542969l.109375-.242187c.742187.375 1.34375.535156 1.785156.488281l3.792969-.488281v-2.703125c0-.167969-.121094-.40625-.371094-.734375-.238281-.328125-.441406-.5-.613281-.5-.136719 0-.355469.035156-.648438.109375-.289062.066406-.507812.101562-.648437.101562-.515625 0-1.121094-.394531-1.824219-1.1875.066406-.171875.15625-.25.238281-.25 0 0 .210938.078125.601563.25.398437.164063.726562.242188.984375.242188.046875 0 .632812-.09375 1.757812-.277344l4.527344-.703125c1.707031-3.089844 2.558594-4.925781 2.558594-5.511719 0-.378906-.074219-.65625-.226563-.847656-.148437-.183594-.234375-.296875-.234375-.347656 0-.042969 0-.078125 0-.101563.03125-.050781.039063-.085937.039063-.109375.265625-.023437.757812.171875 1.492187.585938.742188.40625 1.109375.710937 1.109375.921875 0 .097656-.113281.195312-.332031.300781-.230469.109375-.355469.167969-.375.199219-.253906.273437-.78125 1.023437-1.574219 2.242187-1.003906 1.570313-1.546875 2.398438-1.617187 2.484375.019531.03125.070312.039063.140625.039063.300781 0 .789062-.109375 1.457031-.328125.667969-.226563 1.082031-.335938 1.246094-.335938.613281 0 1.3125.21875 2.109375.664063v.25c-.523438.207031-1.242188.347656-2.183594.421875-.722656.019531-1.457031.054687-2.207031.101562.910156.65625 1.367187 1.0625 1.367187 1.230469 0 .046875-.050781.171875-.160156.363281-.097656.210938-.167969.339844-.1875.414063-.074219.296875-.109375 1.003906-.109375 2.097656 0 .050781.035156.074219.109375.074219.699219 0 1.4375-.132813 2.207031-.386719.074219-.019531.21875-.105469.4375-.25.226563-.136719.359375-.203125.40625-.203125.183594 0 .609375.144531 1.265625.4375s.984375.503906.984375.652344zm-6.460937-.148438v-2.890625c0-.160156-.148438-.398437-.4375-.71875-.296875-.316406-.511719-.46875-.65625-.4375l-4.382813.714844c1.148438.421875 1.71875.753906 1.71875 1.011719 0 .144531-.054687.546875-.171875 1.21875-.117187.664062-.175781 1.1875-.175781 1.5625zm0 0"/></svg>