<svg height="40" viewBox="0 0 40 40" width="40" xmlns="http://www.w3.org/2000/svg"><path d="m14.089844 19.683594c.421875.316406.632812.695312.632812 1.144531v3.941406c-.085937.953125-.128906 1.589844-.128906 1.90625.550781 1.355469 1.0625 2.03125 1.527344 2.03125.382812 0 .59375-.460937.632812-1.394531v-6.359375c0-.71875-.25-1.269531-.757812-1.652344l4.320312-.632812c.257813.082031.382813.503906.382813 1.269531v7.753906c.128906 1.445313.550781 2.164063 1.269531 2.164063.511719 0 .808594-.71875.890625-2.164063 0-1.648437-.042969-4.28125-.125-7.882812-.019531-.59375-.234375-1.058594-.636719-1.398438l7.121094-1.015625c.339844 0 .550781.167969.636719.507813-.507813 3.726562-1.3125 7.375-2.417969 10.9375-.082031.082031-.296875.125-.636719.125-.296875 0-1.097656-.125-2.414062-.382813l-.125.257813c1.460937 1.414062 2.265625 2.265625 2.414062 2.539062.554688 1.015625.933594 1.527344 1.148438 1.527344.441406 0 1.035156-.71875 1.773437-2.160156 1.445313-4.835938 2.375-8.984375 2.796875-12.464844.34375-.59375.511719-.972656.511719-1.140625 0-.53125-.972656-1.207031-2.921875-2.035156-.765625.46875-1.484375.765625-2.160156.890625l-12.71875 2.160156c2.628906-3.347656 3.941406-5.171875 3.941406-5.46875 0-.59375-.46875-1.269531-1.402344-2.035156 3.226563-.570313 6.445313-.953125 9.667969-1.140625.761719-.132813 1.144531-.339844 1.144531-.636719 0-.683594-1.226562-1.269531-3.6875-1.78125-.296875.484375-.679687.78125-1.144531.890625-6.019531 1.121094-10.722656 2.050781-14.113281 2.796875l-.257813.125c.464844.386719 1.1875.722656 2.164063 1.019531 1.269531-.382812 2.835937-.722656 4.703125-1.019531.171875.191406.253906.613281.253906 1.269531-.042969.851563-.890625 2.929688-2.542969 6.234375-1.84375.382813-3.625.679688-5.34375.890625-.460937-.171875-.882812-.253906-1.269531-.253906l-.125.253906c.082031.339844.253906.636719.511719.890625.226562.210938.359375.464844.378906.761719.339844 3.113281.550781 5.53125.636719 7.25.613281 1.609375 1.289062 2.417969 2.03125 2.417969.382812 0 .59375-.339844.640625-1.023438-.46875-3.050781-1.023438-6.101562-1.65625-9.15625zm0 0"/></svg>