<svg height="40" viewBox="0 0 40 40" width="40" xmlns="http://www.w3.org/2000/svg"><path d="m24.628906 16.066406-3.503906 3.792969-.214844-.140625c1.242188-2.152344 1.859375-3.480469 1.859375-3.96875 0-.328125-.1875-.558594-.5625-.699219l.109375-.25c1.261719 0 2.039063.429688 2.3125 1.265625zm4.777344 15.65625c-.09375.167969-.269531.246094-.527344.246094-.347656 0-.984375-.074219-1.894531-.207031-1.058594-.140625-1.640625-.289063-1.753906-.429688-.257813-.253906-.8125-.984375-1.652344-2.171875-.984375-1.445312-2.46875-3.628906-4.453125-6.53125-.285156 1.921875-1.292969 3.882813-3.019531 5.859375-1.777344 2.089844-3.578125 3.308594-5.414063 3.65625l-.097656-.3125c1.589844-.707031 3.042969-1.832031 4.355469-3.378906 1.238281-1.46875 2.148437-3.074219 2.734375-4.800781.28125-.890625.421875-1.496094.421875-1.824219-.023438-.03125-.074219-.035156-.140625-.035156-.351563 0-1.078125.171875-2.179688.523437-1.101562.351563-1.75.523438-1.960937.523438-.382813 0-1.171875-.511719-2.390625-1.542969l.109375-.246094c1.238281.398438 1.953125.601563 2.132812.601563.402344 0 1.140625-.09375 2.21875-.28125.746094-.140625 1.511719-.28125 2.28125-.429688.117188-.390625.234375-2.664062.351563-6.804687-.027344-.027344-.089844-.03125-.171875-.03125-.328125 0-.914063.128906-1.746094.398437-.832031.273438-1.347656.402344-1.5625.402344-.75 0-1.457031-.503906-2.140625-1.511719.050781-.085937.125-.132812.207031-.132812.171875 0 .429688.078125.777344.242187.347656.164063.609375.25.769531.25 1.125 0 2.417969-.191406 3.867188-.566406v-3.160156c0-.277344-.152344-.640625-.460938-1.085938-.304687-.445312-.582031-.722656-.835937-.847656l.03125-.238281h.703125c.351562 0 .800781.125 1.363281.382812.65625.28125.984375.574219.984375.875 0 0-.078125.171875-.238281.492188-.167969.328125-.261719.566406-.289063.707031-.070312.46875-.097656 1.332031-.097656 2.59375 0 .074219.042969.105469.136719.105469.210937 0 .816406-.078125 1.820312-.242188 1.011719-.164062 1.59375-.285156 1.761719-.347656.019531-.03125.136719-.097656.347656-.214844.140625-.09375.273438-.144531.386719-.144531.191406 0 .503906.074219.949219.214844.445312.144531.722656.265625.835937.382812v.210938c-.113281.171875-1.082031.363281-2.90625.597656-1.125.121094-2.238281.25-3.332031.386719l-.214844 6.773437c1.148438-.070312 2.84375-.242187 5.089844-.523437.066406-.023438.265625-.089844.578125-.199219.3125-.097656.511719-.152344.582031-.152344.203125 0 .589844.125 1.152344.386719.5625.253906.847656.472656.847656.667969 0 .234375-.195312.347656-.597656.347656-3.792969 0-6.34375.140625-7.652344.421875 1.335938 2.058594 2.808594 3.953125 4.421875 5.6875 1.992188 2.128906 3.828125 3.621094 5.511719 4.457031zm-13.019531-12.5c0 .730469-.214844 1.09375-.636719 1.09375-.160156 0-.300781-.054687-.417969-.175781-.03125-.027344-.296875-.621094-.820312-1.769531-.53125-1.164063-.996094-1.9375-1.398438-2.339844.054688-.089844.121094-.140625.214844-.140625.328125 0 .917969.480469 1.769531 1.441406.855469.960938 1.289063 1.589844 1.289063 1.890625zm0 0"/></svg>