<svg height="40" viewBox="0 0 40 40" width="40" xmlns="http://www.w3.org/2000/svg"><path d="m26.738281 23.628906c0 .214844-.101562.433594-.316406.652344-.207031.222656-.328125.371094-.347656.4375-.75 1.894531-1.121094 3.113281-1.121094 3.652344 0 .019531.0625.101562.207031.25.140625.140625.203125.238281.203125.3125 0 .210937-.460937.363281-1.394531.457031-1.21875.121094-2.421875.234375-3.621094.355469-.984375.113281-2.457031.300781-4.425781.554687-.0625.257813-.136719.527344-.203125.8125-.1875.492188-.386719.734375-.597656.734375-.28125 0-.5-.414062-.667969-1.226562-.121094-.609375-.175781-1.167969-.175781-1.6875 0-.023438.039062-.308594.125-.839844.078125-.542969.125-.832031.125-.878906v-10.882813c0-.304687-.195313-.710937-.5625-1.234375-.308594-.414062-.542969-.679687-.703125-.800781.023437-.019531.082031-.128906.175781-.316406.511719.1875.855469.28125 1.015625.28125.28125 0 1.0625-.730469 2.355469-2.179688 1.28125-1.445312 1.929687-2.273437 1.929687-2.488281s-.265625-.613281-.773437-1.199219c.160156-.15625.253906-.242187.28125-.242187.300781 0 .84375.289062 1.613281.878906.816406.65625 1.230469 1.160156 1.230469 1.511719 0 .09375-.074219.21875-.214844.382812-.839844.351563-1.839844.914063-2.984375 1.6875-.957031.65625-1.917969 1.296875-2.878906 1.921875.425781.65625.65625.984375.707031.984375.019531 0 .628906-.113281 1.824219-.347656 1.125-.1875 2.769531-.535156 4.953125-1.046875.0625 0 .234375-.089844.488281-.25s.421875-.25.484375-.25c.191406 0 .59375.175781 1.21875.511719.621094.34375.925781.628906.925781.863281 0 .230469-.078125.40625-.25.519531-.253906.171875-.390625.265625-.410156.289063-.246094.816406-.472656 1.632812-.707031 2.457031-.398438 1.355469-.804688 2.03125-1.226563 2.03125-.265625 0-.445312-.078125-.5625-.246094-.117187-.164062-.234375-.265625-.347656-.285156l-6.324219 1.144531v3.230469c1.039063-.1875 2.105469-.390625 3.234375-.636719.984375-.179687 2.445313-.484375 4.390625-.921875.121094-.03125.328125-.117187.632813-.265625.300781-.148437.460937-.234375.492187-.234375.136719 0 .539063.21875 1.203125.652344.664063.4375 1 .734375 1 .894531zm-3.472656-8.273437c-.144531-.042969-.269531-.125-.386719-.242188l-7.09375 1.257813v3.679687c3.15625-.53125 5.46875-1.003906 6.917969-1.398437.28125-1.242188.46875-2.335938.5625-3.296875zm1.089844 8.625c-.265625-.15625-.484375-.335938-.671875-.523438l-7.898438 1.542969v4.457031h.3125c-.234375 0 2.257813-.40625 7.453125-1.222656.34375-1.453125.609375-2.871094.804688-4.253906zm0 0"/></svg>