<svg height="40" viewBox="0 0 40 40" width="40" xmlns="http://www.w3.org/2000/svg"><path d="m28.160156 29.230469-.101562.28125h-4.667969l-2.808594-3.6875c-.867187-1.167969-1.734375-2.339844-2.601562-3.507813-1.402344-1.78125-2.386719-2.675781-2.945313-2.707031.167969-.140625.304688-.214844.421875-.214844.464844 0 1.0625.34375 1.789063 1.027344.492187.535156 1 1.0625 1.507812 1.578125 2.71875-2.277344 4.074219-3.636719 4.074219-4.109375 0-.121094-.1875-.375-.5625-.765625l.105469-.25c.515625.140625 1.039062.371094 1.582031.699219.625.398437.984375.796875 1.046875 1.195312-.625.277344-1.316406.625-2.066406 1.054688-.511719.304687-1.167969.710937-1.964844 1.226562-1.078125.703125-1.71875 1.109375-1.933594 1.230469 3.484375 4.046875 6.527344 6.363281 9.125 6.949219zm-5.441406-18.886719c0 .027344-.074219.152344-.222656.371094-.15625.222656-.242188.378906-.265625.472656-.117188.402344-.28125 1.472656-.496094 3.230469-.183594 1.566406-.355469 2.515625-.527344 2.84375-.113281.210937-.332031.3125-.660156.3125-.09375 0-.222656-.167969-.386719-.5l-6.425781.953125v9.691406c0 .347656.191406.527344.5625.527344.308594 0 1.125-.414063 2.457031-1.226563.839844-.539062 1.683594-1.082031 2.53125-1.613281l.171875.203125c-.421875.449219-1.332031 1.214844-2.738281 2.285156-1.199219.917969-2.058594 1.71875-2.59375 2.429688-.097656.132812-.175781.273437-.25.414062-.09375.210938-.21875.320313-.386719.320313-.179687 0-.429687-.34375-.738281-1.023438-.300781-.675781-.449219-1.144531-.449219-1.40625 0-.179687.042969-.472656.136719-.851562.09375-.386719.140625-.679688.140625-.859375l.3125-15.382813c0-.0625-.144531-.273437-.453125-.632812-.378906-.414063-.574219-.640625-.597656-.664063l.070312-.175781 1.859375.464844c1.359375-.246094 3.382813-.621094 6.078125-1.164063.085938-.03125.296875-.101562.625-.234375.328125-.125.515625-.1875.5625-.1875.117188 0 .429688.210938.933594.636719.503906.410156.75.675781.75.765625zm-1.894531.152344c.03125-.09375-.117188-.242188-.417969-.453125l-6.355469 1.210937v2.636719h.808594l4.808594-.949219c.164062-.023437.5.046875 1.019531.214844zm-.242188 3.394531c-.441406 0-.671875 0-.671875 0l-4.835937.738281c-.074219 0-.464844-.035156-1.164063-.109375 0-.117187 0 .480469 0 1.792969v.949219l6.386719-.84375zm0 0"/></svg>