<svg height="40" viewBox="0 0 40 40" width="40" xmlns="http://www.w3.org/2000/svg"><path d="m26.089844 19.03125c0 .121094-.117188.214844-.351563.285156-.457031.183594-1.175781.351563-2.125.492188-1.039062.160156-1.757812.304687-2.15625.421875v1.050781c.855469.441406 1.730469.890625 2.609375 1.332031 1.042969.636719 1.5625 1.382813 1.5625 2.246094 0 .488281-.140625.738281-.414062.738281-.09375 0-.695313-.546875-1.792969-1.648437-1.285156-1.292969-1.941406-1.9375-1.964844-1.96875-.09375 2.222656-.144531 4.90625-.144531 8.039062 0 .304688-.042969.667969-.140625 1.089844-.136719.542969-.3125.808594-.519531.808594-.234375 0-.429688-.320313-.5625-.949219-.09375-.441406-.140625-.847656-.140625-1.230469 0-.179687.035156-.457031.125-.820312.078125-.367188.128906-.632813.148437-.792969.027344-2.152344.101563-4.015625.214844-5.582031 0 0-.015625-.140625-.035156-.417969-1.664063 2.546875-3.664063 4.863281-6 6.949219-.09375-.046875-.140625-.117188-.140625-.210938 0 0 .453125-.578125 1.367187-1.722656 1.984375-2.550781 3.390625-4.777344 4.210938-6.671875-.773438.121094-1.902344.34375-3.40625.671875-.042969.019531-.171875.09375-.386719.230469-.207031.128906-.332031.191406-.386719.191406-.53125 0-1.125-.410156-1.75-1.230469v-.25h.214844c.183594 0 .519531.121094 1.011719.359375l5.300781-1.019531-.035156-2.421875-3.121094.597656c-.636719-.171875-1.144531-.539062-1.546875-1.125l.140625-.210937c.300781.28125.675781.394531 1.097656.351562l3.464844-.460937v-2.699219c-.234375.027344-.871094.144531-1.910156.390625-.917969.203125-1.496094.3125-1.730469.3125-.1875 0-.484375-.183594-.902344-.546875-.410156-.359375-.617187-.636719-.617187-.824219v-.390625c.144531.027344.351562.140625.644531.355469.300781.207031.527344.300781.6875.28125l3.828125-.457031v-2.914063c0-.28125-.277344-.703125-.839844-1.265625v-.3125c.257813.046875.730469.257813 1.417969.632813.691406.375 1.03125.65625 1.03125.835937 0 .171875-.082031.558594-.261719 1.164063-.175781.613281-.25 1.078125-.222656 1.40625l.035156.238281c.351563-.019531 1.0625-.292969 2.140625-.800781.277344 0 .671875.097656 1.179688.28125.5.1875.738281.398437.710937.628906v.140625c-.160156.113281-.785156.234375-1.875.347656-1.1875.140625-1.914062.273438-2.191406.386719l.035156 2.597656c.15625-.019531.511719-.125 1.042969-.3125.4375-.140625.75-.210937.933594-.210937.304687 0 .722656.070312 1.253906.210937v.28125c-.347656.257813-.886719.453125-1.597656.59375-.839844.148438-1.390625.28125-1.667969.421875l.035156 2.246094c.351563-.019531.902344-.167969 1.667969-.4375s1.253906-.402344 1.46875-.402344c.902344 0 1.355469.234375 1.355469.699219zm0 0"/></svg>