<svg height="40" viewBox="0 0 40 40" width="40" xmlns="http://www.w3.org/2000/svg"><path d="m30.582031 18.984375c0 .089844-.085937.402344-.257812.925781-.179688.527344-.277344.886719-.304688 1.074219-.15625 1.472656-.332031 2.9375-.515625 4.390625-.234375 1.75-.546875 3.191406-.945312 4.316406-.183594.492188-.371094.734375-.554688.734375-.160156 0-.472656-.242187-.925781-.734375-.453125-.492187-1.089844-.691406-1.894531-.597656l-12.324219 1.222656c-.183594.804688-.390625 1.199219-.613281 1.199219-.335938 0-.75-.597656-1.246094-1.785156 0-.214844 0-.507813 0-.890625 0-.386719 0-.667969 0-.824219 0-3.292969-.136719-5.90625-.390625-7.839844-.046875-.285156-.222656-.632812-.519531-1.054687-.402344-.539063-.621094-.851563-.671875-.945313.019531-.140625.078125-.210937.171875-.210937.117187 0 .5.085937 1.140625.265625.640625.171875 1.128906.257812 1.476562.257812 0 0 1.382813-.0625 4.121094-.207031v-4.550781c0-.234375-.199219-.621094-.589844-1.148438-.394531-.53125-.703125-.789062-.90625-.789062-.234375 0-.578125.070312-1.023437.222656-.464844.152344-.792969.222656-1 .222656-.234375 0-.636719-.296875-1.21875-.890625-.585938-.59375-.898438-1.007812-.945313-1.242187l.246094-.074219c.824219.542969 1.652344.808594 2.488281.808594.234375 0 1.632813-.167969 4.183594-.496094 1.589844-.136719 3.941406-.464844 7.050781-.972656.148438-.054688.421875-.210938.84375-.476563.421875-.269531.640625-.410156.664063-.410156.304687 0 .816406.167969 1.53125.496094.71875.328125 1.117187.609375 1.210937.835937-.75.234375-1.878906.429688-3.40625.5625-1.144531.121094-2.300781.230469-3.476562.324219.070312.089844.484375.417969 1.234375.980469.65625.472656.984375.785156.984375.945312 0 .027344-.085938.1875-.234375.496094-.148438.296875-.234375.488281-.261719.5625-.140625.441406-.199219 1.027344-.175781 1.75 0 .9375-.007813 1.535156-.039063 1.792969.074219.019531.167969.035156.289063.035156.71875 0 1.847656-.144531 3.378906-.421875.703125-.140625 1.050781-.214844 1.050781-.214844.234375 0 .683594.339844 1.367188 1 .675781.671875 1.007812 1.125 1.007812 1.355469zm-8.421875-1.441406v-4.382813c0-.304687-.207031-.742187-.617187-1.320312-.40625-.574219-.746094-.84375-1-.824219l-4.246094.5625c1.144531 1.144531 1.714844 1.824219 1.714844 2.035156 0 .371094-.042969.949219-.136719 1.71875-.09375.773438-.140625 1.355469-.140625 1.757813v.875zm6.320313 1.085937c0-.085937-.140625-.226562-.429688-.398437-.273437-.179688-.476562-.265625-.59375-.265625l-3.96875.316406-.523437 10.121094 3.441406-.417969c.167969-.019531.515625.144531 1.050781.511719zm-6.320313-.140625-4.425781.421875v10.042969l3.96875-.425781zm-5.6875 10.53125v-9.828125l-4.597656.320313c.1875.46875.28125.875.28125 1.222656v1.472656c.09375 1.601563.25 3.984375.453125 7.164063zm0 0"/></svg>