<svg height="40" viewBox="0 0 40 40" width="40" xmlns="http://www.w3.org/2000/svg"><path d="m31.691406 24.09375c0 .417969-.175781.628906-.53125.628906-.253906 0-.484375-.066406-.671875-.210937-.273437-.328125-.671875-.796875-1.164062-1.402344-.75-.863281-1.351563-1.53125-1.792969-2.003906-.800781-.859375-1.4375-1.453125-1.910156-1.75l.132812-.25c1.203125.679687 2.40625 1.351562 3.605469 2 1.550781.960937 2.332031 1.953125 2.332031 2.988281zm.664063-8.425781c0 .300781-.335938.457031-1.011719.457031-.402344 0-1-.050781-1.796875-.160156-.792969-.105469-1.375-.164063-1.75-.164063 0 0-1.753906.125-5.269531.359375 1.078125.699219 1.617187 1.277344 1.617187 1.71875 0 .089844-.035156.25-.109375.46875-.066406.226563-.101562.386719-.101562.476563v5.507812c0 .171875.035156.429688.101562.777344.074219.347656.109375.609375.109375.769531 0 .308594-.140625.835938-.421875 1.585938-.304687.816406-.578125 1.222656-.816406 1.222656-.113281 0-.269531-.171875-.457031-.527344-.121094-.226562-.21875-.460937-.3125-.695312-.523438-.75-1.609375-1.527344-3.257813-2.320313l.140625-.25 3.046875.8125c.402344-.117187.605469-.394531.605469-.835937v-6.757813c0-.140625-.199219-.476562-.597656-1.023437-.390625-.546875-.648438-.828125-.765625-.828125l-4.527344.5625c.371094.273437.746094.5625 1.113281.835937.5625.421875.855469.730469.875.914063-.414062.421875-.78125 1.296875-1.085937 2.640625-.351563 1.65625-.734375 2.898437-1.15625 3.71875-.746094 1.472656-1.945313 2.726562-3.585938 3.753906.542969-.730469 1.15625-1.574219 1.835938-2.535156.5625-.773438 1.0625-1.953125 1.507812-3.554688.445313-1.59375.664063-2.898437.664063-3.90625 0-.210937-.117188-.554687-.351563-1.035156-.234375-.484375-.457031-.722656-.671875-.722656-.320312 0-1 .179687-2.007812.5625-1.023438.367187-1.652344.5625-1.886719.5625-.347656 0-.921875-.308594-1.734375-.921875-.808594-.605469-1.207031-1.070313-1.207031-1.398438v-.390625l.171875-.035156c.835937.816406 1.707031 1.234375 2.597656 1.234375.09375 0 1.027344-.113281 2.808594-.359375 1.117187-.136719 2.804687-.371094 5.050781-.699219-.066406-.328125-.105469-.851562-.105469-1.570312-.019531-1.105469-.535156-1.875-1.539062-2.324219l.132812-.28125h.8125c.210938 0 .679688.183594 1.40625.546875.726563.363281 1.089844.625 1.089844.785156 0 .054688-.066406.1875-.199219.421875-.125.234375-.191406.386719-.191406.460938v1.859375c1.378906-.074219 3.425781-.28125 6.140625-.632813.144531-.023437.433594-.140625.859375-.351562.4375-.210938.707031-.3125.828125-.3125.300781 0 .949219.210937 1.933594.628906.984375.421875 1.46875.734375 1.46875.949219zm-17.867188 5.546875c-.421875.066406-1.078125.539062-1.957031 1.398437-.59375.617188-1.175781 1.210938-1.761719 1.792969-.890625.839844-1.878906 1.722656-2.976562 2.636719l-.148438-.25c.703125-.746094 1.570313-1.824219 2.601563-3.230469 1.285156-1.75 1.925781-2.847656 1.925781-3.296875 0-.285156-.3125-.621094-.949219-1.019531l.148438-.242188h.238281c.449219 0 .980469.210938 1.582031.648438.605469.429687 1.042969.863281 1.296875 1.28125zm0 0"/></svg>