<svg height="40" viewBox="0 0 40 40" width="40" xmlns="http://www.w3.org/2000/svg"><path d="m29.625 25.722656c-.128906 0-.503906.210938-1.136719.632813-2.175781.269531-4.316406.476562-6.414062.625l.253906-3.140625c2.011719-1.46875 3.894531-2.855469 5.660156-4.152344.417969-.296875.625-.546875.625-.753906-.351562-1.492188-1.398437-2.371094-3.140625-2.640625l-.253906.125c.019531.207031.1875.625.503906 1.253906-.289062.921875-1.425781 2.722656-3.394531 5.410156.167969-2.472656.332031-4.90625.5-7.296875.171875-.878906.253906-1.425781.253906-1.632812 0-.292969-.253906-.796875-.753906-1.511719 1.90625-.25 3.875-.417969 5.910156-.5.335938-.109375.5-.277344.5-.503906 0-.714844-1.085937-1.261719-3.265625-1.636719-.359375.464844-.609375.714844-.753906.753906-1.574219.375-3.25.714844-5.03125 1.007813l-.878906.125c-2.8125.460937-5.328125.835937-7.546875 1.132812l-.132813.25c.632813.460938 1.304688.796875 2.015625 1.007813l2.390625-.5c.5.539062.757813 1.128906.757813 1.757812v11.949219c-3.105469.417969-6.210938.839844-9.3125 1.253906l-.125.257813c.710937.457031 1.425781.796875 2.140625 1.003906 5.660156-1.089844 10.773437-1.636719 15.34375-1.636719 2.265625 0 4.90625.042969 7.925781.125.582031-.039062.878906-.25.878906-.628906 0-.859375-1.175781-1.566406-3.519531-2.136719zm-11.699219 1.636719.5-12.203125c0-.542969-.289062-1.128906-.878906-1.761719l2.640625-.503906c.253906.339844.378906.714844.378906 1.136719l-.125 13.082031zm-7.046875-8.050781-.25.125c.757813 3.101562 1.929688 4.65625 3.523438 4.65625.332031 0 .503906-.210938.503906-.632813 0-.5-.296875-1.335937-.878906-2.515625-.929688-.375-1.890625-.921875-2.898438-1.632812zm0 0"/></svg>