<svg height="40" viewBox="0 0 40 40" width="40" xmlns="http://www.w3.org/2000/svg"><path d="m18.246094 14.074219c0 .414062-.125.625-.390625.625-.328125 0-1.460938-1.449219-3.402344-4.355469.84375.449219 1.683594.890625 2.527344 1.339844.835937.582031 1.265625 1.382812 1.265625 2.390625zm9.828125 1.609375c0 .253906-.292969.382812-.875.382812-.167969 0-.492188-.019531-.96875-.070312-.476563-.042969-.835938-.058594-1.070313-.027344l-5.234375.378906c.214844.148438.4375.265625.671875.386719.328125.1875.492188.355469.492188.496094 0 .113281-.046875.273437-.140625.472656s-.140625.34375-.140625.4375l-.109375 4.777344c.023437.019531.070312.03125.140625.03125.144531 0 .859375-.121094 2.15625-.355469 1.304687-.230469 2.015625-.371094 2.128906-.410156.183594-1.507813.277344-2.515625.277344-3.058594 0-.328125-.210938-.765625-.625-1.296875l.066406-.035156c.207031 0 .640625.238281 1.296875.71875.65625.472656.984375.8125.984375 1 0 .019531-.09375.191406-.277344.507812-.191406.3125-.300781.523438-.320312.617188-.183594.535156-.328125 1.242187-.421875 2.132812-.164063 1.242188-.265625 1.96875-.3125 2.183594-.101563.558594-.308594.839844-.632813.839844-.257812 0-.382812-.257813-.382812-.777344 0-.203125.035156-.527344.113281-.9375.089844-.425781.125-.730469.125-.921875-.019531-.019531-.0625-.027344-.136719-.027344-.488281 0-1.929687.257813-4.316406.765625-.328125 2.78125-1.707031 5.070313-4.140625 6.84375l-.285156-.242187c1.800781-1.84375 2.898437-3.898438 3.300781-6.140625l-.035156-.214844c-1.101563.214844-1.859375.363281-2.28125.457031-.890625.214844-1.625.449219-2.210938.703125-.050781 0-.175781.132813-.382812.386719-.214844.253906-.402344.386719-.5625.386719h-.179688c-.164062-.210938-.289062-.671875-.382812-1.371094.582031-2.574219.875-4.046875.875-4.417969 0-.445312-.242188-.828125-.734375-1.125v-.359375h.351562c.167969 0 .542969.183594 1.125.546875.585938.367188.875.617188.875.761719 0 .019531-.054687.125-.164062.3125-.105469.191406-.179688.308594-.199219.347656-.238281.683594-.519531 1.859375-.832031 3.546875 1.894531-.394531 3.519531-.78125 4.878906-1.160156.09375-.699219.136719-1.589844.136719-2.660156 0-1.3125-.042969-2.167969-.136719-2.570313-.019531-.132812-.238281-.390625-.652344-.769531-.40625-.371094-.679687-.5625-.820312-.5625-.914063 0-1.839844.140625-2.773438.421875-.09375.027344-.257812.121094-.507812.28125-.25.167969-.398438.246094-.4375.246094-.402344 0-1.21875-.539063-2.460938-1.609375l.105469-.25c1.027344.421875 1.675781.632812 1.933594.632812.070312 0 .925781-.09375 2.554687-.285156.890625-.0625 2.226563-.21875 4.007813-.449219.019531 0 .132812-.15625.347656-.460937 1.855469-2.648438 2.777344-4.179688 2.777344-4.601563 0-.347656-.246094-.6875-.742188-1.015625.09375-.164062.1875-.242187.28125-.242187.277344 0 .777344.253906 1.476563.769531.695312.515625 1.0625.910156 1.085937 1.199219-.628906.179687-1.453125.789062-2.457031 1.820312-.722656.773438-1.453125 1.554688-2.171875 2.355469.042969.019531.097656.03125.171875.03125.277344 0 .90625-.0625 1.859375-.191406.964844-.132813 1.53125-.226563 1.722656-.296875.074219-.023438.183594-.089844.335938-.199219.148437-.105469.257812-.152344.328125-.152344.328125 0 .804687.101563 1.441406.3125.722656.28125 1.089844.539063 1.089844.773438zm0 0"/></svg>