<svg height="40" viewBox="0 0 40 40" width="40" xmlns="http://www.w3.org/2000/svg"><path d="m27.441406 21.15625c0 .5625-1.453125.84375-4.351562.84375-1.242188 0-2.058594-.167969-2.449219-.511719-.402344-.332031-.628906-1.148437-.671875-2.429687l-2.910156.625c-.636719-.117188-1.277344-.480469-1.933594-1.089844.042969-.074219.105469-.097656.175781-.097656.0625 0 .257813.050781.558594.148437.308594.109375.484375.164063.527344.164063l3.617187-.601563c.023438-.039062.039063-.113281.039063-.207031 0-1.546875-.289063-2.46875-.851563-2.769531.09375-.074219.179688-.109375.25-.109375.234375 0 .621094.148437 1.164063.441406.535156.292969.800781.542969.800781.75 0-.113281-.125.199219-.390625.949219l.074219.773437c.679687-.070312 1.6875-.21875 3.019531-.460937.050781-.023438.160156-.085938.332031-.1875.179688-.109375.304688-.164063.367188-.164063.304687 0 .71875.074219 1.234375.214844.625.167969.945312.34375.945312.527344 0 .113281-.441406.222656-1.332031.316406-1.03125.121094-2.574219.3125-4.640625.597656v1.4375c0 .585938.328125.875.984375.875 1.527344 0 2.417969-.039062 2.671875-.140625.074219-.019531.199219-.113281.386719-.28125.1875-.160156.304687-.238281.347656-.238281.285156 0 .671875.058594 1.160156.171875.585938.140625.875.292969.875.453125zm3.578125-6.628906c0 .179687-.179687.3125-.5625.382812-.273437.046875-.546875.085938-.800781.105469-.230469.09375-1.191406.699219-2.878906 1.824219l-.171875-.105469c.769531-1.078125 1.332031-2.011719 1.679687-2.808594-.070312-.019531-.148437-.035156-.242187-.035156-1.921875 0-4.402344.199219-7.4375.597656-3.167969.421875-5.59375.890625-7.308594 1.402344.296875.308594.582031.621094.859375.949219.457031.492187.683594.804687.683594.945312 0 .03125-.058594.179688-.171875.460938-.121094.273437-.179688.484375-.179688.597656-.0625.582031-.195312 1.457031-.378906 2.636719-.675781 3.875-2.300781 7.316406-4.886719 10.316406l-.242187-.105469c1.265625-1.804687 2.285156-3.957031 3.078125-6.457031.773437-2.511719 1.171875-4.859375 1.171875-7.0625 0-.792969-.273438-1.53125-.808594-2.207031-.542969-.605469-1.082031-1.21875-1.613281-1.824219l.210937-.144531c1.007813.5625 1.648438.84375 1.921875.84375.03125 0 .765625-.101563 2.21875-.3125 1.074219-.167969 2.695313-.417969 4.84375-.734375.042969-.074219.101563-1.214844.171875-3.40625.027344-.515625-.546875-1.125-1.71875-1.828125.167969-.234375.515625-.355469 1.046875-.355469.214844 0 .632813.171875 1.234375.5.605469.316406.914063.582031.914063.765625 0-.140625-.117188.328125-.351563 1.40625.042969.019531.09375.035156.140625.035156.28125 0 .859375-.066406 1.742188-.195312.875-.125 1.394531-.226563 1.5625-.296875.039062-.027344.125-.105469.238281-.246094.113281-.144531.222656-.207031.324219-.207031.207031 0 .535156.085937.992187.257812.464844.179688.6875.34375.6875.511719 0 .09375-.164062.199219-.492187.3125-.652344.191406-1.515625.34375-2.601563.464844-.882812.082031-1.773437.179687-2.664062.273437v1.859375l4.953125-.597656c1.425781-.160156 2.160156-.238281 2.207031-.238281.28125 0 .792969.21875 1.53125.660156.734375.449219 1.097656.796875 1.097656 1.058594zm0 0"/></svg>