<svg height="40" viewBox="0 0 40 40" width="40" xmlns="http://www.w3.org/2000/svg"><path d="m17.792969 14.328125c0 .441406-.148438.671875-.421875.671875-.382813 0-1.511719-1.488281-3.40625-4.464844l.273437-.207031c.730469.582031 1.453125 1.167969 2.183594 1.753906.910156.730469 1.371094 1.46875 1.371094 2.246094zm10.28125 6.636719c-.328125.234375-.578125.347656-.742188.347656h-2.554687c-.402344 0-1.933594.285156-4.601563.84375-.140625.425781-.234375.800781-.285156 1.160156 1.480469.839844 3.628906 2.1875 6.457031 4.03125.308594.234375.601563.617188.886719 1.148438.277344.523437.417969.976562.417969 1.347656 0 .519531-.125.777344-.390625.777344-.042969 0-1.226563-1.070313-3.542969-3.199219-2.5-2.316406-3.8125-3.519531-3.933594-3.613281-.421875 1.003906-1.113281 2.023437-2.082031 3.050781-.980469 1.03125-1.925781 1.746094-2.863281 2.140625-1.402344.609375-2.246094.917969-2.527344.917969l-.144531-.210938c1.382812-.445312 2.785156-1.410156 4.21875-2.882812 1.566406-1.570313 2.359375-3.015625 2.378906-4.351563l-.171875-.070312-4.496094 1.054687c-.300781-.070312-.710937-.285156-1.222656-.632812-.515625-.351563-.828125-.65625-.949219-.914063.023438-.117187.085938-.175781.179688-.175781s.390625.066406.894531.191406c.503906.132813.90625.195313 1.207031.195313.28125 0 1.09375-.101563 2.460938-.3125 1.359375-.210938 2.09375-.355469 2.207031-.421875.214844-1.382813.316406-2.414063.316406-3.09375 0-.625-.195312-.949219-.597656-.949219-.328125 0-.855469.136719-1.578125.390625-.730469.261719-1.207031.386719-1.441406.386719-.296875 0-.933594-.546875-1.898438-1.65625l.148438-.242188c.910156.402344 1.539062.601563 1.894531.601563.53125 0 1.332031-.085938 2.386719-.25 1.144531-.164063 1.898437-.328125 2.28125-.492188.191406-.09375.78125-.960937 1.785156-2.59375.890625-1.40625 1.488281-2.414062 1.796875-3.019531-.378906-.496094-.683594-.765625-.910156-.808594v-.28125h.660156c.253906 0 .730469.199219 1.421875.59375.691406.402344 1.050781.710938 1.074219.917969-1.125 1.09375-2.765625 2.761719-4.917969 4.984375.375-.027344.996094-.191406 1.84375-.511719.855469-.316406 1.269531-.472656 1.25-.472656.746094 0 1.421875.171875 2.03125.53125v.3125c-.515625.328125-1.5.605469-2.953125.839844-1.066406.164062-2.136719.328125-3.191406.492187.359375.585938.53125.914063.53125.984375 0 .046875-.042969.132813-.121094.265625-.082031.121094-.140625.226563-.160156.296875-.164063.5625-.25 1.390625-.25 2.484375.03125.03125.085937.039063.175781.039063.238281 0 .953125-.132813 2.167969-.402344 1.203125-.265625 1.929687-.449219 2.1875-.546875.726562-.253906 1.019531-.386719.878906-.386719.253906 0 .6875.085938 1.277344.25.597656.164063.96875.335938 1.109375.527344zm0 0"/></svg>