<svg height="40" viewBox="0 0 40 40" width="40" xmlns="http://www.w3.org/2000/svg"><path d="m30 18.855469c-.394531.304687-1.628906.46875-3.6875.46875-.394531 0-.6875-.074219-.890625-.214844-.84375-.597656-1.824219-1.535156-2.921875-2.84375-.878906-1.074219-1.769531-2.144531-2.667969-3.21875-.0625-.050781-.128906-.105469-.210937-.167969-1.046875 0-1.699219.0625-1.953125.195313-.257813.125-.664063.585937-1.226563 1.398437-.570312.796875-1.257812 1.609375-2.078125 2.429688.226563.226562.574219.34375 1.058594.34375.957031 0 2.449219-.140625 4.449219-.421875 1.1875-.167969 1.765625-.257813 1.738281-.257813.167969 0 .457031.140625.863281.421875.414063.28125.617188.484375.617188.589844 0 .292969-.28125 1.003906-.84375 2.152344-.5625 1.140625-.945313 1.703125-1.148438 1.703125-.28125 0-.515625-.210938-.71875-.632813-.28125.027344-1.691406.230469-4.234375.601563-.226562.28125-.414062.421875-.554687.421875-.335938 0-.679688-.679688-1.011719-2.039063-.175781-.851562-.355469-1.695312-.558594-2.539062-.816406.585937-2.082031 1.375-3.804687 2.332031l-.089844-.214844c2.796875-2.601562 4.785156-4.660156 5.972656-6.1875h-.164062c-.90625 0-1.609375.046875-2.121094.125-1.046875.179688-1.542969.257813-1.480469.257813-.675781 0-1.285156-.40625-1.820312-1.226563l.210937-.300781c.703125.339844 1.265625.511719 1.6875.511719 1.164063 0 2.476563-.085938 3.945313-.257813.28125-.453125.421875-.929687.421875-1.441406 0-.84375-.09375-1.253906-.296875-1.230469l-4.234375.601563-.167969-.304688c3.644531-.765625 6.609375-1.898437 8.902344-3.429687-.039063-.117188-.179688-.335938-.433594-.679688.089844-.191406.175781-.289062.253906-.289062.257813 0 .746094.21875 1.484375.675781.734375.449219 1.105469.777344 1.105469.96875 0 .203125-.792969.582031-2.378906 1.144531-.960938.34375-1.917969.667969-2.875.976563 0 .023437.113281.160156.34375.40625.21875.238281.332031.414062.332031.53125 0 .050781-.300781.675781-.890625 1.863281l.046875.167969c1.238281-.0625 3.0625-.214844 5.464844-.46875.140625-.027344.40625-.121094.785156-.296875.375-.167969.578125-.257813.613281-.257813.28125 0 .742188.140625 1.375.40625.632813.273438.949219.515625.949219.742188 0 .34375-.246094.507812-.753906.507812-.371094 0-.933594-.019531-1.699219-.0625-.761719-.046875-1.339844-.0625-1.734375-.0625.027344 0-.722656.027344-2.246094.078125 1.917969 2.320313 5.007813 4.324219 9.277344 6.023438zm-2.167969 5.222656c0 .113281-.09375.253906-.289062.4375-.199219.1875-.3125.308594-.339844.359375-.113281.203125-.40625 1.949219-.890625 5.238281-.421875 2.914063-.933594 4.375-1.527344 4.375-.054687 0-.628906-.441406-1.738281-1.328125-1.183594-.941406-1.847656-1.460937-1.988281-1.550781v-.296875c1.328125.28125 2.207031.421875 2.628906.421875.503906 0 .800781-.152344.890625-.46875.050781-.191406.265625-1.394531.636719-3.613281.367187-2.21875.550781-3.429688.550781-3.632813 0-.332031-.253906-.507812-.765625-.507812-.28125 0-2.613281.132812-6.988281.390625-1.277344.023437-3.152344.144531-5.640625.375-.109375 0-.167969.097656-.167969.300781 0-.140625.082031 2.082031.253906 6.6875.054688.996094-.097656 1.488281-.46875 1.488281-.226562 0-.445312-.34375-.675781-1.019531-.191406-.5625-.300781-1.003906-.300781-1.3125v-4.109375c0-1.609375-.335938-2.667969-1.011719-3.175781.113281-.167969.214844-.257813.296875-.257813.144531 0 .378906.078125.714844.234375.34375.152344.671875.230469.976562.230469 0 0 .980469-.066406 2.921875-.207031 2.234375 0 5.417969-.167969 9.539063-.511719.082031 0 .253906-.0625.507812-.1875.257813-.128906.414063-.191406.464844-.191406.253906 0 .722656.242187 1.402344.738281.675781.5 1.007812.863281 1.007812 1.09375zm-5.332031 2.910156c-.308594.5625-.636719 1.125-.980469 1.699219-.507812.84375-.90625 1.269531-1.1875 1.269531-.242187 0-.410156-.097656-.484375-.300781-.066406-.191406-.128906-.292969-.191406-.292969-.421875 0-.96875.054688-1.644531.167969-.90625.113281-1.46875.171875-1.699219.171875 0 .027344-.050781.199219-.167969.511719-.0625.191406-.1875.296875-.378906.296875-.34375 0-.652344-.574219-.933594-1.699219-.34375-1.386719-.675781-2.292969-1.019531-2.714844l.128906-.207031c.105469.027344.390625.121094.84375.269531.453125.164063.710938.242188.761719.242188.597656 0 1.53125-.136719 2.796875-.390625 1.277344-.257813 2.191406-.375 2.753906-.375.167969 0 .636719.445312 1.402344 1.351562zm-1.1875-8.898437c-.113281-.308594-.238281-.464844-.378906-.464844l-5.210938.511719.246094 2.390625 4.796875-.589844zm-.84375 8.988281c0-.253906-.097656-.386719-.300781-.386719l-4.445313.464844.464844 1.824219h.253906c-.085937 0 1.070313-.152344 3.46875-.46875.371094-.757813.558594-1.242188.558594-1.433594zm0 0"/></svg>