<svg height="40" viewBox="0 0 40 40" width="40" xmlns="http://www.w3.org/2000/svg"><path d="m27.292969 12.988281c0 .359375-.167969.53125-.496094.53125-.214844 0-.46875-.171875-.777344-.53125 0 0-.101562-.175781-.3125-.523437-.492187-.796875-1.09375-1.515625-1.800781-2.148438-.113281-.09375-.234375-.25-.347656-.457031 0-.097656.023437-.171875.070312-.214844 2.445313.9375 3.664063 2.058594 3.664063 3.34375zm2.707031 12.964844c0 .1875-.058594.480469-.175781.875-.117188.5-.183594.796875-.210938.917969-.257812 1.546875-.390625 2.515625-.390625 2.882812 0 .195313.046875.480469.125.867188.078125.390625.125.6875.125.898437 0 .46875-.15625.703125-.460937.703125-.351563 0-.886719-.410156-1.617188-1.226562-.796875-.921875-1.910156-2.871094-3.34375-5.855469-1.21875.988281-2.398437 1.84375-3.523437 2.578125l-.277344-.25c2.207031-1.878906 3.316406-2.996094 3.34375-3.34375-.355469-.871094-1.046875-3.402344-2.078125-7.609375-1.316406.191406-3.265625.527344-5.84375 1.027344-.097656.019531-.667969.179687-1.730469.488281-.957031.285156-1.460937.421875-1.515625.421875-.703125 0-1.507812-.640625-2.425781-1.9375.074219-.074219.152344-.097656.25-.097656-.019531 0 .183594.144531.613281.4375.433594.289062.804688.4375 1.109375.4375.28125 0 .835938-.140625 1.65625-.421875 0-.46875-.109375-1.28125-.316406-2.433594-.050781-.277344-.144531-.660156-.285156-1.160156-.539063-.304688-1.199219-.742188-1.976563-1.304688.054688-.070312.136719-.101562.25-.101562.023438 0 .183594.0625.476563.175781.289062.121094.523437.175781.6875.175781.304687 0 1.1875-.191406 2.640625-.5625-.042969-.140625-.074219-.679687-.074219-1.625 0-1.191406-.53125-1.96875-1.613281-2.316406.019531-.191406.128906-.285156.3125-.285156.5 0 1.082031.09375 1.765625.285156.816406.234375 1.226562.527344 1.226562.875-.300781.660156-.453125 1.535156-.453125 2.640625 0 .09375.011719.175781.039063.25.722656-.191406 1.394531-.449219 2.003906-.777344.207031 0 .527344.070313.949219.214844.425781.140625.632812.277344.632812.417969 0 .210937-.269531.382812-.8125.53125-.367187.097656-.75.1875-1.125.28125.542969.285156.8125.4375.8125.457031.398438.234375.601563.425781.601563.5625-.777344 1.078125-1.320313 2.042969-1.625 2.890625.46875 0 1.066406-.074219 1.816406-.214844 1.019531-.1875 1.628906-.289062 1.8125-.316406.019531-.027344.035156-.082031.035156-.175781 0-1.125-.148437-2.640625-.453125-4.542969-.066406-.894531-.140625-1.769531-.203125-2.640625-.171875-.894531-.71875-1.519531-1.671875-1.902344l.140625-.242187c.585938.234375 1.179688.46875 1.765625.703125.839844.394531 1.265625.773437 1.265625 1.125 0 .117187-.007812.34375-.035156.6875-.027344.335937-.03125.601562-.03125.789062l.488281 5.984375c.375-.019531.976563-.234375 1.804688-.628906.367187 0 .894531.09375 1.578125.292969.679687.191406 1.175781.378906 1.476562.5625v.28125c-.300781.203125-.664062.320312-1.09375.34375-.367187 0-.757812 0-1.160156 0 0 0-.816406.070312-2.464844.210937-.019531.042969-.035156.117188-.035156.210938 0 .5625.207031 1.632812.636719 3.207031.347656 1.339844.679687 2.410156.988281 3.238281.253906-.265625.652344-.84375 1.175781-1.75.527344-.898437.789063-1.484375.789063-1.738281 0-.519531-.171875-.871094-.527344-1.050781l.109375-.289063c.449219.09375.921875.351563 1.441406.777344.523438.421875.777344.847656.777344 1.265625 0 .074219-.535156.730469-1.605469 1.972656-1.066406 1.246094-1.597656 1.902344-1.597656 1.96875 0 .421875.363281 1.265625 1.109375 2.523438.738281 1.25 1.28125 1.878906 1.628906 1.878906.5 0 1.167969-1.285156 2.015625-3.871094l.277344.070313zm-9.859375-4.621094c0 .289063-.140625.542969-.417969.777344v6.871094c0 .179687-.085937.425781-.25.703125-.164062.285156-.34375.421875-.523437.421875-.171875 0-.355469-.078125-.554688-.226563-.195312-.15625-.363281-.234375-.507812-.234375-.449219 0-1.089844.089844-1.933594.25-.65625.117188-1.316406.234375-1.972656.351563-.074219.164062-.152344.34375-.25.523437-.09375.195313-.210938.289063-.351563.289063-.179687 0-.363281-.3125-.523437-.953125-.140625-.515625-.214844-.929688-.214844-1.234375 0-.234375.019531-.59375.074219-1.070313.046875-.484375.066406-.84375.066406-1.078125 0-.441406.015625-1.109375.035156-1.988281.023438-.886719.039063-1.542969.039063-1.988281 0-.542969-.34375-1.105469-1.027344-1.6875l.109375-.25c.09375.019531.355469.117187.777344.285156.414062.160156.65625.238281.703125.238281.328125 0 1.046875-.109375 2.148437-.328125 1.101563-.222656 1.828125-.394531 2.179688-.507812.050781-.03125.171875-.089844.351562-.199219.1875-.105469.324219-.15625.386719-.15625.191406 0 .515625.144531.972656.453125.453125.308594.683594.558594.683594.738281zm-2.566406-7.320312c-.164063-.371094-.308594-.679688-.429688-.914063l-3.34375.777344c.523438 1.519531.777344 2.390625.777344 2.605469 0 .09375-.015625.222656-.035156.398437-.023438.179688-.039063.3125-.039063.414063 0 .132812.023438.253906.074219.347656l2.46875-.496094zm.875 10.554687v-2.875c-.117188-.070312-.273438-.148437-.460938-.25l-4.082031.640625v3.117188zm0 4.027344v-3.105469l-4.542969.636719v3.246094zm0 0"/></svg>