<svg height="40" viewBox="0 0 40 40" width="40" xmlns="http://www.w3.org/2000/svg"><path d="m33.800781 27.316406-.070312.257813h-3.296875c-.828125 0-1.421875-.164063-1.773438-.480469-.421875-.5-.847656-1.015625-1.269531-1.546875-.597656-.667969-1.355469-1.410156-2.25-2.214844-2.175781 1.882813-4.113281 3.136719-5.8125 3.761719l-.152344-.265625c2.371094-1.503906 4.085938-2.9375 5.136719-4.316406-.949219-1-1.449219-1.523438-1.503906-1.574219-.746094-.730469-1.308594-1.113281-1.683594-1.160156.046875-.203125.125-.296875.230469-.296875.519531 0 1.144531.28125 1.867187.851562.527344.480469 1.070313.96875 1.609375 1.46875.25-.304687.558594-.765625.90625-1.390625.421875-.722656.640625-1.195312.640625-1.425781 0-.144531-.117187-.363281-.34375-.652344-.21875-.289062-.398437-.46875-.519531-.546875l-2.214844.453125c-.046875 0-.476562-.125-1.28125-.375l-2.359375 2.546875-.332031-.300781c.574219-.769531 1.261719-1.863281 2.0625-3.253906.941406-1.710938 1.417969-2.820313 1.417969-3.34375 0-.296875-.109375-.546875-.335938-.734375-.222656-.1875-.332031-.320313-.332031-.390625 0-.101563.019531-.179688.066406-.226563h.265625c.226563 0 .703125.148438 1.429688.453125.722656.292969 1.085937.542969 1.085937.746094-1.195312 1.574219-2.046875 2.859375-2.550781 3.863281.425781.125.699219.1875.824219.1875.023437 0 .515625-.113281 1.460937-.34375 1.703125-.394531 2.980469-.753906 3.828125-1.082031.476563-.175781.726563-.261719.75-.261719.554688 0 1.136719.242188 1.761719.714844v.296875c-1.046875.203125-2.609375.5-4.683594.90625.148438.171875.449219.402344.898438.691406.445312.289063.753906.570313.898437.839844l-2.289062 3.265625c2.425781 2.175781 5.066406 3.800781 7.914062 4.878906zm-15.191406-13.394531c-.921875.828125-2.34375 2.027344-4.269531 3.597656l-.15625-.253906c1.570312-2.152344 2.367187-3.324219 2.367187-3.488281 0-.328125-.0625-.5-.191406-.53125-.125-.027344-.1875-.089844-.1875-.1875 0-.09375.03125-.171875.078125-.21875h.449219c.273437 0 .664062.125 1.160156.375.5.25.75.484375.75.707031zm.828125 4.800781c0 .203125-.074219.417969-.203125.664063-.140625.234375-.214844.347656-.214844.347656v6.230469c0 .273437-.140625.660156-.425781 1.144531-.28125.488281-.5625.730469-.832031.730469-.046875 0-.136719-.125-.261719-.375-.371094-.726563-.707031-1.214844-1.003906-1.464844-.167969-.125-.667969-.390625-1.484375-.785156-.027344-.078125-.042969-.148438-.042969-.226563.03125-.023437.042969-.070312.042969-.148437l2.171875.332031c.328125-.144531.488281-.355469.488281-.636719v-5.132812c-.371094-.328125-.636719-.492188-.785156-.492188-1.257813 0-2.546875.164063-3.902344.492188 0-.554688 0 .140625 0 2.0625.019531 1.328125.015625 2.425781-.03125 3.296875-.09375 1.234375-.265625 2.039062-.5 2.4375-.1875-.042969-.347656-.273438-.488281-.667969-.152344-.328125-.21875-.613281-.21875-.863281v-6c0-.058594-.03125-.078125-.109375-.078125-.183594 0-1.414063.203125-3.71875.597656-.070313.097656-.15625 1.574219-.257813 4.425781.296875-.171875.679688-.582031 1.148438-1.21875.457031-.632812.691406-1.101562.691406-1.40625 0-.203125-.230469-.523437-.675781-.972656.125-.203125.222656-.308594.296875-.308594.222656 0 .632812.140625 1.234375.414063.601562.28125.914062.515625.945312.71875-.78125.828125-1.984375 2.023437-3.601562 3.597656-.054688 1.28125-.242188 1.910156-.570313 1.910156-.171875 0-.441406-.546875-.828125-1.644531.214844-.53125.339844-1.363281.386719-2.515625 0-.875.003906-1.753906.03125-2.625.03125-.75-.152344-1.285156-.519531-1.613281.039062-.203125.132812-.296875.257812-.296875.171875 0 .449219.101562.804688.320312.367187.210938.632812.308594.8125.308594.222656 0 .84375-.078125 1.851562-.238281 1.015625-.164063 1.621094-.28125 1.820313-.359375v-4.804688c0-.242187-.105469-.539062-.324219-.894531-.207031-.347656-.425781-.550781-.652344-.597656.148438-.15625.257813-.226563.335938-.226563.269531 0 .734375.15625 1.382812.46875.65625.308594.984375.585938.984375.808594 0 .152344-.070312.371094-.207031.65625-.140625.285156-.214844.503906-.214844.65625l-.066406 3.675781c.019531.023438.082031.039063.1875.039063.449219 0 1.183594-.132813 2.199219-.398438 1.007812-.265625 1.65625-.394531 1.929687-.394531.148438 0 .496094.140625 1.054688.410156.539062.28125.910156.492188 1.082031.640625zm-9.496094-1.988281c0 .625-.1875.9375-.5625.9375-.347656 0-1.304687-1.347656-2.890625-4.046875l.230469-.078125c1.300781.875 1.964844 1.328125 1.984375 1.347656.828125.65625 1.238281 1.261719 1.238281 1.839844zm5.96875 7.425781h-.035156c-.203125 0-.597656-.519531-1.203125-1.570312-.324219-.648438-.652344-1.289063-.972656-1.914063.046875-.050781.125-.078125.226562-.078125.171875 0 .585938.292969 1.230469.867188.65625.570312.984375 1.015625.984375 1.3125 0 .695312-.078125 1.160156-.230469 1.382812zm0 0"/></svg>