<svg height="40" viewBox="0 0 40 40" width="40" xmlns="http://www.w3.org/2000/svg"><path d="m30 20.292969-.152344.375c-.289062 0-.722656-.03125-1.289062-.078125-1.480469-.121094-2.585938-.40625-3.320313-.851563-.148437-.066406-.890625-1.019531-2.210937-2.835937-.648438-.914063-1.265625-1.828125-1.886719-2.765625-.839844-1.15625-1.589844-1.921875-2.25-2.292969-1.890625 2.730469-3.46875 4.699219-4.730469 5.902344.277344.175781.601563.347656.96875.519531.246094.027344 1.1875-.015625 2.835938-.113281 1.648437-.101563 2.625-.167969 2.921875-.21875.066406 0 .222656-.046875.457031-.148438.230469-.097656.375-.144531.421875-.144531.203125.019531.578125.246094 1.128906.667969.554688.410156.828125.710937.828125.878906-.023437.125-.117187.261719-.273437.40625-.164063.144531-.261719.261719-.320313.328125-.046875.078125-.203125.988281-.472656 2.738281-.222656 1.496094-.53125 2.226563-.925781 2.179688-.195313 0-.339844-.0625-.421875-.1875-.085938-.132813-.210938-.1875-.355469-.1875-.292969-.027344-1.105469-.011719-2.425781.035156.019531.078125.25.296875.695312.667969.445313.367187.667969.570312.667969.628906 0 .046875-.027344.113281-.0625.199219-.03125.082031-.050781.148437-.050781.207031v4.71875c0 .222656-.117188.582031-.355469 1.089844-.230469.503906-.4375.820312-.605469.941406-.144531-.121094-.320312-.347656-.515625-.683594-.195312-.332031-.398437-.585937-.585937-.753906-.667969-.496094-1.421875-.921875-2.257813-1.296875.101563-.144531.167969-.214844.226563-.214844.265625 0 .664062.101563 1.191406.308594.53125.214844.921875.3125 1.167969.3125.34375 0 .515625-.230469.515625-.699219l.113281-3.503906c.019531-.25-.144531-.578125-.519531-.996094-.25-.296875-.5-.585937-.777344-.890625-.691406-.019531-1.347656-.015625-1.996094.042969-.066406.097656-.144531.199219-.21875.3125-.070312.109375-.1875.152344-.332031.128906-.535156-.050781-.8125-.945312-.8125-2.695312 0-.167969 0-.429688 0-.777344 0-.34375 0-.59375 0-.769531 0-1.351563-.144531-2.179688-.441406-2.46875l-3.390625 2.359375c-.121094-.054688-.183594-.136719-.183594-.261719 1.894531-1.625 3.28125-2.910156 4.160156-3.878906 1.261719-1.351563 2.355469-2.890625 3.292969-4.605469-.058594-.058594-.089844-.078125-.113281-.078125h-.148438c-.8125-.046875-1.570312.019531-2.285156.222656-.8125.199219-1.199219.308594-1.140625.328125-.449219-.046875-1.136719-.632812-2.074219-1.769531l.261719-.109375c.515625.371094 1 .566406 1.4375.59375.152344.019531 1.582031-.015625 4.324219-.113281.066406-.09375.210937-.46875.421875-1.105469.203125-.640625.3125-1.035156.3125-1.183594.019531-.164062-.085938-.425781-.3125-.773437-.242188-.34375-.4375-.554688-.609375-.625l.109375-.261719c1.867187.464844 2.78125.996094 2.726562 1.582031-.164062.15625-.367187.351563-.585937.59375-.148438.375-.355469.902344-.632813 1.585938.03125.03125.09375.054687.183594.078125 1.332031.097656 2.707031.019531 4.140625-.226563.09375-.019531.28125-.101562.566406-.234375.28125-.140625.453125-.207031.5-.207031.246094.019531.671875.160156 1.292969.410156.613281.257813.90625.480469.886719.667969 0 .144531-.511719.238281-1.511719.285156-.058594 0-1.734375.015625-5.0625.039063l-.105469.078125 3.242188 3.6875c.175781-.148438.535156-.523438 1.085937-1.125.5625-.601563.84375-.953125.875-1.054688 0-.125-.113281-.351562-.335937-.695312l.15625-.261719c.488281.222656 1.1875.644531 2.097656 1.253906l-.035156.335938c-.21875.019531-.546875.113281-.984375.257812-.324219.148438-1.121094.6875-2.414063 1.625 2.230469 2.039063 4.3125 3.5625 6.277344 4.570313zm-15.796875-4.726563c-.027344.277344-.171875.402344-.4375.371094-.566406-.046875-1.40625-1.042969-2.515625-2.984375.644531.316406 1.265625.640625 1.886719.957031.757812.46875 1.117187 1.023438 1.066406 1.65625zm12.769531 14.585938c0 .460937-.140625.695312-.40625.695312-.269531 0-.59375-.207031-.957031-.628906-2.339844-2.75-3.511719-4.140625-3.511719-4.171875 0-.089844.054688-.183594.152344-.25.980469.589844 1.953125 1.175781 2.910156 1.769531 1.203125.8125 1.8125 1.671875 1.8125 2.585938zm-11.515625-3.136719s-.015625.019531-.035156.066406c-1.527344 1.605469-3.199219 2.96875-5.019531 4.101563l-.257813-.261719c2.261719-2.167969 3.402344-3.558594 3.429688-4.167969l-.4375-1 .066406-.21875c1.503906.542969 2.253906 1.03125 2.253906 1.480469zm6.164063-6.125.144531-1.738281c-.292969-.320313-.488281-.46875-.589844-.4375l-6.046875.289062c0 .464844.03125 1.164063.105469 2.101563zm0 .769531-6.273438.1875v2.0625l.449219.039063c1.675781.144531 3.527344.035156 5.527344-.328125.078125-.746094.175781-1.398438.296875-1.960938zm0 0"/></svg>