<svg height="40" viewBox="0 0 40 40" width="40" xmlns="http://www.w3.org/2000/svg"><path d="m30.511719 18.359375c0 .121094-.136719.214844-.402344.292969-.550781.160156-1.332031.304687-2.34375.425781-1.355469.152344-2.171875.246094-2.453125.292969.238281.117187.578125.316406 1.003906.578125-.238281 1.273437-.359375 1.960937-.359375 2.054687 0 0 .011719.171875.039063.507813.257812 0 .632812-.089844 1.113281-.265625.484375-.183594.75-.273438.796875-.273438.171875 0 .457031.058594.871094.195313.40625.132812.660156.25.757812.34375-.296875.285156-.929687.519531-1.914062.6875-.992188.171875-1.574219.359375-1.773438.570312l-.144531 5.890625c0 .625-.1875 1.136719-.578125 1.515625-.308594-.140625-.46875-.492187-.46875-1.050781v-6.277344c-.28125.023438-.722656.121094-1.328125.289063-.589844.171875-1.046875.253906-1.355469.253906-.238281 0-.878906-.375-1.898437-1.121094l.066406-.289062c.984375.289062 1.496094.429687 1.542969.429687.332031 0 1.328125-.210937 2.972656-.648437v-3.210938l-.109375-.113281-3.496094.449219c-.238281.050781-.59375-.109375-1.050781-.484375-.457031-.386719-.769531-.695313-.9375-.933594.066406-.074219.15625-.109375.246094-.109375.03125 0 .242187.089844.640625.265625.394531.183594.675781.265625.847656.246094l2.453125-.296875c-.265625-.382813-.46875-1.058594-.59375-2.027344-.136719-.957031-.34375-1.640625-.640625-2.050781-.121094-.148438-.359375-.339844-.734375-.578125-.375-.242188-.628906-.460938-.78125-.652344.078125-.046875.160156-.066406.253906-.066406.167969 0 .417969.054687.730469.175781.324219.121094.558594.183594.707031.183594.636719 0 1.460938-.121094 2.464844-.359375v-2.492188c0-.242187-.171875-.523437-.511719-.847656-.34375-.332031-.632812-.527344-.894531-.597656.191406-.289063.566406-.4375 1.113281-.4375.273438 0 .640625.117187 1.125.359375.480469.25.726563.472656.726563.691406 0 .074219-.046875.1875-.132813.34375-.082031.15625-.125.269531-.125.339844v2.382812c.023438.054688.074219.074219.140625.074219.273438 0 .652344-.082031 1.15625-.253906.511719-.167969.886719-.257813 1.125-.257813.671875 0 1.140625.136719 1.402344.402344v.328125c-.359375.238281-1.15625.457031-2.375.644531.359375.171875.734375.460938 1.113281.871094-.988281 1.855469-1.515625 2.988281-1.585937 3.425781.21875-.046875.613281-.171875 1.191406-.375.578125-.207031.875-.304687.902344-.304687.171875 0 .453125.097656.867187.304687.402344.203125.617188.390625.617188.558594zm-10.1875-6.5s-.085938.144531-.25.425781c-.246094.371094-.429688.851563-.546875 1.449219-.429688 2.238281-.839844 3.363281-1.21875 3.363281-.101563 0-.230469-.023437-.386719-.0625-.15625-.03125-.285156-.050781-.375-.050781-.457031 0-1.125.082031-1.988281.253906-.671875.121094-1.335938.257813-1.984375.398438-.121094.359375-.421875 1.429687-.902344 3.210937.71875.195313 1.042969.292969.972656.292969.386719 0 1.148438-.207031 2.289063-.628906 1.148437-.429688 1.78125-.636719 1.898437-.636719.195313 0 .476563.121094.835938.359375s.535156.441406.535156.613281c0 .042969-.066406.179688-.191406.414063-.136719.222656-.21875.359375-.242188.410156-.117187.40625-.222656 1.035156-.320312 1.886719-.101563.84375-.21875 1.472656-.359375 1.878906-.152344.40625-.292969.625-.4375.644531.144531 0-.101563 0-.71875 0-.339844 0-.917969.195313-1.734375.578125-.820313.390625-1.265625.714844-1.335938.976563-.050781.050781-.128906.078125-.21875.078125-.148437 0-.273437-.136719-.394531-.402344-.21875-.621094-.386719-1.589844-.488281-2.886719-.109375-1.296875-.246094-2.242187-.421875-2.820312-.402344.773437-.804688 1.550781-1.183594 2.347656-.488281.847656-1.035156 1.550781-1.667969 2.128906 1.996094-3.921875 3-8.109375 3-12.5625 0-.984375-.425781-1.753906-1.265625-2.3125.023438-.191406.085938-.285156.179688-.285156.195312 0 .59375.183594 1.191406.558594.605469.375.917969.5625.9375.5625.246094 0 .996094-.101563 2.246094-.292969 1.253906-.1875 1.972656-.324219 2.160156-.402344.074219-.019531.222656-.125.457031-.304687.226563-.179688.367188-.273438.414063-.273438.191406 0 .492187.148438.898437.421875.414063.277344.617188.496094.617188.667969zm6.679687 3.03125c0-.121094-.101562-.296875-.304687-.542969-.203125-.238281-.367188-.347656-.484375-.316406l-3.621094.386719c1.015625 1.644531 1.527344 2.519531 1.527344 2.640625 0 .40625-.121094.925781-.359375 1.554687.5-.097656 1.296875-.179687 2.375-.253906.578125-1.78125.867187-2.9375.867187-3.46875zm-8.632812-2.269531c-.042969-.121094-.199219-.273438-.464844-.4375l-3.902344.578125-.359375 4.003906 4.152344-.792969zm-1.011719 10.070312v-1.515625l-3.609375.9375.25 3.902344 3.074219-.972656c0-.152344.050781-.53125.164062-1.15625.085938-.492188.121094-.875.121094-1.195313zm0 0"/></svg>