<svg height="40" viewBox="0 0 40 40" width="40" xmlns="http://www.w3.org/2000/svg"><path d="m26.363281 14.503906c0 .320313-.125.476563-.367187.476563-.054688 0-.6875-.445313-1.917969-1.320313-1.296875-.890625-2.113281-1.363281-2.457031-1.4375l.066406-.257812c.957031.21875 1.917969.441406 2.875.664062 1.199219.367188 1.800781.992188 1.800781 1.875zm3.636719 16.105469-.109375.328125c-.6875.097656-1.285156.15625-1.800781.15625h-2.429688c-.609375-.519531-1.863281-1.703125-3.75-3.566406-1.546875-1.546875-2.859375-2.667969-3.9375-3.351563l-2.09375 1.804688c.226563.242187.328125.695312.328125 1.363281 0 .246094-.007812.59375-.050781 1.058594-.035156.46875-.050781.828125-.050781 1.070312 0 .367188.03125.65625.101562.875l4.890625-2.785156.15625.183594-5.488281 5.035156c-.1875-.019531-.386719-.265625-.589844-.734375-.1875-.394531-.285156-.703125-.285156-.921875 0-.316406.050781-.796875.160156-1.433594.117188-.640625.167969-1.113281.167969-1.429687 0-.8125-.0625-1.324219-.183594-1.546875-1.273437.976562-2.921875 1.960937-4.925781 2.941406l-.109375-.261719c1.765625-1.222656 3.03125-2.175781 3.816406-2.863281 1.355469-1.152344 2.40625-2.324219 3.167969-3.5 0 0-.671875.175781-2.027344.519531-1 .246094-1.648437.367188-1.945312.367188-.195313 0-.796875-.417969-1.804688-1.25l.117188-.226563c.734375.277344 1.175781.402344 1.320312.375l4.195313-.585937v-1.734375c-.125-.070313-.261719-.105469-.40625-.105469-.121094 0-.28125.015625-.480469.050781-.191406.039063-.34375.054688-.4375.054688-.222656 0-.503906-.121094-.847656-.367188-.246094-.195312-.507813-.390625-.773438-.585937l.148438-.261719c.539062.152344.785156.222656.734375.222656h2.0625v-1.832031c-.078125-.078125-.199219-.113281-.371094-.113281-.097656 0-.265625.019531-.496094.070312-.234375.046875-.410156.074219-.535156.074219-.363281 0-.84375-.332031-1.433594-.996094l.140625-.210937c.257813.085937.71875.203125 1.402344.328125h1.292969v-1.074219c0-.167969-.109375-.378906-.3125-.640625-.210938-.261719-.390625-.410156-.539063-.457031l-4.039062 2.242187-.078125-.253906c2.742187-2.0625 4.117187-3.285156 4.117187-3.683594 0-.554687-.207031-.894531-.625-.992187l-1.175781.21875c-.957031-.289063-1.785156-.8125-2.5-1.578125l.261719-.257813c.878906.539063 1.550781.78125 2.015625.734375l4.742187-.546875v-2.0625c-.390625-.46875-.851562-.816406-1.394531-1.0625l.332031-.191406c.414063 0 .945313.097656 1.585938.296875.753906.222656 1.132812.484375 1.132812.769531 0-.097656-.101562.148438-.328125.734375-.070312.226563-.113281.6875-.113281 1.402344.058594.03125.125.035156.222656.035156 1.25 0 2.414063-.109375 3.492188-.328125.078125-.019531.226562-.09375.46875-.207031.226562-.105469.378906-.15625.457031-.15625.167969 0 .578125.136719 1.230469.417969.644531.28125 1.003906.5 1.082031.640625-.046875.078125-.199219.160156-.441406.257812-.246094.101563-.414063.148438-.511719.148438-1.71875-.101563-2.578125-.148438-2.578125-.148438-2.230469 0-4.699219.246094-7.390625.734375.34375.226563.703125.445313 1.066406.667969.542969.34375.808594.574219.808594.691406 0 .15625-.480469.542969-1.433594 1.179688.417969.125.96875.421875 1.65625.882812-.148437.734375-.222656 1.042969-.222656.917969 0 .199219.0625.34375.1875.441406.707031-.117187 1.75-.300781 3.125-.546875v-1.289062c0-.148438-.105469-.371094-.292969-.65625-.195312-.304688-.359375-.5-.484375-.589844l.109375-.222656c1.496094.410156 2.246094.78125 2.246094 1.097656-.144531.371094-.308594.765625-.472656 1.175781l.03125.226563c1.007812-.199219 1.398437-.292969 1.175781-.292969.152344 0 .390625.09375.71875.277344.332031.179687.496094.332031.496094.457031 0 .167969-.351563.292969-1.0625.363281-.445313.027344-.886719.046875-1.328125.078125-.023438.09375-.03125.695313-.03125 1.804688.144531 0 .351562-.054688.617187-.152344.277344-.097656.480469-.144531.625-.144531.148438 0 .402344.09375.761719.273437.347656.183594.53125.335938.53125.460938 0 .195312-.363281.332031-1.105469.398437-.46875.027344-.929687.058594-1.398437.078125-.023438.101563-.03125.757813-.03125 1.984375.046875.046875.128906.074219.253906.074219.953125 0 1.640625-.046875 2.0625-.144531.066406 0 .234375-.046875.496094-.148438.25-.097656.410156-.144531.457031-.144531.324219 0 .785156.066406 1.394531.222656.714844.214844 1.0625.429688 1.0625.617188 0 .242187-.210937.375-.65625.375-3.015625 0-5.976562.191406-8.898437.585937.34375.414063.515625.617188.515625.589844 0 .046875-.1875.207031-.554688.472656l2.5 1.699219c1.867188-1.109375 2.796875-1.816406 2.796875-2.140625 0-.144531-.109375-.363281-.332031-.65625.046875-.050781.125-.078125.222656-.078125.148438 0 .507813.199219 1.0625.589844.5625.390625.851563.648437.851563.769531 0 .058594-.101563.125-.292969.222656-.886719.320313-2.1875.851563-3.90625 1.578125 2.921875 2.53125 5.832031 4.117188 8.71875 4.746094zm-8.859375-11.839844v-1.910156c-.277344-.019531-.40625-.03125-.40625-.03125l-2.796875.527344v1.859375h.480469zm0 2.757813v-1.839844c-.269531-.011719-.40625-.015625-.40625-.015625l-2.796875.488281v1.882813zm0 0"/></svg>