<svg height="40" viewBox="0 0 40 40" width="40" xmlns="http://www.w3.org/2000/svg"><path d="m24.859375 8.890625c-1.046875 1.261719-1.878906 2.246094-2.496094 2.949219-1.445312 1.660156-2.320312 2.5-2.628906 2.523437l-.238281-.144531c.484375-.605469 1.128906-1.515625 1.921875-2.734375.941406-1.449219 1.410156-2.339844 1.410156-2.667969 0-.140625-.105469-.304687-.316406-.488281-.210938-.1875-.402344-.292969-.558594-.316406l.097656-.28125h.492188c.257812 0 .710937.144531 1.351562.4375.648438.289062.964844.535156.964844.722656zm-7.824219 4.175781c0 .53125-.164062.804688-.492187.804688-.398438 0-1.421875-1.664063-3.089844-4.980469l.246094-.144531c1.078125.800781 1.8125 1.40625 2.210937 1.828125.746094.796875 1.125 1.628906 1.125 2.492187zm8.882813 2.734375c0 .023438-.132813.15625-.386719.386719-.285156.984375-.578125 1.96875-.878906 2.949219-.492188 1.546875-.890625 2.316406-1.195313 2.316406-.1875 0-.457031-.265625-.804687-.808594-1.21875.09375-2.4375.1875-3.65625.289063-1.75.132812-2.886719.300781-3.402344.484375-.046875.023437-.15625.097656-.316406.210937-.15625.117188-.304688.179688-.421875.179688-.539063 0-.867188-.476563-.984375-1.421875-.117188-.953125-.21875-1.90625-.3125-2.859375-.1875-1.148438-.570313-1.886719-1.164063-2.214844.027344-.1875.109375-.28125.25-.28125.214844 0 .507813.078125.875.246094.382813.160156.65625.242187.84375.242187h.070313l.320312-.03125 1.261719-.109375c1.496094-.113281 3.746094-.304687 6.738281-.5625.148438-.019531.355469-.078125.648438-.171875.300781-.097656.523437-.140625.6875-.140625.1875 0 .535156.179688 1.054687.527344.511719.347656.773438.609375.773438.769531zm3.96875 15.585938c0 .59375-1.417969.882812-4.242188.882812-3.5625 0-5.347656-.613281-5.347656-1.832031v-7.089844c0-.09375-.269531-.554687-.800781-1.40625l.207031-.238281c.355469 0 .800781.183594 1.363281.542969.5625.363281.851563.695312.851563 1.003906 0 .113281-.054688.234375-.15625.347656-.09375.117188-.164063.21875-.183594.3125-.171875.914063-.261719 2.808594-.261719 5.6875 0 .726563.277344 1.183594.839844 1.371094.207031.066406.800781.105469 1.753906.105469 1.96875 0 3.152344-.214844 3.546875-.636719.304688-.296875.621094-1.511719.949219-3.609375h.246094c.046875 1.308594.195312 2.40625.445312 3.296875.023438.09375.15625.269531.40625.527344.25.257812.382813.5.382813.734375zm-11.414063-7.75c-.46875.800781-1.179687 1.984375-2.144531 3.554687-1.472656 2.402344-3.519531 4.085938-6.140625 5.078125l-.074219-.210937c1.152344-.589844 2.492188-1.839844 4.007813-3.734375 1.585937-2.023438 2.382812-3.609375 2.382812-4.757813 0-.375-.253906-.738281-.765625-1.09375.117188-.164062.277344-.242187.484375-.242187.28125 0 .726563.171875 1.339844.523437.605469.355469.910156.648438.910156.882813zm5.761719-7.730469-.671875-.386719-9.09375.808594.671875 4.316406 7.4375-.835937h.769531c.382813-1.664063.671875-2.964844.886719-3.902344zm0 0"/></svg>