<svg height="40" viewBox="0 0 40 40" width="40" xmlns="http://www.w3.org/2000/svg"><path d="m27.761719 28.183594c0 .796875-.195313 1.1875-.5625 1.1875-.234375 0-.601563-.40625-1.09375-1.226563-.277344-.539062-.5625-1.085937-.839844-1.648437-4.753906.835937-8.003906 1.648437-9.753906 2.421875-.101563.046875-.292969.207031-.601563.472656-.304687.269531-.46875.402344-.492187.402344-.355469 0-.78125-.367188-1.304688-1.085938-.441406-.632812-.734375-1.175781-.875-1.617187.074219-.046875.171875-.070313.289063-.070313 0 0 .203125.148438.613281.4375.40625.292969.691406.433594.859375.402344l5.265625-.949219v-4.101562c-.59375.050781-1.667969.210937-3.21875.492187-.234375.585938-.457031.875-.671875.875-.113281 0-.28125-.132812-.511719-.398437-.222656-.273438-.347656-.476563-.367187-.621094-.09375-.769531-.1875-1.550781-.289063-2.347656-.113281-.886719-.425781-1.589844-.945312-2.105469v-.3125c.507812.277344 1.007812.410156 1.472656.410156.394531 0 1.183594-.082031 2.347656-.273437 1.171875-.1875 1.898438-.351563 2.183594-.492188v-1.71875c0-.1875-.183594-.53125-.546875-1.035156-.363281-.5-.628906-.734375-.792969-.683594-2.59375.445313-3.976562.65625-4.140625.625v-.382812c2.203125-.585938 3.804688-1.039063 4.808594-1.367188 1.753906-.5625 3.285156-1.21875 4.597656-1.96875-.019531-.140625-.09375-.328125-.207031-.5625-.121094-.234375-.160156-.476562-.140625-.734375 1.707031.730469 2.558594 1.351563 2.558594 1.859375 0 .234375-.121094.386719-.386719.460938-.347656.066406-.890625.210937-1.609375.421875-.984375.320312-2.457031.800781-4.425781 1.4375.019531.019531.40625.253906 1.160156.695312.582031.375.875.65625.875.851563 0 .019531-.082031.21875-.246094.597656-.164062.371094-.242187.738281-.242187 1.121094 0 .085937.015625.160156.035156.203125.816406-.085938 1.972656-.3125 3.488281-.664063.046875-.019531.140625-.078125.28125-.175781.136719-.09375.242188-.136719.3125-.136719.09375 0 .445313.152344 1.046875.453125.609375.304688.980469.5 1.121094.59375-.140625.195313-.328125.492188-.558594.914063-.164062.679687-.328125 1.359375-.488281 2.035156-.253906 1.078125-.511719 1.621094-.765625 1.621094-.15625 0-.332031-.089844-.515625-.265625-.1875-.171875-.308594-.261719-.347656-.261719-.632813 0-1.898438.214844-3.824219.625l-.136719 4.21875c1.261719-.097656 2.851563-.34375 4.777344-.738281-.265625-.402344-.792969-1.078125-1.582031-2.03125.019531-.195313.078125-.289063.171875-.289063.117187 0 .398437.179688.847656.527344 1.332031.984375 2.042969 1.535156 2.136719 1.65625.820312.738281 1.234375 1.496094 1.234375 2.246094zm-3.058594-9.65625c.019531-.09375-.058594-.183594-.25-.261719-.183594-.082031-.3125-.125-.386719-.125l-3.578125.527344-.175781 2.976562 3.863281-.519531zm-5.4375 3.40625v-2.953125l-3.96875.632812.421875 2.84375zm0 0"/></svg>