<svg height="40" viewBox="0 0 40 40" width="40" xmlns="http://www.w3.org/2000/svg"><path d="m28.808594 27.4375c-.0625.144531-.152344.214844-.242188.214844-.765625 0-1.960937-.273438-3.585937-.804688-.839844-1.15625-1.664063-2.296875-2.46875-3.441406-.980469-1.292969-1.886719-2.363281-2.726563-3.230469v3.652344c0 1.535156-.15625 3.003906-.484375 4.378906-.519531 2.070313-1.289062 3.09375-2.320312 3.09375-.230469 0-.40625-.269531-.523438-.804687-.265625-.328125-1.117187-.929688-2.566406-1.789063l.109375-.25c1.496094.402344 2.394531.601563 2.699219.601563.769531 0 1.347656-.8125 1.71875-2.421875.234375-1.027344.347656-2.167969.347656-3.40625 0 0-.003906-.730469-.027344-2.179688-2.203125 1.828125-4.679687 3.25-7.445312 4.289063l-.101563-.25c2.617188-1.375 5.109375-3.195313 7.476563-5.4375-.09375-.496094-.292969-1.21875-.601563-2.183594-1.472656.941406-2.550781 1.582031-3.226562 1.933594-1.21875.675781-2.367188 1.179687-3.4375 1.507812l-.039063-.25c.746094-.390625 1.871094-1.066406 3.371094-2.03125 1.824219-1.164062 2.734375-1.894531 2.734375-2.171875 0-.378906-.621094-1.085937-1.859375-2.144531l-4.207031 1.824219-.109375-.242188c3.816406-2.273437 5.722656-3.691406 5.722656-4.25 0-.117187-.042969-.296875-.121094-.523437-.082031-.234375-.171875-.355469-.265625-.355469-.234375 0-.675781.082031-1.332031.25-.65625.160156-.96875.238281-.949219.238281-.304687 0-.695312-.160156-1.171875-.488281-.484375-.328125-.832031-.628906-1.035156-.910156l.136719-.246094c.65625.371094 1.265625.5625 1.820312.5625.355469 0 1.5625-.144531 3.621094-.4375s3.234375-.488281 3.542969-.582031c.070312-.027344.226562-.105469.472656-.246094.25-.136719.394531-.207031.4375-.207031.636719 0 1.371094.242187 2.21875.734375v.175781c-.285156.136719-1.371094.34375-3.265625.597656-1.175781.136719-2.34375.292969-3.511719.449219.324219.246094.652344.472656.980469.707031.515625.375.769531.648438.769531.804688 0 .144531-.148437.25-.453125.320312-.207031.042969-.421875.09375-.628906.140625-.285156.117188-1.03125.585938-2.25 1.40625 1.640625.933594 2.785156 2.214844 3.441406 3.855469 3.15625-1.9375 4.742188-3.050781 4.742188-3.328125 0-.140625-.296875-.4375-.882813-.886719.117188-.160156.246094-.238281.386719-.238281.308594 0 .859375.199219 1.671875.597656.808594.390625 1.207031.710938 1.207031.949219-.019531.019531-.054687.042969-.109375.0625-.253906.140625-.800781.425781-1.644531.847656-2.015625.984375-3.753906 1.804688-5.230469 2.460938-.019531.253906.015625.59375.101563 1.007812.117187.195313.863281.914063 2.21875 2.183594 1.09375 1.046875 2.191406 2.09375 3.296875 3.121094 1.289062 1.195312 2.476562 2.117187 3.578125 2.769531zm0 0"/></svg>