<svg height="40" viewBox="0 0 40 40" width="40" xmlns="http://www.w3.org/2000/svg"><path d="m17.59375 12.628906c0 .398438-.078125.667969-.238281.804688-.054688 0-.109375 0-.179688 0-.257812 0-.53125-.199219-.804687-.589844-.140625-.265625-.367188-.636719-.671875-1.125-.46875-.75-1.246094-1.75-2.351563-2.988281l.277344-.136719c.402344.1875.925781.464844 1.582031.84375.914063.53125 1.492188.949219 1.726563 1.222656.441406.46875.660156 1.125.660156 1.96875zm16.183594 7.375c0 .390625-.585938.589844-1.75.589844-5.921875.050781-10.914063.378906-14.960938.984375.140625.214844.328125.542969.5625.984375-.769531.5625-1.660156 1.394531-2.664062 2.496094-1.382813 1.472656-2.226563 2.363281-2.527344 2.664062-2.109375 1.984375-4.171875 3.40625-6.183594 4.246094l-.03125-.246094c1.75-1.125 3.480469-2.601562 5.179688-4.441406 1.691406-1.828125 3.070312-3.675781 4.117187-5.527344-.390625.074219-1.367187.320313-2.925781.757813-1.558594.429687-2.359375.648437-2.402344.648437-.5625 0-1.253906-.238281-2.070312-.722656-.824219-.480469-1.328125-.957031-1.511719-1.457031l.28125-.101563c1.191406.492188 2.027344.714844 2.488281.664063h.140625l10.21875-1.4375v-2.210938c-.046875-.019531-.109375-.035156-.175781-.035156-1.003906 0-2.09375.160156-3.265625.488281l-1.785156.53125c-.265625 0-.761719-.210937-1.496094-.632812-.738281-.421875-1.109375-.75-1.109375-.984375 0-.042969.035156-.117188.109375-.210938 1.3125.375 2.046875.554688 2.207031.523438l5.515625-.765625v-1.15625c0-.09375-.15625-.402344-.460937-.914063-1.007813.164063-2.523438.4375-4.558594.839844-.824219.1875-1.246094.28125-1.265625.28125-.214844 0-.621094-.253906-1.222656-.753906-.617188-.507813-.917969-.859375-.917969-1.074219l.175781-.277344c.726563.445313 1.4375.664063 2.136719.664063.050781 0 1.300781-.164063 3.753906-.492188 1.242188-.164062 3.117188-.421875 5.625-.769531.234375-.308594.699219-1 1.402344-2.09375.699219-1.082031 1.058594-1.683594 1.058594-1.800781 0-.304688-.289063-.621094-.851563-.949219l.105469-.28125h.597656c.304688 0 .789063.222656 1.445313.683594.65625.460937.972656.828125.972656 1.109375-.582031.328125-1.238281.832031-1.957031 1.507812-.585938.585938-1.183594 1.167969-1.796875 1.75.304687-.019531.800781-.109375 1.492187-.257812.695313-.15625 1.195313-.230469 1.496094-.230469s.6875.082031 1.15625.238281c.589844.183594.878906.375.878906.585938 0 .363281-.578125.570312-1.71875.613281-.613281 0-1.234375 0-1.859375 0-.941406.09375-2.34375.222656-4.21875.386719v2.28125h.179688c1.800781 0 3.066406-.09375 3.789062-.277344.074219-.027344.21875-.09375.4375-.207031.226563-.121094.398438-.179688.511719-.179688.285156 0 .699219.09375 1.246094.296875.546875.199219.828125.402344.828125.601563 0 .3125-.546875.484375-1.652344.503906-.675781 0-1.347656 0-2.003906 0-.746094.074219-1.859375.167969-3.335938.28125v2.25c1.78125-.144531 4.460938-.363281 8.039063-.671875.144531-.019531.375-.09375.6875-.230469.320312-.128906.546875-.1875.6875-.1875.398437 0 .992187.117188 1.789062.351563.914063.253906 1.367188.507812 1.367188.773437zm0 0"/></svg>