<svg height="40" viewBox="0 0 40 40" width="40" xmlns="http://www.w3.org/2000/svg"><path d="m26.597656 12.277344c0 .070312-.019531.132812-.070312.175781-.839844.347656-1.515625.714844-2.039063 1.089844-1.3125 1.003906-2.410156 1.8125-3.289062 2.414062-.054688-.019531-.136719-.082031-.25-.203125 2.5-2.550781 3.753906-3.898437 3.753906-4.035156 0-.191406-.269531-.449219-.808594-.777344v-.210937h.246094c.160156 0 .605469.191406 1.332031.5625.757813.445312 1.125.773437 1.125.984375zm-3.019531-2.808594c-.75.394531-2.105469.871094-4.074219 1.402344-2.171875.5625-3.800781.847656-4.878906.847656h-.527344v-.175781c1.59375-.375 2.765625-.695313 3.515625-.949219 1.328125-.421875 2.515625-.964844 3.546875-1.613281.042969-.09375-.007812-.242188-.160156-.421875-.15625-.1875-.285156-.308594-.402344-.351563.042969-.144531.136719-.210937.277344-.210937.65625 0 1.183594.117187 1.582031.351562.328125.1875.699219.558594 1.121094 1.121094zm-3.890625 4.953125c0 .347656-.074219.597656-.214844.734375-.304687.046875-.515625-.035156-.632812-.246094-1.027344-1.894531-1.542969-2.878906-1.542969-2.945312 0 .019531.035156-.058594.109375-.246094.582031.421875 1.167969.84375 1.75 1.261719.347656.328125.53125.804687.53125 1.441406zm-3.550781 1.363281c0 .421875-.140625.636719-.417969.636719-.113281 0-.4375-.328125-.949219-.984375-.789062-1.03125-1.425781-1.800781-1.894531-2.3125v-.214844c.703125.351563 1.402344.703125 2.109375 1.054688.765625.515625 1.152344 1.117187 1.152344 1.820312zm12.882812 7.023438c0 .285156-.1875.421875-.5625.421875l-2.664062-.246094-4.570313.109375c.167969.410156.324219.839844.460938 1.261719.160156.515625.25 1.164062.25 1.96875 0 1.984375-.515625 3.644531-1.546875 4.976562-.351563.46875-.679688.703125-.984375.703125-.164063 0-.277344-.066406-.351563-.210937-.140625-.296875-.441406-.734375-.910156-1.296875-.5625-.511719-1.371094-1.03125-2.421875-1.542969 0-.046875.03125-.128906.105469-.246094.65625.257813 1.328125.527344 2.019531.808594.691406.277344 1.191406.417969 1.519531.417969.523438 0 .929688-.476563 1.234375-1.4375.234375-.699219.351563-1.390625.351563-2.074219 0-1.214844-.25-2.28125-.734375-3.191406-.308594.046875-.710938.101562-1.199219.175781-1.078125.113281-2.675781.363281-4.808594.734375-.070312 0-.1875.082031-.351562.230469-.164063.148437-.3125.226562-.453125.226562-.328125 0-.765625-.226562-1.320313-.703125-.546875-.46875-.921875-.898437-1.101562-1.300781.039062-.019531.101562-.035156.175781-.035156-.074219 0 .109375.132812.535156.390625.4375.257812.890625.382812 1.359375.382812l6.949219-.800781c-.167969-.675781-.796875-1.46875-1.894531-2.355469.019531-.046875.054687-.132812.101562-.25.355469.03125.65625.148438.917969.359375 1.535156-1.066406 2.792969-2.035156 3.753906-2.910156l-.003906-.324219c-.796875.148438-1.746094.34375-2.84375.585938-1.613281.335937-2.78125.609375-3.511719.816406-.09375.019531-.242187.105469-.472656.25-.21875.136719-.34375.207031-.363281.207031-.234375 0-.570313-.179687-1-.546875-.4375-.363281-.699219-.664062-.792969-.921875.09375-.070312.167969-.109375.207031-.109375-.019531 0 .140625.058594.476563.171875.34375.121094.648437.179688.9375.179688-.054688 0 .566406-.121094 1.859375-.351563.789062-.117187 2.125-.363281 4-.738281 1.65625-.347656 2.5-.527344 2.523437-.527344.136719 0 .480469.15625 1.023438.453125.535156.308594.804687.53125.804687.671875 0 .164063-.078125.261719-.234375.296875-.148437.039063-.304687.070313-.472656.089844-.042969.019531-.421875.214844-1.121094.5625-.539062.308594-2.050781 1.089844-4.53125 2.347656.824219.75 1.351563 1.40625 1.585938 1.96875 1.050781-.085937 2.609375-.226562 4.664062-.421875.1875-.023437.367188-.101562.527344-.226562.167969-.132813.261719-.199219.28125-.199219.253906 0 .722656.136719 1.402344.390625.796875.28125 1.195312.550781 1.195312.808594zm0 0"/></svg>