<svg height="40" viewBox="0 0 40 40" width="40" xmlns="http://www.w3.org/2000/svg"><path d="m31.234375 21.457031c0 .296875-.328125.480469-.984375.527344-.394531 0-.800781 0-1.222656 0 0 0-.949219.074219-2.84375.207031v3.058594c0 .328125-.046875.761719-.140625 1.296875-.117188.703125-.257813 1.050781-.421875 1.050781-.234375 0-.449219-.273437-.636719-.835937-.113281-.449219-.175781-.835938-.175781-1.164063 0-.132812.050781-.347656.144531-.632812.089844-.277344.140625-.484375.140625-.632813v-1.890625c-.019531-.03125-.074219-.035156-.140625-.035156-.84375 0-2.390625.269531-4.636719.800781-.066406.03125-.296875.117188-.6875.289063-.382812.15625-.597656.242187-.644531.242187-.46875 0-1.046875-.328125-1.722656-.984375l.109375-.242187c.675781.113281 1.039062.171875 1.085937.171875.167969 0 .589844-.0625 1.28125-.210938.6875-.140625 1.105469-.242187 1.25-.316406v-2.527344c0-.445312-.175781-.816406-.53125-1.125-.375-.234375-.738281-.46875-1.085937-.695312l.070312-.320313c.773438.070313 1.261719.105469 1.476563.105469.601562 0 1.992187-.214844 4.175781-.625v-2.78125c0-.347656-.441406-.859375-1.332031-1.546875.113281-.15625.234375-.238281.347656-.238281.402344 0 .878906.144531 1.457031.4375.570313.289062.859375.613281.859375.960937 0 .09375-.039062.234375-.125.40625-.078125.179688-.117187.304688-.117187.367188v2.21875c.570312-.214844 1.15625-.417969 1.757812-.601563.171875 0 .417969.089844.757813.265625.332031.171875.5.335938.5.476563 0 .207031-.445313.390625-1.335938.554687-.5625.101563-1.125.183594-1.679687.28125v3.476563c.28125-.023438.785156-.136719 1.492187-.351563.714844-.207031 1.167969-.316406 1.355469-.316406.308594 0 .722656.082031 1.246094.246094.632812.210937.957031.421875.957031.632812zm-12.042969-4.878906c0 .140625-.125.328125-.382812.5625-.328125.277344-.511719.46875-.5625.5625-.421875.796875-.839844 1.605469-1.261719 2.421875-.515625.910156-1.019531 1.683594-1.511719 2.316406-.65625.820313-1.332031 1.554688-2.03125 2.210938-.351562.328125-1.082031.875-2.179687 1.648437-1.21875.867188-1.953125 1.296875-2.210938 1.296875-.09375 0-.191406-.046875-.285156-.140625.496094-.234375 1.613281-1.179687 3.355469-2.84375 1.742187-1.660156 2.617187-2.664062 2.617187-3.015625 0-.160156-.382812-.445312-1.160156-.847656-.636719-.316406-1.136719-.5625-1.511719-.699219-1.191406 1.023438-2.207031 1.808594-3.050781 2.355469l-.140625-.25c.605469-.402344 1.636719-1.558594 3.074219-3.46875 1.429687-1.917969 2.15625-3.15625 2.15625-3.71875 0-.167969-.074219-.347656-.226563-.546875-.15625-.199219-.300781-.378906-.4375-.546875.09375-.160156.195313-.25.3125-.25.28125 0 .730469.191406 1.351563.5625.617187.378906.929687.691406.929687.949219 0 .164062-.113281.363281-.347656.597656.234375 0 .605469-.105469 1.121094-.296875.507812-.199219.796875-.300781.835937-.300781.214844 0 .527344.195312.9375.582031.40625.386719.609375.671875.609375.859375zm5.902344 4.984375v-3.683594l-3.15625.558594c.160156.234375.238281.546875.238281.949219 0 .210937-.015625.507812-.050781.910156-.035156.394531-.050781.703125-.050781.910156 0 .257813.007812.523438.035156.777344zm-7.96875-4.769531c-.160156-.214844-.28125-.324219-.355469-.324219-1.003906 0-1.832031.324219-2.488281.949219-.582031.726562-1.167969 1.46875-1.75 2.210937.792969.046875 1.738281.367188 2.832031.949219zm0 0"/></svg>