<svg height="40" viewBox="0 0 40 40" width="40" xmlns="http://www.w3.org/2000/svg"><path d="m27.613281 11.800781c0 .402344-.117187.601563-.375.601563-.070312 0-.554687-.429688-1.445312-1.296875-1.007813-.984375-1.554688-1.511719-1.648438-1.585938l.074219-.238281c1.28125.421875 2.019531.675781 2.207031.769531.796875.398438 1.1875.980469 1.1875 1.75zm-1.257812 4.953125c0 .023438-.078125.234375-.246094.636719-.160156.390625-.246094.753906-.246094 1.082031 0 1.21875.011719 2.808594.039063 4.777344.046875 2.527344.082031 4.128906.101562 4.808594 0 .070312.023438.195312.074219.375.042969.171875.066406.300781.066406.398437 0 .230469-.109375.667969-.328125 1.320313-.226562.640625-.394531 1.054687-.507812 1.238281l-.109375.035156c-.140625 0-.328125-.160156-.5625-.488281-.164063-.234375-.328125-.457031-.492188-.671875-.347656-.410156-1.203125-1.003906-2.566406-1.75.03125-.167969.089844-.246094.183594-.246094.253906 0 .648437.09375 1.1875.28125.539062.183594.941406.28125 1.195312.28125.398438 0 .601563-.160156.601563-.488281v-3.863281c-.054688-.074219-.148438-.101563-.289063-.074219l-4.28125.246094v4.703125c0 .378906-.132812.773437-.421875 1.195312h-.347656c-.421875-.398437-.636719-1.023437-.636719-1.894531 0-.167969.042969-.40625.125-.738281.078125-.328125.125-.558594.125-.699219v-2.425781l-3.179687.316406c-.328125.027344-.714844-.078125-1.15625-.316406l-.109375.070312c0 3.324219-.308594 4.992188-.921875 4.992188-.234375 0-.40625-.292969-.53125-.886719-.089844-.417969-.140625-.800781-.140625-1.160156 0-.15625.050781-.367188.140625-.609375.09375-.25.148437-.417969.175781-.511719.238281-1.03125.355469-2.75.355469-5.15625 0-.234375-.015625-.949219-.039063-2.144531-.019531-.679688-.054687-1.136719-.109375-1.371094-.113281-.441406-.367187-.816406-.769531-1.121094l.109375-.316406c.636719.191406 1.203125.390625 1.71875.597656l4.457031-.632812v-2.558594c-.046875-.019531-.117187-.035156-.210937-.035156-.421875 0-1.136719.128906-2.15625.398437-1.015625.273438-1.679688.40625-1.984375.40625-.375 0-.8125-.222656-1.296875-.664062-.492188-.449219-.820313-.867188-.984375-1.265625l.109375-.136719c.8125.582031 1.515625.875 2.101562.875.375 0 1.132813-.066406 2.277344-.191406 1.152344-.132813 1.863281-.242188 2.144531-.335938v-2.316406c0-.253906-.15625-.609375-.453125-1.035156-.304687-.433594-.578125-.726563-.8125-.859375l.039063-.25h.207031c.238281 0 .769531.1875 1.613281.566406.84375.375 1.265625.640625 1.265625.800781-.140625.140625-.289062.324219-.453125.527344-.164062.378906-.25 1.113281-.25 2.21875v.238281c.027344.03125.074219.039063.140625.039063.402344 0 1.296875-.140625 2.703125-.421875.101563 0 .28125-.058594.5625-.195313.277344-.128906.433594-.191406.453125-.191406.289063 0 .714844.121094 1.308594.355469.675781.253906 1.011719.472656 1.011719.664062 0 .1875-.164063.28125-.492188.28125-2.503906 0-4.398437.121094-5.6875.351563v2.492187c.027344.023438.085938.03125.179688.03125.539062 0 1.546875-.125 3.019531-.382812.09375-.027344.277344-.089844.546875-.214844.265625-.113281.421875-.175781.472656-.175781.15625 0 .53125.171875 1.101563.5.578125.328125.859375.554687.859375.695312zm-1.609375 2.703125v-2.117187c-.421875-.359375-.695313-.53125-.8125-.53125l-3.757813.457031v2.621094l3.367188-.601563c.070312-.03125.460937.027344 1.203125.171875zm0 4.355469v-3.792969c-1.007813.140625-2.53125.367188-4.570313.667969v3.125l3.273438-.457031c.296875.070312.734375.222656 1.296875.457031zm-5.726563-3.871094v-2.472656l-4.421875.519531v2.121094c.417969.160156.820313.234375 1.1875.203125zm0 3.9375v-3.054687l-3.054687.359375c-.023438 0-.480469-.054688-1.367188-.148438v3.265625h1.09375s1.109375-.140625 3.328125-.421875zm0 0"/></svg>