<svg height="40" viewBox="0 0 40 40" width="40" xmlns="http://www.w3.org/2000/svg"><path d="m26.777344 15.6875c0 .113281-.074219.199219-.210938.238281-.867187.289063-2.421875 1.0625-4.664062 2.355469l-.140625-.246094 3.046875-3.085937c-.042969-.1875-.121094-.367188-.242188-.53125.070313-.089844.15625-.136719.242188-.136719.191406 0 .5625.1875 1.125.558594.5625.375.84375.65625.84375.847656zm4.984375 10.738281c-2.167969.234375-3.257813.351563-3.257813.351563-.625 0-1.984375-.9375-4.0625-2.808594-1.300781-1.238281-2.609375-2.480469-3.910156-3.722656h-.636719v4.460937c0 .445313-.140625.664063-.429687.664063-.1875 0-.382813-.257813-.5625-.773438-.171875-.507812-.273438-.890625-.273438-1.125 0-.273437.046875-.707031.125-1.273437.085938-.574219.125-1.007813.125-1.28125-3.210937 3.132812-6.726562 5.507812-10.53125 7.125l-.109375-.214844c3.308594-1.800781 6.324219-4.199219 9.058594-7.199219-.019531-.019531-.0625-.023437-.136719-.023437-1.101562 0-2.617187.253906-4.566406.769531-.042969.019531-.222656.089844-.535156.203125-.324219.121094-.527344.175781-.621094.175781-.511719 0-1.308594-.53125-2.386719-1.613281l.109375-.246094c.699219.308594 1.296875.539063 1.792969.710938l7.925781-1.023438v-3.617187c0-.117188-.085937-.289063-.257812-.511719-.183594-.21875-.328125-.328125-.449219-.328125l-4.59375.5625-.074219-.25c2.226563-.5625 3.574219-.910156 4.042969-1.046875 1.496094-.449219 2.769531-.949219 3.828125-1.511719l-.386719-.742187c.042969-.117188.101563-.179688.171875-.179688.214844 0 .65625.214844 1.339844.621094.675781.410156 1.011719.691406 1.011719.863281 0 .183594-.640625.464844-1.933594.839844-.765625.207031-1.550781.421875-2.347656.628906.398437.257813.722656.507813.984375.742188-.210938 2.203125-.320313 3.191406-.320313 2.976562v.742188c.074219.019531.152344.035156.246094.035156.355469 0 1.378906-.066406 3.074219-.199219 1.695312-.125 2.660156-.210937 2.894531-.257812.046875-.027344.1875-.085938.421875-.179688s.386719-.140625.457031-.140625c.328125 0 .835938.105469 1.511719.320313.792969.234375 1.1875.472656 1.1875.707031 0 .328125-.269531.472656-.808594.449219-1.925781-.09375-2.890625-.136719-2.890625-.136719s-1.691406.097656-5.070312.3125c2.898437 1.988281 4.597656 3.128906 5.085937 3.40625 1.992188 1.21875 3.851563 2.003906 5.578125 2.355469zm-15.621094-7.894531c0 .277344-.125.417969-.390625.417969-.296875 0-.847656-.273438-1.644531-.828125-.796875-.546875-1.199219-.976563-1.199219-1.277344 0-.074219.050781-.144531.144531-.207031.585938.253906 1.183594.507812 1.789063.769531.867187.394531 1.300781.765625 1.300781 1.125zm0 0"/></svg>