<svg height="40" viewBox="0 0 40 40" width="40" xmlns="http://www.w3.org/2000/svg"><path d="m28.074219 22.703125c-.214844.214844-.855469.339844-1.933594.390625-.722656.019531-1.453125.042969-2.171875.0625.675781.496094 1.339844.996094 1.996094 1.496094.65625.503906 1 1.140625 1.019531 1.910156v.214844c0 .441406-.152344.664062-.457031.664062-.234375 0-.480469-.171875-.734375-.53125-.195313-.273437-.367188-.5625-.527344-.835937-1.261719.210937-2.53125.429687-3.792969.664062-1.472656.261719-2.710937.554688-3.71875.882813-.117187.019531-.414062.210937-.894531.5625-.484375.347656-.753906.523437-.828125.523437-.300781 0-.546875-.503906-.734375-1.507812 1.199219-.796875 1.894531-1.765625 2.109375-2.917969-.355469-.019531-.886719.089844-1.582031.316406-.703125.234375-1.203125.355469-1.511719.355469-.347656 0-.785156-.191406-1.3125-.5625-.53125-.375-.890625-.738281-1.074219-1.089844l.277344-.347656c.777344.417969 1.347656.625 1.722656.625.402344 0 1.414063-.15625 3.054688-.484375v-8.957031c0-.136719-.515625-.914063-1.542969-2.3125l.136719-.210938c.347656.0625 1.101562.417969 2.242187 1.054688.5625-.046875 1.5625-.15625 2.992188-.320313 1.566406-.207031 2.503906-.375 2.804687-.492187.070313-.023438.214844-.140625.417969-.351563.167969-.140625.324219-.210937.457031-.210937.308594 0 .777344.09375 1.414063.285156.71875.207031 1.082031.433594 1.082031.660156 0 .265625-.128906.429688-.386719.5-.050781 0-.96875.09375-2.769531.277344-2.511719.261719-4.410156.5-5.722656.734375 0 .074219.039062.203125.125.410156.078125.195313.125.320313.125.367188v1.613281c.019531.027344.078125.03125.171875.03125.414062 0 1.160156-.066406 2.207031-.203125 1.050781-.144531 1.730469-.269531 2.035156-.386719.09375-.03125.21875-.109375.371094-.25.15625-.140625.324219-.210937.511719-.210937.300781 0 .679687.046875 1.125.140625.5625.144531.835937.304687.835937.492187 0 .328125-.289062.53125-.875.632813-2.992187.375-4.585937.554687-4.773437.554687-.492188 0-1.007813-.039062-1.546875-.132812l-.0625.171875v2.566406c.300781 0 1.101562-.078125 2.410156-.234375 1.308594-.152344 2.097656-.265625 2.375-.363281.074219-.023438.214844-.109375.433594-.246094.210937-.140625.328125-.214844.347656-.214844.285156 0 .636719.09375 1.058594.289063.421875.179687.632812.382812.632812.585937 0 .195313-.523437.367188-1.582031.53125-1.261719.121094-3.15625.355469-5.675781.703125v2.355469c.507812-.074219 1.273437-.1875 2.285156-.359375.964844-.042969 2.332031-.21875 4.121094-.519531.070312-.027344.226562-.109375.457031-.265625.234375-.152344.390625-.226563.464844-.226563.789062 0 1.59375.273438 2.390625.804688zm-3.09375 2.699219c-.492188-.765625-1.011719-1.515625-1.574219-2.246094-2.671875.378906-4.082031.636719-4.25.777344-.253906.226562-.535156.628906-.839844 1.191406-.210937.46875-.4375.925781-.671875 1.371094zm0 0"/></svg>