<svg height="40" viewBox="0 0 40 40" width="40" xmlns="http://www.w3.org/2000/svg"><path d="m23.792969 11.609375c-1.078125.488281-2.714844 1.21875-4.917969 2.171875.425781.355469.832031.71875 1.230469 1.09375.515625.449219.769531.875.769531 1.300781 0 .351563-.160156.523438-.488281.523438-.382813 0-.792969-.351563-1.261719-1.058594-.285156-.511719-.578125-1.027344-.878906-1.535156l-3.757813 1.160156-.175781-.285156c4.777344-2.058594 7.160156-3.464844 7.160156-4.214844 0-.089844-.25-.339844-.738281-.738281l.105469-.277344c.492187.121094 1.0625.347656 1.71875.703125.828125.441406 1.234375.828125 1.234375 1.15625zm-6.109375 6.140625c0 .402344-.15625.597656-.453125.597656-.214844 0-.679688-.34375-1.390625-1.035156-.710938-.691406-1.070313-1.136719-1.070313-1.347656 0-.054688.03125-.132813.105469-.25.582031.210937 1.171875.425781 1.753906.632812.703125.304688 1.054688.777344 1.054688 1.402344zm8.566406-2.808594c-1.105469.75-2.75 1.875-4.953125 3.371094 1.941406 1.988281 2.917969 3.957031 2.917969 5.902344 0 2.644531-.480469 4.421875-1.445313 5.332031-.488281.46875-.867187.703125-1.125.703125-.207031 0-.332031-.09375-.382812-.285156-.042969-.183594-.078125-.371094-.101563-.5625-.097656-.183594-.351562-.445313-.757812-.789063-.40625-.332031-.730469-.550781-.964844-.644531l.105469-.355469c.875.214844 1.53125.320313 1.953125.320313.539062 0 .945312-.507813 1.203125-1.511719.1875-.746094.269531-1.457031.25-2.136719v-.671875c-2.6875 1.992188-5.703125 3.578125-9.058594 4.777344l-.140625-.347656c1.21875-.617188 2.328125-1.234375 3.332031-1.859375.65625-.402344 1.65625-1.140625 2.992188-2.21875 1.585937-1.261719 2.382812-2.039063 2.382812-2.3125 0 0-.140625-.328125-.421875-.984375-2.945312 1.941406-5.367187 3.203125-7.265625 3.789062l-.171875-.347656c.886719-.402344 2.117188-1.097656 3.683594-2.109375 1.894531-1.238281 2.84375-2.089844 2.84375-2.5625 0-.089844-.140625-.359375-.425781-.808594-2.433594 1.246094-4.652344 2.105469-6.664063 2.601563v-.289063c.839844-.328125 2.03125-.914062 3.578125-1.785156.746094-.421875 1.890625-1.171875 3.4375-2.246094 1.828125-1.332031 2.742188-2.164062 2.742188-2.492187 0-.257813-.074219-.464844-.214844-.636719-.136719-.15625-.207031-.253906-.207031-.277344 0-.070312.035156-.164062.097656-.28125.308594 0 .839844.21875 1.597656.648438.765625.4375 1.164063.796875 1.183594 1.070312zm0 0"/></svg>