<svg height="40" viewBox="0 0 40 40" width="40" xmlns="http://www.w3.org/2000/svg"><path d="m27.347656 7.949219c0 .390625-.769531.695312-2.328125.898437-.550781.058594-2.753906.386719-6.601562.996094-1.734375.265625-2.640625.394531-2.6875.394531-.371094 0-.914063-.210937-1.621094-.632812-.605469-.34375-1.097656-.699219-1.457031-1.070313l.15625-.273437c1.8125.390625 2.738281.585937 2.765625.585937 1.816406 0 4.226562-.328125 7.234375-.984375.132812-.023437.503906-.144531 1.101562-.351562.605469-.214844.953125-.320313 1.03125-.320313.339844 0 .792969.0625 1.339844.199219.71875.15625 1.066406.34375 1.066406.558594zm.125 4.972656c0 .15625-.066406.324219-.195312.480469-.1875.238281-.296875.375-.320313.429687-.265625.742188-.523437 1.464844-.789062 2.179688-.429688 1.101562-.804688 1.660156-1.148438 1.660156-.207031 0-.425781-.074219-.648437-.222656-.226563-.136719-.339844-.214844-.339844-.214844.027344 0-.71875.113281-2.253906.355469-1.234375.15625-3.101563.476562-5.574219.953125 0 .65625-.15625.984375-.472656.984375-.609375 0-1-.746094-1.183594-2.25-.238281-2.109375-.371094-3.195313-.402344-3.246094-.097656-.285156-.445312-.5625-1.03125-.828125v-.472656c.109375.019531.496094.144531 1.152344.347656.578125.167969.910156.238281.988281.238281.292969 0 1.742188-.195312 4.351563-.585937 2.601562-.398438 4.054687-.636719 4.347656-.71875.078125-.046875.246094-.171875.488281-.371094.257813-.191406.402344-.292969.460938-.292969.3125 0 .820312.199219 1.519531.589844.699219.394531 1.050781.722656 1.050781.984375zm.789063 9.21875c0 .027344-.09375.160156-.292969.410156-.199219.257813-.3125.445313-.339844.574219-.15625 1.550781-.320312 3.113281-.472656 4.667969-.265625 2.523437-.675781 3.789062-1.222656 3.789062-.195313 0-.40625-.101562-.652344-.3125-.253906-.210937-.484375-.300781-.699219-.273437l-9.640625 1.023437c.023438.527344-.175781.789063-.59375.789063-.210937 0-.46875-.292969-.769531-.902344-.308594-.609375-.464844-1.027344-.464844-1.265625 0-.1875 0-.558594 0-1.109375 0-.453125 0-.800781 0-1.066406 0-1.65625-.070312-3.359375-.21875-5.101563-.050781-.476562-.4375-1.046875-1.15625-1.703125v-.429687h.273438c.234375 0 .585937.117187 1.046875.375.460937.25.757812.367187.890625.367187.082031 0 .882812-.097656 2.410156-.3125 1.792969-.210937 4.453125-.601562 7.984375-1.179687.109375 0 .339844-.085938.675781-.234375.34375-.167969.542969-.242188.589844-.242188.214844 0 .707031.304688 1.484375.902344.78125.609375 1.167969 1.019531 1.167969 1.234375zm-3.089844-8.921875c-.175781-.074219-.347656-.175781-.503906-.3125l-9.054688 1.394531.273438 3.171875 8.820312-1.304687zm.71875 9.066406c0-.523437-.15625-.828125-.480469-.910156l-4.898437.652344v3.472656l4.195312-.714844c.105469-.023437.5.015625 1.183594.121094 0-.105469 0-.359375 0-.753906 0-.214844 0-.527344 0-.929688 0-.410156 0-.722656 0-.9375zm-.355469 3.570313-5.023437.671875v3.789062c2.351562-.367187 3.875-.546875 4.546875-.546875.109375 0 .191406-.015625.238281-.039062zm-6.363281-.242188v-2.191406c0-.214844-.074219-.464844-.222656-.75-.140625-.285156-.296875-.417969-.453125-.390625l-4.273438.671875c.15625.296875.257813.625.28125.996094.046875.257812.070313.601562.042969 1.03125v1.066406zm0 4.828125v-3.800781c-1.394531.296875-2.285156.4375-2.65625.4375-.269531 0-.925781-.078125-1.96875-.234375v4.265625zm0 0"/></svg>