<svg height="40" viewBox="0 0 40 40" width="40" xmlns="http://www.w3.org/2000/svg"><path d="m28.671875 15.496094c-2.066406.203125-3.199219.296875-3.402344.296875-.285156 0-.523437-.074219-.722656-.226563-.199219-.160156-.746094-.648437-1.652344-1.488281-.914062-.941406-2.347656-2.339844-4.28125-4.183594-2.679687 3.34375-5.085937 5.710938-7.222656 7.121094l-.0625-.199219 2.109375-2.175781c.511719-.527344 1.238281-1.453125 2.207031-2.765625 1.101563-1.5 1.652344-2.410156 1.652344-2.738281 0-.289063-.253906-.546875-.761719-.796875v-.226563h.304688c.304687 0 .785156.125 1.445312.375.664063.257813.992188.5.992188.742188 0 .117187-.183594.25-.53125.398437 3.957031 2.964844 7.265625 4.851563 9.925781 5.636719zm-6.46875-.292969c0 .199219-.136719.328125-.421875.394531-.355469.085938-1.328125.25-2.9375.496094-1.605469.238281-2.546875.363281-2.839844.363281-.566406 0-1.203125-.332031-1.90625-.992187l.230469-.296875c.4375.3125.816406.457031 1.125.457031.28125 0 .964844-.089844 2.042969-.261719 1.070312-.175781 1.742187-.304687 2.007812-.394531.0625-.019531.199219-.109375.414063-.261719.207031-.15625.359375-.226562.445312-.226562.289063 0 .636719.054687 1.054688.195312.523437.132813.785156.308594.785156.527344zm3.667969 3.394531c0 .171875-.078125.585938-.21875 1.234375-.140625.652344-.214844 1.195313-.214844 1.632813v5.242187s.074219.921875.234375 2.765625c.019531.265625-.035156.710938-.167969 1.324219-.128906.699219-.269531 1.0625-.429687 1.089844-1.339844-1.28125-2.492188-2.199219-3.460938-2.777344v-.292969c1.28125.507813 2.085938.761719 2.414063.761719.300781 0 .457031-.175781.457031-.527344v-10.085937c0-.578125-.332031-1.070313-.988281-1.492188v-.226562c1.578125.375 2.375.828125 2.375 1.351562zm-3.667969 1.1875c0 .089844-.035156.242188-.128906.460938-.089844.21875-.132813.378906-.132813.488281v5.84375c0 .128906-.046875.285156-.128906.472656-.089844.195313-.1875.28125-.296875.28125-.390625 0-.589844-.800781-.589844-2.40625v-5.410156c0-.109375-.082031-.265625-.234375-.46875-.148437-.214844-.273437-.339844-.363281-.386719v-.363281c1.253906.667969 1.875 1.15625 1.875 1.488281zm-3.527344-.363281c0 .109375-.085937.386719-.257812.824219-.179688.4375-.265625.78125-.265625 1.019531v5.011719c0 .328125.039062.828125.113281 1.484375.078125.660156.121094 1.148437.121094 1.476562 0 .292969-.058594.6875-.167969 1.195313-.109375.566406-.238281.929687-.394531 1.085937-.480469-.460937-.953125-.9375-1.417969-1.414062-.589844-.574219-1.128906-.996094-1.621094-1.25.03125-.140625.074219-.214844.140625-.234375.964844.394531 1.570313.59375 1.808594.59375.308594 0 .464844-.15625.464844-.464844v-3.394531l-3.265625.628906v3.160156c0 .242188-.042969.546875-.132813.929688-.109375.476562-.253906.722656-.429687.722656-.242188 0-.421875-.265625-.5625-.796875-.078125-.417969-.117188-.777344-.09375-1.089844.15625-1.664062.265625-4.488281.328125-8.46875.019531-.21875-.132813-.582031-.460938-1.085937v-.230469c.765625.238281 1.089844.363281.953125.363281.15625 0 .703125-.085937 1.652344-.265625.941406-.175781 1.503906-.296875 1.683594-.363281.0625 0 .1875-.050781.363281-.160156.171875-.117188.292969-.167969.355469-.167969.175781 0 .40625.105469.675781.3125.277344.207031.410156.402344.410156.578125zm-1.582031 2.191406v-1.664062c-.21875-.179688-.378906-.257813-.488281-.234375l-2.636719.460937v2.039063zm.105469 3.039063v-2.164063l-3.230469.460938v2.320312zm0 0"/></svg>