<svg height="40" viewBox="0 0 40 40" width="40" xmlns="http://www.w3.org/2000/svg"><path d="m25.921875 8.207031c0 .324219-.625.585938-1.878906.777344-1.523438.214844-3.464844.488281-5.839844.8125-1.488281.214844-2.269531.324219-2.316406.324219-.1875 0-.625-.125-1.324219-.367188-1.253906 1.449219-2.71875 2.710938-4.394531 3.808594l-.167969-.246094c.5625-.476562 1.40625-1.453125 2.527344-2.921875 1.253906-1.644531 1.878906-2.675781 1.878906-3.070312 0-.164063-.152344-.386719-.441406-.667969-.292969-.277344-.53125-.441406-.726563-.5.136719-.183594.324219-.269531.570313-.269531.421875 0 .976562.144531 1.660156.453125.671875.304687 1.011719.648437 1.011719 1.019531 0-.058594-.40625.453125-1.234375 1.519531.347656.105469.675781.164063.992187.164063.351563 0 1.371094-.152344 3.070313-.445313 1.6875-.289062 2.679687-.488281 2.972656-.597656.058594-.03125.277344-.140625.667969-.339844.378906-.195312.585937-.300781.613281-.300781.324219 0 .761719.078125 1.316406.246094.699219.1875 1.042969.390625 1.042969.601562zm-.597656 4.714844c0 .027344-.09375.199219-.28125.515625-.1875.324219-.292969.546875-.320313.675781-.109375 1.152344-.332031 2.84375-.679687 5.089844-.132813.660156-.417969.996094-.839844.996094-.324219 0-.488281-.265625-.519531-.796875-.105469-.03125-.234375-.042969-.402344-.042969-.074219 0-2.191406.175781-6.359375.515625-.019531.167969-.058594.324219-.097656.484375-.042969.15625-.15625.238281-.339844.238281-.21875 0-.449219-.21875-.699219-.65625-.257812-.441406-.398437-.78125-.421875-1.019531-.023437-1.097656-.066406-2.203125-.117187-3.328125-.132813-1.457031-.507813-2.40625-1.121094-2.832031l.082031-.28125h.3125c.164063 0 .429688.082031.804688.257812.367187.171875.65625.257813.835937.257813 1.09375 0 3.28125-.308594 6.5625-.914063.136719-.035156.402344-.109375.796875-.242187.402344-.132813.632813-.199219.683594-.199219.238281 0 .65625.167969 1.238281.5.589844.332031.882813.589844.882813.78125zm4.675781 20.753906c-2.027344.292969-3.332031.4375-3.910156.4375-.304688 0-2.605469-1.632812-6.921875-4.914062-2.539063 2.34375-5.359375 3.835937-8.484375 4.476562l-.121094-.28125c2.984375-.929687 5.511719-2.59375 7.5625-4.992187-.167969-.195313-.703125-.640625-1.621094-1.367188-.921875-.722656-1.441406-1.078125-1.578125-1.078125-1.3125.882813-2.898437 1.855469-4.757812 2.917969l-.167969-.199219c1.074219-.773437 2.160156-1.6875 3.28125-2.757812 1.578125-1.492188 2.359375-2.539063 2.359375-3.117188 0-.132812-.199219-.550781-.597656-1.238281l.160156-.28125c.878906.15625 1.605469.640625 2.15625 1.4375.800781-.050781 1.964844-.203125 3.484375-.441406.050781-.027344.238281-.101563.558594-.214844.320312-.125.519531-.183594.601562-.183594.183594 0 .527344.140625 1.015625.421875.5.277344.742188.507813.742188.699219 0 .074219-.601563.949219-1.796875 2.597656-1.121094 1.546875-1.828125 2.496094-2.121094 2.84375 2.609375 1.859375 6 3.515625 10.15625 4.953125zm-6.683594-20.441406c-.472656-.238281-.710937-.355469-.710937-.355469l-7.203125.839844c.03125 1.253906.03125 1.984375 0 2.203125l7.914062-.839844c-.046875-.132812-.070312-.304687-.070312-.523437 0-.15625.007812-.382813.039062-.65625.027344-.28125.03125-.5.03125-.667969zm-.226562 3.042969c0-.132813-.039063-.242188-.085938-.324219l-7.320312.863281c.050781 1.105469.050781 1.855469 0 2.21875h.320312c1.515625 0 3.839844-.25 6.960938-.753906 0-.191406.023437-.511719.054687-.964844.042969-.445312.070313-.796875.070313-1.039062zm-1.726563 7.320312c0-.160156-.1875-.316406-.5625-.484375h-.195312c-1.703125 0-2.898438.167969-3.558594.484375-.324219.132813-.628906.417969-.921875.839844-.484375.699219-.734375 1.058594-.765625 1.078125l3.324219 2.246094c.347656-.402344.851562-1.117188 1.519531-2.121094.769531-1.144531 1.160156-1.828125 1.160156-2.042969zm0 0"/></svg>