<svg height="40" viewBox="0 0 40 40" width="40" xmlns="http://www.w3.org/2000/svg"><path d="m25.746094 7.109375c0 .074219-.054688.261719-.164063.542969s-.175781.460937-.203125.546875c-.128906 1.132812-.28125 2.265625-.441406 3.398437-.269531 1.78125-.589844 2.671875-.96875 2.671875-.21875 0-.421875-.125-.613281-.359375-.183594-.242187-.277344-.367187-.277344-.367187-.949219 0-2.941406.257812-5.996094.769531-.078125.160156-.171875.339844-.257812.527344-.09375.191406-.257813.28125-.464844.28125-.300781 0-.589844-.226563-.875-.671875-.285156-.4375-.421875-.824219-.421875-1.152344 0-.109375.011719-.25.035156-.449219.03125-.179687.042969-.332031.042969-.441406 0-1.433594-.246094-3.019531-.722656-4.777344-.0625-.160156-.203125-.378906-.449219-.648437-.246094-.265625-.441406-.429688-.613281-.480469l.128906-.371094c.109375.027344.46875.136719 1.089844.328125.625.1875.941406.277344.96875.277344.300781 0 1.566406-.125 3.8125-.375 2.234375-.261719 3.4375-.410156 3.597656-.472656.082031-.023438.191406-.101563.328125-.21875.136719-.125.222656-.183594.277344-.183594.273437 0 .707031.21875 1.300781.644531.589844.4375.886719.761719.886719.980469zm4.253906 9.347656c0 .246094-.175781.40625-.53125.492188-.046875 0-1.402344.070312-4.042969.234375-3.675781.21875-6.585937.4375-8.75.644531.328125.136719.671875.378906 1.054688.734375-.382813.355469-.929688.847656-1.65625 1.496094.351562.109375.710937.160156 1.09375.160156.023437 0 .6875-.050781 1.984375-.160156.914062-.074219 2.519531-.226563 4.816406-.445313.453125-.023437 1.128906-.09375 2.019531-.203125.085938 0 .234375-.039062.445313-.140625.21875-.09375.351562-.144531.40625-.144531.269531 0 .769531.230469 1.503906.671875.722656.449219 1.082031.792969 1.082031 1.035156 0 .210938-.097656.414063-.316406.605469-.269531.269531-.421875.449219-.449219.519531-.132812.382813-.316406.933594-.5625 1.667969-.410156 1.050781-.945312 2.230469-1.625 3.527344-.59375 1.179687-1.507812 2.585937-2.75 4.203125-1.5625 2.109375-2.6875 3.160156-3.363281 3.160156-.207031 0-.417969-.234375-.605469-.6875-.109375-.296875-.234375-.609375-.382812-.910156-.148438-.308594-.734375-1.03125-1.761719-2.167969l.121094-.246094c1.597656.976563 2.585937 1.453125 3 1.453125.941406 0 2.128906-1.207031 3.5625-3.640625.914062-1.515625 1.753906-3.175781 2.507812-4.988281.515625-1.15625.765625-1.847656.765625-2.066406 0-.375-.484375-.714844-1.453125-1.011719l-3.15625.363281c.808594.671875 1.214844 1.085938 1.214844 1.25 0-.03125-.394531.460938-1.175781 1.460938-3.511719 4.625-6.921875 7.492187-10.246094 8.601562l-.121094-.242187c1.859375-1.246094 3.292969-2.351563 4.292969-3.324219.621094-.5625 1.644531-1.683594 3.078125-3.355469 1.652344-1.941406 2.472656-3.0625 2.472656-3.351562 0-.21875-.109375-.433594-.328125-.652344s-.429687-.3125-.648437-.285156l-2.546875.285156c.242187.21875.363281.394531.363281.53125s-.152344.292969-.449219.480469c-.296875.191406-.453125.300781-.488281.328125-1.425781 1.585937-2.453125 2.648437-3.078125 3.195312-1.050781.882813-2.316406 1.683594-3.800781 2.382813l-.15625-.246094c1.132812-.78125 2.296875-1.765625 3.476562-2.953125 1.324219-1.355469 2.226563-2.546875 2.710938-3.609375-1.210938-.269531-1.835938-.402344-1.859375-.402344-.023438.023438-.085938.070313-.15625.125-1.515625 1.296875-2.367188 2.011719-2.558594 2.148438-1.050781.804687-2.035156 1.359375-2.953125 1.65625.425781-.382813 1.035156-.917969 1.816406-1.617188 1.574219-1.40625 2.976563-3.101562 4.214844-5.101562h-.160156c-.355469-.027344-.867188.039062-1.539063.195312-.675781.164063-1.160156.246094-1.457031.246094-.355469 0-1.109375-.605469-2.269531-1.824219.109375-.078125.21875-.117187.328125-.117187.023437 0 .269531.144531.722656.421875.464844.285156.84375.425781 1.136719.425781.109375 0 1.859375-.175781 5.265625-.53125.585937-.074219 2.390625-.234375 5.378906-.480469.542969-.03125 1.339844-.109375 2.390625-.238281.136719-.027344.359375-.128906.6875-.308594.324219-.171875.515625-.265625.566406-.265625.242188 0 .789063.136719 1.640625.414063.851563.269531 1.277344.46875 1.277344.601562zm-6.277344-8.976562c0-.089844-.046875-.203125-.140625-.371094-.09375-.160156-.1875-.238281-.257812-.238281l-7.414063.882812.277344 2.105469 7.535156-.765625c-.082031-.136719-.125-.3125-.125-.53125 0-.109375.027344-.285156.070313-.546875.035156-.253906.054687-.4375.054687-.535156zm-.195312 2.546875-7.210938.738281.320313 2.65625 6.644531-.847656zm0 0"/></svg>