<svg height="40" viewBox="0 0 40 40" width="40" xmlns="http://www.w3.org/2000/svg"><path d="m30 19c0 .183594-.066406.359375-.199219.527344-.179687.226562-.289062.394531-.316406.46875-.128906.347656-.230469 1.640625-.28125 3.863281-.058594 2.5-.171875 4.308594-.355469 5.425781-.320312 1.828125-.910156 2.746094-1.753906 2.746094-.109375 0-.328125-.230469-.660156-.691406-.335938-.464844-.546875-.730469-.65625-.78125-.480469-.34375-1.578125-.792969-3.308594-1.355469l.160156-.277344c2.230469.265625 3.351563.398438 3.351563.398438 1.085937 0 1.628906-1.089844 1.628906-3.265625v-.683594c0-.15625.019531-.40625.0625-.734375.035156-.332031.0625-.5625.0625-.699219.046875-3.109375.074219-4.453125.074219-4.019531 0-.613281-.15625-1.066406-.476563-1.359375h-2.785156c-2.902344 0-6.894531.503906-11.996094 1.515625.203125 5.125.3125 7.78125.3125 7.972656 0 1.214844-.191406 1.828125-.570312 1.828125-.242188 0-.511719-.253906-.808594-.773437-.300781-.515625-.449219-.914063-.449219-1.179688 0-.179687.0625-.460937.199219-.835937.128906-.371094.199219-.664063.199219-.875v-2.625c-.027344-1.28125-.085938-2.125-.167969-2.558594-.199219-.925781-.621094-1.65625-1.265625-2.1875.050781-.1875.140625-.28125.269531-.28125.0625 0 .335938.113281.839844.339844.503906.222656.800781.34375.875.34375.503906 0 1.246094-.152344 2.199219-.445313-.109375-1.753906-.21875-3.507812-.320313-5.265625-.164062-2.175781-.691406-3.753906-1.597656-4.734375l.121094-.195312c.1875.023437.675781.179687 1.476562.472656.714844.238281 1.109375.363281 1.195313.363281.050781 0 .703125-.066406 1.953125-.195312 1.566406-.109375 3.890625-.367188 6.972656-.765625.105469-.023438.328125-.117188.675781-.28125.351563-.15625.574219-.230469.679688-.230469.210937 0 .578125.222656 1.09375.671875.519531.453125.773437.785156.773437 1 0 .238281-.101562.433594-.335937.578125-.226563.140625-.351563.265625-.371094.375-.140625.609375-.28125 1.734375-.441406 3.386719-.164063 1.644531-.242188 2.828125-.242188 3.550781.078125.019531.179688.042969.277344.042969.589844 0 1.066406-.042969 1.4375-.125.050781-.027344.183594-.085938.402344-.179688.203125-.097656.34375-.140625.394531-.140625.371094 0 .925781.621094 1.671875 1.871094zm-5.421875 3.347656c0 .105469-.066406.242188-.199219.398438-.132812.164062-.195312.253906-.195312.28125-.164063.691406-.449219 1.6875-.882813 2.988281-.128906.265625-.351562.394531-.671875.394531-.160156 0-.300781-.070312-.4375-.210937-.128906-.152344-.28125-.226563-.4375-.226563l-4.34375.4375v.042969c0 .53125-.175781.796875-.523437.796875-.527344 0-.84375-.714844-.949219-2.15625-.136719-1.644531-.527344-2.703125-1.160156-3.1875l.125-.269531 2.066406.394531c1.597656 0 3.214844-.214844 4.859375-.636719.082031-.023437.238281-.113281.480469-.265625.242187-.140625.390625-.210937.441406-.210937.183594 0 .535156.195312 1.058594.59375.515625.394531.769531.675781.769531.835937zm.28125-8.628906-4.902344.515625v3.734375l4.589844-.28125zm.125-1.046875v-2.917969c-.21875-.210937-.375-.3125-.480469-.3125l-9.445312 1.03125.4375 8.046875 3.34375-.4375v-1.390625c0-1.992187-.273438-3.382812-.835938-4.1875 0-.15625.070313-.238281.199219-.238281.296875 0 .71875.160156 1.277344.480469.5625.320312.851562.476562.875.476562zm-2.277344 10.042969c0-.324219-.132812-.484375-.398437-.484375.023437 0-1.730469.222656-5.257813.679687v.554688c0 .265625.101563.96875.320313 2.109375l4.976562-.480469c.242188-1.5625.359375-2.359375.359375-2.378906zm0 0"/></svg>