<svg height="40" viewBox="0 0 40 40" width="40" xmlns="http://www.w3.org/2000/svg"><path d="m26.46875 14.167969c0 .257812-.265625.390625-.785156.390625-2.421875 0-4.199219.117187-5.324219.351562v1.757813c.019531.019531.058594.035156.125.035156 1.089844 0 2.003906-.121094 2.761719-.359375.066406-.019531.175781-.078125.328125-.183594.148437-.09375.25-.140625.296875-.140625.234375 0 .582031.089844 1.050781.257813.464844.175781.703125.351562.703125.519531 0 .246094-.605469.378906-1.792969.425781-1.101562.039063-3.300781.28125-6.59375.714844-.175781.019531-.476562.105469-.910156.246094s-.734375.207031-.910156.207031c-.34375 0-1.054688-.410156-2.117188-1.234375l.230469-.128906c.589844.234375 1.074219.359375 1.46875.359375 1.277344 0 2.691406-.21875 4.25-.652344v-1.71875c-.042969-.027344-.109375-.035156-.191406-.035156-.71875 0-1.84375.195312-3.375.582031-.960938.246094-1.414063.359375-1.375.359375-.234375 0-.632813-.199219-1.199219-.582031-.386719-.261719-.777344-.53125-1.167969-.820313.105469-.144531.195313-.21875.261719-.21875.1875 0 .496094.085938.890625.277344.402344.183594.707031.265625.925781.265625.023438 0 1.765625-.238281 5.230469-.738281v-1.433594c0-.433594-.375-.863281-1.136719-1.300781l.132813-.292969c.28125 0 .773437.136719 1.460937.40625s1.042969.515625 1.042969.734375c0-.066406-.136719.542969-.390625 1.816406.035156.023438.09375.03125.160156.03125 1.324219 0 2.417969-.117187 3.28125-.351562.046875-.023438.164063-.09375.355469-.230469.199219-.128906.316406-.199219.359375-.199219.21875 0 .59375.109375 1.136719.335938.546875.210937.816406.394531.816406.546875zm5 12.441406c0 .238281-.34375.359375-1.042969.359375-.171875 0-.421875-.011719-.757812-.046875-.339844-.03125-.589844-.046875-.765625-.046875h-4.746094c-.863281 0-2.769531.203125-5.714844.613281-1.148437.179688-2.753906.484375-4.8125.945313-1.472656.328125-2.195312.488281-2.175781.488281-.34375 0-.871094-.207031-1.578125-.636719-.703125-.425781-1.144531-.796875-1.34375-1.117187.0625-.070313.136719-.105469.222656-.105469.179688 0 .527344.125 1.058594.359375.527344.246094.890625.347656 1.089844.324219l5.066406-.617188c.042969 0 .066406-.039062.066406-.125 0-.375-.335937-.929687-1.007812-1.695312-.667969-.757813-1.210938-1.230469-1.621094-1.421875l.09375-.230469c.691406.300781 1.390625.59375 2.078125.875.84375.453125 1.269531 1 1.269531 1.628906 0 .078125-.019531.195313-.066406.335938-.042969.144531-.0625.257812-.0625.347656v.125c1.644531-.28125 3.550781-.503906 5.71875-.683594.234375-.257812.609375-.75 1.105469-1.460937.539062-.796875.8125-1.296875.8125-1.492188 0-.046875-.105469-.15625-.292969-.328125-.191406-.171875-.316406-.257812-.355469-.257812-.414062 0-1.671875.109375-3.773437.320312-2.101563.21875-3.214844.371094-3.351563.460938-.320312.253906-.472656.382812-.453125.382812-.28125 0-.535156-.1875-.773437-.566406-.242188-.375-.355469-.71875-.355469-1.035156 0-.3125-.109375-.75-.332031-1.320313-.257813-.648437-.523438-.960937-.777344-.9375l.09375-.296875c1.019531.242188 1.5.355469 1.433594.355469-.042969 0 .550781-.09375 1.785156-.285156 1.386719-.179688 3.464844-.433594 6.238281-.789063.109375-.019531.292969-.070312.554688-.160156.253906-.078125.410156-.125.453125-.125.132812 0 .40625.191406.816406.582031.410156.386719.613281.652344.613281.777344 0 .019531-.085937.136719-.273437.34375-.183594.203125-.296875.339844-.339844.40625-.046875.066406-.140625.410156-.296875 1.042969-.152344.519531-.300781.835937-.453125.941406.34375.152344.699219.3125 1.042969.488281.5.234375.742187.449219.742187.648438 0 .085937-.015625.15625-.0625.195312-.472656.148438-.988281.433594-1.523437.84375-.464844.371094-.914063.734375-1.367188 1.105469.023438.019531.058594.035156.125.035156 2.621094 0 4.324219-.109375 5.105469-.332031.0625-.019531.183594-.078125.359375-.175781.167969-.09375.300781-.148438.386719-.148438.257812 0 .6875.136719 1.265625.390625.585937.265625.878906.5.878906.714844zm-7.21875-6.566406c-.097656-.085938-.277344-.199219-.511719-.351563l-8.054687 1.167969c.015625.128906.171875.777344.457031 1.953125l6.847656-.75c.042969-.019531.34375 0 .914063.066406.1875-.894531.3125-1.59375.347656-2.085937zm0 0"/></svg>