<svg height="40" viewBox="0 0 40 40" width="40" xmlns="http://www.w3.org/2000/svg"><path d="m26.847656 17.160156c0 .246094-.347656.390625-1.039062.4375-.429688-.003906-.855469-.015625-1.273438-.015625-.796875.078125-1.984375.203125-3.566406.382813.546875.828125.816406 1.265625.816406 1.34375 0 .054687-.015625.128906-.054687.238281-.039063.113281-.058594.191406-.058594.25v1.902344c.027344.019531.089844.035156.191406.035156.292969 0 .773438-.109375 1.429688-.316406.65625-.214844 1.097656-.320313 1.320312-.320313.292969 0 .65625.074219 1.074219.230469.527344.167969.78125.355469.78125.550781 0 .25-.738281.449219-2.222656.601563-.921875.070312-1.824219.144531-2.726563.222656v1.230469c.796875.289062 1.578125.59375 2.355469.882812.933594.429688 1.40625 1.007813 1.40625 1.75 0 .449219-.109375.671875-.332031.671875-.105469 0-.636719-.414062-1.601563-1.269531-1.046875-.910156-1.640625-1.421875-1.785156-1.519531l-.1875 7.21875c0 .890625-.183594 1.335937-.558594 1.335937-.195312 0-.40625-.289062-.628906-.890625-.183594-.492187-.265625-.894531-.265625-1.1875 0-.25.074219-.648437.207031-1.191406.132813-.546875.203125-.957031.203125-1.230469v-3.941406c-.816406 1.191406-1.816406 2.34375-2.992187 3.457031-1.34375 1.292969-2.578125 2.15625-3.699219 2.605469l-.121094-.222656c2.359375-1.855469 4.496094-4.339844 6.402344-7.4375l-4.667969 1.257812c-.269531-.019531-.640625-.253906-1.117187-.6875-.480469-.429687-.71875-.785156-.71875-1.054687l.144531-.1875c.449219.289062.941406.515625 1.488281.671875l5.28125-1.007813v-2.601562c0-.304688-.171875-.65625-.519531-1.085938-.324219.046875-.941406.1875-1.859375.414063-.105469.019531-.574219.171875-1.433594.445312-.859375.273438-1.296875.414063-1.320312.414063-.273438 0-.664063-.1875-1.171875-.542969-.511719-.363281-.796875-.683594-.875-.953125l.113281-.222656c.765625.28125 1.238281.398437 1.417969.367187l3.492187-.59375c.023438-.066406.039063-.160156.039063-.253906 0-.59375-.085938-1.46875-.261719-2.605469-.222656-1.410156-.457031-2.125-.703125-2.125-.078125 0-.171875.023438-.28125.0625-.113281.03125-.191406.054688-.246094.054688-.191406 0-.460937-.199219-.796875-.59375-.335937-.402344-.554687-.734375-.648437-1.007813.046875-.078125.125-.113281.21875-.113281 0 0 .207031.097656.617187.300781.40625.195313.710938.289063.914063.261719l3.160156-.378906v-2.339844c0-.296875-.152344-.609375-.433594-.925781-.296875-.328125-.582031-.554688-.875-.671875l.117188-.265625h.742187c.226563 0 .640625.128906 1.242188.394531.613281.261719.914062.480469.914062.644531 0 .105469-.132812 1.085938-.410156 2.9375.03125.03125.09375.042969.1875.042969.324219 0 .808594-.097656 1.472656-.316406.667969-.210938 1.136719-.320313 1.40625-.320313.195313 0 .527344.109375.976563.320313.457031.21875.6875.410156.6875.578125 0 .078125-.078125.125-.226563.144531-.609375.058594-1.515625.15625-2.71875.300781.945313.699219 1.414063 1.117188 1.414063 1.261719 0 .03125-.0625.125-.199219.285156-.140625.15625-.21875.25-.238281.28125-.125.226563-.328125.757813-.601563 1.601563-.273437.84375-.40625 1.359375-.40625 1.5625.023438.019531.070313.035156.148438.035156.242187 0 .59375-.082031 1.039062-.25.445313-.160156.703125-.238281.78125-.238281.226563 0 .554688.101562.984375.300781.4375.191406.65625.394531.65625.597656zm-3.910156-4.285156c.019531-.167969-.035156-.390625-.1875-.644531-.144531-.265625-.308594-.398438-.480469-.398438 0 0-1.316406.179688-3.945312.527344.476562.5625.734375.941406.78125 1.113281 0-.046875 0 .371094 0 1.265625v2.679688l3.460937-.480469zm0 0"/></svg>