<svg height="40" viewBox="0 0 40 40" width="40" xmlns="http://www.w3.org/2000/svg"><path d="m27.28125 10.246094c-.980469.828125-2.4375 2.097656-4.375 3.789062l-.265625-.109375c1.660156-2.304687 2.496094-3.660156 2.496094-4.066406 0-.25-.210938-.496094-.605469-.722656l.109375-.265625c.328125.046875.839844.234375 1.542969.550781.707031.316406 1.070312.589844 1.097656.824219zm-3.394531-1.898438c-1.28125.476563-3.261719 1.167969-5.921875 2.070313.476562.328125.953125.65625 1.429687.976562.578125.433594.871094.871094.871094 1.324219 0 .777344-.203125 1.167969-.605469 1.167969-.222656 0-.390625-.101563-.488281-.296875-.253906-.558594-.503906-1.117188-.753906-1.664063-.230469-.476562-.605469-.945312-1.136719-1.394531l-4.375.644531-.144531-.265625c3.59375-.851562 6.382812-1.875 8.367187-3.054687-.101562-.230469-.273437-.433594-.523437-.605469.144531-.125.296875-.1875.453125-.1875.320312 0 .835937.140625 1.546875.410156.804687.335938 1.226562.617188 1.28125.875zm-7.882813 6.261719c0 .449219-.164062.671875-.492187.671875s-.820313-.464844-1.476563-1.394531c-.726562-1.058594-1.316406-1.695313-1.769531-1.917969l.109375-.308594c1.113281.433594 1.878906.78125 2.300781 1.058594.882813.558594 1.328125 1.183594 1.328125 1.890625zm13.996094 18.0625c-.105469.183594-.246094.265625-.417969.265625-.328125 0-1.132812-.066406-2.421875-.203125-1.273437-.140625-1.960937-.25-2.066406-.324219-.957031-.953125-2.363281-2.320312-4.222656-4.113281-2.492188 2.167969-5.21875 3.472656-8.1875 3.925781l-.195313-.265625c2.917969-.804687 5.460938-2.207031 7.621094-4.222656-1.152344-1.261719-2.390625-2.28125-3.691406-3.058594-1.808594 2.089844-3.90625 3.542969-6.296875 4.375l-.121094-.257812c1.558594-.703125 3.125-1.917969 4.703125-3.640625 1.566406-1.726563 2.535156-3.367188 2.921875-4.921875-.355469 0-.90625.09375-1.660156.28125-.75.1875-1.273438.28125-1.554688.28125-.296875 0-.726562-.203125-1.300781-.605469-.5625-.402344-.886719-.746094-.953125-1.015625.046875-.105469.125-.152344.21875-.152344 0 0 .234375.101563.703125.324219.464844.207031.847656.316406 1.144531.316406-.171875 0 1.023438-.113281 3.589844-.34375.355469-.875.527344-1.429687.527344-1.648437 0-.15625-.074219-.335938-.203125-.539063-.140625-.203125-.292969-.296875-.4375-.296875-.171875 0-.460938.058594-.835938.167969-.375.113281-.664062.171875-.859375.171875-.554687 0-1.347656-.433594-2.382812-1.285156l.117187-.230469c.902344.332031 1.695313.496094 2.375.496094.273438 0 1.324219-.140625 3.152344-.433594 1.824219-.285156 2.84375-.472656 3.066406-.546875.058594-.019531.195313-.113281.417969-.265625.230469-.152344.375-.230469.453125-.230469.558594 0 1.066406.1875 1.546875.570313v.34375c-.605469.273437-1.503906.5-2.714844.671875-1.613281.226562-2.550781.367187-2.828125.414062.605469.511719.902344.78125.902344.835938 0-.027344-.292969.46875-.859375 1.46875 1.277344.023437 2.832031-.148438 4.675781-.523438.09375-.03125.3125-.109375.636719-.253906.328125-.128906.515625-.203125.574219-.203125.25 0 .703125.109375 1.367187.328125.667969.222656 1.007813.417969 1.007813.589844 0 .242187-.308594.378906-.914063.398437.453125 0 .078125 0-1.128906 0-.578125 0-2.765625.21875-6.566406.640625-.523438 1.164063-.980469 2.0625-1.355469 2.726563l.042969.144531c.75-.125 2.207031-.390625 4.367187-.792969 1.136719-.222656 1.703125-.332031 1.703125-.332031.171875 0 .492188.128906.964844.410156.464844.277344.703125.492188.730469.636719-.605469.832031-1.210938 1.660156-1.8125 2.496094-.75.976562-1.433594 1.742187-2.039063 2.300781 2.84375 2.410156 5.671875 4.125 8.496094 5.125zm-6.796875-9.46875c-.097656-.25-.25-.375-.453125-.375-.019531 0-.480469.0625-1.355469.1875-.957031.183594-2.375.371094-4.265625.566406-.222656.25-.375.5-.453125.761719.808594.316406 2.164063 1.214844 4.074219 2.671875 1.613281-1.957031 2.433594-3.230469 2.453125-3.8125zm0 0"/></svg>