<svg height="40" viewBox="0 0 40 40" width="40" xmlns="http://www.w3.org/2000/svg"><path d="m30 21.003906c0 .074219-.074219.195313-.238281.335938-.164063.148437-.265625.269531-.320313.378906-.023437.433594-.066406 1.03125-.125 1.800781-.128906 1.574219-.265625 3.140625-.394531 4.726563-.292969 1.914062-.777344 3.378906-1.4375 4.394531-.183594.296875-.425781.4375-.722656.4375-.375-.796875-1.449219-1.6875-3.242188-2.675781l.042969-.28125c1.542969.457031 2.441406.679687 2.683594.679687 1.171875 0 1.757812-2.914062 1.757812-8.757812 0-.324219-.085937-.703125-.253906-1.136719-.175781-.441406-.386719-.652344-.613281-.625l-7.453125.921875v4c1.519531-.21875 2.769531-.484375 3.757812-.796875-.375-.808594-.894531-1.613281-1.5625-2.441406.085938-.109375.179688-.164063.289063-.164063.128906 0 .613281.402344 1.4375 1.199219.828125.808594 1.300781 1.300781 1.4375 1.519531.367187.617188.5625 1.273438.5625 1.960938 0 .59375-.214844.878906-.640625.878906-.15625 0-.390625-.347656-.683594-1.035156-.1875-.460938-.371094-.90625-.550781-1.367188-1.558594.375-3.792969 1.085938-6.726563 2.121094-.054687.027344-.175781.125-.359375.28125-.1875.160156-.347656.246094-.476562.246094-.265625 0-.667969-.308594-1.210938-.921875-.394531-.511719-.703125-.949219-.910156-1.324219.050781-.109375.128906-.15625.238281-.15625 0 0 .179688.113281.53125.339844.367188.222656.683594.34375.949219.34375 0 0 .878906-.125 2.636719-.371094v-4.078125l-5.679688 1.003906-.640625-.125c-.019531.195313-.039062.433594-.039062.726563 0 .640625.148437 3.332031.441406 8.078125.027344.742187-.152344 1.117187-.527344 1.117187-.660156 0-.992187-.726562-.992187-2.203125 0-3.835937-.085938-6.15625-.242188-6.953125-.21875-.398437-.445312-1-.722656-1.800781 1.6875.105469 2.347656.171875 2 .199219l6.402344-.882813v-4.238281c-.835938.109375-2.0625.402344-3.699219.878906-.027344.726563-.191406 1.085938-.484375 1.085938-.1875 0-.410156-.265625-.675781-.796875-.21875-.460938-.34375-.820313-.371094-1.085938-.15625-1.410156-.324219-2.820312-.480469-4.234375-.289062-1.710937-.847656-2.976562-1.644531-3.804687l.03125-.277344h.410156c.15625 0 .421875.078125.796875.234375.375.167969.648438.238281.839844.238281-.191406 0 .503906-.085937 2.078125-.269531 1.917969-.191406 4.777344-.527344 8.558594-1.011719.128906-.019531.378906-.097656.738281-.210937.363281-.125.582031-.183594.667969-.183594.15625 0 .546875.222656 1.148437.683594.617188.453125.921875.765625.921875.921875 0 .03125-.085937.171875-.28125.421875-.179687.257812-.289062.441406-.316406.539062-.214844.699219-.394531 1.703125-.550781 3.015625-.195313 1.421875-.359375 2.417969-.511719 2.992188-.140625.570312-.390625.863281-.738281.863281-.101563 0-.210938-.089844-.296875-.28125-.09375-.183594-.261719-.277344-.5-.277344-.265625 0-.992188.054688-2.179688.164063-1.1875.101562-1.816406.171875-1.898437.195312-.183594.085938-.292969.726563-.320313 1.917969-.03125.722656-.039062 1.4375-.039062 2.160156.023437.027344.09375.042969.203125.042969.421875 0 1.523437-.125 3.3125-.355469 1.785156-.242187 2.925781-.429687 3.40625-.566406.078125 0 .265625-.066406.554687-.199219.292969-.132812.464844-.195312.515625-.195312.140625 0 .574219.304687 1.304688.921875.734375.613281 1.097656.976562 1.097656 1.117187zm-4.917969-11.679687c0-.773438-.316406-1.132813-.945312-1.078125l-4.292969.351562v2.929688l5.199219-.402344c.03125.050781.039062-.546875.039062-1.800781zm-.242187 2.859375c-.421875-.054688-.632813-.078125-.632813-.078125l-4.363281.425781v2.707031l4.683594-.359375zm-6.4375-.34375v-2.308594c0-.15625-.15625-.375-.476563-.640625l-4.5625.6875c.109375.558594.226563 1.113281.359375 1.671875.1875.796875.476563 1.160156.839844 1.113281zm0 3.722656v-2.800781c-2.558594.375-3.996094.550781-4.324219.515625l.40625 2.925781zm0 0"/></svg>