<svg height="40" viewBox="0 0 40 40" width="40" xmlns="http://www.w3.org/2000/svg"><path d="m27.582031 23.871094c0 .210937-.566406.359375-1.707031.429687-1.824219.117188-3.21875.273438-4.191406.453125-.074219.074219-.117188.320313-.136719.746094v.277344l-.25 5.195312c0 .234375-.0625.492188-.1875.765625-.128906.289063-.277344.421875-.449219.421875-.179687 0-.351562-.242187-.519531-.734375-.140625-.394531-.214844-.710937-.214844-.945312 0-.140625.042969-.34375.125-.617188.078125-.269531.125-.4375.125-.507812.230469-1.609375.351563-3.0625.351563-4.355469-1.992188.355469-3.476563.691406-4.460938 1.019531-.070312.027344-.242187.125-.519531.304688-.285156.171875-.503906.257812-.671875.257812-.722656 0-1.546875-.382812-2.457031-1.15625l.140625-.316406c.164062.046875.644531.160156 1.441406.355469l6.527344-1.234375v-1.898438c0-.066406-.074219-.1875-.230469-.363281-.152344-.175781-.277344-.261719-.371094-.261719-.695312 0-1.238281.101563-1.609375.3125-.070312.023438-.175781.136719-.320312.351563-.140625.210937-.234375.3125-.277344.3125-.328125 0-.675781-.855469-1.050781-2.558594-.1875-1.050781-.386719-2.09375-.601563-3.121094-.09375-.359375-.441406-.632812-1.054687-.847656.097656-.160156.289062-.246094.597656-.246094.347656 0 .675781.039063.984375.109375l3.933594-.738281v-2.566406c-.023438-.023438-.074219-.027344-.140625-.027344-.351563 0-.96875.136719-1.859375.410156-.890625.289063-1.429688.429688-1.621094.429688-.484375 0-1.214844-.449219-2.171875-1.339844l.105469-.246094c1.054687.328125 1.601562.496094 1.65625.496094 1.117187 0 2.460937-.222656 4.03125-.671875-.074219-.183594-.105469-.390625-.105469-.625 0-.144531.015625-.347656.050781-.621094.039063-.265625.054688-.46875.054688-.613281 0-.839844-.433594-1.425781-1.296875-1.75l.097656-.316406c1.875.347656 2.816406.703125 2.816406 1.054687 0-.03125-.082031.1875-.234375.648438-.15625.453125-.226562.859375-.226562 1.210937 0 0 .023437.257813.070312.773438.234375-.054688.796875-.203125 1.6875-.460938.820313-.253906 1.28125-.382812 1.402344-.382812.253906 0 .625.0625 1.105469.191406.484375.125.742187.269531.789062.4375-.253906.183594-.71875.339844-1.382812.453125-.507813.074219-1.015625.144531-1.527344.214844-.640625.144531-1.355469.304687-2.144531.492187l.066406 2.527344c.308594-.027344.808594-.15625 1.527344-.390625.710937-.230469 1.117187-.347656 1.207031-.347656.214844 0 .589844.210937 1.144531.632812.554688.421875.828125.726563.828125.914063 0 .070312-.078125.304687-.226562.722656-.15625.40625-.246094.683594-.265625.824219-.0625.816406-.246094 2.046875-.527344 3.679687-.113281.515625-.3125.773438-.59375.773438-.191406 0-.359375-.148438-.511719-.445313-.15625-.289062-.28125-.429687-.363281-.410156l-2.910156.511719c.414062.375.625.773437.625 1.191406 0 .09375-.023438.253906-.074219.472656-.042969.21875-.0625.390625-.0625.511719 0 .113281.003906.230469.027344.347656.65625-.070312 1.632812-.234375 2.914062-.472656.074219-.03125.257813-.121094.546875-.277344.292969-.15625.464844-.234375.507813-.234375.238281 0 .632812.101563 1.195312.308594.558594.203125.84375.386719.84375.558594zm-2.738281-7.734375c0-.214844-.125-.460938-.378906-.734375l-7.09375 1.359375.207031 1.816406c4.167969-.816406 6.269531-1.222656 6.316406-1.222656.210938 0 .496094.035156.84375.097656.070313-.605469.105469-1.042969.105469-1.316406zm-.214844 1.984375-6.875 1.179687.210938 1.96875 5.578125-1.050781c-.167969.03125.046875.042969.632812.042969.070313 0 .125-.023438.179688-.0625zm0 0"/></svg>