<svg height="40" viewBox="0 0 40 40" width="40" xmlns="http://www.w3.org/2000/svg"><path d="m25.65625 21.890625c0 .328125-.140625.488281-.410156.488281-.25 0-.859375-.332031-1.824219-1.007812-.953125-.679688-1.4375-1.121094-1.4375-1.351563 0-.097656.019531-.175781.078125-.222656h.222656c.601563 0 1.289063.199219 2.058594.597656.875.476563 1.3125.976563 1.3125 1.496094zm6.441406-2.542969c0 .304688-.453125.433594-1.351562.414063-.851563.472656-2.109375 1.171875-3.78125 2.097656l-.148438-.222656c.273438-.230469.714844-.710938 1.328125-1.449219.605469-.738281.917969-1.222656.917969-1.449219 0-.238281-.222656-.363281-.675781-.363281.203125 0-.351563.035156-1.65625.109375-4.164063.324219-6.339844.527344-6.542969.597656-.078125.03125-.125.324219-.152344.902344v4.566406c0 .328125-.054687.714844-.179687 1.15625-.15625.578125-.34375.867188-.570313.867188-.398437 0-.597656-.351563-.597656-1.046875v-6.289063l-7.261719.667969s-.488281 0-1.460937 0c0 3.324219-.46875 4.980469-1.386719 4.980469-.203125 0-.375-.25-.527344-.746094-.101562-.375-.148437-.707031-.148437-1.015625 0-.066406.21875-.628906.65625-1.660156.429687-1.039063.660156-1.871094.660156-2.492188 0-.269531-.058594-.535156-.15625-.785156l.222656-.144531c.179688.085937.3125.304687.414063.628906.101562.222656.304687.308594.597656.261719l8.390625-.710938v-1.5c0-.171875-.09375-.441406-.296875-.800781-.203125-.363281-.390625-.535156-.5625-.503906l-3.75.253906c-.472656.058594-.980469-.035156-1.515625-.253906-.535156-.226563-.917969-.539063-1.136719-.945313.023438-.164062.085938-.253906.1875-.253906.773438.34375 1.449219.519531 2.023438.519531 2.488281 0 5.367187-.25 8.613281-.742187.144531-.03125.417969-.125.824219-.304688.394531-.171875.644531-.265625.742187-.265625.375 0 .960938.101563 1.761719.304688.949219.222656 1.421875.453125 1.421875.675781 0 .316406-.269531.484375-.824219.484375-2.066406 0-4.523437.125-7.375.371094.976563.453125 1.464844 1.132812 1.464844 2.0625 0 .269531-.042969.535156-.121094.785156.230469 0 .867188-.046875 1.917969-.144531 1.199219-.125 2.714844-.328125 4.566406-.601563 1.523438-.25 2.320313-.375 2.398438-.375.269531 0 .851562.335938 1.738281 1.011719.890625.671875 1.332031 1.121094 1.332031 1.347656zm-6.1875 5.730469c0 .324219-.128906.484375-.398437.484375-.433594 0-1.09375-.296875-1.996094-.894531-.722656-.507813-1.324219-.984375-1.796875-1.464844l.121094-.261719c2.71875.574219 4.070312 1.28125 4.070312 2.136719zm-9.769531-2.207031c-.171875.125-.332031.1875-.488281.1875-.445313 0-1.023438-.34375-1.71875-1.011719-.578125-.550781-1.011719-1.089844-1.308594-1.609375.066406-.105469.15625-.15625.253906-.15625.429688 0 1.074219.222656 1.953125.675781.21875.101563.507813.371094.839844.824219.339844.453125.511719.785156.511719 1.011719zm-.222656 2.691406c0 .269531-.136719.410156-.414063.410156-.296875 0-.925781-.300781-1.867187-.914062-.949219-.609375-1.421875-1.054688-1.421875-1.328125 0-.105469.046875-.1875.144531-.261719.421875.027344 1.082031.109375 1.984375.261719.171875.050781.484375.320312.917969.820312.4375.496094.65625.839844.65625 1.011719zm0 0"/></svg>