<svg height="40" viewBox="0 0 40 40" width="40" xmlns="http://www.w3.org/2000/svg"><path d="m29.230469 20.292969c0 .257812-.304688.390625-.898438.390625-.363281 0-.910156-.054688-1.648437-.140625-.734375-.089844-1.28125-.136719-1.640625-.136719-2.480469 0-5.230469.296875-8.226563.894531-1.285156.257813-2.269531.53125-2.941406.8125-.261719.132813-.425781.195313-.5.195313-.363281 0-.847656-.226563-1.433594-.679688-.597656-.453125-.984375-.859375-1.171875-1.222656l.15625-.234375c1.214844.46875 1.980469.675781 2.289063.628906l3.953125-.660156c-.308594-.574219-.5625-1.300781-.777344-2.214844-.175781-.769531-.359375-1.546875-.535156-2.328125-.027344-.253906-.058594-.488281-.101563-.710937-.035156-.21875-.210937-.46875-.519531-.75-.128906-.105469-.515625-.367188-1.167969-.78125-.457031-.28125-.789062-.601563-.96875-.929688l.15625-.269531c.933594.488281 1.761719.738281 2.480469.738281 1.1875 0 2.40625-.144531 3.644531-.425781v-3.261719c0-.15625-.164062-.40625-.503906-.757812-.332031-.34375-.605469-.570313-.816406-.671875l.082031-.277344h.34375c.339844 0 .871094.144531 1.59375.425781.824219.339844 1.246094.636719 1.246094.898438 0 .019531-.101563.15625-.277344.40625-.1875.242187-.28125.421875-.3125.523437-.074219.308594-.113281.929688-.113281 1.859375 0 .515625.039062.773438.113281.773438 1.035156 0 1.988281-.136719 2.875-.40625.875-.265625 1.203125-.40625 1.003906-.40625.328125 0 .820313.113281 1.449219.347656.636719.234375.949219.480469.949219.738281 0 .074219-.125.136719-.386719.195313-.515625.148437-1.199219.265625-2.050781.34375-.699219.050781-1.390625.109375-2.09375.15625 1.648437 1.003906 2.476562 1.625 2.476562 1.859375 0 .054687-.101562.160156-.300781.328125-.214844.171875-.339844.265625-.394531.289062-.460938.828125-1.210938 2.03125-2.25 3.609375 1.394531 0 2.585937-.082031 3.566406-.234375.105469 0 .292969-.039062.566406-.140625.273438-.085937.464844-.132812.59375-.132812.234375 0 .710938.175781 1.417969.523437.707031.355469 1.074219.625 1.074219.835938zm-2.449219 4.257812c0 .03125-.105469.132813-.332031.3125-.214844.183594-.339844.308594-.359375.390625-.261719.570313-.511719 1.367188-.746094 2.40625-.152344.824219-.316406 1.636719-.496094 2.4375.28125.074219.429688.277344.429688.585938v.148437c-.1875.210938-.679688.3125-1.476563.3125-.546875 0-1.085937 0-1.632812 0-2.449219.074219-4.179688.246094-5.195313.5-.097656.03125-.191406.179688-.265625.453125-.082031.265625-.207031.402344-.382812.402344-.445313 0-.808594-1.058594-1.089844-3.171875-.1875-1.324219-.355469-2.640625-.511719-3.953125-.125-.421875-.429687-.765625-.921875-1.046875l.152344-.3125c.152344 0 .46875.046875.925781.136719.464844.085937.820313.132812 1.046875.132812 1.527344 0 3.90625-.296875 7.132813-.890625.128906 0 .390625-.070312.757812-.210937.375-.140625.589844-.214844.636719-.214844.160156 0 .589844.230469 1.28125.699219.699219.46875 1.046875.753906 1.046875.882812zm-3.722656-9.453125c0-.125-.402344-.707031-1.199219-1.742187-1.753906.054687-3.746094.3125-5.964844.78125 1.4375 2.1875 2.164063 3.617187 2.164063 4.296875 0 .210937-.0625.722656-.195313 1.546875h.277344c.621094 0 1.707031-.179688 3.25-.539063.027344 0 .082031-.082031.15625-.234375.128906-.257812.417969-.972656.855469-2.148437.441406-1.179688.65625-1.828125.65625-1.960938zm1.515625 9.964844c-.132813-.308594-.296875-.574219-.507813-.777344l-7.941406 1.007813.542969 5.273437h.96875l6.082031-.546875zm0 0"/></svg>