<svg height="40" viewBox="0 0 40 40" width="40" xmlns="http://www.w3.org/2000/svg"><path d="m29.09375 30.253906c0 .28125-.199219.421875-.578125.421875.183594 0-.175781-.046875-1.0625-.148437-.769531-.078125-1.613281-.121094-2.527344-.121094-1.019531 0-2.535156.121094-4.5625.347656-2.03125.230469-3.535156.34375-4.53125.34375-.070312.53125-.132812 1.070313-.1875 1.605469-.101562.792969-.28125 1.183594-.535156 1.183594-.308594 0-.566406-.40625-.796875-1.226563-.207031-.660156-.3125-1.207031-.3125-1.640625 0-.050781.09375-.285156.285156-.707031.195313-.421875.289063-.667969.289063-.738281v-13.980469c0-.105469-.046875-.464844-.152344-1.074219-.511719.695313-1.03125 1.375-1.5625 2.0625-.613281.761719-1.214844 1.375-1.800781 1.835938l-.152344-.195313c.921875-1.046875 1.808594-2.335937 2.671875-3.894531.4375-.761719.984375-1.910156 1.644531-3.433594.792969-1.785156 1.183594-2.90625 1.183594-3.363281 0-.332031-.34375-.714844-1.03125-1.144531v-.273438h.269531c.402344 0 1 .179688 1.777344.539063.777344.351562 1.167969.703125 1.167969 1.03125 0 .125-.121094.332031-.351563.609375-.300781.332031-.46875.519531-.492187.570312-.183594.28125-.652344 1.109375-1.414063 2.484375-.816406 1.449219-1.222656 2.21875-1.222656 2.292969 0 .152344.097656.308594.285156.457031.195313.152344.375.230469.558594.230469.359375 0 1.832031-.183594 4.425781-.535156.152344-.199219.542969-.996094 1.167969-2.367188.621094-1.375.9375-2.128906.9375-2.253906 0-.152344-.125-.324219-.378906-.515625-.257813-.191406-.484375-.308594-.695313-.363281v-.261719h.304688c.359375 0 .9375.109375 1.722656.339844.886719.253906 1.339844.492187 1.339844.722656l-3.59375 4.503906c.023437.03125.0625.042969.117187.042969 1.273438 0 2.554688-.175781 3.855469-.53125.074219-.027344.234375-.097656.464844-.214844.21875-.113281.378906-.164062.453125-.164062.28125 0 .71875.078125 1.3125.242187.601562.167969.898437.351563.898437.554688 0 .128906-.132812.234375-.414062.300781-.585938.183594-1.683594.332031-3.28125.464844-2.273438.171875-3.433594.273437-3.484375.304687.078125.074219.367187.289063.878906.648438.410156.304687.609375.578125.609375.796875 0 .207031-.035156.5-.109375.882812-.078125.382813-.121094.667969-.121094.839844 0 0 .015625.214844.042969.652344.152344-.027344.503906-.167969 1.066406-.421875.484375-.203125.78125-.308594.882813-.308594.300781 0 .644531.058594 1.035156.15625.480469.128906.71875.300781.71875.53125 0 .332031-.652344.589844-1.941406.765625-1.304688.183594-1.953125.316406-1.953125.417969l.148437.160156-.148437 3.355469c.046875.023437.125.039062.226562.039062.335938 0 .804688-.101562 1.414063-.304687.613281-.199219.984375-.304688 1.113281-.304688.277344 0 .605469.070313.96875.203125.371094.148438.550781.328125.550781.558594 0 .308594-.617187.527344-1.867187.652344-.789063.078125-1.578125.140625-2.367188.1875l-.148437 5.46875c0 .023437.046875.03125.148437.03125.25 0 .914063-.0625 1.984375-.203125 1.070313-.148438 1.699219-.25 1.871094-.328125.53125-.183594.730469-.273438.574219-.273438.285156 0 .753906.183594 1.410156.542969.667969.359375 1 .660156 1 .910156zm-8.105469-11.644531v-2.253906c0-.210938-.109375-.53125-.320312-.996094-.214844-.457031-.414063-.671875-.589844-.644531l-4.285156.53125v.6875c0 .128906.035156.316406.082031.570312.046875.257813.078125.445313.078125.574219v1.796875c.640625.199219 1.0625.28125 1.253906.234375zm0 4.699219v-3.699219l-3.703125.484375c-.148437.03125-.59375-.097656-1.332031-.375v3.738281c.707031.15625 1.199219.230469 1.472656.230469.859375 0 2.046875-.128906 3.5625-.378906zm0 6.457031v-5.46875l-3.472656.308594c-.308594.050781-.878906-.054688-1.722656-.308594v6zm0 0"/></svg>