<svg height="40" viewBox="0 0 40 40" width="40" xmlns="http://www.w3.org/2000/svg"><path d="m30.707031 14.265625c0 .308594-.742187.480469-2.238281.53125-.996094 0-2.003906 0-3.027344 0-.144531.769531-.304687 1.53125-.476562 2.28125-.328125 1.21875-.625 1.832031-.898438 1.832031-.078125 0-.191406-.046875-.359375-.144531-.160156-.105469-.285156-.152344-.382812-.152344-.308594 0-1.414063.21875-3.324219.671875v4.683594c2.722656-1.796875 4.082031-2.886719 4.082031-3.261719 0-.203125-.1875-.578125-.566406-1.117187.03125-.15625.09375-.226563.1875-.226563.328125 0 .933594.277344 1.816406.839844.886719.558594 1.339844.980469 1.371094 1.25l-6.746094 3.003906v3.964844c0 .199219.027344.503906.058594.917969.035156.414062.0625.71875.0625.921875 0 .289062-.167969.867187-.488281 1.71875-.328125.84375-.585938 1.273437-.789063 1.273437-.222656 0-.519531-.390625-.898437-1.160156-.355469-.328125-.835938-.636719-1.460938-.941406-.523437-.226563-1.046875-.460938-1.578125-.703125l.121094-.308594c1.363281.308594 2.269531.453125 2.6875.453125.53125 0 .796875-.222656.796875-.675781v-10.328125c-.03125-.027344-.078125-.042969-.15625-.042969-.296875 0-1.574219.417969-3.816406 1.238281-.625 0-1.433594-.578125-2.4375-1.726562l.117187-.257813c1.507813.375 2.246094.5625 2.226563.5625l4.066406-.9375v-2.773437c-.90625.125-2.644531.453125-5.230469.972656-.125.03125-.429687.125-.925781.300781-.480469.171875-.75.265625-.808594.265625-.570312 0-1.375-.597656-2.398437-1.796875l.144531-.265625c1.050781.421875 1.8125.617188 2.285156.5625l6.933594-1.007812v-2.8125c-.40625.023437-1.167969.1875-2.285156.492187-1.027344.246094-1.71875.371094-2.105469.371094-.371094 0-.875-.203125-1.515625-.597656-.628906-.402344-1.042969-.777344-1.214844-1.125l.296875-.152344c.601563.453125 1.234375.640625 1.914063.5625l4.910156-.519531v-2.171875c0-.179688-.230469-.464844-.675781-.867188-.453125-.394531-.804688-.671875-1.054688-.820312.152344-.203125.289063-.296875.414063-.296875.394531 0 1.035156.171875 1.914062.519531.96875.355469 1.453125.675781 1.453125.972656 0-.171875-.1875.5-.5625 2.023438l.078125.265625c.726563-.054688 1.777344-.1875 3.148438-.414063.078125-.019531.207031-.097656.394531-.222656s.300781-.1875.347656-.1875c.226563 0 .636719.15625 1.234375.464844.601563.3125.90625.550781.90625.734375 0 .046875-.0625.140625-.1875.28125-.125.132812-.203125.226562-.226562.273437-.023438.058594-.089844.398438-.210938 1.054688-.109375.644531-.160156 1.023437-.160156 1.117187 0 .054688.003906.117188.035156.1875.523438-.046875 1.183594-.15625 1.984375-.332031.027344-.027344.085938-.078125.1875-.171875.101563-.089844.1875-.125.257813-.125.28125 0 .804687.125 1.59375.390625.785156.261719 1.179687.496094 1.179687.6875zm-1.953125 15.238281c-.191406.125-.378906.1875-.554687.1875-1.324219-.875-2.375-1.554687-3.140625-2.054687-2.203125-1.445313-3.589844-2.261719-4.164063-2.433594l.15625-.300781c1.546875.425781 3.078125.847656 4.605469 1.273437 1.71875.601563 2.75 1.710938 3.097656 3.328125zm-12.722656-5.535156c-.199219.121094-.386719.183594-.566406.183594-.746094 0-1.585938-.261719-2.527344-.796875-.933594-.539063-1.605469-1.136719-2-1.78125.078125-.105469.167969-.152344.265625-.152344.046875 0 .550781.15625 1.515625.46875.957031.3125 1.605469.488281 1.933594.542969.210937.023437.507812.195312.875.519531.359375.328125.535156.597656.535156.828125 0 0-.003906.0625-.03125.1875zm1.199219 1.902344-4.386719 4.457031c-1.140625-.472656-1.863281-1.265625-2.167969-2.394531.074219-.070313.164063-.109375.261719-.109375.046875 0 .246094.09375.582031.28125.335938.1875.539063.28125.617188.28125.296875 0 1.175781-.460938 2.625-1.371094 1.441406-.910156 2.164062-1.359375 2.164062-1.359375.125 0 .226563.066406.304688.214844zm6.851562-14.414063c-.300781-.195312-.515625-.285156-.632812-.257812l-3.261719.445312c-.027344.226563-.042969.515625-.042969.867188v1.832031l3.671875-.410156c.078125-.554688.167969-1.375.265625-2.476563zm-.300781 3.527344c-.40625-.027344-.597656-.042969-.597656-.042969l-3.183594.476563v2.75l3.40625-.5625zm0 0"/></svg>