<svg height="40" viewBox="0 0 40 40" width="40" xmlns="http://www.w3.org/2000/svg"><path d="m26.84375 10.34375c-.203125.1875-1.160156.40625-2.855469.667969-2.15625.335937-3.253906.507812-3.28125.507812 0 1.726563 0 2.292969 0 1.726563-.03125.695312-.191406 1.25-.507812 1.640625h-.390625c-.261719-.296875-.414063-.792969-.464844-1.492188-.019531-.519531-.046875-1.050781-.078125-1.609375-.074219-.019531-.15625-.03125-.230469-.03125-.859375 0-1.800781.132813-2.84375.390625-.046875 0-.164062.042969-.347656.140625-.175781.089844-.308594.132813-.386719.132813-.257812 0-.703125-.246094-1.328125-.742188-.613281-.492187-.941406-.878906-.972656-1.140625l.125-.191406c.542969.550781 1.234375.816406 2.066406.816406 1.382813 0 2.699219-.132812 3.949219-.425781v-2.503906c0-.257813-.15625-.558594-.46875-.917969-.3125-.347656-.59375-.511719-.855469-.484375l.03125-.277344h.902344c.363281 0 .839844.132813 1.40625.398438.683594.285156 1.027344.566406 1.027344.851562 0-.023437-.109375.148438-.320313.511719-.210937.363281-.3125.78125-.3125 1.25v.863281c.027344.023438.09375.039063.199219.039063.542969 0 1.296875-.179688 2.265625-.527344.964844-.359375 1.441406-.527344 1.441406-.527344.242188 0 .636719.078125 1.199219.25.558594.171875.902344.335938 1.03125.484375zm2.34375 6.722656c-.339844.1875-.753906.304688-1.25.359375-.363281.046875-.84375.0625-1.441406.03125-.839844-.046875-1.304688-.070312-1.40625-.070312-.132813.597656-.25 1.191406-.359375 1.796875-.234375.914062-.496094 1.367187-.777344 1.367187-.238281 0-.347656-.363281-.347656-1.09375 0-.238281.003906-.570312.035156-1 .027344-.429687.050781-.722656.074219-.878906-.699219 0-3.023438.285156-6.960938.863281v.351563c0 .1875.015625.4375.042969.757812.027344.328125.042969.578125.042969.765625 0 .523438-.15625.78125-.476563.78125-.390625 0-.648437-.3125-.78125-.9375-.046875-.46875-.117187-.941406-.191406-1.410156l-2.191406.511719c-.625 0-1.339844-.453125-2.148438-1.371094l.199219-.269531c.699219.285156 1.339844.429687 1.90625.429687.472656 0 1.175781-.082031 2.113281-.234375.03125-.054687.039063-.125.039063-.195312 0-2.039063-.5-3.078125-1.527344-3.125l.125-.277344h.859375c.261719 0 .636719.144531 1.128906.441406.496094.304688.746094.574219.746094.808594v1.957031c0 .046875.042969.074219.113281.074219.058594 0 .746094-.089844 2.074219-.269531l4.925781-.667969c.15625-.550781.234375-1.046875.234375-1.484375 0-.15625-.144531-.421875-.425781-.78125-.285156-.363281-.519531-.574219-.707031-.628906.082031-.183594.171875-.273438.273437-.273438.476563 0 .976563.15625 1.527344.476563.652344.332031.972656.710937.972656 1.125 0 .128906-.144531.585937-.425781 1.375.019531.023437.089844.03125.191406.03125.214844 0 .523438-.0625.917969-.210938.40625-.144531.71875-.21875.921875-.21875.160156 0 .5.152344 1.035156.453125.539063.304688.839844.511719.917969.640625zm1.640625 15.015625c0 .734375-1.792969 1.101563-5.390625 1.101563-2.738281 0-4.097656-.640625-4.097656-1.917969v-6.574219c0-.148437-.167969-.453125-.476563-.898437-.316406-.4375-.550781-.667969-.707031-.667969-.363281 0-1.457031.199219-3.28125.59375.863281 1.042969 1.292969 1.691406 1.292969 1.949219 0 .519531-.71875 1.578125-2.152344 3.171875-1.332031 1.484375-2.308594 2.410156-2.933594 2.773437-1.351562.804688-2.617187 1.421875-3.789062 1.835938l-.121094-.429688c1.09375-.3125 2.574219-1.378906 4.417969-3.203125 1.957031-1.90625 2.929687-3.359375 2.929687-4.382812 0-.179688-.082031-.496094-.253906-.933594-.167969-.449219-.328125-.667969-.484375-.667969-.128906 0-.332031.042969-.609375.121094-.265625.074219-.46875.113281-.597656.113281-.429688 0-.898438-.207031-1.433594-.625-.535156-.410156-.941406-.84375-1.234375-1.289062l.234375-.117188c.660156.546875 1.527344.824219 2.625.824219.730469 0 2.203125-.15625 4.417969-.453125 2.21875-.300781 3.710937-.550781 4.492187-.765625.078125-.027344.28125-.121094.609375-.292969.324219-.160156.511719-.25.570313-.25.390625 0 .945312.125 1.679687.386719.828125.292969 1.25.5625 1.25.824219 0 .289062-.253906.429687-.753906.429687-1.972656 0-3.875.105469-5.691406.3125 1.082031.996094 1.640625 1.59375 1.640625 1.796875 0 .15625-.058594.390625-.167969.710938-.09375.304687-.152344.535156-.152344.660156-.128906.957031-.195312 2.144531-.195312 3.558594 0 1.125.234375 1.8125.695312 2.070312.261719.132813 1.015625.199219 2.261719.199219 1.0625 0 1.777344-.066406 2.136719-.199219.625-.207031 1.078125-.898437 1.363281-2.070312.074219-.339844.203125-1.226563.390625-2.664063h.265625v1.136719c0 1.300781.089844 2.191406.277344 2.65625 0 0 .160156.144531.488281.433594.324219.289062.484375.535156.484375.742187zm0 0"/></svg>