<svg height="40" viewBox="0 0 40 40" width="40" xmlns="http://www.w3.org/2000/svg"><path d="m29.425781 16.296875c-.394531 0-.988281.003906-1.78125.035156-.785156.023438-1.378906.027344-1.785156.027344-.214844 0-.347656-.019531-.421875-.0625-.28125-.097656-1.324219-1.050781-3.105469-2.859375-1.863281-1.839844-3.132812-2.921875-3.8125-3.25-.96875 1.296875-2.160156 2.574219-3.566406 3.847656-1.511719 1.367188-2.917969 2.375-4.238281 3.039063l-.140625-.179688c.800781-.679687 1.953125-1.726562 3.457031-3.144531.421875-.488281 1.011719-1.246094 1.765625-2.261719.894531-1.222656 1.34375-1.960937 1.34375-2.21875 0-.191406-.285156-.472656-.855469-.851562.074219-.089844.15625-.140625.25-.140625.214844 0 .703125.175781 1.46875.53125.761719.347656 1.148438.597656 1.148438.738281 0 .09375-.070313.214844-.214844.359375 2.519531 1.738281 4.203125 2.871094 5.050781 3.390625 1.953125 1.191406 3.765625 2.089844 5.4375 2.683594zm-.601562 15.183594-.101563.242187h-1.554687c-1.652344 0-2.683594-.140625-3.109375-.421875-.121094-.070312-.765625-.882812-1.9375-2.429687-.949219-1.226563-2.101563-2.53125-3.464844-3.929688-.375 1.539063-1.417969 2.976563-3.109375 4.3125-1.546875 1.199219-3.175781 1.992188-4.871094 2.367188l-.101562-.25c1.460937-.492188 2.90625-1.433594 4.34375-2.824219 1.554687-1.527344 2.398437-2.984375 2.535156-4.378906-.703125.09375-1.785156.226562-3.25.390625-.234375.398437-.40625.597656-.527344.597656-.394531 0-.722656-.652344-.988281-1.953125-.355469-1.671875-.53125-2.519531-.53125-2.542969-.09375-.207031-.371094-.457031-.84375-.734375.097656-.085937.1875-.140625.28125-.140625.191406 0 .484375.089844.886719.25.394531.167969.710937.25.957031.25 1.546875 0 3.035156-.128906 4.441406-.390625v-1.414062c0-.183594-.144531-.445313-.441406-.777344-.292969-.328125-.53125-.488281-.722656-.488281-.09375 0-.242188.015625-.4375.050781-.199219.035156-.351563.050781-.445313.050781-.398437 0-.789062-.132812-1.164062-.40625-.375-.269531-.726563-.535156-1.058594-.789062.046875-.121094.105469-.179688.175781-.179688 0 0 .183594.089844.542969.265625.371094.179688.667969.265625.90625.265625.328125 0 1.078125-.082031 2.246094-.25 1.160156-.160156 1.878906-.296875 2.164062-.390625.070313-.019531.214844-.101562.429688-.238281.207031-.152344.378906-.214844.523437-.214844.261719 0 .683594.09375 1.273438.277344.585937.191406.878906.378906.878906.566406 0 .117188-.375.234375-1.128906.351563-.898438.097656-2.21875.269531-3.992188.535156.328125.160156.664063.339844.992188.53125.5.277344.738281.488281.738281.628906 0 .074219-.035156.171875-.097656.296875-.074219.136719-.109375.226563-.109375.265625v.953125c.988281-.019531 2.304687-.140625 3.953125-.347656.070312-.027344.203125-.105469.382812-.246094.195313-.144531.324219-.210937.390625-.210937.148438 0 .539063.207031 1.167969.617187.636719.40625.953125.6875.953125.828125 0-.023437-.175781.152344-.527344.527344-.070312.074219-.28125.652344-.640625 1.730469-.300781.921875-.585937 1.378906-.84375 1.378906-.113281 0-.285156-.050781-.507812-.140625-.226563-.09375-.398438-.144531-.515625-.144531-.703125 0-2.046875.097656-4.027344.285156-.089844.214844-.140625.355469-.140625.425781.019531.042969.074219.089844.140625.140625.472656.328125 1.140625.84375 2.015625 1.554688 1.71875 1.523437 2.941406 2.566406 3.667969 3.101562 1.460937 1.0625 2.863281 1.792969 4.203125 2.195313zm-4.765625-10.765625v-.390625c-.046875-.03125-.140625-.058594-.28125-.089844-.136719-.035156-.226563-.058594-.25-.058594l-4.375.386719c0 .621094-.085938 1.515625-.246094 2.6875l4.699219-.316406c.304687-1.511719.453125-2.25.453125-2.21875zm-6.179688.738281v-.738281l-4.554687.347656.75 2.730469 3.59375-.359375c0-.140625.050781-.46875.140625-.992188.050781-.425781.070312-.753906.070312-.988281zm0 0"/></svg>