<svg height="40" viewBox="0 0 40 40" width="40" xmlns="http://www.w3.org/2000/svg"><path d="m27.859375 24.484375c0 .207031-.238281.316406-.730469.316406-.191406 0-.472656-.015625-.851562-.046875-.386719-.035156-.667969-.046875-.859375-.046875h-3.703125c-.960938 0-2.742188.246094-5.359375.730469-1.3125.230469-1.933594.347656-1.871094.347656-.464844 0-1.246094-.453125-2.34375-1.363281l.15625-.1875c.46875.1875 1.0625.375 1.777344.566406l2.566406-.347656v-8.527344h-.15625c-.128906 0-.324219.027344-.59375.0625-.261719.046875-.453125.070313-.582031.070313-.1875 0-.429688-.132813-.726563-.390625-.296875-.257813-.507812-.484375-.640625-.695313.070313-.082031.148438-.125.230469-.125-.027344 0 .121094.0625.425781.171875.3125.121094.574219.179688.792969.179688.191406 0 .597656-.03125 1.21875-.09375.019531-.167969.03125-.371094.03125-.605469 0-1.011719-.027344-1.675781-.0625-1.996094-.136719-.800781-.425781-1.351562-.890625-1.648437.082031-.148438.175781-.21875.292969-.21875.25 0 .632812.160156 1.171875.488281.523437.328125.785156.621094.785156.875 0 .078125-.035156.214844-.109375.394531-.074219.179688-.113281.308594-.113281.398438v2.023437l4.535156-.472656v-3.644531c0-.105469-.113281-.324219-.347656-.648438-.234375-.328125-.402344-.523437-.507813-.59375.085938-.101562.167969-.15625.25-.15625.230469 0 .679688.195313 1.328125.574219.664063.378906.992188.675781.992188.886719-.382813.65625-.574219 1.785156-.574219 3.390625.019531.019531.074219.035156.15625.035156.277344 0 .597656-.089844.984375-.253906.378906-.167969.574219-.257813.574219-.257813.226562 0 .613281.109375 1.15625.320313.535156.210937.800781.394531.800781.566406 0 .207031-.503906.332031-1.519531.378906-.699219.023438-1.402344.042969-2.121094.0625 0 .105469-.015625.964844-.0625 2.59375-.042969 1.371094-.109375 3.445313-.191406 6.21875.066406.023438.128906.03125.191406.03125.675781 0 1.171875-.03125 1.484375-.082031.066406-.019531.1875-.078125.347656-.167969.171875-.082031.292969-.128906.351563-.128906.210937 0 .65625.128906 1.316406.394531.667969.265625 1 .476563 1 .621094zm-.886719 5.640625c0 .378906-.191406.574219-.570312.574219-.296875 0-.515625-.105469-.667969-.304688-.144531-.203125-.390625-.515625-.730469-.9375-1.242187-1.535156-2.453125-2.578125-3.609375-3.101562l.125-.21875c.296875.101562.730469.265625 1.296875.472656 2.773438 1.015625 4.15625 2.1875 4.15625 3.515625zm-8.269531-2.972656c0 .226562-.90625.796875-2.722656 1.703125-1.695313.867187-2.792969 1.363281-3.304688 1.492187l-.0625-.222656c1.433594-.886719 2.199219-1.359375 2.28125-1.425781.808594-.546875 1.484375-1.148438 2.03125-1.804688-.441406-.335937-.664062-.5625-.664062-.664062 0-.089844.039062-.152344.125-.195313 1.539062.421875 2.316406.792969 2.316406 1.117188zm3.546875-9.609375v-2.46875l-4.535156.570312v2.53125zm0 3.023437v-2.253906l-4.535156.699219v2.109375zm0 3.320313v-2.511719c-.359375.015625-.535156.019531-.535156.019531l-4 .558594v2.339844zm0 0"/></svg>